<?xml version="1.0" encoding="utf-8" standalone="no"?>
<!DOCTYPE svg PUBLIC "-//W3C//DTD SVG 1.1//EN"
  "http://www.w3.org/Graphics/SVG/1.1/DTD/svg11.dtd">
<svg xmlns:xlink="http://www.w3.org/1999/xlink" width="554.446172pt" height="327.292601pt" viewBox="0 0 554.446172 327.292601" xmlns="http://www.w3.org/2000/svg" version="1.1">
 <metadata>
  <rdf:RDF xmlns:dc="http://purl.org/dc/elements/1.1/" xmlns:cc="http://creativecommons.org/ns#" xmlns:rdf="http://www.w3.org/1999/02/22-rdf-syntax-ns#">
   <cc:Work>
    <dc:type rdf:resource="http://purl.org/dc/dcmitype/StillImage"/>
    <dc:date>2026-06-28T12:57:46.821032</dc:date>
    <dc:format>image/svg+xml</dc:format>
    <dc:creator>
     <cc:Agent>
      <dc:title>Matplotlib v3.10.9, https://matplotlib.org/</dc:title>
     </cc:Agent>
    </dc:creator>
   </cc:Work>
  </rdf:RDF>
 </metadata>
 <defs>
  <style type="text/css">*{stroke-linejoin: round; stroke-linecap: butt}</style>
 </defs>
 <g id="figure_1">
  <g id="patch_1">
   <path d="M 0 327.292601 
L 554.446172 327.292601 
L 554.446172 0 
L 0 0 
z
" style="fill: #ffffff"/>
  </g>
  <g id="axes_1">
   <g id="patch_2">
    <path d="M 45.046172 302.819085 
L 250.058197 302.819085 
L 250.058197 36.707085 
L 45.046172 36.707085 
z
" style="fill: #ffffff"/>
   </g>
   <g id="matplotlib.axis_1">
    <g id="xtick_1">
     <g id="text_1">
      <text style="font-size: 8.5px; font-family: 'Arial', 'Helvetica', 'DejaVu Sans', 'Liberation Sans', sans-serif; text-anchor: middle; fill: #262626" x="96.299178" y="318.403226" transform="rotate(-0 96.299178 318.403226)">Paper Ac</text>
     </g>
    </g>
    <g id="xtick_2">
     <g id="text_2">
      <text style="font-size: 8.5px; font-family: 'Arial', 'Helvetica', 'DejaVu Sans', 'Liberation Sans', sans-serif; text-anchor: middle; fill: #262626" x="198.805191" y="318.403226" transform="rotate(-0 198.805191 318.403226)">Run Ac</text>
     </g>
    </g>
   </g>
   <g id="matplotlib.axis_2">
    <g id="ytick_1">
     <g id="text_3">
      <text style="font-size: 8.5px; font-family: 'Arial', 'Helvetica', 'DejaVu Sans', 'Liberation Sans', sans-serif; text-anchor: end; fill: #262626" x="35.546172" y="57.912468" transform="rotate(-0 35.546172 57.912468)">basSQI</text>
     </g>
    </g>
    <g id="ytick_2">
     <g id="text_4">
      <text style="font-size: 8.5px; font-family: 'Arial', 'Helvetica', 'DejaVu Sans', 'Liberation Sans', sans-serif; text-anchor: end; fill: #262626" x="35.546172" y="95.928468" transform="rotate(-0 35.546172 95.928468)">kSQI</text>
     </g>
    </g>
    <g id="ytick_3">
     <g id="text_5">
      <text style="font-size: 8.5px; font-family: 'Arial', 'Helvetica', 'DejaVu Sans', 'Liberation Sans', sans-serif; text-anchor: end; fill: #262626" x="35.546172" y="133.944468" transform="rotate(-0 35.546172 133.944468)">bSQI</text>
     </g>
    </g>
    <g id="ytick_4">
     <g id="text_6">
      <text style="font-size: 8.5px; font-family: 'Arial', 'Helvetica', 'DejaVu Sans', 'Liberation Sans', sans-serif; text-anchor: end; fill: #262626" x="35.546172" y="171.960468" transform="rotate(-0 35.546172 171.960468)">sSQI</text>
     </g>
    </g>
    <g id="ytick_5">
     <g id="text_7">
      <text style="font-size: 8.5px; font-family: 'Arial', 'Helvetica', 'DejaVu Sans', 'Liberation Sans', sans-serif; text-anchor: end; fill: #262626" x="35.546172" y="209.976468" transform="rotate(-0 35.546172 209.976468)">iSQI</text>
     </g>
    </g>
    <g id="ytick_6">
     <g id="text_8">
      <text style="font-size: 8.5px; font-family: 'Arial', 'Helvetica', 'DejaVu Sans', 'Liberation Sans', sans-serif; text-anchor: end; fill: #262626" x="35.546172" y="247.992468" transform="rotate(-0 35.546172 247.992468)">fSQI</text>
     </g>
    </g>
    <g id="ytick_7">
     <g id="text_9">
      <text style="font-size: 8.5px; font-family: 'Arial', 'Helvetica', 'DejaVu Sans', 'Liberation Sans', sans-serif; text-anchor: end; fill: #262626" x="35.546172" y="286.062921" transform="rotate(-0 35.546172 286.062921)">pSQI</text>
     </g>
    </g>
   </g>
   <g id="QuadMesh_1">
    <path d="M 45.046172 36.707085 
L 147.552185 36.707085 
L 147.552185 74.723085 
L 45.046172 74.723085 
L 45.046172 36.707085 
" clip-path="url(#p00ab6a24c5)" style="fill: #28609e; stroke: #ffffff; stroke-width: 0.7"/>
    <path d="M 147.552185 36.707085 
L 250.058197 36.707085 
L 250.058197 74.723085 
L 147.552185 74.723085 
L 147.552185 36.707085 
" clip-path="url(#p00ab6a24c5)" style="fill: #5b87b7; stroke: #ffffff; stroke-width: 0.7"/>
    <path d="M 45.046172 74.723085 
L 147.552185 74.723085 
L 147.552185 112.739085 
L 45.046172 112.739085 
L 45.046172 74.723085 
" clip-path="url(#p00ab6a24c5)" style="fill: #3066a2; stroke: #ffffff; stroke-width: 0.7"/>
    <path d="M 147.552185 74.723085 
L 250.058197 74.723085 
L 250.058197 112.739085 
L 147.552185 112.739085 
L 147.552185 74.723085 
" clip-path="url(#p00ab6a24c5)" style="fill: #3d70a9; stroke: #ffffff; stroke-width: 0.7"/>
    <path d="M 45.046172 112.739085 
L 147.552185 112.739085 
L 147.552185 150.755085 
L 45.046172 150.755085 
L 45.046172 112.739085 
" clip-path="url(#p00ab6a24c5)" style="fill: #4072aa; stroke: #ffffff; stroke-width: 0.7"/>
    <path d="M 147.552185 112.739085 
L 250.058197 112.739085 
L 250.058197 150.755085 
L 147.552185 150.755085 
L 147.552185 112.739085 
" clip-path="url(#p00ab6a24c5)" style="fill: #638dbb; stroke: #ffffff; stroke-width: 0.7"/>
    <path d="M 45.046172 150.755085 
L 147.552185 150.755085 
L 147.552185 188.771085 
L 45.046172 188.771085 
L 45.046172 150.755085 
" clip-path="url(#p00ab6a24c5)" style="fill: #4375ac; stroke: #ffffff; stroke-width: 0.7"/>
    <path d="M 147.552185 150.755085 
L 250.058197 150.755085 
L 250.058197 188.771085 
L 147.552185 188.771085 
L 147.552185 150.755085 
" clip-path="url(#p00ab6a24c5)" style="fill: #4d7cb0; stroke: #ffffff; stroke-width: 0.7"/>
    <path d="M 45.046172 188.771085 
L 147.552185 188.771085 
L 147.552185 226.787085 
L 45.046172 226.787085 
L 45.046172 188.771085 
" clip-path="url(#p00ab6a24c5)" style="fill: #a7c1dd; stroke: #ffffff; stroke-width: 0.7"/>
    <path d="M 147.552185 188.771085 
L 250.058197 188.771085 
L 250.058197 226.787085 
L 147.552185 226.787085 
L 147.552185 188.771085 
" clip-path="url(#p00ab6a24c5)" style="fill: #a2bdda; stroke: #ffffff; stroke-width: 0.7"/>
    <path d="M 45.046172 226.787085 
L 147.552185 226.787085 
L 147.552185 264.803085 
L 45.046172 264.803085 
L 45.046172 226.787085 
" clip-path="url(#p00ab6a24c5)" style="fill: #deeaf6; stroke: #ffffff; stroke-width: 0.7"/>
    <path d="M 147.552185 226.787085 
L 250.058197 226.787085 
L 250.058197 264.803085 
L 147.552185 264.803085 
L 147.552185 226.787085 
" clip-path="url(#p00ab6a24c5)" style="fill: #fafcfe; stroke: #ffffff; stroke-width: 0.7"/>
    <path d="M 45.046172 264.803085 
L 147.552185 264.803085 
L 147.552185 302.819085 
L 45.046172 302.819085 
L 45.046172 264.803085 
" clip-path="url(#p00ab6a24c5)" style="fill: #dfebf7; stroke: #ffffff; stroke-width: 0.7"/>
    <path d="M 147.552185 264.803085 
L 250.058197 264.803085 
L 250.058197 302.819085 
L 147.552185 302.819085 
L 147.552185 264.803085 
" clip-path="url(#p00ab6a24c5)" style="fill: #ebf2fa; stroke: #ffffff; stroke-width: 0.7"/>
   </g>
   <g id="patch_3">
    <path d="M 45.046172 226.787085 
L 250.058197 226.787085 
L 250.058197 264.803085 
L 45.046172 264.803085 
L 45.046172 226.787085 
z
" style="fill: none; stroke: #b64342; stroke-width: 1.2; stroke-linejoin: miter"/>
   </g>
   <g id="text_10">
    <text style="font-weight: 700; font-size: 9px; font-family: 'Arial', 'Helvetica', 'DejaVu Sans', 'Liberation Sans', sans-serif; text-anchor: start; fill: #272727" x="29.67027" y="13.642031" transform="rotate(-0 29.67027 13.642031)">a</text>
   </g>
   <g id="text_11">
    <text style="font-size: 8.2px; font-family: 'Arial', 'Helvetica', 'DejaVu Sans', 'Liberation Sans', sans-serif; text-anchor: middle; fill: #ffffff" x="96.299178" y="57.834913" transform="rotate(-0 96.299178 57.834913)">93.3</text>
   </g>
   <g id="text_12">
    <text style="font-size: 8.2px; font-family: 'Arial', 'Helvetica', 'DejaVu Sans', 'Liberation Sans', sans-serif; text-anchor: middle; fill: #272727" x="198.805191" y="57.834913" transform="rotate(-0 198.805191 57.834913)">88.3</text>
   </g>
   <g id="text_13">
    <text style="font-size: 8.2px; font-family: 'Arial', 'Helvetica', 'DejaVu Sans', 'Liberation Sans', sans-serif; text-anchor: middle; fill: #ffffff" x="96.299178" y="95.850913" transform="rotate(-0 96.299178 95.850913)">92.5</text>
   </g>
   <g id="text_14">
    <text style="font-size: 8.2px; font-family: 'Arial', 'Helvetica', 'DejaVu Sans', 'Liberation Sans', sans-serif; text-anchor: middle; fill: #ffffff" x="198.805191" y="95.850913" transform="rotate(-0 198.805191 95.850913)">91.3</text>
   </g>
   <g id="text_15">
    <text style="font-size: 8.2px; font-family: 'Arial', 'Helvetica', 'DejaVu Sans', 'Liberation Sans', sans-serif; text-anchor: middle; fill: #ffffff" x="96.299178" y="133.866913" transform="rotate(-0 96.299178 133.866913)">90.9</text>
   </g>
   <g id="text_16">
    <text style="font-size: 8.2px; font-family: 'Arial', 'Helvetica', 'DejaVu Sans', 'Liberation Sans', sans-serif; text-anchor: middle; fill: #272727" x="198.805191" y="133.866913" transform="rotate(-0 198.805191 133.866913)">87.4</text>
   </g>
   <g id="text_17">
    <text style="font-size: 8.2px; font-family: 'Arial', 'Helvetica', 'DejaVu Sans', 'Liberation Sans', sans-serif; text-anchor: middle; fill: #272727" x="96.299178" y="171.882913" transform="rotate(-0 96.299178 171.882913)">90.6</text>
   </g>
   <g id="text_18">
    <text style="font-size: 8.2px; font-family: 'Arial', 'Helvetica', 'DejaVu Sans', 'Liberation Sans', sans-serif; text-anchor: middle; fill: #272727" x="198.805191" y="171.882913" transform="rotate(-0 198.805191 171.882913)">89.6</text>
   </g>
   <g id="text_19">
    <text style="font-size: 8.2px; font-family: 'Arial', 'Helvetica', 'DejaVu Sans', 'Liberation Sans', sans-serif; text-anchor: middle; fill: #272727" x="96.299178" y="209.898913" transform="rotate(-0 96.299178 209.898913)">80.5</text>
   </g>
   <g id="text_20">
    <text style="font-size: 8.2px; font-family: 'Arial', 'Helvetica', 'DejaVu Sans', 'Liberation Sans', sans-serif; text-anchor: middle; fill: #272727" x="198.805191" y="209.898913" transform="rotate(-0 198.805191 209.898913)">81.0</text>
   </g>
   <g id="text_21">
    <text style="font-size: 8.2px; font-family: 'Arial', 'Helvetica', 'DejaVu Sans', 'Liberation Sans', sans-serif; text-anchor: middle; fill: #272727" x="96.299178" y="247.914913" transform="rotate(-0 96.299178 247.914913)">73.0</text>
   </g>
   <g id="text_22">
    <text style="font-size: 8.2px; font-family: 'Arial', 'Helvetica', 'DejaVu Sans', 'Liberation Sans', sans-serif; text-anchor: middle; fill: #272727" x="198.805191" y="247.914913" transform="rotate(-0 198.805191 247.914913)">58.0</text>
   </g>
   <g id="text_23">
    <text style="font-size: 8.2px; font-family: 'Arial', 'Helvetica', 'DejaVu Sans', 'Liberation Sans', sans-serif; text-anchor: middle; fill: #272727" x="96.299178" y="285.930913" transform="rotate(-0 96.299178 285.930913)">72.3</text>
   </g>
   <g id="text_24">
    <text style="font-size: 8.2px; font-family: 'Arial', 'Helvetica', 'DejaVu Sans', 'Liberation Sans', sans-serif; text-anchor: middle; fill: #272727" x="198.805191" y="285.930913" transform="rotate(-0 198.805191 285.930913)">65.8</text>
   </g>
   <g id="text_25">
    <text style="font-size: 8.8px; font-family: 'Arial', 'Helvetica', 'DejaVu Sans', 'Liberation Sans', sans-serif; text-anchor: start; fill: #272727" x="45.046172" y="22.87992" transform="rotate(-0 45.046172 22.87992)">accuracy (%)</text>
   </g>
  </g>
  <g id="axes_2">
   <g id="patch_4">
    <path d="M 262.772121 302.819085 
L 377.197438 302.819085 
L 377.197438 36.707085 
L 262.772121 36.707085 
z
" style="fill: #ffffff"/>
   </g>
   <g id="matplotlib.axis_3">
    <g id="xtick_3">
     <g id="text_26">
      <text style="font-size: 8.5px; font-family: 'Arial', 'Helvetica', 'DejaVu Sans', 'Liberation Sans', sans-serif; text-anchor: middle; fill: #262626" x="319.984779" y="318.403226" transform="rotate(-0 319.984779 318.403226)">Run-Paper Ac</text>
     </g>
    </g>
   </g>
   <g id="matplotlib.axis_4">
    <g id="ytick_8"/>
    <g id="ytick_9"/>
    <g id="ytick_10"/>
    <g id="ytick_11"/>
    <g id="ytick_12"/>
    <g id="ytick_13"/>
    <g id="ytick_14"/>
   </g>
   <g id="QuadMesh_2">
    <path d="M 262.772121 36.707085 
L 377.197438 36.707085 
L 377.197438 74.723085 
L 262.772121 74.723085 
L 262.772121 36.707085 
" clip-path="url(#pa72557ff02)" style="fill: #ebcbca; stroke: #ffffff; stroke-width: 0.7"/>
    <path d="M 262.772121 74.723085 
L 377.197438 74.723085 
L 377.197438 112.739085 
L 262.772121 112.739085 
L 262.772121 74.723085 
" clip-path="url(#pa72557ff02)" style="fill: #faf2f2; stroke: #ffffff; stroke-width: 0.7"/>
    <path d="M 262.772121 112.739085 
L 377.197438 112.739085 
L 377.197438 150.755085 
L 262.772121 150.755085 
L 262.772121 112.739085 
" clip-path="url(#pa72557ff02)" style="fill: #f1dbdb; stroke: #ffffff; stroke-width: 0.7"/>
    <path d="M 262.772121 150.755085 
L 377.197438 150.755085 
L 377.197438 188.771085 
L 262.772121 188.771085 
L 262.772121 150.755085 
" clip-path="url(#pa72557ff02)" style="fill: #fbf5f5; stroke: #ffffff; stroke-width: 0.7"/>
    <path d="M 262.772121 188.771085 
L 377.197438 188.771085 
L 377.197438 226.787085 
L 262.772121 226.787085 
L 262.772121 188.771085 
" clip-path="url(#pa72557ff02)" style="fill: #f8fafc; stroke: #ffffff; stroke-width: 0.7"/>
    <path d="M 262.772121 226.787085 
L 377.197438 226.787085 
L 377.197438 264.803085 
L 262.772121 264.803085 
L 262.772121 226.787085 
" clip-path="url(#pa72557ff02)" style="fill: #c26261; stroke: #ffffff; stroke-width: 0.7"/>
    <path d="M 262.772121 264.803085 
L 377.197438 264.803085 
L 377.197438 302.819085 
L 262.772121 302.819085 
L 262.772121 264.803085 
" clip-path="url(#pa72557ff02)" style="fill: #e4baba; stroke: #ffffff; stroke-width: 0.7"/>
   </g>
   <g id="patch_5">
    <path d="M 262.772121 226.787085 
L 377.197438 226.787085 
L 377.197438 264.803085 
L 262.772121 264.803085 
L 262.772121 226.787085 
z
" style="fill: none; stroke: #b64342; stroke-width: 1.2; stroke-linejoin: miter"/>
   </g>
   <g id="text_27">
    <text style="font-weight: 700; font-size: 9px; font-family: 'Arial', 'Helvetica', 'DejaVu Sans', 'Liberation Sans', sans-serif; text-anchor: start; fill: #272727" x="254.190223" y="13.642031" transform="rotate(-0 254.190223 13.642031)">b</text>
   </g>
   <g id="text_28">
    <text style="font-size: 8.2px; font-family: 'Arial', 'Helvetica', 'DejaVu Sans', 'Liberation Sans', sans-serif; text-anchor: middle; fill: #272727" x="319.984779" y="57.834913" transform="rotate(-0 319.984779 57.834913)">-5.0</text>
   </g>
   <g id="text_29">
    <text style="font-size: 8.2px; font-family: 'Arial', 'Helvetica', 'DejaVu Sans', 'Liberation Sans', sans-serif; text-anchor: middle; fill: #272727" x="319.984779" y="95.850913" transform="rotate(-0 319.984779 95.850913)">-1.2</text>
   </g>
   <g id="text_30">
    <text style="font-size: 8.2px; font-family: 'Arial', 'Helvetica', 'DejaVu Sans', 'Liberation Sans', sans-serif; text-anchor: middle; fill: #272727" x="319.984779" y="133.866913" transform="rotate(-0 319.984779 133.866913)">-3.5</text>
   </g>
   <g id="text_31">
    <text style="font-size: 8.2px; font-family: 'Arial', 'Helvetica', 'DejaVu Sans', 'Liberation Sans', sans-serif; text-anchor: middle; fill: #272727" x="319.984779" y="171.882913" transform="rotate(-0 319.984779 171.882913)">-1.0</text>
   </g>
   <g id="text_32">
    <text style="font-size: 8.2px; font-family: 'Arial', 'Helvetica', 'DejaVu Sans', 'Liberation Sans', sans-serif; text-anchor: middle; fill: #272727" x="319.984779" y="209.898913" transform="rotate(-0 319.984779 209.898913)">+0.5</text>
   </g>
   <g id="text_33">
    <text style="font-size: 8.2px; font-family: 'Arial', 'Helvetica', 'DejaVu Sans', 'Liberation Sans', sans-serif; text-anchor: middle; fill: #272727" x="319.984779" y="247.914913" transform="rotate(-0 319.984779 247.914913)">-15.0</text>
   </g>
   <g id="text_34">
    <text style="font-size: 8.2px; font-family: 'Arial', 'Helvetica', 'DejaVu Sans', 'Liberation Sans', sans-serif; text-anchor: middle; fill: #272727" x="319.984779" y="285.930913" transform="rotate(-0 319.984779 285.930913)">-6.5</text>
   </g>
   <g id="text_35">
    <text style="font-size: 8.8px; font-family: 'Arial', 'Helvetica', 'DejaVu Sans', 'Liberation Sans', sans-serif; text-anchor: start; fill: #272727" x="262.772121" y="22.87992" transform="rotate(-0 262.772121 22.87992)">accuracy delta (pp)</text>
   </g>
  </g>
  <g id="axes_3">
   <g id="patch_6">
    <path d="M 389.911362 302.819085 
L 547.246172 302.819085 
L 547.246172 36.707085 
L 389.911362 36.707085 
z
" style="fill: #ffffff"/>
   </g>
   <g id="matplotlib.axis_5">
    <g id="xtick_4">
     <g id="text_36">
      <text style="font-size: 8.5px; font-family: 'Arial', 'Helvetica', 'DejaVu Sans', 'Liberation Sans', sans-serif; text-anchor: middle; fill: #262626" x="429.245064" y="318.403226" transform="rotate(-0 429.245064 318.403226)">Paper rank</text>
     </g>
    </g>
    <g id="xtick_5">
     <g id="text_37">
      <text style="font-size: 8.5px; font-family: 'Arial', 'Helvetica', 'DejaVu Sans', 'Liberation Sans', sans-serif; text-anchor: middle; fill: #262626" x="507.912469" y="318.403226" transform="rotate(-0 507.912469 318.403226)">Run rank</text>
     </g>
    </g>
   </g>
   <g id="matplotlib.axis_6">
    <g id="ytick_15"/>
    <g id="ytick_16"/>
    <g id="ytick_17"/>
    <g id="ytick_18"/>
    <g id="ytick_19"/>
    <g id="ytick_20"/>
    <g id="ytick_21"/>
   </g>
   <g id="QuadMesh_3">
    <path d="M 389.911362 36.707085 
L 468.578767 36.707085 
L 468.578767 74.723085 
L 389.911362 74.723085 
L 389.911362 36.707085 
" clip-path="url(#pf39eeef593)" style="fill: #f0f1f1; stroke: #ffffff; stroke-width: 0.7"/>
    <path d="M 468.578767 36.707085 
L 547.246172 36.707085 
L 547.246172 74.723085 
L 468.578767 74.723085 
L 468.578767 36.707085 
" clip-path="url(#pf39eeef593)" style="fill: #b8babd; stroke: #ffffff; stroke-width: 0.7"/>
    <path d="M 389.911362 74.723085 
L 468.578767 74.723085 
L 468.578767 112.739085 
L 389.911362 112.739085 
L 389.911362 74.723085 
" clip-path="url(#pf39eeef593)" style="fill: #d4d5d7; stroke: #ffffff; stroke-width: 0.7"/>
    <path d="M 468.578767 74.723085 
L 547.246172 74.723085 
L 547.246172 112.739085 
L 468.578767 112.739085 
L 468.578767 74.723085 
" clip-path="url(#pf39eeef593)" style="fill: #f0f1f1; stroke: #ffffff; stroke-width: 0.7"/>
    <path d="M 389.911362 112.739085 
L 468.578767 112.739085 
L 468.578767 150.755085 
L 389.911362 150.755085 
L 389.911362 112.739085 
" clip-path="url(#pf39eeef593)" style="fill: #b8babd; stroke: #ffffff; stroke-width: 0.7"/>
    <path d="M 468.578767 112.739085 
L 547.246172 112.739085 
L 547.246172 150.755085 
L 468.578767 150.755085 
L 468.578767 112.739085 
" clip-path="url(#pf39eeef593)" style="fill: #9b9ea3; stroke: #ffffff; stroke-width: 0.7"/>
    <path d="M 389.911362 150.755085 
L 468.578767 150.755085 
L 468.578767 188.771085 
L 389.911362 188.771085 
L 389.911362 150.755085 
" clip-path="url(#pf39eeef593)" style="fill: #9b9ea3; stroke: #ffffff; stroke-width: 0.7"/>
    <path d="M 468.578767 150.755085 
L 547.246172 150.755085 
L 547.246172 188.771085 
L 468.578767 188.771085 
L 468.578767 150.755085 
" clip-path="url(#pf39eeef593)" style="fill: #d4d5d7; stroke: #ffffff; stroke-width: 0.7"/>
    <path d="M 389.911362 188.771085 
L 468.578767 188.771085 
L 468.578767 226.787085 
L 389.911362 226.787085 
L 389.911362 188.771085 
" clip-path="url(#pf39eeef593)" style="fill: #7f8389; stroke: #ffffff; stroke-width: 0.7"/>
    <path d="M 468.578767 188.771085 
L 547.246172 188.771085 
L 547.246172 226.787085 
L 468.578767 226.787085 
L 468.578767 188.771085 
" clip-path="url(#pf39eeef593)" style="fill: #7f8389; stroke: #ffffff; stroke-width: 0.7"/>
    <path d="M 389.911362 226.787085 
L 468.578767 226.787085 
L 468.578767 264.803085 
L 389.911362 264.803085 
L 389.911362 226.787085 
" clip-path="url(#pf39eeef593)" style="fill: #62676f; stroke: #ffffff; stroke-width: 0.7"/>
    <path d="M 468.578767 226.787085 
L 547.246172 226.787085 
L 547.246172 264.803085 
L 468.578767 264.803085 
L 468.578767 226.787085 
" clip-path="url(#pf39eeef593)" style="fill: #464c55; stroke: #ffffff; stroke-width: 0.7"/>
    <path d="M 389.911362 264.803085 
L 468.578767 264.803085 
L 468.578767 302.819085 
L 389.911362 302.819085 
L 389.911362 264.803085 
" clip-path="url(#pf39eeef593)" style="fill: #464c55; stroke: #ffffff; stroke-width: 0.7"/>
    <path d="M 468.578767 264.803085 
L 547.246172 264.803085 
L 547.246172 302.819085 
L 468.578767 302.819085 
L 468.578767 264.803085 
" clip-path="url(#pf39eeef593)" style="fill: #62676f; stroke: #ffffff; stroke-width: 0.7"/>
   </g>
   <g id="patch_7">
    <path d="M 389.911362 226.787085 
L 547.246172 226.787085 
L 547.246172 264.803085 
L 389.911362 264.803085 
L 389.911362 226.787085 
z
" style="fill: none; stroke: #b64342; stroke-width: 1.2; stroke-linejoin: miter"/>
   </g>
   <g id="text_38">
    <text style="font-weight: 700; font-size: 9px; font-family: 'Arial', 'Helvetica', 'DejaVu Sans', 'Liberation Sans', sans-serif; text-anchor: start; fill: #272727" x="378.111251" y="13.642031" transform="rotate(-0 378.111251 13.642031)">c</text>
   </g>
   <g id="text_39">
    <text style="font-size: 8.2px; font-family: 'Arial', 'Helvetica', 'DejaVu Sans', 'Liberation Sans', sans-serif; text-anchor: middle; fill: #272727" x="429.245064" y="57.834913" transform="rotate(-0 429.245064 57.834913)">1</text>
   </g>
   <g id="text_40">
    <text style="font-size: 8.2px; font-family: 'Arial', 'Helvetica', 'DejaVu Sans', 'Liberation Sans', sans-serif; text-anchor: middle; fill: #272727" x="507.912469" y="57.834913" transform="rotate(-0 507.912469 57.834913)">3</text>
   </g>
   <g id="text_41">
    <text style="font-size: 8.2px; font-family: 'Arial', 'Helvetica', 'DejaVu Sans', 'Liberation Sans', sans-serif; text-anchor: middle; fill: #272727" x="429.245064" y="95.850913" transform="rotate(-0 429.245064 95.850913)">2</text>
   </g>
   <g id="text_42">
    <text style="font-size: 8.2px; font-family: 'Arial', 'Helvetica', 'DejaVu Sans', 'Liberation Sans', sans-serif; text-anchor: middle; fill: #272727" x="507.912469" y="95.850913" transform="rotate(-0 507.912469 95.850913)">1</text>
   </g>
   <g id="text_43">
    <text style="font-size: 8.2px; font-family: 'Arial', 'Helvetica', 'DejaVu Sans', 'Liberation Sans', sans-serif; text-anchor: middle; fill: #272727" x="429.245064" y="133.866913" transform="rotate(-0 429.245064 133.866913)">3</text>
   </g>
   <g id="text_44">
    <text style="font-size: 8.2px; font-family: 'Arial', 'Helvetica', 'DejaVu Sans', 'Liberation Sans', sans-serif; text-anchor: middle; fill: #272727" x="507.912469" y="133.866913" transform="rotate(-0 507.912469 133.866913)">4</text>
   </g>
   <g id="text_45">
    <text style="font-size: 8.2px; font-family: 'Arial', 'Helvetica', 'DejaVu Sans', 'Liberation Sans', sans-serif; text-anchor: middle; fill: #272727" x="429.245064" y="171.882913" transform="rotate(-0 429.245064 171.882913)">4</text>
   </g>
   <g id="text_46">
    <text style="font-size: 8.2px; font-family: 'Arial', 'Helvetica', 'DejaVu Sans', 'Liberation Sans', sans-serif; text-anchor: middle; fill: #272727" x="507.912469" y="171.882913" transform="rotate(-0 507.912469 171.882913)">2</text>
   </g>
   <g id="text_47">
    <text style="font-size: 8.2px; font-family: 'Arial', 'Helvetica', 'DejaVu Sans', 'Liberation Sans', sans-serif; text-anchor: middle; fill: #272727" x="429.245064" y="209.898913" transform="rotate(-0 429.245064 209.898913)">5</text>
   </g>
   <g id="text_48">
    <text style="font-size: 8.2px; font-family: 'Arial', 'Helvetica', 'DejaVu Sans', 'Liberation Sans', sans-serif; text-anchor: middle; fill: #272727" x="507.912469" y="209.898913" transform="rotate(-0 507.912469 209.898913)">5</text>
   </g>
   <g id="text_49">
    <text style="font-size: 8.2px; font-family: 'Arial', 'Helvetica', 'DejaVu Sans', 'Liberation Sans', sans-serif; text-anchor: middle; fill: #ffffff" x="429.245064" y="247.914913" transform="rotate(-0 429.245064 247.914913)">6</text>
   </g>
   <g id="text_50">
    <text style="font-size: 8.2px; font-family: 'Arial', 'Helvetica', 'DejaVu Sans', 'Liberation Sans', sans-serif; text-anchor: middle; fill: #ffffff" x="507.912469" y="247.914913" transform="rotate(-0 507.912469 247.914913)">7</text>
   </g>
   <g id="text_51">
    <text style="font-size: 8.2px; font-family: 'Arial', 'Helvetica', 'DejaVu Sans', 'Liberation Sans', sans-serif; text-anchor: middle; fill: #ffffff" x="429.245064" y="285.930913" transform="rotate(-0 429.245064 285.930913)">7</text>
   </g>
   <g id="text_52">
    <text style="font-size: 8.2px; font-family: 'Arial', 'Helvetica', 'DejaVu Sans', 'Liberation Sans', sans-serif; text-anchor: middle; fill: #ffffff" x="507.912469" y="285.930913" transform="rotate(-0 507.912469 285.930913)">6</text>
   </g>
   <g id="text_53">
    <text style="font-size: 8.8px; font-family: 'Arial', 'Helvetica', 'DejaVu Sans', 'Liberation Sans', sans-serif; text-anchor: start; fill: #272727" x="389.911362" y="22.87992" transform="rotate(-0 389.911362 22.87992)">rank (1 = best)</text>
   </g>
  </g>
 </g>
 <defs>
  <clipPath id="p00ab6a24c5">
   <rect x="45.046172" y="36.707085" width="205.012025" height="266.112"/>
  </clipPath>
  <clipPath id="pa72557ff02">
   <rect x="262.772121" y="36.707085" width="114.425316" height="266.112"/>
  </clipPath>
  <clipPath id="pf39eeef593">
   <rect x="389.911362" y="36.707085" width="157.33481" height="266.112"/>
  </clipPath>
 </defs>
</svg>
