<?xml version="1.0" encoding="utf-8" standalone="no"?>
<!DOCTYPE svg PUBLIC "-//W3C//DTD SVG 1.1//EN"
  "http://www.w3.org/Graphics/SVG/1.1/DTD/svg11.dtd">
<svg xmlns:xlink="http://www.w3.org/1999/xlink" width="554.984062pt" height="340.588692pt" viewBox="0 0 554.984062 340.588692" xmlns="http://www.w3.org/2000/svg" version="1.1">
 <metadata>
  <rdf:RDF xmlns:dc="http://purl.org/dc/elements/1.1/" xmlns:cc="http://creativecommons.org/ns#" xmlns:rdf="http://www.w3.org/1999/02/22-rdf-syntax-ns#">
   <cc:Work>
    <dc:type rdf:resource="http://purl.org/dc/dcmitype/StillImage"/>
    <dc:date>2026-06-19T23:08:26.901849</dc:date>
    <dc:format>image/svg+xml</dc:format>
    <dc:creator>
     <cc:Agent>
      <dc:title>Matplotlib v3.10.9, https://matplotlib.org/</dc:title>
     </cc:Agent>
    </dc:creator>
   </cc:Work>
  </rdf:RDF>
 </metadata>
 <defs>
  <style type="text/css">*{stroke-linejoin: round; stroke-linecap: butt}</style>
 </defs>
 <g id="figure_1">
  <g id="patch_1">
   <path d="M 0 340.588692 
L 554.984062 340.588692 
L 554.984062 0 
L 0 0 
z
" style="fill: #ffffff"/>
  </g>
  <g id="axes_1">
   <g id="patch_2">
    <path d="M 50.627031 143.350757 
L 541.667031 143.350757 
L 541.667031 22.087599 
L 50.627031 22.087599 
z
" style="fill: #ffffff"/>
   </g>
   <g id="matplotlib.axis_1">
    <g id="xtick_1"/>
    <g id="xtick_2"/>
    <g id="xtick_3"/>
    <g id="xtick_4"/>
    <g id="xtick_5"/>
    <g id="xtick_6"/>
   </g>
   <g id="matplotlib.axis_2">
    <g id="ytick_1">
     <g id="text_1">
      <text style="font-size: 11px; font-family: 'Arial', 'Helvetica', 'DejaVu Sans', 'Liberation Sans', sans-serif; text-anchor: end; fill: #262626" x="41.127031" y="142.714873" transform="rotate(-0 41.127031 142.714873)">-0.5</text>
     </g>
    </g>
    <g id="ytick_2">
     <g id="text_2">
      <text style="font-size: 11px; font-family: 'Arial', 'Helvetica', 'DejaVu Sans', 'Liberation Sans', sans-serif; text-anchor: end; fill: #262626" x="41.127031" y="105.869458" transform="rotate(-0 41.127031 105.869458)">0.0</text>
     </g>
    </g>
    <g id="ytick_3">
     <g id="text_3">
      <text style="font-size: 11px; font-family: 'Arial', 'Helvetica', 'DejaVu Sans', 'Liberation Sans', sans-serif; text-anchor: end; fill: #262626" x="41.127031" y="69.024043" transform="rotate(-0 41.127031 69.024043)">0.5</text>
     </g>
    </g>
    <g id="ytick_4">
     <g id="text_4">
      <text style="font-size: 11px; font-family: 'Arial', 'Helvetica', 'DejaVu Sans', 'Liberation Sans', sans-serif; text-anchor: end; fill: #262626" x="41.127031" y="32.178628" transform="rotate(-0 41.127031 32.178628)">1.0</text>
     </g>
    </g>
    <g id="text_5">
     <text style="font-size: 12px; font-family: 'Arial', 'Helvetica', 'DejaVu Sans', 'Liberation Sans', sans-serif; text-anchor: middle; fill: #272727" x="15.789375" y="82.719178" transform="rotate(-90 15.789375 82.719178)">mV</text>
    </g>
   </g>
   <g id="line2d_1">
    <path d="M 50.627031 107.974821 
L 51.412695 95.379675 
L 51.805527 101.33021 
L 52.591191 85.089112 
L 52.984023 87.532109 
L 53.769687 95.725346 
L 54.162519 96.723028 
L 54.555351 100.452978 
L 54.948183 103.062074 
L 55.341015 100.977376 
L 55.733847 101.19237 
L 56.126679 101.793474 
L 56.519511 100.634699 
L 56.912343 107.692185 
L 57.305175 107.728194 
L 58.090839 103.685646 
L 58.483671 104.8635 
L 58.876503 108.677723 
L 59.269335 107.996625 
L 59.662167 109.36988 
L 60.447831 87.425114 
L 60.840663 92.324772 
L 61.233495 92.429575 
L 61.626327 82.926659 
L 62.019159 86.979008 
L 62.411991 89.731241 
L 62.804823 95.276648 
L 63.197655 102.63912 
L 63.590487 101.962373 
L 63.983319 103.716165 
L 64.376151 104.804011 
L 64.768983 104.358751 
L 65.161815 104.892881 
L 65.554647 106.784313 
L 65.947479 106.129343 
L 66.340311 106.767088 
L 66.733143 108.873385 
L 67.125975 99.953753 
L 67.911639 47.467305 
L 68.304471 69.97968 
L 68.697303 114.756474 
L 69.090135 113.759512 
L 69.482967 107.029479 
L 69.875799 104.575233 
L 70.268631 100.359151 
L 70.661463 103.995956 
L 71.447127 99.471904 
L 71.839959 103.131273 
L 72.232791 104.269867 
L 72.625623 109.589538 
L 73.018455 113.347473 
L 73.411287 114.051054 
L 73.804119 113.20617 
L 74.196951 114.815618 
L 74.589783 114.042892 
L 74.982615 117.300492 
L 75.375447 113.492197 
L 75.768279 115.029397 
L 76.161111 114.052089 
L 76.553943 112.016001 
L 76.946775 112.266347 
L 77.339607 120.799926 
L 77.732439 122.910383 
L 78.125271 108.143485 
L 78.518103 115.153874 
L 78.910935 91.134061 
L 79.303767 89.219013 
L 79.696599 89.367508 
L 80.089431 86.267419 
L 80.482263 86.057515 
L 80.875095 88.606769 
L 81.267927 95.526301 
L 81.660759 96.151833 
L 82.053591 98.685839 
L 82.446423 100.321859 
L 82.839255 103.022293 
L 83.232087 100.178981 
L 83.624919 100.078267 
L 84.017751 102.160996 
L 84.410583 99.010075 
L 84.803415 103.546835 
L 85.196247 104.506748 
L 85.589079 105.97359 
L 85.981911 112.907103 
L 86.374743 114.331103 
L 86.767575 107.78923 
L 87.160407 114.975266 
L 87.553239 89.253272 
L 88.338903 91.432333 
L 88.731735 89.83006 
L 89.124567 89.438591 
L 89.517399 96.022353 
L 89.910231 94.587272 
L 90.695895 106.619753 
L 91.088727 109.046484 
L 91.481559 108.390534 
L 91.874391 102.144573 
L 92.267223 106.604087 
L 92.660055 101.588012 
L 93.052887 106.100734 
L 93.445719 98.254417 
L 93.838551 100.424103 
L 94.231383 100.037156 
L 94.624215 101.777491 
L 95.017047 102.617296 
L 95.802711 113.829607 
L 96.195543 86.18859 
L 96.588375 96.599922 
L 96.981207 88.693428 
L 97.374039 87.89238 
L 97.766871 95.564042 
L 98.159703 97.317752 
L 98.945367 103.978165 
L 99.338199 109.283372 
L 99.731031 111.739222 
L 100.516695 113.167292 
L 100.909527 109.213269 
L 101.302359 110.744651 
L 101.695191 108.210721 
L 102.088023 108.525064 
L 102.480855 86.852275 
L 102.873687 57.579729 
L 103.266519 54.20748 
L 103.659351 99.875684 
L 104.052183 121.74542 
L 104.445015 103.519942 
L 104.837847 94.873953 
L 105.230679 99.459898 
L 106.016343 101.428191 
L 106.409175 96.336932 
L 106.802007 104.954602 
L 107.194839 106.020665 
L 107.587671 111.690302 
L 107.980503 112.289271 
L 108.373335 116.12387 
L 108.766167 113.5911 
L 109.158999 114.929441 
L 109.551831 115.34917 
L 109.944663 116.172509 
L 110.730327 118.067602 
L 111.123159 115.21091 
L 111.515991 115.939978 
L 111.908823 115.058752 
L 112.301655 111.655992 
L 112.694487 112.981131 
L 113.087319 109.025522 
L 113.480151 111.759887 
L 113.872983 106.168802 
L 114.265815 103.333025 
L 114.658647 98.28703 
L 115.051479 97.81282 
L 115.444311 99.874039 
L 115.837143 94.516204 
L 116.229975 94.312542 
L 116.622807 99.265245 
L 117.015639 99.834876 
L 117.408471 96.911853 
L 117.801303 98.069507 
L 118.194135 98.097357 
L 118.586967 99.157422 
L 118.979799 103.180061 
L 119.372631 110.914196 
L 119.765463 103.515156 
L 120.158295 103.242834 
L 120.551127 106.589397 
L 120.943959 117.334252 
L 121.336791 119.85662 
L 122.122455 101.395289 
L 122.515287 97.240163 
L 122.908119 96.455089 
L 123.300951 92.447148 
L 123.693783 93.433702 
L 124.086615 89.419812 
L 124.479447 91.413706 
L 124.872279 95.004221 
L 125.265111 100.062741 
L 125.657943 101.423252 
L 126.050775 104.804458 
L 126.443607 105.53463 
L 126.836439 98.901008 
L 127.229271 106.224586 
L 127.622103 109.006801 
L 128.014935 99.036204 
L 128.407767 107.971717 
L 128.800599 103.563749 
L 129.193431 110.625615 
L 129.586263 121.623281 
L 129.979095 117.643051 
L 130.764759 95.136761 
L 131.157591 97.842437 
L 131.550423 91.212462 
L 131.943255 90.581091 
L 132.336087 87.689102 
L 132.728919 93.237272 
L 133.121751 94.873858 
L 133.514583 91.237906 
L 133.907415 96.227275 
L 134.300247 97.837071 
L 134.693079 98.523882 
L 135.085911 100.005312 
L 135.478743 102.841335 
L 135.871575 101.835099 
L 136.657239 111.758073 
L 137.050071 109.488101 
L 137.442903 95.245802 
L 137.835735 70.410887 
L 138.228567 65.902574 
L 139.014231 123.161872 
L 139.799895 97.503799 
L 140.192727 98.331376 
L 140.585559 91.233718 
L 140.978391 94.613742 
L 141.371223 88.684804 
L 141.764055 90.916174 
L 142.156887 95.745118 
L 142.549719 102.555519 
L 142.942551 105.757756 
L 143.335383 106.9315 
L 143.728215 113.112675 
L 144.121047 113.625886 
L 144.513879 113.11973 
L 144.906711 113.401203 
L 145.299543 118.273638 
L 145.692375 117.121415 
L 146.085207 122.736349 
L 146.478039 124.271999 
L 146.870871 124.439107 
L 147.263703 128.004347 
L 147.656535 125.457623 
L 148.049367 125.08716 
L 148.442199 106.74206 
L 148.835031 109.207678 
L 149.227863 104.037009 
L 149.620695 90.830027 
L 150.013527 89.469394 
L 150.406359 91.306974 
L 150.799191 93.957697 
L 151.192023 91.209092 
L 151.977687 98.452255 
L 152.370519 97.751194 
L 152.763351 100.277754 
L 153.156183 100.856373 
L 153.549015 106.708063 
L 153.941847 106.812843 
L 154.334679 112.402444 
L 154.727511 110.665284 
L 155.120343 111.974387 
L 155.513175 116.403196 
L 155.906007 126.781199 
L 156.298839 128.933432 
L 156.691671 108.453117 
L 157.084503 106.047761 
L 157.477335 95.133002 
L 157.870167 95.261837 
L 158.262999 96.836857 
L 158.655831 80.436385 
L 159.048663 86.242866 
L 160.227159 94.898337 
L 160.619991 98.634277 
L 161.012823 100.219579 
L 161.405655 102.414612 
L 161.798487 101.244566 
L 162.584151 106.567907 
L 162.976983 102.331398 
L 163.369815 103.487885 
L 163.762647 105.783723 
L 164.155479 103.873293 
L 164.548311 107.31563 
L 164.941143 115.710004 
L 165.726807 98.146545 
L 166.119639 84.644433 
L 166.512471 87.798128 
L 167.298135 74.96661 
L 167.690967 85.423125 
L 168.083799 76.351933 
L 168.476631 85.840066 
L 169.262295 90.861341 
L 169.655127 97.545579 
L 170.047959 100.747848 
L 170.440791 100.731504 
L 170.833623 104.523414 
L 171.226455 104.052933 
L 171.619287 109.751128 
L 172.012119 103.071234 
L 172.404951 91.377766 
L 172.797783 63.194813 
L 173.190615 59.848825 
L 173.583447 96.410201 
L 173.976279 120.423768 
L 174.369111 123.27849 
L 174.761943 93.367235 
L 175.154775 92.80483 
L 175.547607 91.303551 
L 175.940439 88.158911 
L 176.333271 81.374287 
L 176.726103 87.069075 
L 177.118935 84.483789 
L 177.511767 92.909909 
L 177.904599 98.69421 
L 178.297431 100.642907 
L 178.690263 104.423454 
L 179.083095 106.806785 
L 179.475927 111.290278 
L 179.868759 108.297921 
L 180.654423 112.810189 
L 181.047255 118.851388 
L 181.440087 116.65972 
L 181.832919 118.115679 
L 182.225751 112.556952 
L 182.618583 125.431902 
L 183.011415 121.03002 
L 183.404247 105.708982 
L 183.797079 108.984789 
L 184.582743 92.621282 
L 184.975575 84.024153 
L 185.368407 85.361387 
L 185.761239 87.564111 
L 186.154071 85.897084 
L 186.546903 87.649223 
L 186.939735 93.943685 
L 187.332567 94.889849 
L 187.725399 99.813485 
L 188.118231 100.752403 
L 188.511063 98.441028 
L 188.903895 100.364024 
L 189.296727 110.359144 
L 189.689559 109.504499 
L 190.082391 104.944481 
L 190.475223 109.675008 
L 190.868055 107.190878 
L 191.653719 117.206063 
L 192.046551 122.348812 
L 192.832215 83.338034 
L 193.225047 92.856298 
L 193.617879 78.695914 
L 194.010711 81.502885 
L 194.403543 88.247082 
L 194.796375 82.646198 
L 195.189207 88.78047 
L 195.582039 91.86893 
L 196.367703 103.229932 
L 197.153367 104.813028 
L 197.546199 105.52626 
L 197.939031 101.767292 
L 198.331863 110.021921 
L 198.724695 107.854376 
L 199.117527 97.935548 
L 199.510359 105.348369 
L 199.903191 102.041645 
L 200.296023 115.487285 
L 200.688855 110.507014 
L 201.081687 98.112823 
L 201.474519 96.874948 
L 201.867351 81.730398 
L 202.260183 93.615604 
L 202.653015 85.434218 
L 203.045847 83.626338 
L 203.438679 88.254222 
L 203.831511 89.106569 
L 204.224343 97.448286 
L 204.617175 102.461024 
L 205.010007 105.581553 
L 205.402839 105.893737 
L 205.795671 113.762927 
L 206.188503 112.472459 
L 206.581335 112.477924 
L 206.974167 102.914479 
L 207.759831 56.474565 
L 208.545495 115.47285 
L 208.938327 130.409948 
L 209.331159 111.064684 
L 209.723991 116.878578 
L 210.116823 108.41095 
L 210.509655 80.751347 
L 210.902487 92.693284 
L 211.295319 89.232112 
L 211.688151 87.319298 
L 212.080983 89.128241 
L 213.259479 104.975428 
L 214.045143 111.48988 
L 214.437975 112.412864 
L 214.830807 114.348707 
L 215.223639 118.48027 
L 215.616471 115.8757 
L 216.009303 120.358138 
L 216.402135 122.684212 
L 216.794967 114.28861 
L 217.187799 112.991566 
L 217.580631 120.941075 
L 217.973463 118.278539 
L 218.366295 121.545168 
L 218.759127 113.123071 
L 219.151959 87.735002 
L 219.544791 94.758879 
L 220.723287 81.868277 
L 221.116119 83.510106 
L 221.508951 87.693319 
L 221.901783 90.089446 
L 222.294615 93.566224 
L 223.473111 99.265271 
L 224.258775 105.608658 
L 224.651607 102.942004 
L 225.437271 110.885578 
L 225.830103 112.086041 
L 226.222935 114.304513 
L 226.615767 121.586361 
L 227.401431 104.588483 
L 228.187095 88.195572 
L 228.579927 87.568862 
L 228.972759 88.742143 
L 229.365591 84.272415 
L 229.758423 88.677932 
L 230.151255 89.866807 
L 230.544087 95.687012 
L 230.936919 103.422324 
L 231.329751 103.409432 
L 231.722583 104.048116 
L 232.115415 103.474178 
L 232.508247 100.816698 
L 232.901079 100.46588 
L 233.293911 101.60947 
L 233.686743 105.094696 
L 234.079575 100.276831 
L 234.472407 97.471268 
L 234.865239 95.63255 
L 235.258071 100.007971 
L 235.650903 96.333197 
L 236.043735 112.121888 
L 236.436567 86.664775 
L 236.829399 83.488943 
L 237.222231 91.044692 
L 237.615063 92.014098 
L 238.007895 98.058064 
L 238.400727 96.783349 
L 238.793559 99.001001 
L 239.972055 112.124916 
L 240.364887 112.153591 
L 240.757719 114.021854 
L 241.150551 104.593061 
L 241.936215 55.049241 
L 242.329047 73.592656 
L 242.721879 108.032549 
L 243.114711 120.809271 
L 243.507543 112.320604 
L 243.900375 107.44703 
L 244.293207 112.044881 
L 244.686039 137.838795 
L 245.078871 86.908317 
L 245.471703 95.507298 
L 245.864535 101.077354 
L 246.257367 109.364324 
L 246.650199 98.44001 
L 247.043031 91.761148 
L 247.435863 100.832135 
L 247.828695 103.88009 
L 248.221527 109.656104 
L 248.614359 112.619577 
L 249.007191 113.45364 
L 249.400023 113.392834 
L 249.792855 112.435097 
L 250.578519 113.40381 
L 250.971351 115.518918 
L 251.364183 119.23943 
L 252.149847 103.843141 
L 252.542679 111.755153 
L 252.935511 108.912593 
L 253.328343 117.511731 
L 253.721175 101.709647 
L 254.506839 91.489087 
L 255.292503 96.123435 
L 255.685335 84.14424 
L 256.078167 89.506765 
L 256.470999 90.443931 
L 256.863831 96.71232 
L 257.256663 97.496964 
L 257.649495 102.135645 
L 258.042327 100.987672 
L 258.435159 104.931697 
L 258.827991 102.686568 
L 259.220823 108.899097 
L 259.613655 109.996886 
L 260.006487 102.824112 
L 260.399319 105.524651 
L 260.792151 106.737984 
L 261.184983 101.111525 
L 261.577815 102.957252 
L 261.970647 101.11998 
L 262.363479 101.653363 
L 262.756311 109.823509 
L 263.149143 92.774446 
L 263.541975 93.353732 
L 263.934807 93.004343 
L 264.327639 89.742059 
L 264.720471 98.799121 
L 265.113303 96.370582 
L 265.898967 97.53917 
L 266.291799 101.126228 
L 266.684631 98.358589 
L 267.077463 98.593873 
L 267.470295 100.425842 
L 267.863127 96.219192 
L 268.255959 96.627846 
L 268.648791 97.989246 
L 269.041623 99.825842 
L 269.434455 96.330266 
L 269.827287 98.402395 
L 270.612951 94.369847 
L 271.005783 94.36338 
L 271.398615 94.000771 
L 271.791447 98.143673 
L 272.184279 100.426136 
L 272.577111 91.010305 
L 273.362775 98.578612 
L 273.755607 100.091535 
L 274.148439 95.151711 
L 274.541271 100.238456 
L 274.934103 99.961708 
L 275.326935 106.133067 
L 275.719767 104.339388 
L 276.112599 89.502333 
L 276.505431 59.242638 
L 276.898263 39.190403 
L 277.683927 107.049231 
L 278.076759 108.167882 
L 278.469591 100.809742 
L 278.862423 99.583347 
L 279.255255 103.701033 
L 279.648087 98.864956 
L 280.040919 104.482976 
L 280.433751 112.885153 
L 280.826583 94.860007 
L 281.219415 96.166898 
L 281.612247 88.415134 
L 282.005079 97.440167 
L 282.397911 93.55107 
L 283.183575 91.223225 
L 283.576407 95.775198 
L 283.969239 95.242123 
L 284.362071 100.757885 
L 284.754903 100.552398 
L 285.147735 100.979155 
L 285.540567 97.9709 
L 285.933399 101.223181 
L 286.326231 110.405127 
L 286.719063 108.820362 
L 287.111895 109.085652 
L 287.504727 110.802496 
L 287.897559 105.456196 
L 288.290391 121.919613 
L 288.683223 131.665973 
L 289.076055 99.708859 
L 289.468887 114.704233 
L 289.861719 92.694205 
L 290.254551 91.403803 
L 290.647383 85.561848 
L 291.040215 82.834339 
L 291.433047 85.637512 
L 291.825879 82.337247 
L 292.218711 85.672265 
L 292.611543 91.414133 
L 293.004375 92.689095 
L 293.397207 91.068085 
L 293.790039 95.65623 
L 294.182871 95.321646 
L 294.575703 96.621784 
L 294.968535 104.352693 
L 295.361367 97.655159 
L 295.754199 108.887685 
L 296.147031 106.173598 
L 296.539863 104.433755 
L 296.932695 122.62402 
L 297.325527 134.307584 
L 297.718359 110.920776 
L 298.111191 101.107059 
L 298.504023 99.024517 
L 298.896855 98.990794 
L 299.289687 93.214155 
L 299.682519 90.588351 
L 300.075351 91.310746 
L 300.468183 95.268319 
L 300.861015 92.777454 
L 301.253847 99.83285 
L 301.646679 99.819357 
L 302.039511 99.063076 
L 302.432343 101.221291 
L 302.825175 104.458 
L 303.218007 104.233929 
L 303.610839 103.007302 
L 304.003671 103.025529 
L 304.396503 104.417293 
L 304.789335 112.078568 
L 305.182167 107.169882 
L 305.574999 109.581169 
L 305.967831 117.318108 
L 306.360663 121.11952 
L 306.753495 115.604119 
L 307.146327 105.613002 
L 307.539159 101.091385 
L 307.931991 101.381722 
L 308.324823 99.716673 
L 308.717655 97.537911 
L 309.110487 96.347445 
L 309.503319 97.322572 
L 309.896151 104.283634 
L 310.288983 101.519664 
L 310.681815 90.854895 
L 311.074647 65.094043 
L 311.467479 51.339935 
L 311.860311 92.520185 
L 312.253143 111.080925 
L 312.645975 116.408553 
L 313.038807 115.559149 
L 313.431639 119.678731 
L 313.824471 121.550779 
L 314.217303 120.601297 
L 314.610135 124.385158 
L 315.002967 133.962745 
L 315.395799 106.817373 
L 316.181463 107.911111 
L 316.574295 101.138541 
L 316.967127 100.466574 
L 317.359959 94.642898 
L 317.752791 100.500715 
L 318.145623 100.71361 
L 318.538455 99.191181 
L 318.931287 107.685562 
L 319.324119 107.176844 
L 319.716951 111.912877 
L 320.109783 110.31135 
L 320.502615 106.358063 
L 320.895447 111.130747 
L 321.681111 114.30085 
L 322.073943 117.833341 
L 322.466775 117.018437 
L 322.859607 115.383485 
L 323.252439 119.294713 
L 323.645271 113.188057 
L 324.038103 102.443707 
L 324.430935 100.482399 
L 326.002263 82.324709 
L 326.395095 84.563717 
L 326.787927 89.525995 
L 327.180759 92.711879 
L 327.573591 97.602356 
L 327.966423 94.480094 
L 328.359255 99.133012 
L 328.752087 97.468374 
L 329.537751 101.99846 
L 329.930583 103.690108 
L 330.323415 100.756261 
L 331.109079 102.717163 
L 331.501911 107.538801 
L 331.894743 103.562551 
L 332.287575 104.883946 
L 332.680407 107.059562 
L 333.073239 94.47726 
L 333.466071 90.823 
L 333.858903 93.584356 
L 334.251735 91.198533 
L 334.644567 93.494292 
L 335.037399 92.52241 
L 335.430231 90.322668 
L 335.823063 95.928174 
L 336.215895 90.638791 
L 336.608727 94.294734 
L 337.001559 94.635236 
L 337.394391 97.78454 
L 337.787223 93.651342 
L 338.180055 99.913235 
L 338.572887 101.759245 
L 338.965719 105.163466 
L 339.358551 106.256232 
L 339.751383 98.345887 
L 340.144215 107.202702 
L 340.537047 107.387179 
L 340.929879 106.401759 
L 341.715543 111.378996 
L 342.108375 97.754143 
L 342.501207 103.415783 
L 342.894039 102.701482 
L 343.286871 94.327897 
L 343.679703 94.610462 
L 344.072535 95.209458 
L 344.465367 98.456676 
L 344.858199 96.213751 
L 345.251031 85.03538 
L 345.643863 54.568449 
L 346.036695 51.957279 
L 346.429527 92.088056 
L 346.822359 115.90931 
L 347.215191 119.309276 
L 347.608023 114.069708 
L 348.000855 117.226869 
L 348.393687 110.987355 
L 348.786519 115.621608 
L 349.179351 115.724739 
L 349.572183 112.912622 
L 349.965015 122.536825 
L 350.357847 114.337984 
L 350.750679 109.390023 
L 351.143511 106.897173 
L 351.536343 107.021846 
L 351.929175 109.99009 
L 352.322007 109.65891 
L 352.714839 104.933537 
L 353.107671 110.311313 
L 353.500503 108.550292 
L 353.893335 110.639505 
L 354.286167 116.768712 
L 355.464663 115.7637 
L 355.857495 116.708907 
L 356.250327 127.106105 
L 356.643159 121.570753 
L 357.035991 111.415424 
L 357.428823 113.162304 
L 357.821655 116.911583 
L 358.214487 107.827096 
L 358.607319 121.302938 
L 359.392983 95.610331 
L 359.785815 104.114495 
L 360.178647 91.262221 
L 360.571479 95.396219 
L 360.964311 92.260882 
L 361.357143 94.663374 
L 361.749975 95.89849 
L 362.142807 98.360213 
L 362.535639 100.066118 
L 362.928471 102.297645 
L 363.321303 102.688825 
L 363.714135 103.508939 
L 364.106967 103.323706 
L 364.892631 112.632435 
L 365.678295 104.350476 
L 366.071127 104.80377 
L 366.463959 101.924203 
L 366.856791 105.801472 
L 367.249623 101.441121 
L 367.642455 103.67888 
L 368.035287 115.777156 
L 368.428119 94.448686 
L 368.820951 102.991429 
L 369.213783 107.126097 
L 369.606615 83.315829 
L 369.999447 93.196889 
L 370.392279 91.777588 
L 370.785111 87.331824 
L 371.177943 84.20164 
L 371.570775 89.325367 
L 372.356439 94.749282 
L 372.749271 95.850287 
L 373.142103 96.31612 
L 373.534935 101.50941 
L 373.927767 103.118486 
L 374.320599 100.153664 
L 374.713431 99.787156 
L 375.106263 105.910252 
L 375.499095 102.396805 
L 375.891927 107.049341 
L 376.677591 124.34378 
L 377.463255 87.730525 
L 377.856087 93.620148 
L 378.248919 89.625854 
L 378.641751 92.091999 
L 379.427415 61.983223 
L 379.820247 34.124653 
L 380.213079 46.095835 
L 380.605911 88.988596 
L 380.998743 98.366782 
L 381.391575 104.305434 
L 381.784407 99.584287 
L 382.177239 102.44191 
L 382.570071 108.869201 
L 382.962903 109.956321 
L 383.355735 109.209376 
L 383.748567 111.365238 
L 384.141399 112.703141 
L 384.534231 113.397173 
L 384.927063 123.59939 
L 385.319895 137.212345 
L 385.712727 111.480026 
L 386.105559 109.391182 
L 386.498391 110.515161 
L 386.891223 101.781738 
L 387.284055 105.879563 
L 387.676887 102.665656 
L 388.069719 95.721365 
L 388.462551 94.172804 
L 388.855383 99.829746 
L 389.248215 102.052566 
L 389.641047 103.515458 
L 390.033879 107.765191 
L 390.426711 106.434673 
L 390.819543 110.39136 
L 391.212375 112.019386 
L 391.605207 110.876013 
L 391.998039 110.558347 
L 392.390871 111.780315 
L 392.783703 111.792375 
L 393.176535 111.336606 
L 393.569367 108.019509 
L 393.962199 112.586429 
L 394.355031 119.545487 
L 394.747863 109.319783 
L 395.140695 105.546697 
L 395.533527 91.532891 
L 395.926359 95.909141 
L 396.319191 92.674668 
L 396.712023 92.360094 
L 397.104855 87.769885 
L 397.497687 86.350762 
L 398.283351 94.333234 
L 398.676183 97.803484 
L 399.069015 97.787064 
L 399.461847 98.990693 
L 400.247511 109.306353 
L 400.640343 106.242467 
L 401.033175 106.852953 
L 401.426007 105.342535 
L 401.818839 111.985327 
L 402.211671 115.354424 
L 402.604503 114.486175 
L 402.997335 125.34635 
L 403.782999 106.060131 
L 404.568663 97.915001 
L 405.354327 89.67361 
L 405.747159 81.226176 
L 406.925655 92.890015 
L 407.318487 93.393601 
L 407.711319 94.987895 
L 408.104151 91.134388 
L 408.496983 96.175045 
L 409.282647 103.166261 
L 409.675479 102.545433 
L 410.068311 104.321875 
L 410.461143 108.816972 
L 410.853975 108.853012 
L 411.639639 128.588227 
L 412.032471 110.399769 
L 412.425303 107.161008 
L 412.818135 95.868902 
L 413.210967 96.4774 
L 413.603799 93.621281 
L 413.996631 79.288556 
L 414.782295 27.59956 
L 415.567959 107.879987 
L 415.960791 110.99967 
L 416.353623 107.733307 
L 416.746455 109.43835 
L 417.139287 108.920179 
L 417.532119 108.697649 
L 417.924951 112.013465 
L 418.317783 119.279952 
L 418.710615 113.689383 
L 419.103447 120.489282 
L 419.496279 119.845348 
L 419.889111 119.496292 
L 420.281943 124.430577 
L 420.674775 123.672874 
L 421.067607 124.529514 
L 421.460439 106.742669 
L 421.853271 105.25345 
L 422.246103 108.807391 
L 422.638935 102.301074 
L 423.031767 104.723378 
L 423.424599 104.881369 
L 423.817431 105.221708 
L 424.210263 111.77648 
L 424.603095 106.449127 
L 424.995927 111.212531 
L 425.388759 109.231105 
L 425.781591 111.580673 
L 426.174423 106.64065 
L 426.567255 110.561188 
L 426.960087 110.429454 
L 427.352919 111.449516 
L 427.745751 104.061807 
L 428.138583 107.227104 
L 428.924247 106.637961 
L 429.317079 101.085837 
L 429.709911 107.574805 
L 430.102743 106.560594 
L 430.495575 106.096403 
L 431.281239 94.891738 
L 431.674071 100.966089 
L 432.066903 104.462505 
L 432.459735 95.754718 
L 432.852567 99.048429 
L 433.245399 99.506299 
L 433.638231 104.446299 
L 434.031063 107.503825 
L 434.423895 101.846594 
L 434.816727 101.370092 
L 435.209559 104.961119 
L 435.602391 104.82249 
L 435.995223 107.158463 
L 436.388055 110.52157 
L 436.780887 106.425496 
L 437.173719 111.213484 
L 437.566551 109.87914 
L 437.959383 103.412298 
L 438.352215 109.85782 
L 438.745047 112.978567 
L 439.137879 92.6628 
L 439.530711 103.446561 
L 439.923543 101.252016 
L 440.316375 90.128634 
L 440.709207 93.026228 
L 441.102039 94.671683 
L 441.494871 97.836748 
L 441.887703 96.706451 
L 442.280535 99.803477 
L 442.673367 100.935085 
L 443.066199 100.748194 
L 443.459031 103.083828 
L 443.851863 100.258876 
L 444.244695 107.265009 
L 444.637527 109.88047 
L 445.030359 119.700985 
L 445.423191 106.720062 
L 445.816023 115.870338 
L 446.601687 109.977436 
L 446.994519 104.983184 
L 447.387351 124.789152 
L 447.780183 112.018201 
L 448.173015 111.19369 
L 448.565847 119.591485 
L 448.958679 87.869647 
L 449.351511 87.520266 
L 449.744343 52.607843 
L 450.137175 54.598216 
L 450.530007 90.099841 
L 450.922839 106.421658 
L 451.315671 117.122872 
L 451.708503 112.020414 
L 452.101335 110.915329 
L 452.494167 110.377885 
L 452.886999 110.0855 
L 453.279831 111.088907 
L 453.672663 116.398344 
L 454.065495 110.792463 
L 454.458327 109.23683 
L 454.851159 112.766195 
L 455.243991 108.673562 
L 455.636823 108.740529 
L 456.029655 100.173564 
L 456.422487 119.72428 
L 456.815319 122.264014 
L 457.208151 96.927072 
L 457.600983 115.449634 
L 457.993815 102.921689 
L 458.386647 106.403639 
L 458.779479 107.32533 
L 459.172311 104.783201 
L 459.565143 112.681215 
L 459.957975 110.586414 
L 460.350807 110.264677 
L 460.743639 112.076158 
L 461.136471 112.141751 
L 461.529303 106.695168 
L 461.922135 106.463244 
L 462.314967 109.934293 
L 463.100631 102.895018 
L 463.493463 100.139838 
L 463.886295 86.848264 
L 464.279127 87.806988 
L 464.671959 89.339907 
L 465.064791 83.264902 
L 465.457623 102.837566 
L 465.850455 94.432664 
L 466.243287 95.12116 
L 466.636119 103.158698 
L 467.028951 83.681206 
L 467.421783 96.683026 
L 467.814615 97.293064 
L 468.207447 94.295148 
L 468.600279 95.644107 
L 468.993111 95.972047 
L 469.385943 100.010322 
L 469.778775 101.43534 
L 470.171607 100.59523 
L 470.564439 97.567017 
L 470.957271 101.567283 
L 471.350103 101.857428 
L 471.742935 96.574683 
L 472.135767 100.644748 
L 472.528599 97.086316 
L 472.921431 90.6826 
L 473.314263 97.212863 
L 473.707095 98.914932 
L 474.099927 94.222061 
L 474.492759 99.34185 
L 474.885591 100.680154 
L 475.278423 87.205162 
L 476.064087 92.827919 
L 476.456919 98.061433 
L 476.849751 92.46743 
L 477.242583 91.562311 
L 477.635415 92.368115 
L 478.421079 97.271161 
L 478.813911 95.116128 
L 479.206743 98.161395 
L 479.599575 98.41802 
L 479.992407 106.771869 
L 480.385239 99.839125 
L 480.778071 104.428959 
L 481.170903 99.653263 
L 481.563735 97.701115 
L 481.956567 96.398773 
L 482.349399 98.925254 
L 482.742231 95.246188 
L 483.135063 95.696472 
L 483.527895 95.476195 
L 483.920727 98.323913 
L 484.313559 80.063767 
L 484.706391 32.777319 
L 485.492055 96.683508 
L 485.884887 107.609449 
L 486.670551 100.741206 
L 487.063383 107.816844 
L 487.456215 108.200563 
L 487.849047 107.206538 
L 488.241879 109.563669 
L 488.634711 108.508339 
L 489.027543 109.613432 
L 489.420375 109.855983 
L 489.813207 105.973598 
L 490.206039 104.628801 
L 490.598871 105.617783 
L 490.991703 102.893529 
L 491.384535 104.721916 
L 491.777367 99.943112 
L 492.170199 118.568275 
L 492.563031 114.156607 
L 492.955863 96.121582 
L 493.348695 103.961319 
L 493.741527 106.81756 
L 494.134359 100.42409 
L 494.527191 97.357802 
L 494.920023 99.008955 
L 495.312855 96.335619 
L 495.705687 101.991694 
L 496.098519 102.892659 
L 496.884183 103.594173 
L 497.277015 99.045268 
L 497.669847 98.748946 
L 498.062679 101.2867 
L 498.848343 89.690323 
L 499.241175 95.186643 
L 499.634007 96.261251 
L 500.026839 91.70086 
L 500.419671 89.859168 
L 500.812503 93.406989 
L 501.205335 95.141715 
L 501.598167 88.922121 
L 501.990999 96.920732 
L 502.383831 84.620759 
L 502.776663 90.647414 
L 503.169495 90.734239 
L 503.562327 90.504821 
L 503.955159 93.76528 
L 504.347991 93.582562 
L 504.740823 93.218737 
L 505.526487 100.300211 
L 505.919319 96.820739 
L 506.312151 101.012076 
L 506.704983 102.162194 
L 507.097815 108.899934 
L 507.490647 104.180281 
L 507.883479 105.020335 
L 508.276311 104.703212 
L 508.669143 100.709988 
L 509.061975 101.189213 
L 509.454807 105.585837 
L 509.847639 101.943087 
L 510.240471 89.060813 
L 510.633303 91.534372 
L 511.418967 79.65157 
L 511.811799 87.487616 
L 512.204631 83.231426 
L 512.597463 87.51238 
L 512.990295 88.433379 
L 513.383127 88.142521 
L 513.775959 93.724025 
L 514.168791 94.571449 
L 514.561623 99.380959 
L 514.954455 101.973002 
L 515.347287 106.325803 
L 516.132951 111.632256 
L 516.525783 111.274206 
L 516.918615 110.370255 
L 517.311447 107.544215 
L 517.704279 110.38426 
L 518.097111 114.98241 
L 518.489943 105.699836 
L 519.668439 39.350037 
L 520.454103 105.841372 
L 520.846935 109.911138 
L 521.239767 104.356869 
L 521.632599 107.463524 
L 522.025431 100.476567 
L 522.418263 104.144263 
L 522.811095 105.648048 
L 523.203927 104.340577 
L 523.989591 114.597999 
L 524.382423 109.429628 
L 524.775255 110.495243 
L 525.168087 115.325547 
L 525.560919 112.627393 
L 525.953751 108.051169 
L 526.346583 112.815345 
L 526.739415 108.674872 
L 527.132247 106.279006 
L 527.917911 110.850066 
L 528.310743 113.697372 
L 528.703575 114.074919 
L 529.096407 113.172613 
L 529.489239 115.92447 
L 529.882071 116.280299 
L 530.274903 112.972352 
L 530.667735 111.317218 
L 531.060567 111.784896 
L 531.846231 111.444746 
L 532.239063 112.235253 
L 532.631895 109.472865 
L 533.024727 107.789853 
L 533.810391 101.99261 
L 534.203223 97.092062 
L 534.596055 96.897443 
L 534.988887 97.775277 
L 535.381719 94.333646 
L 535.774551 93.013549 
L 536.167383 97.886858 
L 536.560215 95.865948 
L 536.953047 101.858871 
L 537.345879 102.525899 
L 537.738711 100.595943 
L 538.131543 101.754808 
L 538.524375 100.849731 
L 538.917207 101.507305 
L 539.310039 98.855434 
L 539.702871 97.196463 
L 540.095703 102.269395 
L 540.488535 104.176177 
L 541.274199 100.496267 
L 541.274199 100.496267 
" clip-path="url(#pc8452e772b)" style="fill: none; stroke: #464c55; stroke-width: 0.8; stroke-linecap: round"/>
   </g>
   <g id="LineCollection_1">
    <path d="M 450.530007 125.389982 
L 450.530007 54.583035 
" clip-path="url(#pc8452e772b)" style="fill: none; stroke: #b64342; stroke-opacity: 0.98; stroke-width: 1.45"/>
    <path d="M 483.920727 125.389982 
L 483.920727 54.583035 
" clip-path="url(#pc8452e772b)" style="fill: none; stroke: #b64342; stroke-opacity: 0.98; stroke-width: 1.45"/>
   </g>
   <g id="patch_3">
    <path d="M 50.627031 143.350757 
L 50.627031 22.087599 
" style="fill: none; stroke: #4d4d4d; stroke-width: 0.8; stroke-linejoin: miter; stroke-linecap: square"/>
   </g>
   <g id="patch_4">
    <path d="M 50.627031 143.350757 
L 541.667031 143.350757 
" style="fill: none; stroke: #4d4d4d; stroke-width: 0.8; stroke-linejoin: miter; stroke-linecap: square"/>
   </g>
   <g id="text_6">
    <text style="font-size: 8.3px; font-family: 'Arial', 'Helvetica', 'DejaVu Sans', 'Liberation Sans', sans-serif; text-anchor: start; fill: #767676" x="55.537431" y="35.304373" transform="rotate(-0 55.537431 35.304373)">record 1122248, lead II, n=2</text>
   </g>
   <g id="text_7">
    <text style="font-weight: 700; font-size: 9px; font-family: 'Arial', 'Helvetica', 'DejaVu Sans', 'Liberation Sans', sans-serif; text-anchor: start; fill: #272727" x="13.799031" y="13.642031" transform="rotate(-0 13.799031 13.642031)">a</text>
   </g>
   <g id="text_8">
    <text style="font-weight: 600; font-size: 10px; font-family: 'Arial', 'Helvetica', 'DejaVu Sans', 'Liberation Sans', sans-serif; text-anchor: start; fill: #262626" x="50.627031" y="16.087599" transform="rotate(-0 50.627031 16.087599)">No warm-up</text>
   </g>
   <g id="PathCollection_1">
    <defs>
     <path id="mdf0192cd14" d="M -0 2.645751 
L 2.645751 -2.645751 
L -2.645751 -2.645751 
z
" style="stroke: #ffffff; stroke-width: 0.35"/>
    </defs>
    <g>
     <use xlink:href="#mdf0192cd14" x="450.530007" y="54.583035" style="fill: #b64342; stroke: #ffffff; stroke-width: 0.35"/>
     <use xlink:href="#mdf0192cd14" x="483.920727" y="54.583035" style="fill: #b64342; stroke: #ffffff; stroke-width: 0.35"/>
    </g>
   </g>
   <g id="legend_1">
    <g id="line2d_2">
     <path d="M 424.221906 32.720161 
L 432.621906 32.720161 
L 441.021906 32.720161 
" style="fill: none; stroke: #464c55; stroke-width: 0.8; stroke-linecap: round"/>
    </g>
    <g id="text_9">
     <text style="font-size: 8.4px; font-family: 'Arial', 'Helvetica', 'DejaVu Sans', 'Liberation Sans', sans-serif; text-anchor: start; fill: #262626" x="447.741906" y="35.660161" transform="rotate(-0 447.741906 35.660161)">ECG</text>
    </g>
    <g id="line2d_3">
     <path d="M 424.221906 44.602224 
L 441.021906 44.602224 
" style="fill: none; stroke: #b64342; stroke-opacity: 0.98; stroke-width: 1.45"/>
    </g>
    <g id="text_10">
     <text style="font-size: 8.4px; font-family: 'Arial', 'Helvetica', 'DejaVu Sans', 'Liberation Sans', sans-serif; text-anchor: start; fill: #262626" x="447.741906" y="47.542224" transform="rotate(-0 447.741906 47.542224)">No warm-up detections</text>
    </g>
   </g>
  </g>
  <g id="axes_2">
   <g id="patch_5">
    <path d="M 50.627031 298.567599 
L 541.667031 298.567599 
L 541.667031 177.304441 
L 50.627031 177.304441 
z
" style="fill: #ffffff"/>
   </g>
   <g id="matplotlib.axis_3">
    <g id="xtick_7">
     <g id="text_11">
      <text style="font-size: 11px; font-family: 'Arial', 'Helvetica', 'DejaVu Sans', 'Liberation Sans', sans-serif; text-anchor: middle; fill: #262626" x="50.627031" y="315.941192" transform="rotate(-0 50.627031 315.941192)">0</text>
     </g>
    </g>
    <g id="xtick_8">
     <g id="text_12">
      <text style="font-size: 11px; font-family: 'Arial', 'Helvetica', 'DejaVu Sans', 'Liberation Sans', sans-serif; text-anchor: middle; fill: #262626" x="148.835031" y="315.941192" transform="rotate(-0 148.835031 315.941192)">2</text>
     </g>
    </g>
    <g id="xtick_9">
     <g id="text_13">
      <text style="font-size: 11px; font-family: 'Arial', 'Helvetica', 'DejaVu Sans', 'Liberation Sans', sans-serif; text-anchor: middle; fill: #262626" x="247.043031" y="315.941192" transform="rotate(-0 247.043031 315.941192)">4</text>
     </g>
    </g>
    <g id="xtick_10">
     <g id="text_14">
      <text style="font-size: 11px; font-family: 'Arial', 'Helvetica', 'DejaVu Sans', 'Liberation Sans', sans-serif; text-anchor: middle; fill: #262626" x="345.251031" y="315.941192" transform="rotate(-0 345.251031 315.941192)">6</text>
     </g>
    </g>
    <g id="xtick_11">
     <g id="text_15">
      <text style="font-size: 11px; font-family: 'Arial', 'Helvetica', 'DejaVu Sans', 'Liberation Sans', sans-serif; text-anchor: middle; fill: #262626" x="443.459031" y="315.941192" transform="rotate(-0 443.459031 315.941192)">8</text>
     </g>
    </g>
    <g id="xtick_12">
     <g id="text_16">
      <text style="font-size: 11px; font-family: 'Arial', 'Helvetica', 'DejaVu Sans', 'Liberation Sans', sans-serif; text-anchor: middle; fill: #262626" x="541.667031" y="315.941192" transform="rotate(-0 541.667031 315.941192)">10</text>
     </g>
    </g>
    <g id="text_17">
     <text style="font-size: 12px; font-family: 'Arial', 'Helvetica', 'DejaVu Sans', 'Liberation Sans', sans-serif; text-anchor: middle; fill: #272727" x="296.147031" y="330.863067" transform="rotate(-0 296.147031 330.863067)">Time (s)</text>
    </g>
   </g>
   <g id="matplotlib.axis_4">
    <g id="ytick_5">
     <g id="text_18">
      <text style="font-size: 11px; font-family: 'Arial', 'Helvetica', 'DejaVu Sans', 'Liberation Sans', sans-serif; text-anchor: end; fill: #262626" x="41.127031" y="297.931715" transform="rotate(-0 41.127031 297.931715)">-0.5</text>
     </g>
    </g>
    <g id="ytick_6">
     <g id="text_19">
      <text style="font-size: 11px; font-family: 'Arial', 'Helvetica', 'DejaVu Sans', 'Liberation Sans', sans-serif; text-anchor: end; fill: #262626" x="41.127031" y="261.0863" transform="rotate(-0 41.127031 261.0863)">0.0</text>
     </g>
    </g>
    <g id="ytick_7">
     <g id="text_20">
      <text style="font-size: 11px; font-family: 'Arial', 'Helvetica', 'DejaVu Sans', 'Liberation Sans', sans-serif; text-anchor: end; fill: #262626" x="41.127031" y="224.240885" transform="rotate(-0 41.127031 224.240885)">0.5</text>
     </g>
    </g>
    <g id="ytick_8">
     <g id="text_21">
      <text style="font-size: 11px; font-family: 'Arial', 'Helvetica', 'DejaVu Sans', 'Liberation Sans', sans-serif; text-anchor: end; fill: #262626" x="41.127031" y="187.39547" transform="rotate(-0 41.127031 187.39547)">1.0</text>
     </g>
    </g>
    <g id="text_22">
     <text style="font-size: 12px; font-family: 'Arial', 'Helvetica', 'DejaVu Sans', 'Liberation Sans', sans-serif; text-anchor: middle; fill: #272727" x="15.789375" y="237.93602" transform="rotate(-90 15.789375 237.93602)">mV</text>
    </g>
   </g>
   <g id="line2d_4">
    <path d="M 50.627031 263.191663 
L 51.412695 250.596517 
L 51.805527 256.547052 
L 52.591191 240.305954 
L 52.984023 242.748951 
L 53.769687 250.942188 
L 54.162519 251.93987 
L 54.555351 255.66982 
L 54.948183 258.278916 
L 55.341015 256.194218 
L 55.733847 256.409212 
L 56.126679 257.010316 
L 56.519511 255.851541 
L 56.912343 262.909027 
L 57.305175 262.945036 
L 58.090839 258.902488 
L 58.483671 260.080342 
L 58.876503 263.894565 
L 59.269335 263.213467 
L 59.662167 264.586722 
L 60.447831 242.641956 
L 60.840663 247.541615 
L 61.233495 247.646417 
L 61.626327 238.143501 
L 62.019159 242.19585 
L 62.411991 244.948083 
L 62.804823 250.49349 
L 63.197655 257.855962 
L 63.590487 257.179215 
L 63.983319 258.933007 
L 64.376151 260.020853 
L 64.768983 259.575593 
L 65.161815 260.109723 
L 65.554647 262.001155 
L 65.947479 261.346185 
L 66.340311 261.98393 
L 66.733143 264.090227 
L 67.125975 255.170595 
L 67.911639 202.684147 
L 68.304471 225.196522 
L 68.697303 269.973316 
L 69.090135 268.976354 
L 69.482967 262.246321 
L 69.875799 259.792075 
L 70.268631 255.575993 
L 70.661463 259.212799 
L 71.447127 254.688746 
L 71.839959 258.348115 
L 72.232791 259.486709 
L 72.625623 264.80638 
L 73.018455 268.564315 
L 73.411287 269.267896 
L 73.804119 268.423012 
L 74.196951 270.03246 
L 74.589783 269.259734 
L 74.982615 272.517334 
L 75.375447 268.70904 
L 75.768279 270.246239 
L 76.161111 269.268931 
L 76.553943 267.232843 
L 76.946775 267.483189 
L 77.339607 276.016768 
L 77.732439 278.127225 
L 78.125271 263.360327 
L 78.518103 270.370716 
L 78.910935 246.350903 
L 79.303767 244.435855 
L 79.696599 244.58435 
L 80.089431 241.484261 
L 80.482263 241.274358 
L 80.875095 243.823612 
L 81.267927 250.743143 
L 81.660759 251.368675 
L 82.053591 253.902681 
L 82.446423 255.538702 
L 82.839255 258.239135 
L 83.232087 255.395823 
L 83.624919 255.295109 
L 84.017751 257.377838 
L 84.410583 254.226917 
L 84.803415 258.763678 
L 85.196247 259.723591 
L 85.589079 261.190432 
L 85.981911 268.123945 
L 86.374743 269.547946 
L 86.767575 263.006072 
L 87.160407 270.192108 
L 87.553239 244.470114 
L 88.338903 246.649175 
L 88.731735 245.046902 
L 89.124567 244.655433 
L 89.517399 251.239196 
L 89.910231 249.804115 
L 90.695895 261.836596 
L 91.088727 264.263326 
L 91.481559 263.607376 
L 91.874391 257.361415 
L 92.267223 261.820929 
L 92.660055 256.804854 
L 93.052887 261.317577 
L 93.445719 253.471259 
L 93.838551 255.640945 
L 94.231383 255.253998 
L 94.624215 256.994333 
L 95.017047 257.834138 
L 95.802711 269.04645 
L 96.195543 241.405432 
L 96.588375 251.816764 
L 96.981207 243.91027 
L 97.374039 243.109222 
L 97.766871 250.780884 
L 98.159703 252.534594 
L 98.945367 259.195007 
L 99.338199 264.500214 
L 99.731031 266.956064 
L 100.516695 268.384134 
L 100.909527 264.430111 
L 101.302359 265.961493 
L 101.695191 263.427563 
L 102.088023 263.741906 
L 102.480855 242.069117 
L 102.873687 212.796571 
L 103.266519 209.424322 
L 103.659351 255.092526 
L 104.052183 276.962262 
L 104.445015 258.736784 
L 104.837847 250.090795 
L 105.230679 254.67674 
L 106.016343 256.645033 
L 106.409175 251.553774 
L 106.802007 260.171444 
L 107.194839 261.237507 
L 107.587671 266.907144 
L 107.980503 267.506113 
L 108.373335 271.340712 
L 108.766167 268.807942 
L 109.158999 270.146283 
L 109.551831 270.566012 
L 109.944663 271.389351 
L 110.730327 273.284445 
L 111.123159 270.427752 
L 111.515991 271.15682 
L 111.908823 270.275594 
L 112.301655 266.872834 
L 112.694487 268.197973 
L 113.087319 264.242364 
L 113.480151 266.976729 
L 113.872983 261.385644 
L 114.265815 258.549867 
L 114.658647 253.503872 
L 115.051479 253.029662 
L 115.444311 255.090881 
L 115.837143 249.733046 
L 116.229975 249.529385 
L 116.622807 254.482087 
L 117.015639 255.051718 
L 117.408471 252.128695 
L 117.801303 253.286349 
L 118.194135 253.314199 
L 118.586967 254.374264 
L 118.979799 258.396903 
L 119.372631 266.131038 
L 119.765463 258.731998 
L 120.158295 258.459676 
L 120.551127 261.806239 
L 120.943959 272.551094 
L 121.336791 275.073462 
L 122.122455 256.612131 
L 122.515287 252.457005 
L 122.908119 251.671931 
L 123.300951 247.66399 
L 123.693783 248.650544 
L 124.086615 244.636654 
L 124.479447 246.630548 
L 124.872279 250.221063 
L 125.265111 255.279583 
L 125.657943 256.640094 
L 126.050775 260.0213 
L 126.443607 260.751472 
L 126.836439 254.11785 
L 127.229271 261.441428 
L 127.622103 264.223643 
L 128.014935 254.253046 
L 128.407767 263.188559 
L 128.800599 258.780591 
L 129.193431 265.842457 
L 129.586263 276.840123 
L 129.979095 272.859893 
L 130.764759 250.353603 
L 131.157591 253.059279 
L 131.550423 246.429305 
L 131.943255 245.797933 
L 132.336087 242.905944 
L 132.728919 248.454114 
L 133.121751 250.090701 
L 133.514583 246.454748 
L 133.907415 251.444117 
L 134.300247 253.053913 
L 134.693079 253.740724 
L 135.085911 255.222154 
L 135.478743 258.058177 
L 135.871575 257.051941 
L 136.657239 266.974915 
L 137.050071 264.704944 
L 137.442903 250.462645 
L 137.835735 225.627729 
L 138.228567 221.119416 
L 139.014231 278.378714 
L 139.799895 252.720642 
L 140.192727 253.548218 
L 140.585559 246.45056 
L 140.978391 249.830584 
L 141.371223 243.901647 
L 141.764055 246.133016 
L 142.156887 250.96196 
L 142.549719 257.772361 
L 142.942551 260.974598 
L 143.335383 262.148342 
L 143.728215 268.329517 
L 144.121047 268.842728 
L 144.513879 268.336572 
L 144.906711 268.618045 
L 145.299543 273.49048 
L 145.692375 272.338257 
L 146.085207 277.953191 
L 146.478039 279.488841 
L 146.870871 279.655949 
L 147.263703 283.221189 
L 147.656535 280.674465 
L 148.049367 280.304002 
L 148.442199 261.958902 
L 148.835031 264.42452 
L 149.227863 259.253851 
L 149.620695 246.046869 
L 150.013527 244.686236 
L 150.406359 246.523816 
L 150.799191 249.174539 
L 151.192023 246.425935 
L 151.977687 253.669097 
L 152.370519 252.968037 
L 152.763351 255.494596 
L 153.156183 256.073215 
L 153.549015 261.924905 
L 153.941847 262.029685 
L 154.334679 267.619286 
L 154.727511 265.882126 
L 155.120343 267.191229 
L 155.513175 271.620038 
L 155.906007 281.998041 
L 156.298839 284.150274 
L 156.691671 263.669959 
L 157.084503 261.264604 
L 157.477335 250.349844 
L 157.870167 250.478679 
L 158.262999 252.053699 
L 158.655831 235.653227 
L 159.048663 241.459708 
L 160.227159 250.115179 
L 160.619991 253.851119 
L 161.012823 255.436421 
L 161.405655 257.631454 
L 161.798487 256.461408 
L 162.584151 261.784749 
L 162.976983 257.548241 
L 163.369815 258.704727 
L 163.762647 261.000565 
L 164.155479 259.090135 
L 164.548311 262.532472 
L 164.941143 270.926846 
L 165.726807 253.363387 
L 166.119639 239.861275 
L 166.512471 243.01497 
L 167.298135 230.183452 
L 167.690967 240.639967 
L 168.083799 231.568775 
L 168.476631 241.056908 
L 169.262295 246.078183 
L 169.655127 252.762421 
L 170.047959 255.96469 
L 170.440791 255.948346 
L 170.833623 259.740256 
L 171.226455 259.269775 
L 171.619287 264.96797 
L 172.012119 258.288076 
L 172.404951 246.594608 
L 172.797783 218.411655 
L 173.190615 215.065668 
L 173.583447 251.627043 
L 173.976279 275.64061 
L 174.369111 278.495332 
L 174.761943 248.584077 
L 175.154775 248.021672 
L 175.547607 246.520393 
L 175.940439 243.375753 
L 176.333271 236.591129 
L 176.726103 242.285917 
L 177.118935 239.700631 
L 177.511767 248.126751 
L 177.904599 253.911052 
L 178.297431 255.85975 
L 178.690263 259.640296 
L 179.083095 262.023627 
L 179.475927 266.50712 
L 179.868759 263.514763 
L 180.654423 268.027032 
L 181.047255 274.06823 
L 181.440087 271.876562 
L 181.832919 273.332521 
L 182.225751 267.773794 
L 182.618583 280.648744 
L 183.011415 276.246862 
L 183.404247 260.925824 
L 183.797079 264.201631 
L 184.582743 247.838124 
L 184.975575 239.240995 
L 185.368407 240.578229 
L 185.761239 242.780953 
L 186.154071 241.113926 
L 186.546903 242.866065 
L 186.939735 249.160527 
L 187.332567 250.106691 
L 187.725399 255.030327 
L 188.118231 255.969245 
L 188.511063 253.65787 
L 188.903895 255.580866 
L 189.296727 265.575986 
L 189.689559 264.721341 
L 190.082391 260.161323 
L 190.475223 264.89185 
L 190.868055 262.40772 
L 191.653719 272.422905 
L 192.046551 277.565655 
L 192.832215 238.554876 
L 193.225047 248.07314 
L 193.617879 233.912756 
L 194.010711 236.719727 
L 194.403543 243.463924 
L 194.796375 237.86304 
L 195.189207 243.997312 
L 195.582039 247.085772 
L 196.367703 258.446774 
L 197.153367 260.02987 
L 197.546199 260.743102 
L 197.939031 256.984134 
L 198.331863 265.238763 
L 198.724695 263.071218 
L 199.117527 253.152391 
L 199.510359 260.565211 
L 199.903191 257.258487 
L 200.296023 270.704127 
L 200.688855 265.723856 
L 201.081687 253.329665 
L 201.474519 252.09179 
L 201.867351 236.94724 
L 202.260183 248.832446 
L 202.653015 240.651061 
L 203.045847 238.84318 
L 203.438679 243.471065 
L 203.831511 244.323411 
L 204.224343 252.665128 
L 204.617175 257.677866 
L 205.010007 260.798395 
L 205.402839 261.110579 
L 205.795671 268.979769 
L 206.188503 267.689301 
L 206.581335 267.694766 
L 206.974167 258.131321 
L 207.759831 211.691407 
L 208.545495 270.689692 
L 208.938327 285.62679 
L 209.331159 266.281526 
L 209.723991 272.095421 
L 210.116823 263.627792 
L 210.509655 235.968189 
L 210.902487 247.910127 
L 211.295319 244.448954 
L 211.688151 242.53614 
L 212.080983 244.345083 
L 213.259479 260.19227 
L 214.045143 266.706722 
L 214.437975 267.629706 
L 214.830807 269.565549 
L 215.223639 273.697113 
L 215.616471 271.092542 
L 216.009303 275.57498 
L 216.402135 277.901054 
L 216.794967 269.505452 
L 217.187799 268.208408 
L 217.580631 276.157917 
L 217.973463 273.495381 
L 218.366295 276.76201 
L 218.759127 268.339913 
L 219.151959 242.951844 
L 219.544791 249.975721 
L 220.723287 237.085119 
L 221.116119 238.726948 
L 221.508951 242.910161 
L 221.901783 245.306288 
L 222.294615 248.783066 
L 223.473111 254.482113 
L 224.258775 260.8255 
L 224.651607 258.158846 
L 225.437271 266.10242 
L 225.830103 267.302884 
L 226.222935 269.521356 
L 226.615767 276.803203 
L 227.401431 259.805326 
L 228.187095 243.412414 
L 228.579927 242.785704 
L 228.972759 243.958985 
L 229.365591 239.489257 
L 229.758423 243.894774 
L 230.151255 245.083649 
L 230.544087 250.903854 
L 230.936919 258.639166 
L 231.329751 258.626274 
L 231.722583 259.264958 
L 232.115415 258.69102 
L 232.508247 256.03354 
L 232.901079 255.682722 
L 233.293911 256.826312 
L 233.686743 260.311538 
L 234.079575 255.493673 
L 234.472407 252.68811 
L 234.865239 250.849392 
L 235.258071 255.224813 
L 235.650903 251.550039 
L 236.043735 267.33873 
L 236.436567 241.881617 
L 236.829399 238.705785 
L 237.222231 246.261535 
L 237.615063 247.230941 
L 238.007895 253.274906 
L 238.400727 252.000191 
L 238.793559 254.217843 
L 239.972055 267.341758 
L 240.364887 267.370433 
L 240.757719 269.238696 
L 241.150551 259.809903 
L 241.936215 210.266083 
L 242.329047 228.809498 
L 242.721879 263.249391 
L 243.114711 276.026113 
L 243.507543 267.537446 
L 243.900375 262.663872 
L 244.293207 267.261723 
L 244.686039 293.055637 
L 245.078871 242.125159 
L 245.471703 250.72414 
L 245.864535 256.294196 
L 246.257367 264.581166 
L 246.650199 253.656852 
L 247.043031 246.97799 
L 247.435863 256.048977 
L 247.828695 259.096932 
L 248.221527 264.872946 
L 248.614359 267.836419 
L 249.007191 268.670482 
L 249.400023 268.609677 
L 249.792855 267.651939 
L 250.578519 268.620652 
L 250.971351 270.735761 
L 251.364183 274.456272 
L 252.149847 259.059983 
L 252.542679 266.971995 
L 252.935511 264.129435 
L 253.328343 272.728573 
L 253.721175 256.926489 
L 254.506839 246.705929 
L 255.292503 251.340277 
L 255.685335 239.361082 
L 256.078167 244.723607 
L 256.470999 245.660773 
L 256.863831 251.929162 
L 257.256663 252.713806 
L 257.649495 257.352488 
L 258.042327 256.204514 
L 258.435159 260.148539 
L 258.827991 257.903411 
L 259.220823 264.11594 
L 259.613655 265.213728 
L 260.006487 258.040954 
L 260.399319 260.741493 
L 260.792151 261.954826 
L 261.184983 256.328367 
L 261.577815 258.174094 
L 261.970647 256.336822 
L 262.363479 256.870205 
L 262.756311 265.040351 
L 263.149143 247.991288 
L 263.541975 248.570574 
L 263.934807 248.221185 
L 264.327639 244.958901 
L 264.720471 254.015963 
L 265.113303 251.587424 
L 265.898967 252.756012 
L 266.291799 256.34307 
L 266.684631 253.575431 
L 267.077463 253.810715 
L 267.470295 255.642684 
L 267.863127 251.436034 
L 268.255959 251.844688 
L 268.648791 253.206088 
L 269.041623 255.042685 
L 269.434455 251.547108 
L 269.827287 253.619237 
L 270.612951 249.586689 
L 271.005783 249.580222 
L 271.398615 249.217613 
L 271.791447 253.360515 
L 272.184279 255.642978 
L 272.577111 246.227147 
L 273.362775 253.795454 
L 273.755607 255.308377 
L 274.148439 250.368553 
L 274.541271 255.455298 
L 274.934103 255.17855 
L 275.326935 261.349909 
L 275.719767 259.55623 
L 276.112599 244.719175 
L 276.505431 214.45948 
L 276.898263 194.407245 
L 277.683927 262.266073 
L 278.076759 263.384724 
L 278.469591 256.026584 
L 278.862423 254.800189 
L 279.255255 258.917875 
L 279.648087 254.081798 
L 280.040919 259.699818 
L 280.433751 268.101995 
L 280.826583 250.076849 
L 281.219415 251.38374 
L 281.612247 243.631976 
L 282.005079 252.65701 
L 282.397911 248.767912 
L 283.183575 246.440067 
L 283.576407 250.99204 
L 283.969239 250.458965 
L 284.362071 255.974727 
L 284.754903 255.76924 
L 285.147735 256.195998 
L 285.540567 253.187742 
L 285.933399 256.440023 
L 286.326231 265.621969 
L 286.719063 264.037204 
L 287.111895 264.302494 
L 287.504727 266.019338 
L 287.897559 260.673038 
L 288.290391 277.136455 
L 288.683223 286.882815 
L 289.076055 254.925701 
L 289.468887 269.921075 
L 289.861719 247.911047 
L 290.254551 246.620645 
L 290.647383 240.77869 
L 291.040215 238.051181 
L 291.433047 240.854354 
L 291.825879 237.554089 
L 292.218711 240.889108 
L 292.611543 246.630976 
L 293.004375 247.905937 
L 293.397207 246.284927 
L 293.790039 250.873072 
L 294.182871 250.538488 
L 294.575703 251.838626 
L 294.968535 259.569535 
L 295.361367 252.872001 
L 295.754199 264.104527 
L 296.147031 261.39044 
L 296.539863 259.650597 
L 296.932695 277.840862 
L 297.325527 289.524426 
L 297.718359 266.137618 
L 298.111191 256.323901 
L 298.504023 254.241359 
L 298.896855 254.207636 
L 299.289687 248.430997 
L 299.682519 245.805193 
L 300.075351 246.527588 
L 300.468183 250.485161 
L 300.861015 247.994297 
L 301.253847 255.049692 
L 301.646679 255.036199 
L 302.039511 254.279918 
L 302.432343 256.438133 
L 302.825175 259.674842 
L 303.218007 259.450771 
L 303.610839 258.224144 
L 304.003671 258.242372 
L 304.396503 259.634135 
L 304.789335 267.29541 
L 305.182167 262.386724 
L 305.574999 264.798011 
L 305.967831 272.53495 
L 306.360663 276.336362 
L 306.753495 270.820962 
L 307.146327 260.829844 
L 307.539159 256.308228 
L 307.931991 256.598565 
L 308.324823 254.933515 
L 308.717655 252.754753 
L 309.110487 251.564287 
L 309.503319 252.539414 
L 309.896151 259.500476 
L 310.288983 256.736506 
L 310.681815 246.071737 
L 311.074647 220.310885 
L 311.467479 206.556777 
L 311.860311 247.737028 
L 312.253143 266.297767 
L 312.645975 271.625396 
L 313.038807 270.775991 
L 313.431639 274.895573 
L 313.824471 276.767621 
L 314.217303 275.818139 
L 314.610135 279.602 
L 315.002967 289.179587 
L 315.395799 262.034215 
L 316.181463 263.127953 
L 316.574295 256.355383 
L 316.967127 255.683416 
L 317.359959 249.85974 
L 317.752791 255.717557 
L 318.145623 255.930452 
L 318.538455 254.408023 
L 318.931287 262.902404 
L 319.324119 262.393686 
L 319.716951 267.129719 
L 320.109783 265.528193 
L 320.502615 261.574905 
L 320.895447 266.34759 
L 321.681111 269.517692 
L 322.073943 273.050183 
L 322.466775 272.23528 
L 322.859607 270.600327 
L 323.252439 274.511555 
L 323.645271 268.404899 
L 324.038103 257.660549 
L 324.430935 255.699241 
L 326.002263 237.541551 
L 326.395095 239.78056 
L 326.787927 244.742838 
L 327.180759 247.928721 
L 327.573591 252.819198 
L 327.966423 249.696936 
L 328.359255 254.349854 
L 328.752087 252.685216 
L 329.537751 257.215302 
L 329.930583 258.90695 
L 330.323415 255.973103 
L 331.109079 257.934005 
L 331.501911 262.755643 
L 331.894743 258.779393 
L 332.287575 260.100788 
L 332.680407 262.276404 
L 333.073239 249.694102 
L 333.466071 246.039842 
L 333.858903 248.801198 
L 334.251735 246.415375 
L 334.644567 248.711134 
L 335.037399 247.739252 
L 335.430231 245.53951 
L 335.823063 251.145016 
L 336.215895 245.855633 
L 336.608727 249.511576 
L 337.001559 249.852078 
L 337.394391 253.001382 
L 337.787223 248.868184 
L 338.180055 255.130077 
L 338.572887 256.976087 
L 338.965719 260.380308 
L 339.358551 261.473074 
L 339.751383 253.562729 
L 340.144215 262.419544 
L 340.537047 262.604021 
L 340.929879 261.618601 
L 341.715543 266.595838 
L 342.108375 252.970985 
L 342.501207 258.632625 
L 342.894039 257.918324 
L 343.286871 249.544739 
L 343.679703 249.827304 
L 344.072535 250.4263 
L 344.465367 253.673519 
L 344.858199 251.430593 
L 345.251031 240.252222 
L 345.643863 209.785291 
L 346.036695 207.174121 
L 346.429527 247.304898 
L 346.822359 271.126152 
L 347.215191 274.526118 
L 347.608023 269.28655 
L 348.000855 272.443711 
L 348.393687 266.204197 
L 348.786519 270.83845 
L 349.179351 270.941581 
L 349.572183 268.129464 
L 349.965015 277.753668 
L 350.357847 269.554826 
L 350.750679 264.606865 
L 351.143511 262.114015 
L 351.536343 262.238688 
L 351.929175 265.206932 
L 352.322007 264.875753 
L 352.714839 260.150379 
L 353.107671 265.528155 
L 353.500503 263.767134 
L 353.893335 265.856347 
L 354.286167 271.985554 
L 355.464663 270.980542 
L 355.857495 271.925749 
L 356.250327 282.322948 
L 356.643159 276.787595 
L 357.035991 266.632266 
L 357.428823 268.379146 
L 357.821655 272.128426 
L 358.214487 263.043938 
L 358.607319 276.51978 
L 359.392983 250.827173 
L 359.785815 259.331337 
L 360.178647 246.479063 
L 360.571479 250.613061 
L 360.964311 247.477724 
L 361.357143 249.880216 
L 361.749975 251.115332 
L 362.142807 253.577055 
L 362.535639 255.28296 
L 362.928471 257.514487 
L 363.321303 257.905667 
L 363.714135 258.725781 
L 364.106967 258.540549 
L 364.892631 267.849277 
L 365.678295 259.567318 
L 366.071127 260.020612 
L 366.463959 257.141046 
L 366.856791 261.018315 
L 367.249623 256.657963 
L 367.642455 258.895722 
L 368.035287 270.993998 
L 368.428119 249.665528 
L 368.820951 258.208271 
L 369.213783 262.34294 
L 369.606615 238.532671 
L 369.999447 248.413731 
L 370.392279 246.99443 
L 370.785111 242.548666 
L 371.177943 239.418482 
L 371.570775 244.542209 
L 372.356439 249.966125 
L 372.749271 251.067129 
L 373.142103 251.532962 
L 373.534935 256.726252 
L 373.927767 258.335328 
L 374.320599 255.370506 
L 374.713431 255.003998 
L 375.106263 261.127094 
L 375.499095 257.613647 
L 375.891927 262.266183 
L 376.677591 279.560622 
L 377.463255 242.947368 
L 377.856087 248.83699 
L 378.248919 244.842696 
L 378.641751 247.308842 
L 379.427415 217.200065 
L 379.820247 189.341495 
L 380.213079 201.312677 
L 380.605911 244.205438 
L 380.998743 253.583624 
L 381.391575 259.522276 
L 381.784407 254.801129 
L 382.177239 257.658752 
L 382.570071 264.086043 
L 382.962903 265.173163 
L 383.355735 264.426218 
L 383.748567 266.58208 
L 384.141399 267.919983 
L 384.534231 268.614015 
L 384.927063 278.816232 
L 385.319895 292.429187 
L 385.712727 266.696868 
L 386.105559 264.608024 
L 386.498391 265.732003 
L 386.891223 256.99858 
L 387.284055 261.096405 
L 387.676887 257.882498 
L 388.069719 250.938207 
L 388.462551 249.389646 
L 388.855383 255.046588 
L 389.248215 257.269408 
L 389.641047 258.7323 
L 390.033879 262.982034 
L 390.426711 261.651515 
L 390.819543 265.608202 
L 391.212375 267.236228 
L 391.605207 266.092855 
L 391.998039 265.775189 
L 392.390871 266.997158 
L 392.783703 267.009217 
L 393.176535 266.553448 
L 393.569367 263.236351 
L 393.962199 267.803272 
L 394.355031 274.762329 
L 394.747863 264.536625 
L 395.140695 260.763539 
L 395.533527 246.749733 
L 395.926359 251.125983 
L 396.319191 247.89151 
L 396.712023 247.576936 
L 397.104855 242.986727 
L 397.497687 241.567604 
L 398.283351 249.550076 
L 398.676183 253.020326 
L 399.069015 253.003906 
L 399.461847 254.207535 
L 400.247511 264.523195 
L 400.640343 261.459309 
L 401.033175 262.069795 
L 401.426007 260.559377 
L 401.818839 267.202169 
L 402.211671 270.571266 
L 402.604503 269.703017 
L 402.997335 280.563193 
L 403.782999 261.276973 
L 404.568663 253.131843 
L 405.354327 244.890452 
L 405.747159 236.443018 
L 406.925655 248.106857 
L 407.318487 248.610443 
L 407.711319 250.204737 
L 408.104151 246.35123 
L 408.496983 251.391887 
L 409.282647 258.383103 
L 409.675479 257.762275 
L 410.068311 259.538717 
L 410.461143 264.033814 
L 410.853975 264.069854 
L 411.639639 283.805069 
L 412.032471 265.616611 
L 412.425303 262.37785 
L 412.818135 251.085744 
L 413.210967 251.694242 
L 413.603799 248.838123 
L 413.996631 234.505398 
L 414.782295 182.816403 
L 415.567959 263.096829 
L 415.960791 266.216512 
L 416.353623 262.950149 
L 416.746455 264.655192 
L 417.139287 264.137022 
L 417.532119 263.914491 
L 417.924951 267.230307 
L 418.317783 274.496794 
L 418.710615 268.906225 
L 419.103447 275.706124 
L 419.496279 275.06219 
L 419.889111 274.713134 
L 420.281943 279.647419 
L 420.674775 278.889716 
L 421.067607 279.746356 
L 421.460439 261.959511 
L 421.853271 260.470292 
L 422.246103 264.024233 
L 422.638935 257.517916 
L 423.031767 259.94022 
L 423.424599 260.098211 
L 423.817431 260.43855 
L 424.210263 266.993322 
L 424.603095 261.665969 
L 424.995927 266.429373 
L 425.388759 264.447947 
L 425.781591 266.797515 
L 426.174423 261.857493 
L 426.567255 265.77803 
L 426.960087 265.646296 
L 427.352919 266.666358 
L 427.745751 259.278649 
L 428.138583 262.443946 
L 428.924247 261.854803 
L 429.317079 256.302679 
L 429.709911 262.791647 
L 430.102743 261.777437 
L 430.495575 261.313245 
L 431.281239 250.10858 
L 431.674071 256.182931 
L 432.066903 259.679347 
L 432.459735 250.97156 
L 432.852567 254.265272 
L 433.245399 254.723141 
L 433.638231 259.663141 
L 434.031063 262.720667 
L 434.423895 257.063436 
L 434.816727 256.586934 
L 435.209559 260.177961 
L 435.602391 260.039332 
L 435.995223 262.375305 
L 436.388055 265.738412 
L 436.780887 261.642338 
L 437.173719 266.430326 
L 437.566551 265.095982 
L 437.959383 258.629141 
L 438.352215 265.074662 
L 438.745047 268.195409 
L 439.137879 247.879642 
L 439.530711 258.663403 
L 439.923543 256.468858 
L 440.316375 245.345476 
L 440.709207 248.24307 
L 441.102039 249.888526 
L 441.494871 253.05359 
L 441.887703 251.923293 
L 442.280535 255.020319 
L 442.673367 256.151927 
L 443.066199 255.965036 
L 443.459031 258.30067 
L 443.851863 255.475718 
L 444.244695 262.481851 
L 444.637527 265.097312 
L 445.030359 274.917827 
L 445.423191 261.936904 
L 445.816023 271.08718 
L 446.601687 265.194278 
L 446.994519 260.200026 
L 447.387351 280.005994 
L 447.780183 267.235043 
L 448.173015 266.410532 
L 448.565847 274.808327 
L 448.958679 243.086489 
L 449.351511 242.737109 
L 449.744343 207.824685 
L 450.137175 209.815058 
L 450.530007 245.316683 
L 450.922839 261.6385 
L 451.315671 272.339715 
L 451.708503 267.237256 
L 452.101335 266.132171 
L 452.494167 265.594727 
L 452.886999 265.302342 
L 453.279831 266.305749 
L 453.672663 271.615186 
L 454.065495 266.009305 
L 454.458327 264.453672 
L 454.851159 267.983037 
L 455.243991 263.890405 
L 455.636823 263.957371 
L 456.029655 255.390406 
L 456.422487 274.941122 
L 456.815319 277.480856 
L 457.208151 252.143914 
L 457.600983 270.666476 
L 457.993815 258.138531 
L 458.386647 261.620481 
L 458.779479 262.542172 
L 459.172311 260.000043 
L 459.565143 267.898057 
L 459.957975 265.803256 
L 460.350807 265.481519 
L 460.743639 267.293 
L 461.136471 267.358594 
L 461.529303 261.91201 
L 461.922135 261.680086 
L 462.314967 265.151135 
L 463.100631 258.11186 
L 463.493463 255.356681 
L 463.886295 242.065106 
L 464.279127 243.02383 
L 464.671959 244.556749 
L 465.064791 238.481744 
L 465.457623 258.054409 
L 465.850455 249.649506 
L 466.243287 250.338002 
L 466.636119 258.37554 
L 467.028951 238.898048 
L 467.421783 251.899868 
L 467.814615 252.509906 
L 468.207447 249.51199 
L 468.600279 250.860949 
L 468.993111 251.188889 
L 469.385943 255.227164 
L 469.778775 256.652182 
L 470.171607 255.812072 
L 470.564439 252.783859 
L 470.957271 256.784125 
L 471.350103 257.074271 
L 471.742935 251.791525 
L 472.135767 255.86159 
L 472.528599 252.303158 
L 472.921431 245.899442 
L 473.314263 252.429705 
L 473.707095 254.131775 
L 474.099927 249.438903 
L 474.492759 254.558692 
L 474.885591 255.896996 
L 475.278423 242.422004 
L 476.064087 248.044761 
L 476.456919 253.278275 
L 476.849751 247.684273 
L 477.242583 246.779154 
L 477.635415 247.584957 
L 478.421079 252.488003 
L 478.813911 250.33297 
L 479.206743 253.378237 
L 479.599575 253.634863 
L 479.992407 261.988711 
L 480.385239 255.055967 
L 480.778071 259.645801 
L 481.170903 254.870105 
L 481.563735 252.917958 
L 481.956567 251.615615 
L 482.349399 254.142096 
L 482.742231 250.463031 
L 483.135063 250.913314 
L 483.527895 250.693037 
L 483.920727 253.540756 
L 484.313559 235.280609 
L 484.706391 187.994161 
L 485.492055 251.90035 
L 485.884887 262.826291 
L 486.670551 255.958049 
L 487.063383 263.033686 
L 487.456215 263.417405 
L 487.849047 262.42338 
L 488.241879 264.780511 
L 488.634711 263.725182 
L 489.027543 264.830274 
L 489.420375 265.072825 
L 489.813207 261.19044 
L 490.206039 259.845643 
L 490.598871 260.834625 
L 490.991703 258.110371 
L 491.384535 259.938759 
L 491.777367 255.159954 
L 492.170199 273.785117 
L 492.563031 269.373449 
L 492.955863 251.338425 
L 493.348695 259.178161 
L 493.741527 262.034402 
L 494.134359 255.640932 
L 494.527191 252.574644 
L 494.920023 254.225797 
L 495.312855 251.552461 
L 495.705687 257.208536 
L 496.098519 258.109501 
L 496.884183 258.811015 
L 497.277015 254.26211 
L 497.669847 253.965788 
L 498.062679 256.503542 
L 498.848343 244.907165 
L 499.241175 250.403485 
L 499.634007 251.478093 
L 500.026839 246.917703 
L 500.419671 245.07601 
L 500.812503 248.623831 
L 501.205335 250.358557 
L 501.598167 244.138963 
L 501.990999 252.137574 
L 502.383831 239.837601 
L 502.776663 245.864256 
L 503.169495 245.951081 
L 503.562327 245.721663 
L 503.955159 248.982122 
L 504.347991 248.799404 
L 504.740823 248.435579 
L 505.526487 255.517054 
L 505.919319 252.037581 
L 506.312151 256.228918 
L 506.704983 257.379037 
L 507.097815 264.116776 
L 507.490647 259.397123 
L 507.883479 260.237177 
L 508.276311 259.920054 
L 508.669143 255.92683 
L 509.061975 256.406055 
L 509.454807 260.802679 
L 509.847639 257.159929 
L 510.240471 244.277655 
L 510.633303 246.751214 
L 511.418967 234.868412 
L 511.811799 242.704458 
L 512.204631 238.448268 
L 512.597463 242.729222 
L 512.990295 243.650222 
L 513.383127 243.359364 
L 513.775959 248.940867 
L 514.168791 249.788291 
L 514.561623 254.597801 
L 514.954455 257.189844 
L 515.347287 261.542645 
L 516.132951 266.849098 
L 516.525783 266.491049 
L 516.918615 265.587097 
L 517.311447 262.761057 
L 517.704279 265.601102 
L 518.097111 270.199252 
L 518.489943 260.916678 
L 519.668439 194.566879 
L 520.454103 261.058214 
L 520.846935 265.12798 
L 521.239767 259.573711 
L 521.632599 262.680366 
L 522.025431 255.693409 
L 522.418263 259.361106 
L 522.811095 260.86489 
L 523.203927 259.557419 
L 523.989591 269.814841 
L 524.382423 264.64647 
L 524.775255 265.712085 
L 525.168087 270.542389 
L 525.560919 267.844235 
L 525.953751 263.268011 
L 526.346583 268.032187 
L 526.739415 263.891715 
L 527.132247 261.495848 
L 527.917911 266.066908 
L 528.310743 268.914215 
L 528.703575 269.291762 
L 529.096407 268.389455 
L 529.489239 271.141312 
L 529.882071 271.497141 
L 530.274903 268.189194 
L 530.667735 266.53406 
L 531.060567 267.001738 
L 531.846231 266.661588 
L 532.239063 267.452095 
L 532.631895 264.689707 
L 533.024727 263.006695 
L 533.810391 257.209452 
L 534.203223 252.308905 
L 534.596055 252.114285 
L 534.988887 252.992119 
L 535.381719 249.550488 
L 535.774551 248.230391 
L 536.167383 253.1037 
L 536.560215 251.08279 
L 536.953047 257.075713 
L 537.345879 257.742741 
L 537.738711 255.812785 
L 538.131543 256.97165 
L 538.524375 256.066573 
L 538.917207 256.724147 
L 539.310039 254.072276 
L 539.702871 252.413305 
L 540.095703 257.486237 
L 540.488535 259.393019 
L 541.274199 255.713109 
L 541.274199 255.713109 
" clip-path="url(#p1960dc305f)" style="fill: none; stroke: #464c55; stroke-width: 0.8; stroke-linecap: round"/>
   </g>
   <g id="LineCollection_2">
    <path d="M 68.697303 280.606824 
L 68.697303 209.799877 
" clip-path="url(#p1960dc305f)" style="fill: none; stroke: #0f4d92; stroke-opacity: 0.98; stroke-width: 1.45"/>
    <path d="M 78.518103 280.606824 
L 78.518103 209.799877 
" clip-path="url(#p1960dc305f)" style="fill: none; stroke: #0f4d92; stroke-opacity: 0.98; stroke-width: 1.45"/>
    <path d="M 86.767575 280.606824 
L 86.767575 209.799877 
" clip-path="url(#p1960dc305f)" style="fill: none; stroke: #0f4d92; stroke-opacity: 0.98; stroke-width: 1.45"/>
    <path d="M 102.088023 280.606824 
L 102.088023 209.799877 
" clip-path="url(#p1960dc305f)" style="fill: none; stroke: #0f4d92; stroke-opacity: 0.98; stroke-width: 1.45"/>
    <path d="M 120.943959 280.606824 
L 120.943959 209.799877 
" clip-path="url(#p1960dc305f)" style="fill: none; stroke: #0f4d92; stroke-opacity: 0.98; stroke-width: 1.45"/>
    <path d="M 139.407063 280.606824 
L 139.407063 209.799877 
" clip-path="url(#p1960dc305f)" style="fill: none; stroke: #0f4d92; stroke-opacity: 0.98; stroke-width: 1.45"/>
    <path d="M 155.906007 280.606824 
L 155.906007 209.799877 
" clip-path="url(#p1960dc305f)" style="fill: none; stroke: #0f4d92; stroke-opacity: 0.98; stroke-width: 1.45"/>
    <path d="M 174.761943 280.606824 
L 174.761943 209.799877 
" clip-path="url(#p1960dc305f)" style="fill: none; stroke: #0f4d92; stroke-opacity: 0.98; stroke-width: 1.45"/>
    <path d="M 191.260887 280.606824 
L 191.260887 209.799877 
" clip-path="url(#p1960dc305f)" style="fill: none; stroke: #0f4d92; stroke-opacity: 0.98; stroke-width: 1.45"/>
    <path d="M 206.581335 280.606824 
L 206.581335 209.799877 
" clip-path="url(#p1960dc305f)" style="fill: none; stroke: #0f4d92; stroke-opacity: 0.98; stroke-width: 1.45"/>
    <path d="M 231.329751 280.606824 
L 231.329751 209.799877 
" clip-path="url(#p1960dc305f)" style="fill: none; stroke: #0f4d92; stroke-opacity: 0.98; stroke-width: 1.45"/>
    <path d="M 243.507543 280.606824 
L 243.507543 209.799877 
" clip-path="url(#p1960dc305f)" style="fill: none; stroke: #0f4d92; stroke-opacity: 0.98; stroke-width: 1.45"/>
    <path d="M 274.934103 280.606824 
L 274.934103 209.799877 
" clip-path="url(#p1960dc305f)" style="fill: none; stroke: #0f4d92; stroke-opacity: 0.98; stroke-width: 1.45"/>
    <path d="M 294.968535 280.606824 
L 294.968535 209.799877 
" clip-path="url(#p1960dc305f)" style="fill: none; stroke: #0f4d92; stroke-opacity: 0.98; stroke-width: 1.45"/>
    <path d="M 311.074647 280.606824 
L 311.074647 209.799877 
" clip-path="url(#p1960dc305f)" style="fill: none; stroke: #0f4d92; stroke-opacity: 0.98; stroke-width: 1.45"/>
    <path d="M 324.823767 280.606824 
L 324.823767 209.799877 
" clip-path="url(#p1960dc305f)" style="fill: none; stroke: #0f4d92; stroke-opacity: 0.98; stroke-width: 1.45"/>
    <path d="M 346.036695 280.606824 
L 346.036695 209.799877 
" clip-path="url(#p1960dc305f)" style="fill: none; stroke: #0f4d92; stroke-opacity: 0.98; stroke-width: 1.45"/>
    <path d="M 378.248919 280.606824 
L 378.248919 209.799877 
" clip-path="url(#p1960dc305f)" style="fill: none; stroke: #0f4d92; stroke-opacity: 0.98; stroke-width: 1.45"/>
    <path d="M 408.889815 280.606824 
L 408.889815 209.799877 
" clip-path="url(#p1960dc305f)" style="fill: none; stroke: #0f4d92; stroke-opacity: 0.98; stroke-width: 1.45"/>
    <path d="M 412.032471 280.606824 
L 412.032471 209.799877 
" clip-path="url(#p1960dc305f)" style="fill: none; stroke: #0f4d92; stroke-opacity: 0.98; stroke-width: 1.45"/>
    <path d="M 447.780183 280.606824 
L 447.780183 209.799877 
" clip-path="url(#p1960dc305f)" style="fill: none; stroke: #0f4d92; stroke-opacity: 0.98; stroke-width: 1.45"/>
    <path d="M 483.920727 280.606824 
L 483.920727 209.799877 
" clip-path="url(#p1960dc305f)" style="fill: none; stroke: #0f4d92; stroke-opacity: 0.98; stroke-width: 1.45"/>
   </g>
   <g id="patch_6">
    <path d="M 50.627031 298.567599 
L 50.627031 177.304441 
" style="fill: none; stroke: #4d4d4d; stroke-width: 0.8; stroke-linejoin: miter; stroke-linecap: square"/>
   </g>
   <g id="patch_7">
    <path d="M 50.627031 298.567599 
L 541.667031 298.567599 
" style="fill: none; stroke: #4d4d4d; stroke-width: 0.8; stroke-linejoin: miter; stroke-linecap: square"/>
   </g>
   <g id="text_23">
    <text style="font-size: 8.3px; font-family: 'Arial', 'Helvetica', 'DejaVu Sans', 'Liberation Sans', sans-serif; text-anchor: start; fill: #767676" x="55.537431" y="190.521215" transform="rotate(-0 55.537431 190.521215)">record 1122248, lead II, n=22</text>
   </g>
   <g id="text_24">
    <text style="font-weight: 700; font-size: 9px; font-family: 'Arial', 'Helvetica', 'DejaVu Sans', 'Liberation Sans', sans-serif; text-anchor: start; fill: #272727" x="13.799031" y="168.858873" transform="rotate(-0 13.799031 168.858873)">b</text>
   </g>
   <g id="text_25">
    <text style="font-weight: 600; font-size: 10px; font-family: 'Arial', 'Helvetica', 'DejaVu Sans', 'Liberation Sans', sans-serif; text-anchor: start; fill: #262626" x="50.627031" y="171.304441" transform="rotate(-0 50.627031 171.304441)">8 s warm-up</text>
   </g>
   <g id="PathCollection_2">
    <defs>
     <path id="m4865957902" d="M -0 2.645751 
L 2.645751 -2.645751 
L -2.645751 -2.645751 
z
" style="stroke: #ffffff; stroke-width: 0.35"/>
    </defs>
    <g>
     <use xlink:href="#m4865957902" x="68.697303" y="209.799877" style="fill: #0f4d92; stroke: #ffffff; stroke-width: 0.35"/>
     <use xlink:href="#m4865957902" x="78.518103" y="209.799877" style="fill: #0f4d92; stroke: #ffffff; stroke-width: 0.35"/>
     <use xlink:href="#m4865957902" x="86.767575" y="209.799877" style="fill: #0f4d92; stroke: #ffffff; stroke-width: 0.35"/>
     <use xlink:href="#m4865957902" x="102.088023" y="209.799877" style="fill: #0f4d92; stroke: #ffffff; stroke-width: 0.35"/>
     <use xlink:href="#m4865957902" x="120.943959" y="209.799877" style="fill: #0f4d92; stroke: #ffffff; stroke-width: 0.35"/>
     <use xlink:href="#m4865957902" x="139.407063" y="209.799877" style="fill: #0f4d92; stroke: #ffffff; stroke-width: 0.35"/>
     <use xlink:href="#m4865957902" x="155.906007" y="209.799877" style="fill: #0f4d92; stroke: #ffffff; stroke-width: 0.35"/>
     <use xlink:href="#m4865957902" x="174.761943" y="209.799877" style="fill: #0f4d92; stroke: #ffffff; stroke-width: 0.35"/>
     <use xlink:href="#m4865957902" x="191.260887" y="209.799877" style="fill: #0f4d92; stroke: #ffffff; stroke-width: 0.35"/>
     <use xlink:href="#m4865957902" x="206.581335" y="209.799877" style="fill: #0f4d92; stroke: #ffffff; stroke-width: 0.35"/>
     <use xlink:href="#m4865957902" x="231.329751" y="209.799877" style="fill: #0f4d92; stroke: #ffffff; stroke-width: 0.35"/>
     <use xlink:href="#m4865957902" x="243.507543" y="209.799877" style="fill: #0f4d92; stroke: #ffffff; stroke-width: 0.35"/>
     <use xlink:href="#m4865957902" x="274.934103" y="209.799877" style="fill: #0f4d92; stroke: #ffffff; stroke-width: 0.35"/>
     <use xlink:href="#m4865957902" x="294.968535" y="209.799877" style="fill: #0f4d92; stroke: #ffffff; stroke-width: 0.35"/>
     <use xlink:href="#m4865957902" x="311.074647" y="209.799877" style="fill: #0f4d92; stroke: #ffffff; stroke-width: 0.35"/>
     <use xlink:href="#m4865957902" x="324.823767" y="209.799877" style="fill: #0f4d92; stroke: #ffffff; stroke-width: 0.35"/>
     <use xlink:href="#m4865957902" x="346.036695" y="209.799877" style="fill: #0f4d92; stroke: #ffffff; stroke-width: 0.35"/>
     <use xlink:href="#m4865957902" x="378.248919" y="209.799877" style="fill: #0f4d92; stroke: #ffffff; stroke-width: 0.35"/>
     <use xlink:href="#m4865957902" x="408.889815" y="209.799877" style="fill: #0f4d92; stroke: #ffffff; stroke-width: 0.35"/>
     <use xlink:href="#m4865957902" x="412.032471" y="209.799877" style="fill: #0f4d92; stroke: #ffffff; stroke-width: 0.35"/>
     <use xlink:href="#m4865957902" x="447.780183" y="209.799877" style="fill: #0f4d92; stroke: #ffffff; stroke-width: 0.35"/>
     <use xlink:href="#m4865957902" x="483.920727" y="209.799877" style="fill: #0f4d92; stroke: #ffffff; stroke-width: 0.35"/>
    </g>
   </g>
   <g id="legend_2">
    <g id="line2d_5">
     <path d="M 423.754656 187.937003 
L 432.154656 187.937003 
L 440.554656 187.937003 
" style="fill: none; stroke: #464c55; stroke-width: 0.8; stroke-linecap: round"/>
    </g>
    <g id="text_26">
     <text style="font-size: 8.4px; font-family: 'Arial', 'Helvetica', 'DejaVu Sans', 'Liberation Sans', sans-serif; text-anchor: start; fill: #262626" x="447.274656" y="190.877003" transform="rotate(-0 447.274656 190.877003)">ECG</text>
    </g>
    <g id="line2d_6">
     <path d="M 423.754656 199.844003 
L 440.554656 199.844003 
" style="fill: none; stroke: #0f4d92; stroke-opacity: 0.98; stroke-width: 1.45"/>
    </g>
    <g id="text_27">
     <text style="font-size: 8.4px; font-family: 'Arial', 'Helvetica', 'DejaVu Sans', 'Liberation Sans', sans-serif; text-anchor: start; fill: #262626" x="447.274656" y="202.784003" transform="rotate(-0 447.274656 202.784003)">8 s warm-up detections</text>
    </g>
   </g>
  </g>
 </g>
 <defs>
  <clipPath id="pc8452e772b">
   <rect x="50.627031" y="22.087599" width="491.04" height="121.263158"/>
  </clipPath>
  <clipPath id="p1960dc305f">
   <rect x="50.627031" y="177.304441" width="491.04" height="121.263158"/>
  </clipPath>
 </defs>
</svg>
