<?xml version="1.0" encoding="utf-8" standalone="no"?>
<!DOCTYPE svg PUBLIC "-//W3C//DTD SVG 1.1//EN"
  "http://www.w3.org/Graphics/SVG/1.1/DTD/svg11.dtd">
<svg xmlns:xlink="http://www.w3.org/1999/xlink" width="233.270506pt" height="227.485828pt" viewBox="0 0 233.270506 227.485828" xmlns="http://www.w3.org/2000/svg" version="1.1">
 <metadata>
  <rdf:RDF xmlns:dc="http://purl.org/dc/elements/1.1/" xmlns:cc="http://creativecommons.org/ns#" xmlns:rdf="http://www.w3.org/1999/02/22-rdf-syntax-ns#">
   <cc:Work>
    <dc:type rdf:resource="http://purl.org/dc/dcmitype/StillImage"/>
    <dc:date>2026-06-28T12:57:46.070783</dc:date>
    <dc:format>image/svg+xml</dc:format>
    <dc:creator>
     <cc:Agent>
      <dc:title>Matplotlib v3.10.9, https://matplotlib.org/</dc:title>
     </cc:Agent>
    </dc:creator>
   </cc:Work>
  </rdf:RDF>
 </metadata>
 <defs>
  <style type="text/css">*{stroke-linejoin: round; stroke-linecap: butt}</style>
 </defs>
 <g id="figure_1">
  <g id="patch_1">
   <path d="M 0 227.485828 
L 233.270506 227.485828 
L 233.270506 0 
L 0 0 
z
" style="fill: #ffffff"/>
  </g>
  <g id="axes_1">
   <g id="patch_2">
    <path d="M 39.222734 195.696 
L 224.960256 195.696 
L 224.960256 7.2 
L 39.222734 7.2 
z
" style="fill: #ffffff"/>
   </g>
   <g id="line2d_1">
    <path d="M 40.142227 194.776507 
L 224.040764 10.877971 
" clip-path="url(#p359f054385)" style="fill: none; stroke-dasharray: 0.96,1.6; stroke-dashoffset: 0; stroke: #7a828f; stroke-width: 0.8"/>
   </g>
   <g id="matplotlib.axis_1">
    <g id="xtick_1">
     <g id="line2d_2">
      <path d="M 40.142227 195.696 
L 40.142227 7.2 
" clip-path="url(#p359f054385)" style="fill: none; stroke: #e6e6e6; stroke-opacity: 0.72; stroke-width: 0.45; stroke-linecap: round"/>
     </g>
     <g id="text_1">
      <text style="font-size: 7.3px; font-family: 'Arial', 'Helvetica', 'DejaVu Sans', 'Liberation Sans', sans-serif; text-anchor: middle; fill: #262626" x="40.142227" y="207.421203" transform="rotate(-0 40.142227 207.421203)">0</text>
     </g>
    </g>
    <g id="xtick_2">
     <g id="line2d_3">
      <path d="M 86.116861 195.696 
L 86.116861 7.2 
" clip-path="url(#p359f054385)" style="fill: none; stroke: #e6e6e6; stroke-opacity: 0.72; stroke-width: 0.45; stroke-linecap: round"/>
     </g>
     <g id="text_2">
      <text style="font-size: 7.3px; font-family: 'Arial', 'Helvetica', 'DejaVu Sans', 'Liberation Sans', sans-serif; text-anchor: middle; fill: #262626" x="86.116861" y="207.421203" transform="rotate(-0 86.116861 207.421203)">0.25</text>
     </g>
    </g>
    <g id="xtick_3">
     <g id="line2d_4">
      <path d="M 132.091495 195.696 
L 132.091495 7.2 
" clip-path="url(#p359f054385)" style="fill: none; stroke: #e6e6e6; stroke-opacity: 0.72; stroke-width: 0.45; stroke-linecap: round"/>
     </g>
     <g id="text_3">
      <text style="font-size: 7.3px; font-family: 'Arial', 'Helvetica', 'DejaVu Sans', 'Liberation Sans', sans-serif; text-anchor: middle; fill: #262626" x="132.091495" y="207.421203" transform="rotate(-0 132.091495 207.421203)">0.5</text>
     </g>
    </g>
    <g id="xtick_4">
     <g id="line2d_5">
      <path d="M 178.066129 195.696 
L 178.066129 7.2 
" clip-path="url(#p359f054385)" style="fill: none; stroke: #e6e6e6; stroke-opacity: 0.72; stroke-width: 0.45; stroke-linecap: round"/>
     </g>
     <g id="text_4">
      <text style="font-size: 7.3px; font-family: 'Arial', 'Helvetica', 'DejaVu Sans', 'Liberation Sans', sans-serif; text-anchor: middle; fill: #262626" x="178.066129" y="207.421203" transform="rotate(-0 178.066129 207.421203)">0.75</text>
     </g>
    </g>
    <g id="xtick_5">
     <g id="line2d_6">
      <path d="M 224.040764 195.696 
L 224.040764 7.2 
" clip-path="url(#p359f054385)" style="fill: none; stroke: #e6e6e6; stroke-opacity: 0.72; stroke-width: 0.45; stroke-linecap: round"/>
     </g>
     <g id="text_5">
      <text style="font-size: 7.3px; font-family: 'Arial', 'Helvetica', 'DejaVu Sans', 'Liberation Sans', sans-serif; text-anchor: middle; fill: #262626" x="224.040764" y="207.421203" transform="rotate(-0 224.040764 207.421203)">1</text>
     </g>
    </g>
    <g id="text_6">
     <text style="font-size: 8px; font-family: 'Arial', 'Helvetica', 'DejaVu Sans', 'Liberation Sans', sans-serif; text-anchor: middle; fill: #272727" x="132.091495" y="218.695828" transform="rotate(-0 132.091495 218.695828)">1-Sp</text>
    </g>
   </g>
   <g id="matplotlib.axis_2">
    <g id="ytick_1">
     <g id="line2d_7">
      <path d="M 39.222734 194.776507 
L 224.960256 194.776507 
" clip-path="url(#p359f054385)" style="fill: none; stroke: #e6e6e6; stroke-opacity: 0.72; stroke-width: 0.45; stroke-linecap: round"/>
     </g>
     <g id="text_7">
      <text style="font-size: 7.3px; font-family: 'Arial', 'Helvetica', 'DejaVu Sans', 'Liberation Sans', sans-serif; text-anchor: end; fill: #262626" x="32.722734" y="197.389109" transform="rotate(-0 32.722734 197.389109)">0</text>
     </g>
    </g>
    <g id="ytick_2">
     <g id="line2d_8">
      <path d="M 39.222734 148.801873 
L 224.960256 148.801873 
" clip-path="url(#p359f054385)" style="fill: none; stroke: #e6e6e6; stroke-opacity: 0.72; stroke-width: 0.45; stroke-linecap: round"/>
     </g>
     <g id="text_8">
      <text style="font-size: 7.3px; font-family: 'Arial', 'Helvetica', 'DejaVu Sans', 'Liberation Sans', sans-serif; text-anchor: end; fill: #262626" x="32.722734" y="151.414475" transform="rotate(-0 32.722734 151.414475)">0.25</text>
     </g>
    </g>
    <g id="ytick_3">
     <g id="line2d_9">
      <path d="M 39.222734 102.827239 
L 224.960256 102.827239 
" clip-path="url(#p359f054385)" style="fill: none; stroke: #e6e6e6; stroke-opacity: 0.72; stroke-width: 0.45; stroke-linecap: round"/>
     </g>
     <g id="text_9">
      <text style="font-size: 7.3px; font-family: 'Arial', 'Helvetica', 'DejaVu Sans', 'Liberation Sans', sans-serif; text-anchor: end; fill: #262626" x="32.722734" y="105.439841" transform="rotate(-0 32.722734 105.439841)">0.5</text>
     </g>
    </g>
    <g id="ytick_4">
     <g id="line2d_10">
      <path d="M 39.222734 56.852605 
L 224.960256 56.852605 
" clip-path="url(#p359f054385)" style="fill: none; stroke: #e6e6e6; stroke-opacity: 0.72; stroke-width: 0.45; stroke-linecap: round"/>
     </g>
     <g id="text_10">
      <text style="font-size: 7.3px; font-family: 'Arial', 'Helvetica', 'DejaVu Sans', 'Liberation Sans', sans-serif; text-anchor: end; fill: #262626" x="32.722734" y="59.465206" transform="rotate(-0 32.722734 59.465206)">0.75</text>
     </g>
    </g>
    <g id="ytick_5">
     <g id="line2d_11">
      <path d="M 39.222734 10.877971 
L 224.960256 10.877971 
" clip-path="url(#p359f054385)" style="fill: none; stroke: #e6e6e6; stroke-opacity: 0.72; stroke-width: 0.45; stroke-linecap: round"/>
     </g>
     <g id="text_11">
      <text style="font-size: 7.3px; font-family: 'Arial', 'Helvetica', 'DejaVu Sans', 'Liberation Sans', sans-serif; text-anchor: end; fill: #262626" x="32.722734" y="13.490572" transform="rotate(-0 32.722734 13.490572)">1</text>
     </g>
    </g>
    <g id="text_12">
     <text style="font-size: 8px; font-family: 'Arial', 'Helvetica', 'DejaVu Sans', 'Liberation Sans', sans-serif; text-anchor: middle; fill: #272727" x="12.92625" y="101.448" transform="rotate(-90 12.92625 101.448)">Se</text>
    </g>
   </g>
   <g id="line2d_12">
    <path d="M 40.142227 194.776507 
L 40.142227 194.380174 
L 40.275487 194.380174 
L 40.275487 194.380174 
L 40.275487 193.059064 
L 40.408747 193.059064 
L 40.408747 193.059064 
L 40.408747 192.662731 
L 40.542006 192.662731 
L 40.542006 192.662731 
L 40.542006 191.870065 
L 40.675266 191.870065 
L 40.675266 191.870065 
L 40.675266 191.473732 
L 40.808526 191.473732 
L 40.808526 191.473732 
L 40.808526 185.660847 
L 40.941786 185.660847 
L 40.941786 185.660847 
L 40.941786 184.339737 
L 41.075046 184.339737 
L 41.075046 184.339737 
L 41.075046 184.207626 
L 41.208306 184.207626 
L 41.208306 184.207626 
L 41.208306 183.811293 
L 41.341565 183.811293 
L 41.341565 183.811293 
L 41.341565 180.112184 
L 41.474825 180.112184 
L 41.474825 180.112184 
L 41.474825 179.847962 
L 41.608085 179.847962 
L 41.608085 179.847962 
L 41.608085 176.016743 
L 41.741345 176.016743 
L 41.741345 176.016743 
L 41.741345 174.431411 
L 41.874605 174.431411 
L 41.874605 174.431411 
L 41.874605 171.78919 
L 42.007864 171.78919 
L 42.007864 171.78919 
L 42.007864 171.657079 
L 42.141124 171.657079 
L 42.141124 171.657079 
L 42.141124 169.411192 
L 42.274384 169.411192 
L 42.274384 169.411192 
L 42.274384 168.222193 
L 42.407644 168.222193 
L 42.407644 168.222193 
L 42.407644 166.901083 
L 42.540904 166.901083 
L 42.540904 166.901083 
L 42.540904 165.976305 
L 42.674163 165.976305 
L 42.674163 165.976305 
L 42.674163 164.919417 
L 42.807423 164.919417 
L 42.807423 164.919417 
L 42.807423 164.655195 
L 42.940683 164.655195 
L 42.940683 164.655195 
L 42.940683 164.523084 
L 43.207203 164.523084 
L 43.207203 164.523084 
L 43.207203 164.390973 
L 43.340462 164.390973 
L 43.340462 164.390973 
L 43.340462 164.258862 
L 43.473722 164.258862 
L 43.473722 164.258862 
L 43.473722 163.99464 
L 43.606982 163.99464 
L 43.606982 163.99464 
L 43.606982 163.862529 
L 43.873502 163.862529 
L 43.873502 163.862529 
L 43.873502 160.823976 
L 44.006762 160.823976 
L 44.006762 160.823976 
L 44.006762 159.634977 
L 44.140021 159.634977 
L 44.140021 159.634977 
L 44.140021 159.106533 
L 44.273281 159.106533 
L 44.273281 159.106533 
L 44.273281 158.842311 
L 44.406541 158.842311 
L 44.406541 158.842311 
L 44.406541 158.578088 
L 44.539801 158.578088 
L 44.539801 158.578088 
L 44.539801 156.728534 
L 44.673061 156.728534 
L 44.673061 156.728534 
L 44.673061 154.87898 
L 44.93958 154.87898 
L 44.93958 154.87898 
L 44.93958 153.822092 
L 45.07284 153.822092 
L 45.07284 153.822092 
L 45.07284 151.04776 
L 45.2061 151.04776 
L 45.2061 151.04776 
L 45.2061 147.612874 
L 45.33936 147.612874 
L 45.33936 147.612874 
L 45.33936 147.216541 
L 45.472619 147.216541 
L 45.472619 147.216541 
L 45.472619 146.159653 
L 45.605879 146.159653 
L 45.605879 146.159653 
L 45.605879 143.121099 
L 45.739139 143.121099 
L 45.739139 143.121099 
L 45.739139 141.535767 
L 45.872399 141.535767 
L 45.872399 141.535767 
L 45.872399 140.478879 
L 46.005659 140.478879 
L 46.005659 140.478879 
L 46.005659 138.365103 
L 46.138918 138.365103 
L 46.138918 138.365103 
L 46.138918 138.232992 
L 46.272178 138.232992 
L 46.272178 138.232992 
L 46.272178 137.176104 
L 46.405438 137.176104 
L 46.405438 137.176104 
L 46.405438 127.66411 
L 46.538698 127.66411 
L 46.538698 127.66411 
L 46.538698 125.418223 
L 46.671958 125.418223 
L 46.671958 125.418223 
L 46.671958 124.625557 
L 46.938477 124.625557 
L 46.938477 124.625557 
L 46.938477 124.361335 
L 47.071737 124.361335 
L 47.071737 124.361335 
L 47.071737 122.37967 
L 47.204997 122.37967 
L 47.204997 122.37967 
L 47.204997 120.662226 
L 47.338257 120.662226 
L 47.338257 120.662226 
L 47.338257 119.737449 
L 47.471517 119.737449 
L 47.471517 119.737449 
L 47.471517 117.623673 
L 47.604776 117.623673 
L 47.604776 117.623673 
L 47.604776 117.095229 
L 47.738036 117.095229 
L 47.738036 117.095229 
L 47.738036 116.698896 
L 47.871296 116.698896 
L 47.871296 116.698896 
L 47.871296 114.320898 
L 48.004556 114.320898 
L 48.004556 114.320898 
L 48.004556 113.924565 
L 48.137816 113.924565 
L 48.137816 113.924565 
L 48.137816 112.867676 
L 48.271075 112.867676 
L 48.271075 112.867676 
L 48.271075 111.414455 
L 48.404335 111.414455 
L 48.404335 111.414455 
L 48.404335 110.093345 
L 48.537595 110.093345 
L 48.537595 110.093345 
L 48.537595 105.60157 
L 48.670855 105.60157 
L 48.670855 105.60157 
L 48.670855 104.808904 
L 48.804115 104.808904 
L 48.804115 104.808904 
L 48.804115 102.034573 
L 48.937374 102.034573 
L 48.937374 102.034573 
L 48.937374 101.241907 
L 49.070634 101.241907 
L 49.070634 101.241907 
L 49.070634 100.977685 
L 49.203894 100.977685 
L 49.203894 100.977685 
L 49.203894 97.674909 
L 49.337154 97.674909 
L 49.337154 97.674909 
L 49.337154 94.504245 
L 49.470414 94.504245 
L 49.470414 94.504245 
L 49.470414 94.240023 
L 49.603674 94.240023 
L 49.603674 94.240023 
L 49.603674 93.711579 
L 49.736933 93.711579 
L 49.736933 93.711579 
L 49.736933 92.654691 
L 49.870193 92.654691 
L 49.870193 92.654691 
L 49.870193 90.408803 
L 50.003453 90.408803 
L 50.003453 90.408803 
L 50.003453 89.351915 
L 50.269973 89.351915 
L 50.269973 89.351915 
L 50.269973 87.766583 
L 50.403232 87.766583 
L 50.403232 87.766583 
L 50.403232 87.502361 
L 50.536492 87.502361 
L 50.536492 87.502361 
L 50.536492 87.238139 
L 50.669752 87.238139 
L 50.669752 87.238139 
L 50.669752 85.917029 
L 50.803012 85.917029 
L 50.803012 85.917029 
L 50.803012 84.860141 
L 50.936272 84.860141 
L 50.936272 84.860141 
L 50.936272 84.067475 
L 51.069531 84.067475 
L 51.069531 84.067475 
L 51.069531 83.671141 
L 51.202791 83.671141 
L 51.202791 83.671141 
L 51.202791 83.142697 
L 51.469311 83.142697 
L 51.469311 83.142697 
L 51.469311 80.764699 
L 51.602571 80.764699 
L 51.602571 80.764699 
L 51.602571 79.707811 
L 51.73583 79.707811 
L 51.73583 79.707811 
L 51.73583 77.065591 
L 51.86909 77.065591 
L 51.86909 77.065591 
L 51.86909 74.951814 
L 52.00235 74.951814 
L 52.00235 74.951814 
L 52.00235 74.555481 
L 52.13561 74.555481 
L 52.13561 74.555481 
L 52.13561 73.894926 
L 52.26887 73.894926 
L 52.26887 73.894926 
L 52.26887 71.649039 
L 52.402129 71.649039 
L 52.402129 71.649039 
L 52.402129 71.516928 
L 52.535389 71.516928 
L 52.535389 71.516928 
L 52.535389 70.592151 
L 52.668649 70.592151 
L 52.668649 70.592151 
L 52.668649 70.46004 
L 52.801909 70.46004 
L 52.801909 70.46004 
L 52.801909 69.271041 
L 52.935169 69.271041 
L 52.935169 69.271041 
L 52.935169 68.214152 
L 53.068429 68.214152 
L 53.068429 68.214152 
L 53.068429 68.082041 
L 53.201688 68.082041 
L 53.201688 68.082041 
L 53.201688 67.025153 
L 53.334948 67.025153 
L 53.334948 67.025153 
L 53.334948 66.893042 
L 53.601468 66.893042 
L 53.601468 66.893042 
L 53.601468 66.232487 
L 53.734728 66.232487 
L 53.734728 66.232487 
L 53.734728 65.968265 
L 54.134507 65.968265 
L 54.134507 65.968265 
L 54.134507 62.401268 
L 54.267767 62.401268 
L 54.267767 62.401268 
L 54.267767 60.948046 
L 54.401027 60.948046 
L 54.401027 60.948046 
L 54.401027 57.248938 
L 54.534286 57.248938 
L 54.534286 57.248938 
L 54.534286 57.116827 
L 54.667546 57.116827 
L 54.667546 57.116827 
L 54.667546 55.399384 
L 54.934066 55.399384 
L 54.934066 55.399384 
L 54.934066 53.814051 
L 55.067326 53.814051 
L 55.067326 53.814051 
L 55.067326 52.889274 
L 55.200585 52.889274 
L 55.200585 52.889274 
L 55.200585 48.3975 
L 55.333845 48.3975 
L 55.333845 48.3975 
L 55.333845 46.812168 
L 55.467105 46.812168 
L 55.467105 46.812168 
L 55.467105 46.151612 
L 55.733625 46.151612 
L 55.733625 46.151612 
L 55.733625 45.755279 
L 55.866885 45.755279 
L 55.866885 45.755279 
L 55.866885 45.094724 
L 56.000144 45.094724 
L 56.000144 45.094724 
L 56.000144 44.962613 
L 56.266664 44.962613 
L 56.266664 44.962613 
L 56.266664 44.56628 
L 56.399924 44.56628 
L 56.399924 44.56628 
L 56.399924 44.037836 
L 56.533184 44.037836 
L 56.533184 44.037836 
L 56.533184 41.527727 
L 56.932963 41.527727 
L 56.932963 41.527727 
L 56.932963 41.263505 
L 57.066223 41.263505 
L 57.066223 41.263505 
L 57.066223 39.810284 
L 57.199483 39.810284 
L 57.199483 39.810284 
L 57.199483 38.885506 
L 57.332742 38.885506 
L 57.332742 38.885506 
L 57.332742 38.489173 
L 57.466002 38.489173 
L 57.466002 38.489173 
L 57.466002 38.357062 
L 57.599262 38.357062 
L 57.599262 38.357062 
L 57.599262 37.432285 
L 57.732522 37.432285 
L 57.732522 37.432285 
L 57.732522 37.300174 
L 57.865782 37.300174 
L 57.865782 37.300174 
L 57.865782 36.903841 
L 57.999041 36.903841 
L 57.999041 36.903841 
L 57.999041 36.375397 
L 58.132301 36.375397 
L 58.132301 36.375397 
L 58.132301 34.525843 
L 58.265561 34.525843 
L 58.265561 34.525843 
L 58.265561 33.336844 
L 58.398821 33.336844 
L 58.398821 33.336844 
L 58.398821 33.204733 
L 58.665341 33.204733 
L 58.665341 33.204733 
L 58.665341 32.940511 
L 59.06512 32.940511 
L 59.06512 32.940511 
L 59.06512 32.676289 
L 59.464899 32.676289 
L 59.464899 32.676289 
L 59.464899 32.015734 
L 59.598159 32.015734 
L 59.598159 32.015734 
L 59.598159 31.883623 
L 59.731419 31.883623 
L 59.731419 31.883623 
L 59.731419 30.430401 
L 59.864679 30.430401 
L 59.864679 30.430401 
L 59.864679 30.29829 
L 60.397718 30.29829 
L 60.397718 30.29829 
L 60.397718 30.166179 
L 60.797497 30.166179 
L 60.797497 30.166179 
L 60.797497 29.901957 
L 61.064017 29.901957 
L 61.064017 29.901957 
L 61.064017 29.769846 
L 61.197277 29.769846 
L 61.197277 29.769846 
L 61.197277 29.637735 
L 61.330537 29.637735 
L 61.330537 29.637735 
L 61.330537 28.97718 
L 61.463797 28.97718 
L 61.463797 28.97718 
L 61.463797 28.845069 
L 61.597056 28.845069 
L 61.597056 28.845069 
L 61.597056 28.052403 
L 61.730316 28.052403 
L 61.730316 28.052403 
L 61.730316 27.788181 
L 61.863576 27.788181 
L 61.863576 27.788181 
L 61.863576 27.391848 
L 61.996836 27.391848 
L 61.996836 27.391848 
L 61.996836 27.259737 
L 62.130096 27.259737 
L 62.130096 27.259737 
L 62.130096 27.127626 
L 62.263355 27.127626 
L 62.263355 27.127626 
L 62.263355 26.863404 
L 62.529875 26.863404 
L 62.529875 26.863404 
L 62.529875 26.731293 
L 62.796395 26.731293 
L 62.796395 26.731293 
L 62.796395 26.599182 
L 62.929654 26.599182 
L 62.929654 26.599182 
L 62.929654 26.467071 
L 63.062914 26.467071 
L 63.062914 26.467071 
L 63.062914 26.33496 
L 63.196174 26.33496 
L 63.196174 26.33496 
L 63.196174 25.145961 
L 63.329434 25.145961 
L 63.329434 25.145961 
L 63.329434 25.01385 
L 63.462694 25.01385 
L 63.462694 25.01385 
L 63.462694 24.617517 
L 63.595953 24.617517 
L 63.595953 24.617517 
L 63.595953 24.485406 
L 63.729213 24.485406 
L 63.729213 24.485406 
L 63.729213 24.353295 
L 64.262253 24.353295 
L 64.262253 24.353295 
L 64.262253 24.221184 
L 64.395512 24.221184 
L 64.395512 24.221184 
L 64.395512 23.296406 
L 64.528772 23.296406 
L 64.528772 23.296406 
L 64.528772 23.164295 
L 64.662032 23.164295 
L 64.662032 23.164295 
L 64.662032 22.239518 
L 64.795292 22.239518 
L 64.795292 22.239518 
L 64.795292 21.975296 
L 65.061811 21.975296 
L 65.061811 21.975296 
L 65.061811 21.843185 
L 65.461591 21.843185 
L 65.461591 21.843185 
L 65.461591 21.446852 
L 65.72811 21.446852 
L 65.72811 21.446852 
L 65.72811 21.18263 
L 66.12789 21.18263 
L 66.12789 21.18263 
L 66.12789 21.050519 
L 66.26115 21.050519 
L 66.26115 21.050519 
L 66.26115 20.786297 
L 66.394409 20.786297 
L 66.394409 20.786297 
L 66.394409 20.654186 
L 66.527669 20.654186 
L 66.527669 20.654186 
L 66.527669 20.522075 
L 66.660929 20.522075 
L 66.660929 20.522075 
L 66.660929 19.729409 
L 66.794189 19.729409 
L 66.794189 19.729409 
L 66.794189 19.597298 
L 67.060709 19.597298 
L 67.060709 19.597298 
L 67.060709 19.200965 
L 67.460488 19.200965 
L 67.460488 19.200965 
L 67.460488 19.068854 
L 67.593748 19.068854 
L 67.593748 19.068854 
L 67.593748 18.936743 
L 67.727008 18.936743 
L 67.727008 18.936743 
L 67.727008 18.804632 
L 67.860267 18.804632 
L 67.860267 18.804632 
L 67.860267 18.672521 
L 67.993527 18.672521 
L 67.993527 18.672521 
L 67.993527 18.54041 
L 68.260047 18.54041 
L 68.260047 18.54041 
L 68.260047 18.408299 
L 68.526566 18.408299 
L 68.526566 18.408299 
L 68.526566 18.011966 
L 68.659826 18.011966 
L 68.659826 18.011966 
L 68.659826 17.351411 
L 68.926346 17.351411 
L 68.926346 17.351411 
L 68.926346 17.087189 
L 69.059606 17.087189 
L 69.059606 17.087189 
L 69.059606 16.955078 
L 69.192865 16.955078 
L 69.192865 16.955078 
L 69.192865 16.822967 
L 69.326125 16.822967 
L 69.326125 16.822967 
L 69.326125 16.690856 
L 69.859164 16.690856 
L 69.859164 16.690856 
L 69.859164 16.426633 
L 70.925243 16.426633 
L 70.925243 16.426633 
L 70.925243 16.0303 
L 71.058503 16.0303 
L 71.058503 16.0303 
L 71.058503 15.898189 
L 71.325022 15.898189 
L 71.325022 15.898189 
L 71.325022 15.766078 
L 71.858062 15.766078 
L 71.858062 15.766078 
L 71.858062 15.633967 
L 71.991321 15.633967 
L 71.991321 15.633967 
L 71.991321 14.973412 
L 72.124581 14.973412 
L 72.124581 14.973412 
L 72.124581 14.841301 
L 73.0574 14.841301 
L 73.0574 14.841301 
L 73.0574 14.70919 
L 73.32392 14.70919 
L 73.32392 14.70919 
L 73.32392 14.444968 
L 74.656518 14.444968 
L 74.656518 14.444968 
L 74.656518 14.312857 
L 75.456076 14.312857 
L 75.456076 14.312857 
L 75.456076 14.180746 
L 76.122376 14.180746 
L 76.122376 14.180746 
L 76.122376 14.048635 
L 76.655415 14.048635 
L 76.655415 14.048635 
L 76.655415 13.916524 
L 76.788675 13.916524 
L 76.788675 13.916524 
L 76.788675 13.652302 
L 77.055194 13.652302 
L 77.055194 13.652302 
L 77.055194 13.520191 
L 78.121273 13.520191 
L 78.121273 13.520191 
L 78.121273 13.38808 
L 79.453871 13.38808 
L 79.453871 13.38808 
L 79.453871 13.255969 
L 79.85365 13.255969 
L 79.85365 13.255969 
L 79.85365 13.123858 
L 80.786469 13.123858 
L 80.786469 13.123858 
L 80.786469 12.991747 
L 81.052988 12.991747 
L 81.052988 12.991747 
L 81.052988 12.859636 
L 81.719288 12.859636 
L 81.719288 12.859636 
L 81.719288 12.727525 
L 86.516641 12.727525 
L 86.516641 12.727525 
L 86.516641 12.595414 
L 91.047474 12.595414 
L 91.047474 12.595414 
L 91.047474 12.463303 
L 93.84593 12.463303 
L 93.84593 12.463303 
L 93.84593 12.331192 
L 95.311788 12.331192 
L 95.311788 12.331192 
L 95.311788 12.199081 
L 98.776543 12.199081 
L 98.776543 12.199081 
L 98.776543 12.06697 
L 99.043063 12.06697 
L 99.043063 12.06697 
L 99.043063 11.934859 
L 99.576102 11.934859 
L 99.576102 11.934859 
L 99.576102 11.802748 
L 112.369044 11.802748 
L 112.369044 11.802748 
L 112.369044 11.670637 
L 131.958236 11.670637 
L 131.958236 11.670637 
L 131.958236 11.538526 
L 133.557353 11.538526 
L 133.557353 11.538526 
L 133.557353 11.406415 
L 143.15206 11.406415 
L 143.15206 11.406415 
L 143.15206 11.274304 
L 174.334855 11.274304 
L 174.334855 11.274304 
L 174.334855 11.142193 
L 220.842528 11.142193 
L 220.842528 11.142193 
L 220.842528 11.010082 
L 224.040764 11.010082 
L 224.040764 11.010082 
L 224.040764 10.877971 
L 224.040764 10.877971 
" clip-path="url(#p359f054385)" style="fill: none; stroke: #0f4d92; stroke-width: 1.25; stroke-linecap: round"/>
   </g>
   <g id="line2d_13">
    <path d="M 40.142227 194.776507 
L 40.142227 194.644396 
L 40.275487 194.644396 
L 40.275487 194.644396 
L 40.275487 193.455397 
L 40.408747 193.455397 
L 40.408747 193.455397 
L 40.408747 192.662731 
L 40.542006 192.662731 
L 40.542006 192.662731 
L 40.542006 191.605843 
L 40.675266 191.605843 
L 40.675266 191.605843 
L 40.675266 190.152622 
L 40.941786 190.152622 
L 40.941786 190.152622 
L 40.941786 189.756289 
L 41.075046 189.756289 
L 41.075046 189.756289 
L 41.075046 189.095734 
L 41.208306 189.095734 
L 41.208306 189.095734 
L 41.208306 188.435178 
L 41.341565 188.435178 
L 41.341565 188.435178 
L 41.341565 187.774623 
L 41.474825 187.774623 
L 41.474825 187.774623 
L 41.474825 187.37829 
L 41.608085 187.37829 
L 41.608085 187.37829 
L 41.608085 186.321402 
L 41.874605 186.321402 
L 41.874605 186.321402 
L 41.874605 186.05718 
L 42.007864 186.05718 
L 42.007864 186.05718 
L 42.007864 184.868181 
L 42.141124 184.868181 
L 42.141124 184.868181 
L 42.141124 184.603959 
L 42.274384 184.603959 
L 42.274384 184.603959 
L 42.274384 184.339737 
L 42.407644 184.339737 
L 42.407644 184.339737 
L 42.407644 180.508517 
L 42.540904 180.508517 
L 42.540904 180.508517 
L 42.540904 179.319518 
L 42.807423 179.319518 
L 42.807423 179.319518 
L 42.807423 177.998408 
L 43.073943 177.998408 
L 43.073943 177.998408 
L 43.073943 177.469964 
L 43.207203 177.469964 
L 43.207203 177.469964 
L 43.207203 175.224077 
L 43.340462 175.224077 
L 43.340462 175.224077 
L 43.340462 170.46808 
L 43.473722 170.46808 
L 43.473722 170.46808 
L 43.473722 169.675414 
L 43.740242 169.675414 
L 43.740242 169.675414 
L 43.740242 168.750637 
L 43.873502 168.750637 
L 43.873502 168.750637 
L 43.873502 163.201974 
L 44.006762 163.201974 
L 44.006762 163.201974 
L 44.006762 162.805641 
L 44.140021 162.805641 
L 44.140021 162.805641 
L 44.140021 161.088198 
L 44.406541 161.088198 
L 44.406541 161.088198 
L 44.406541 157.785422 
L 44.539801 157.785422 
L 44.539801 157.785422 
L 44.539801 157.124867 
L 44.80632 157.124867 
L 44.80632 157.124867 
L 44.80632 155.275313 
L 44.93958 155.275313 
L 44.93958 155.275313 
L 44.93958 155.011091 
L 45.07284 155.011091 
L 45.07284 155.011091 
L 45.07284 154.482647 
L 45.2061 154.482647 
L 45.2061 154.482647 
L 45.2061 151.179871 
L 45.33936 151.179871 
L 45.33936 151.179871 
L 45.33936 150.387205 
L 45.472619 150.387205 
L 45.472619 150.387205 
L 45.472619 149.066095 
L 45.605879 149.066095 
L 45.605879 149.066095 
L 45.605879 148.801873 
L 45.739139 148.801873 
L 45.739139 148.801873 
L 45.739139 147.612874 
L 45.872399 147.612874 
L 45.872399 147.612874 
L 45.872399 147.480763 
L 46.005659 147.480763 
L 46.005659 147.480763 
L 46.005659 146.423875 
L 46.138918 146.423875 
L 46.138918 146.423875 
L 46.138918 145.76332 
L 46.272178 145.76332 
L 46.272178 145.76332 
L 46.272178 144.574321 
L 46.405438 144.574321 
L 46.405438 144.574321 
L 46.405438 144.045877 
L 46.538698 144.045877 
L 46.538698 144.045877 
L 46.538698 143.781654 
L 46.671958 143.781654 
L 46.671958 143.781654 
L 46.671958 140.875212 
L 46.805218 140.875212 
L 46.805218 140.875212 
L 46.805218 140.214657 
L 46.938477 140.214657 
L 46.938477 140.214657 
L 46.938477 139.28988 
L 47.071737 139.28988 
L 47.071737 139.28988 
L 47.071737 138.893547 
L 47.204997 138.893547 
L 47.204997 138.893547 
L 47.204997 136.64766 
L 47.471517 136.64766 
L 47.471517 136.64766 
L 47.471517 135.854993 
L 47.604776 135.854993 
L 47.604776 135.854993 
L 47.604776 129.645776 
L 47.738036 129.645776 
L 47.738036 129.645776 
L 47.738036 124.493446 
L 47.871296 124.493446 
L 47.871296 124.493446 
L 47.871296 121.587004 
L 48.004556 121.587004 
L 48.004556 121.587004 
L 48.004556 121.322781 
L 48.137816 121.322781 
L 48.137816 121.322781 
L 48.137816 120.926448 
L 48.271075 120.926448 
L 48.271075 120.926448 
L 48.271075 120.662226 
L 48.404335 120.662226 
L 48.404335 120.662226 
L 48.404335 120.265893 
L 48.537595 120.265893 
L 48.537595 120.265893 
L 48.537595 119.209005 
L 48.670855 119.209005 
L 48.670855 119.209005 
L 48.670855 117.887895 
L 48.804115 117.887895 
L 48.804115 117.887895 
L 48.804115 116.698896 
L 48.937374 116.698896 
L 48.937374 116.698896 
L 48.937374 115.509897 
L 49.070634 115.509897 
L 49.070634 115.509897 
L 49.070634 115.113564 
L 49.203894 115.113564 
L 49.203894 115.113564 
L 49.203894 114.58512 
L 49.337154 114.58512 
L 49.337154 114.58512 
L 49.337154 113.131898 
L 49.470414 113.131898 
L 49.470414 113.131898 
L 49.470414 111.810788 
L 49.603674 111.810788 
L 49.603674 111.810788 
L 49.603674 106.922681 
L 49.736933 106.922681 
L 49.736933 106.922681 
L 49.736933 106.262125 
L 49.870193 106.262125 
L 49.870193 106.262125 
L 49.870193 102.166684 
L 50.003453 102.166684 
L 50.003453 102.166684 
L 50.003453 100.977685 
L 50.136713 100.977685 
L 50.136713 100.977685 
L 50.136713 100.449241 
L 50.269973 100.449241 
L 50.269973 100.449241 
L 50.269973 100.185019 
L 50.403232 100.185019 
L 50.403232 100.185019 
L 50.403232 96.882243 
L 50.536492 96.882243 
L 50.536492 96.882243 
L 50.536492 94.240023 
L 50.669752 94.240023 
L 50.669752 94.240023 
L 50.669752 93.051024 
L 50.803012 93.051024 
L 50.803012 93.051024 
L 50.803012 91.597803 
L 50.936272 91.597803 
L 50.936272 91.597803 
L 50.936272 91.069358 
L 51.069531 91.069358 
L 51.069531 91.069358 
L 51.069531 90.01247 
L 51.202791 90.01247 
L 51.202791 90.01247 
L 51.202791 89.748248 
L 51.336051 89.748248 
L 51.336051 89.748248 
L 51.336051 89.219804 
L 51.469311 89.219804 
L 51.469311 89.219804 
L 51.469311 87.766583 
L 51.602571 87.766583 
L 51.602571 87.766583 
L 51.602571 86.709695 
L 51.73583 86.709695 
L 51.73583 86.709695 
L 51.73583 86.04914 
L 51.86909 86.04914 
L 51.86909 86.04914 
L 51.86909 85.652807 
L 52.00235 85.652807 
L 52.00235 85.652807 
L 52.00235 84.067475 
L 52.13561 84.067475 
L 52.13561 84.067475 
L 52.13561 83.671141 
L 52.26887 83.671141 
L 52.26887 83.671141 
L 52.26887 82.614253 
L 52.402129 82.614253 
L 52.402129 82.614253 
L 52.402129 82.21792 
L 52.535389 82.21792 
L 52.535389 82.21792 
L 52.535389 79.839922 
L 52.668649 79.839922 
L 52.668649 79.839922 
L 52.668649 77.594035 
L 52.801909 77.594035 
L 52.801909 77.594035 
L 52.801909 76.669258 
L 52.935169 76.669258 
L 52.935169 76.669258 
L 52.935169 74.687592 
L 53.068429 74.687592 
L 53.068429 74.687592 
L 53.068429 74.027037 
L 53.201688 74.027037 
L 53.201688 74.027037 
L 53.201688 73.498593 
L 53.334948 73.498593 
L 53.334948 73.498593 
L 53.334948 67.94993 
L 53.468208 67.94993 
L 53.468208 67.94993 
L 53.468208 67.685708 
L 53.867987 67.685708 
L 53.867987 67.685708 
L 53.867987 65.836154 
L 54.001247 65.836154 
L 54.001247 65.836154 
L 54.001247 65.704043 
L 54.134507 65.704043 
L 54.134507 65.704043 
L 54.134507 63.458156 
L 54.267767 63.458156 
L 54.267767 63.458156 
L 54.267767 63.326045 
L 54.401027 63.326045 
L 54.401027 63.326045 
L 54.401027 60.15538 
L 54.534286 60.15538 
L 54.534286 60.15538 
L 54.534286 59.362714 
L 54.800806 59.362714 
L 54.800806 59.362714 
L 54.800806 58.702159 
L 54.934066 58.702159 
L 54.934066 58.702159 
L 54.934066 54.078274 
L 55.067326 54.078274 
L 55.067326 54.078274 
L 55.067326 53.021385 
L 55.200585 53.021385 
L 55.200585 53.021385 
L 55.200585 51.832386 
L 55.333845 51.832386 
L 55.333845 51.832386 
L 55.333845 48.265389 
L 55.467105 48.265389 
L 55.467105 48.265389 
L 55.467105 44.169947 
L 55.733625 44.169947 
L 55.733625 44.169947 
L 55.733625 43.24517 
L 55.866885 43.24517 
L 55.866885 43.24517 
L 55.866885 42.188282 
L 56.000144 42.188282 
L 56.000144 42.188282 
L 56.000144 42.056171 
L 56.133404 42.056171 
L 56.133404 42.056171 
L 56.133404 41.791949 
L 56.266664 41.791949 
L 56.266664 41.791949 
L 56.266664 41.527727 
L 56.399924 41.527727 
L 56.399924 41.527727 
L 56.399924 40.206617 
L 56.533184 40.206617 
L 56.533184 40.206617 
L 56.533184 40.074506 
L 56.666443 40.074506 
L 56.666443 40.074506 
L 56.666443 39.810284 
L 56.799703 39.810284 
L 56.799703 39.810284 
L 56.799703 38.753395 
L 56.932963 38.753395 
L 56.932963 38.753395 
L 56.932963 37.168063 
L 57.066223 37.168063 
L 57.066223 37.168063 
L 57.066223 36.507508 
L 57.199483 36.507508 
L 57.199483 36.507508 
L 57.199483 36.243286 
L 57.332742 36.243286 
L 57.332742 36.243286 
L 57.332742 36.111175 
L 57.466002 36.111175 
L 57.466002 36.111175 
L 57.466002 35.054287 
L 57.599262 35.054287 
L 57.599262 35.054287 
L 57.599262 34.790065 
L 57.865782 34.790065 
L 57.865782 34.790065 
L 57.865782 32.940511 
L 57.999041 32.940511 
L 57.999041 32.940511 
L 57.999041 32.279956 
L 58.132301 32.279956 
L 58.132301 32.279956 
L 58.132301 32.015734 
L 58.265561 32.015734 
L 58.265561 32.015734 
L 58.265561 31.090956 
L 58.398821 31.090956 
L 58.398821 31.090956 
L 58.398821 30.034068 
L 58.93186 30.034068 
L 58.93186 30.034068 
L 58.93186 29.901957 
L 59.19838 29.901957 
L 59.19838 29.901957 
L 59.19838 29.769846 
L 59.464899 29.769846 
L 59.464899 29.769846 
L 59.464899 29.637735 
L 59.598159 29.637735 
L 59.598159 29.637735 
L 59.598159 29.109291 
L 59.731419 29.109291 
L 59.731419 29.109291 
L 59.731419 28.845069 
L 59.864679 28.845069 
L 59.864679 28.845069 
L 59.864679 28.052403 
L 59.997939 28.052403 
L 59.997939 28.052403 
L 59.997939 27.65607 
L 60.530978 27.65607 
L 60.530978 27.259737 
L 60.664238 27.259737 
L 60.664238 27.259737 
L 60.664238 27.127626 
L 61.064017 27.127626 
L 61.064017 27.127626 
L 61.064017 26.863404 
L 61.730316 26.863404 
L 61.730316 26.863404 
L 61.730316 26.202849 
L 61.996836 26.202849 
L 61.996836 26.202849 
L 61.996836 25.674405 
L 62.130096 25.674405 
L 62.130096 25.674405 
L 62.130096 25.278072 
L 62.263355 25.278072 
L 62.263355 25.278072 
L 62.263355 25.01385 
L 62.396615 25.01385 
L 62.396615 25.01385 
L 62.396615 24.881739 
L 62.529875 24.881739 
L 62.529875 24.881739 
L 62.529875 24.485406 
L 62.796395 24.485406 
L 62.796395 24.485406 
L 62.796395 23.956961 
L 63.196174 23.956961 
L 63.196174 23.956961 
L 63.196174 23.692739 
L 63.595953 23.692739 
L 63.595953 23.692739 
L 63.595953 23.560628 
L 63.729213 23.560628 
L 63.729213 23.560628 
L 63.729213 23.296406 
L 63.862473 23.296406 
L 63.862473 23.296406 
L 63.862473 23.164295 
L 63.995733 23.164295 
L 63.995733 23.164295 
L 63.995733 22.635851 
L 64.395512 22.635851 
L 64.395512 22.635851 
L 64.395512 22.50374 
L 64.662032 22.50374 
L 64.662032 22.50374 
L 64.662032 22.239518 
L 65.195071 22.239518 
L 65.195071 22.239518 
L 65.195071 22.107407 
L 65.328331 22.107407 
L 65.328331 22.107407 
L 65.328331 21.446852 
L 65.594851 21.446852 
L 65.594851 21.446852 
L 65.594851 21.314741 
L 65.99463 21.314741 
L 65.99463 21.314741 
L 65.99463 21.18263 
L 66.527669 21.18263 
L 66.527669 21.18263 
L 66.527669 20.786297 
L 66.794189 20.786297 
L 66.794189 20.786297 
L 66.794189 20.654186 
L 67.460488 20.654186 
L 67.460488 20.654186 
L 67.460488 20.522075 
L 68.126787 20.522075 
L 68.126787 20.522075 
L 68.126787 20.389964 
L 68.260047 20.389964 
L 68.260047 20.389964 
L 68.260047 20.125742 
L 68.926346 20.125742 
L 68.926346 20.125742 
L 68.926346 19.993631 
L 69.059606 19.993631 
L 69.059606 19.993631 
L 69.059606 19.86152 
L 69.725905 19.86152 
L 69.725905 19.86152 
L 69.725905 19.597298 
L 70.525464 19.597298 
L 70.525464 19.597298 
L 70.525464 19.465187 
L 70.658723 19.465187 
L 70.658723 19.465187 
L 70.658723 19.333076 
L 72.257841 19.333076 
L 72.257841 19.333076 
L 72.257841 19.200965 
L 72.391101 19.200965 
L 72.391101 19.200965 
L 72.391101 19.068854 
L 72.524361 19.068854 
L 72.524361 19.068854 
L 72.524361 18.936743 
L 72.92414 18.936743 
L 72.92414 18.936743 
L 72.92414 18.54041 
L 73.0574 18.54041 
L 73.0574 18.54041 
L 73.0574 18.408299 
L 74.389998 18.408299 
L 74.389998 18.408299 
L 74.389998 18.276188 
L 75.589336 18.276188 
L 75.589336 18.276188 
L 75.589336 18.144077 
L 76.122376 18.144077 
L 76.122376 18.144077 
L 76.122376 17.879855 
L 77.055194 17.879855 
L 77.055194 17.879855 
L 77.055194 17.747744 
L 77.588233 17.747744 
L 77.588233 17.747744 
L 77.588233 17.615633 
L 77.988013 17.615633 
L 77.988013 17.615633 
L 77.988013 17.483522 
L 78.254532 17.483522 
L 78.254532 17.483522 
L 78.254532 17.351411 
L 78.521052 17.351411 
L 78.521052 17.351411 
L 78.521052 17.2193 
L 78.654312 17.2193 
L 78.654312 17.2193 
L 78.654312 17.087189 
L 78.920832 17.087189 
L 78.920832 17.087189 
L 78.920832 16.955078 
L 79.054091 16.955078 
L 79.054091 16.955078 
L 79.054091 16.822967 
L 80.12017 16.822967 
L 80.12017 16.822967 
L 80.12017 16.690856 
L 81.586028 16.690856 
L 81.586028 16.690856 
L 81.586028 16.558744 
L 82.652106 16.558744 
L 82.652106 16.558744 
L 82.652106 16.426633 
L 84.117964 16.426633 
L 84.117964 16.426633 
L 84.117964 16.294522 
L 84.917523 16.294522 
L 84.917523 16.294522 
L 84.917523 16.162411 
L 85.583822 16.162411 
L 85.583822 16.162411 
L 85.583822 16.0303 
L 85.850342 16.0303 
L 85.850342 16.0303 
L 85.850342 15.898189 
L 86.91642 15.898189 
L 86.91642 15.898189 
L 86.91642 15.766078 
L 87.449459 15.766078 
L 87.449459 15.766078 
L 87.449459 15.633967 
L 89.581616 15.633967 
L 89.581616 15.633967 
L 89.581616 15.501856 
L 89.714876 15.501856 
L 89.714876 15.501856 
L 89.714876 15.237634 
L 92.380072 15.237634 
L 92.380072 15.237634 
L 92.380072 15.105523 
L 92.646592 15.105523 
L 92.646592 15.105523 
L 92.646592 14.973412 
L 106.505612 14.973412 
L 106.505612 14.973412 
L 106.505612 14.841301 
L 108.504509 14.841301 
L 108.504509 14.841301 
L 108.504509 14.70919 
L 108.904289 14.70919 
L 108.904289 14.70919 
L 108.904289 14.577079 
L 110.236887 14.577079 
L 110.236887 14.577079 
L 110.236887 14.444968 
L 110.636666 14.444968 
L 110.636666 14.444968 
L 110.636666 14.312857 
L 110.769926 14.312857 
L 110.769926 14.312857 
L 110.769926 14.180746 
L 111.436225 14.180746 
L 111.436225 14.180746 
L 111.436225 14.048635 
L 111.702745 14.048635 
L 111.702745 14.048635 
L 111.702745 13.916524 
L 113.301862 13.916524 
L 113.301862 13.916524 
L 113.301862 13.784413 
L 116.633357 13.784413 
L 116.633357 13.784413 
L 116.633357 13.652302 
L 118.232475 13.652302 
L 118.232475 13.652302 
L 118.232475 13.520191 
L 119.165294 13.520191 
L 119.165294 13.520191 
L 119.165294 13.38808 
L 119.698333 13.38808 
L 119.698333 13.38808 
L 119.698333 13.255969 
L 120.764412 13.255969 
L 120.764412 13.255969 
L 120.764412 13.123858 
L 120.897671 13.123858 
L 120.897671 13.123858 
L 120.897671 12.991747 
L 121.030931 12.991747 
L 121.030931 12.991747 
L 121.030931 12.727525 
L 121.297451 12.727525 
L 121.297451 12.727525 
L 121.297451 12.595414 
L 122.363529 12.595414 
L 122.363529 12.595414 
L 122.363529 12.463303 
L 123.029828 12.463303 
L 123.029828 12.463303 
L 123.029828 12.331192 
L 124.229167 12.331192 
L 124.229167 12.331192 
L 124.229167 12.199081 
L 127.027623 12.199081 
L 127.027623 12.199081 
L 127.027623 12.06697 
L 131.425196 12.06697 
L 131.425196 12.06697 
L 131.425196 11.934859 
L 132.091495 11.934859 
L 132.091495 11.934859 
L 132.091495 11.802748 
L 133.157574 11.802748 
L 133.157574 11.802748 
L 133.157574 11.670637 
L 135.023211 11.670637 
L 135.023211 11.670637 
L 135.023211 11.538526 
L 135.95603 11.538526 
L 135.95603 11.538526 
L 135.95603 11.406415 
L 146.883334 11.406415 
L 146.883334 11.406415 
L 146.883334 11.274304 
L 198.188361 11.274304 
L 198.188361 11.274304 
L 198.188361 11.142193 
L 207.383288 11.142193 
L 207.383288 11.142193 
L 207.383288 11.010082 
L 217.644293 11.010082 
L 217.644293 11.010082 
L 217.644293 10.877971 
L 224.040764 10.877971 
L 224.040764 10.877971 
" clip-path="url(#p359f054385)" style="fill: none; stroke: #b64342; stroke-width: 1.25; stroke-linecap: round"/>
   </g>
   <g id="patch_3">
    <path d="M 39.222734 195.696 
L 39.222734 7.2 
" style="fill: none; stroke: #4d4d4d; stroke-width: 0.8; stroke-linejoin: miter; stroke-linecap: square"/>
   </g>
   <g id="patch_4">
    <path d="M 39.222734 195.696 
L 224.960256 195.696 
" style="fill: none; stroke: #4d4d4d; stroke-width: 0.8; stroke-linejoin: miter; stroke-linecap: square"/>
   </g>
   <g id="PathCollection_1">
    <defs>
     <path id="m386edfad89" d="M 0 2.915476 
C 0.773193 2.915476 1.514823 2.608283 2.061553 2.061553 
C 2.608283 1.514823 2.915476 0.773193 2.915476 0 
C 2.915476 -0.773193 2.608283 -1.514823 2.061553 -2.061553 
C 1.514823 -2.608283 0.773193 -2.915476 0 -2.915476 
C -0.773193 -2.915476 -1.514823 -2.608283 -2.061553 -2.061553 
C -2.608283 -1.514823 -2.915476 -0.773193 -2.915476 0 
C -2.915476 0.773193 -2.608283 1.514823 -2.061553 2.061553 
C -1.514823 2.608283 -0.773193 2.915476 0 2.915476 
z
" style="stroke: #0f4d92; stroke-width: 1.15"/>
    </defs>
    <g clip-path="url(#p359f054385)">
     <use xlink:href="#m386edfad89" x="67.593748" y="18.936743" style="fill: #ffffff; stroke: #0f4d92; stroke-width: 1.15"/>
    </g>
   </g>
   <g id="PathCollection_2">
    <defs>
     <path id="m3eeecfdcfb" d="M 0 2.915476 
C 0.773193 2.915476 1.514823 2.608283 2.061553 2.061553 
C 2.608283 1.514823 2.915476 0.773193 2.915476 0 
C 2.915476 -0.773193 2.608283 -1.514823 2.061553 -2.061553 
C 1.514823 -2.608283 0.773193 -2.915476 0 -2.915476 
C -0.773193 -2.915476 -1.514823 -2.608283 -2.061553 -2.061553 
C -2.608283 -1.514823 -2.915476 -0.773193 -2.915476 0 
C -2.915476 0.773193 -2.608283 1.514823 -2.061553 2.061553 
C -1.514823 2.608283 -0.773193 2.915476 0 2.915476 
z
" style="stroke: #b64342; stroke-width: 1.15"/>
    </defs>
    <g clip-path="url(#p359f054385)">
     <use xlink:href="#m3eeecfdcfb" x="63.729213" y="23.560628" style="fill: #ffffff; stroke: #b64342; stroke-width: 1.15"/>
    </g>
   </g>
   <g id="legend_1">
    <g id="line2d_14">
     <path d="M 155.441506 170.231313 
L 160.866506 170.231313 
L 160.866506 170.231313 
L 166.291506 170.231313 
L 166.291506 170.231313 
" style="fill: none; stroke: #0f4d92; stroke-width: 1.25; stroke-linecap: round"/>
    </g>
    <g id="text_13">
     <text style="font-size: 7px; font-family: 'Arial', 'Helvetica', 'DejaVu Sans', 'Liberation Sans', sans-serif; text-anchor: start; fill: #262626" x="169.651506" y="172.681312" transform="rotate(-0 169.651506 172.681312)">MLP AUC 0.940</text>
    </g>
    <g id="line2d_15">
     <path d="M 155.441506 178.873031 
L 160.866506 178.873031 
L 160.866506 178.873031 
L 166.291506 178.873031 
L 166.291506 178.873031 
" style="fill: none; stroke: #b64342; stroke-width: 1.25; stroke-linecap: round"/>
    </g>
    <g id="text_14">
     <text style="font-size: 7px; font-family: 'Arial', 'Helvetica', 'DejaVu Sans', 'Liberation Sans', sans-serif; text-anchor: start; fill: #262626" x="169.651506" y="181.323031" transform="rotate(-0 169.651506 181.323031)">SVM AUC 0.932</text>
    </g>
    <g id="line2d_16">
     <defs>
      <path id="m6c27e34961" d="M 0 2.4 
C 0.636487 2.4 1.246992 2.147121 1.697056 1.697056 
C 2.147121 1.246992 2.4 0.636487 2.4 0 
C 2.4 -0.636487 2.147121 -1.246992 1.697056 -1.697056 
C 1.246992 -2.147121 0.636487 -2.4 0 -2.4 
C -0.636487 -2.4 -1.246992 -2.147121 -1.697056 -1.697056 
C -2.147121 -1.246992 -2.4 -0.636487 -2.4 0 
C -2.4 0.636487 -2.147121 1.246992 -1.697056 1.697056 
C -1.246992 2.147121 -0.636487 2.4 0 2.4 
z
" style="stroke: #272727; stroke-width: 1.1"/>
     </defs>
     <g>
      <use xlink:href="#m6c27e34961" x="160.866506" y="187.51475" style="fill: #ffffff; stroke: #272727; stroke-width: 1.1"/>
     </g>
    </g>
    <g id="text_15">
     <text style="font-size: 7px; font-family: 'Arial', 'Helvetica', 'DejaVu Sans', 'Liberation Sans', sans-serif; text-anchor: start; fill: #262626" x="169.651506" y="189.96475" transform="rotate(-0 169.651506 189.96475)">validation point</text>
    </g>
   </g>
  </g>
 </g>
 <defs>
  <clipPath id="p359f054385">
   <rect x="39.222734" y="7.2" width="185.737522" height="188.496"/>
  </clipPath>
 </defs>
</svg>
