<?xml version="1.0" encoding="utf-8" standalone="no"?>
<!DOCTYPE svg PUBLIC "-//W3C//DTD SVG 1.1//EN"
  "http://www.w3.org/Graphics/SVG/1.1/DTD/svg11.dtd">
<svg xmlns:xlink="http://www.w3.org/1999/xlink" width="723.062422pt" height="312.323801pt" viewBox="0 0 723.062422 312.323801" xmlns="http://www.w3.org/2000/svg" version="1.1">
 <metadata>
  <rdf:RDF xmlns:dc="http://purl.org/dc/elements/1.1/" xmlns:cc="http://creativecommons.org/ns#" xmlns:rdf="http://www.w3.org/1999/02/22-rdf-syntax-ns#">
   <cc:Work>
    <dc:type rdf:resource="http://purl.org/dc/dcmitype/StillImage"/>
    <dc:date>2026-06-19T23:08:06.812763</dc:date>
    <dc:format>image/svg+xml</dc:format>
    <dc:creator>
     <cc:Agent>
      <dc:title>Matplotlib v3.10.9, https://matplotlib.org/</dc:title>
     </cc:Agent>
    </dc:creator>
   </cc:Work>
  </rdf:RDF>
 </metadata>
 <defs>
  <style type="text/css">*{stroke-linejoin: round; stroke-linecap: butt}</style>
 </defs>
 <g id="figure_1">
  <g id="patch_1">
   <path d="M 0 312.323801 
L 723.062422 312.323801 
L 723.062422 0 
L 0 0 
z
" style="fill: #ffffff"/>
  </g>
  <g id="axes_1">
   <g id="patch_2">
    <path d="M 63.002422 287.850285 
L 220.828247 287.850285 
L 220.828247 35.598285 
L 63.002422 35.598285 
z
" style="fill: #ffffff"/>
   </g>
   <g id="matplotlib.axis_1">
    <g id="xtick_1">
     <g id="text_1">
      <text style="font-size: 8.5px; font-family: 'Arial', 'Helvetica', 'DejaVu Sans', 'Liberation Sans', sans-serif; text-anchor: middle; fill: #262626" x="102.458878" y="303.434426" transform="rotate(-0 102.458878 303.434426)">Paper Ac</text>
     </g>
    </g>
    <g id="xtick_2">
     <g id="text_2">
      <text style="font-size: 8.5px; font-family: 'Arial', 'Helvetica', 'DejaVu Sans', 'Liberation Sans', sans-serif; text-anchor: middle; fill: #262626" x="181.371791" y="303.434426" transform="rotate(-0 181.371791 303.434426)">Run Ac</text>
     </g>
    </g>
   </g>
   <g id="matplotlib.axis_2">
    <g id="ytick_1">
     <g id="text_3">
      <text style="font-size: 8.5px; font-family: 'Arial', 'Helvetica', 'DejaVu Sans', 'Liberation Sans', sans-serif; text-anchor: end; fill: #262626" x="53.502422" y="58.816668" transform="rotate(-0 53.502422 58.816668)">Pairs</text>
     </g>
    </g>
    <g id="ytick_2">
     <g id="text_4">
      <text style="font-size: 8.5px; font-family: 'Arial', 'Helvetica', 'DejaVu Sans', 'Liberation Sans', sans-serif; text-anchor: end; fill: #262626" x="53.502422" y="100.858668" transform="rotate(-0 53.502422 100.858668)">Triplets</text>
     </g>
    </g>
    <g id="ytick_3">
     <g id="text_5">
      <text style="font-size: 8.5px; font-family: 'Arial', 'Helvetica', 'DejaVu Sans', 'Liberation Sans', sans-serif; text-anchor: end; fill: #262626" x="53.502422" y="142.955121" transform="rotate(-0 53.502422 142.955121)">Quadruplets</text>
     </g>
    </g>
    <g id="ytick_4">
     <g id="text_6">
      <text style="font-size: 8.5px; font-family: 'Arial', 'Helvetica', 'DejaVu Sans', 'Liberation Sans', sans-serif; text-anchor: end; fill: #262626" x="53.502422" y="184.997121" transform="rotate(-0 53.502422 184.997121)">Quintuplets</text>
     </g>
    </g>
    <g id="ytick_5">
     <g id="text_7">
      <text style="font-size: 8.5px; font-family: 'Arial', 'Helvetica', 'DejaVu Sans', 'Liberation Sans', sans-serif; text-anchor: end; fill: #262626" x="53.502422" y="227.036465" transform="rotate(-0 53.502422 227.036465)">Sextuplets</text>
     </g>
    </g>
    <g id="ytick_6">
     <g id="text_8">
      <text style="font-size: 8.5px; font-family: 'Arial', 'Helvetica', 'DejaVu Sans', 'Liberation Sans', sans-serif; text-anchor: end; fill: #262626" x="53.502422" y="269.026668" transform="rotate(-0 53.502422 269.026668)">All SQI</text>
     </g>
    </g>
   </g>
   <g id="QuadMesh_1">
    <path d="M 63.002422 35.598285 
L 141.915335 35.598285 
L 141.915335 77.640285 
L 63.002422 77.640285 
L 63.002422 35.598285 
" clip-path="url(#p36802f3a3c)" style="fill: #4d7cb0; stroke: #ffffff; stroke-width: 0.7"/>
    <path d="M 141.915335 35.598285 
L 220.828247 35.598285 
L 220.828247 77.640285 
L 141.915335 77.640285 
L 141.915335 35.598285 
" clip-path="url(#p36802f3a3c)" style="fill: #f3f7fc; stroke: #ffffff; stroke-width: 0.7"/>
    <path d="M 63.002422 77.640285 
L 141.915335 77.640285 
L 141.915335 119.682285 
L 63.002422 119.682285 
L 63.002422 77.640285 
" clip-path="url(#p36802f3a3c)" style="fill: #3a6ea7; stroke: #ffffff; stroke-width: 0.7"/>
    <path d="M 141.915335 77.640285 
L 220.828247 77.640285 
L 220.828247 119.682285 
L 141.915335 119.682285 
L 141.915335 77.640285 
" clip-path="url(#p36802f3a3c)" style="fill: #a6c0dc; stroke: #ffffff; stroke-width: 0.7"/>
    <path d="M 63.002422 119.682285 
L 141.915335 119.682285 
L 141.915335 161.724285 
L 63.002422 161.724285 
L 63.002422 119.682285 
" clip-path="url(#p36802f3a3c)" style="fill: #3a6ea7; stroke: #ffffff; stroke-width: 0.7"/>
    <path d="M 141.915335 119.682285 
L 220.828247 119.682285 
L 220.828247 161.724285 
L 141.915335 161.724285 
L 141.915335 119.682285 
" clip-path="url(#p36802f3a3c)" style="fill: #5582b4; stroke: #ffffff; stroke-width: 0.7"/>
    <path d="M 63.002422 161.724285 
L 141.915335 161.724285 
L 141.915335 203.766285 
L 63.002422 203.766285 
L 63.002422 161.724285 
" clip-path="url(#p36802f3a3c)" style="fill: #3369a4; stroke: #ffffff; stroke-width: 0.7"/>
    <path d="M 141.915335 161.724285 
L 220.828247 161.724285 
L 220.828247 203.766285 
L 141.915335 203.766285 
L 141.915335 161.724285 
" clip-path="url(#p36802f3a3c)" style="fill: #3a6ea7; stroke: #ffffff; stroke-width: 0.7"/>
    <path d="M 63.002422 203.766285 
L 141.915335 203.766285 
L 141.915335 245.808285 
L 63.002422 245.808285 
L 63.002422 203.766285 
" clip-path="url(#p36802f3a3c)" style="fill: #3a6ea7; stroke: #ffffff; stroke-width: 0.7"/>
    <path d="M 141.915335 203.766285 
L 220.828247 203.766285 
L 220.828247 245.808285 
L 141.915335 245.808285 
L 141.915335 203.766285 
" clip-path="url(#p36802f3a3c)" style="fill: #8babcf; stroke: #ffffff; stroke-width: 0.7"/>
    <path d="M 63.002422 245.808285 
L 141.915335 245.808285 
L 141.915335 287.850285 
L 63.002422 287.850285 
L 63.002422 245.808285 
" clip-path="url(#p36802f3a3c)" style="fill: #4677ad; stroke: #ffffff; stroke-width: 0.7"/>
    <path d="M 141.915335 245.808285 
L 220.828247 245.808285 
L 220.828247 287.850285 
L 141.915335 287.850285 
L 141.915335 245.808285 
" clip-path="url(#p36802f3a3c)" style="fill: #7097c1; stroke: #ffffff; stroke-width: 0.7"/>
   </g>
   <g id="patch_3">
    <path d="M 63.002422 161.724285 
L 220.828247 161.724285 
L 220.828247 203.766285 
L 63.002422 203.766285 
L 63.002422 161.724285 
z
" style="fill: none; stroke: #0f4d92; stroke-width: 1.2; stroke-linejoin: miter"/>
   </g>
   <g id="text_9">
    <text style="font-weight: 700; font-size: 9px; font-family: 'Arial', 'Helvetica', 'DejaVu Sans', 'Liberation Sans', sans-serif; text-anchor: start; fill: #272727" x="51.165485" y="13.642031" transform="rotate(-0 51.165485 13.642031)">a</text>
   </g>
   <g id="text_10">
    <text style="font-size: 8.2px; font-family: 'Arial', 'Helvetica', 'DejaVu Sans', 'Liberation Sans', sans-serif; text-anchor: middle; fill: #272727" x="102.458878" y="58.739113" transform="rotate(-0 102.458878 58.739113)">94.5</text>
   </g>
   <g id="text_11">
    <text style="font-size: 8.2px; font-family: 'Arial', 'Helvetica', 'DejaVu Sans', 'Liberation Sans', sans-serif; text-anchor: middle; fill: #272727" x="181.371791" y="58.739113" transform="rotate(-0 181.371791 58.739113)">90.0</text>
   </g>
   <g id="text_12">
    <text style="font-size: 8.2px; font-family: 'Arial', 'Helvetica', 'DejaVu Sans', 'Liberation Sans', sans-serif; text-anchor: middle; fill: #ffffff" x="102.458878" y="100.781113" transform="rotate(-0 102.458878 100.781113)">94.8</text>
   </g>
   <g id="text_13">
    <text style="font-size: 8.2px; font-family: 'Arial', 'Helvetica', 'DejaVu Sans', 'Liberation Sans', sans-serif; text-anchor: middle; fill: #272727" x="181.371791" y="100.781113" transform="rotate(-0 181.371791 100.781113)">93.1</text>
   </g>
   <g id="text_14">
    <text style="font-size: 8.2px; font-family: 'Arial', 'Helvetica', 'DejaVu Sans', 'Liberation Sans', sans-serif; text-anchor: middle; fill: #ffffff" x="102.458878" y="142.823113" transform="rotate(-0 102.458878 142.823113)">94.8</text>
   </g>
   <g id="text_15">
    <text style="font-size: 8.2px; font-family: 'Arial', 'Helvetica', 'DejaVu Sans', 'Liberation Sans', sans-serif; text-anchor: middle; fill: #272727" x="181.371791" y="142.823113" transform="rotate(-0 181.371791 142.823113)">94.4</text>
   </g>
   <g id="text_16">
    <text style="font-size: 8.2px; font-family: 'Arial', 'Helvetica', 'DejaVu Sans', 'Liberation Sans', sans-serif; text-anchor: middle; fill: #ffffff" x="102.458878" y="184.865113" transform="rotate(-0 102.458878 184.865113)">94.9</text>
   </g>
   <g id="text_17">
    <text style="font-size: 8.2px; font-family: 'Arial', 'Helvetica', 'DejaVu Sans', 'Liberation Sans', sans-serif; text-anchor: middle; fill: #ffffff" x="181.371791" y="184.865113" transform="rotate(-0 181.371791 184.865113)">94.8</text>
   </g>
   <g id="text_18">
    <text style="font-size: 8.2px; font-family: 'Arial', 'Helvetica', 'DejaVu Sans', 'Liberation Sans', sans-serif; text-anchor: middle; fill: #ffffff" x="102.458878" y="226.907113" transform="rotate(-0 102.458878 226.907113)">94.8</text>
   </g>
   <g id="text_19">
    <text style="font-size: 8.2px; font-family: 'Arial', 'Helvetica', 'DejaVu Sans', 'Liberation Sans', sans-serif; text-anchor: middle; fill: #272727" x="181.371791" y="226.907113" transform="rotate(-0 181.371791 226.907113)">93.5</text>
   </g>
   <g id="text_20">
    <text style="font-size: 8.2px; font-family: 'Arial', 'Helvetica', 'DejaVu Sans', 'Liberation Sans', sans-serif; text-anchor: middle; fill: #272727" x="102.458878" y="268.949113" transform="rotate(-0 102.458878 268.949113)">94.6</text>
   </g>
   <g id="text_21">
    <text style="font-size: 8.2px; font-family: 'Arial', 'Helvetica', 'DejaVu Sans', 'Liberation Sans', sans-serif; text-anchor: middle; fill: #272727" x="181.371791" y="268.949113" transform="rotate(-0 181.371791 268.949113)">93.9</text>
   </g>
   <g id="text_22">
    <text style="font-size: 8.8px; font-family: 'Arial', 'Helvetica', 'DejaVu Sans', 'Liberation Sans', sans-serif; text-anchor: start; fill: #272727" x="63.002422" y="22.39482" transform="rotate(-0 63.002422 22.39482)">accuracy (%)</text>
   </g>
  </g>
  <g id="axes_2">
   <g id="patch_4">
    <path d="M 233.146361 287.850285 
L 321.682799 287.850285 
L 321.682799 35.598285 
L 233.146361 35.598285 
z
" style="fill: #ffffff"/>
   </g>
   <g id="matplotlib.axis_3">
    <g id="xtick_3">
     <g id="text_23">
      <text style="font-size: 8.5px; font-family: 'Arial', 'Helvetica', 'DejaVu Sans', 'Liberation Sans', sans-serif; text-anchor: middle; fill: #262626" x="277.41458" y="303.434426" transform="rotate(-0 277.41458 303.434426)">Run-Paper Ac</text>
     </g>
    </g>
   </g>
   <g id="matplotlib.axis_4">
    <g id="ytick_7"/>
    <g id="ytick_8"/>
    <g id="ytick_9"/>
    <g id="ytick_10"/>
    <g id="ytick_11"/>
    <g id="ytick_12"/>
   </g>
   <g id="QuadMesh_2">
    <path d="M 233.146361 35.598285 
L 321.682799 35.598285 
L 321.682799 77.640285 
L 233.146361 77.640285 
L 233.146361 35.598285 
" clip-path="url(#p3f6988f251)" style="fill: #bd5655; stroke: #ffffff; stroke-width: 0.7"/>
    <path d="M 233.146361 77.640285 
L 321.682799 77.640285 
L 321.682799 119.682285 
L 233.146361 119.682285 
L 233.146361 77.640285 
" clip-path="url(#p3f6988f251)" style="fill: #e6bdbd; stroke: #ffffff; stroke-width: 0.7"/>
    <path d="M 233.146361 119.682285 
L 321.682799 119.682285 
L 321.682799 161.724285 
L 233.146361 161.724285 
L 233.146361 119.682285 
" clip-path="url(#p3f6988f251)" style="fill: #f9f0ef; stroke: #ffffff; stroke-width: 0.7"/>
    <path d="M 233.146361 161.724285 
L 321.682799 161.724285 
L 321.682799 203.766285 
L 233.146361 203.766285 
L 233.146361 161.724285 
" clip-path="url(#p3f6988f251)" style="fill: #fefbfb; stroke: #ffffff; stroke-width: 0.7"/>
    <path d="M 233.146361 203.766285 
L 321.682799 203.766285 
L 321.682799 245.808285 
L 233.146361 245.808285 
L 233.146361 203.766285 
" clip-path="url(#p3f6988f251)" style="fill: #eccfcf; stroke: #ffffff; stroke-width: 0.7"/>
    <path d="M 233.146361 245.808285 
L 321.682799 245.808285 
L 321.682799 287.850285 
L 233.146361 287.850285 
L 233.146361 245.808285 
" clip-path="url(#p3f6988f251)" style="fill: #f6e7e7; stroke: #ffffff; stroke-width: 0.7"/>
   </g>
   <g id="patch_5">
    <path d="M 233.146361 161.724285 
L 321.682799 161.724285 
L 321.682799 203.766285 
L 233.146361 203.766285 
L 233.146361 161.724285 
z
" style="fill: none; stroke: #0f4d92; stroke-width: 1.2; stroke-linejoin: miter"/>
   </g>
   <g id="text_24">
    <text style="font-weight: 700; font-size: 9px; font-family: 'Arial', 'Helvetica', 'DejaVu Sans', 'Liberation Sans', sans-serif; text-anchor: start; fill: #272727" x="226.506128" y="13.642031" transform="rotate(-0 226.506128 13.642031)">b</text>
   </g>
   <g id="text_25">
    <text style="font-size: 8.2px; font-family: 'Arial', 'Helvetica', 'DejaVu Sans', 'Liberation Sans', sans-serif; text-anchor: middle; fill: #272727" x="277.41458" y="58.739113" transform="rotate(-0 277.41458 58.739113)">-4.5</text>
   </g>
   <g id="text_26">
    <text style="font-size: 8.2px; font-family: 'Arial', 'Helvetica', 'DejaVu Sans', 'Liberation Sans', sans-serif; text-anchor: middle; fill: #272727" x="277.41458" y="100.781113" transform="rotate(-0 277.41458 100.781113)">-1.7</text>
   </g>
   <g id="text_27">
    <text style="font-size: 8.2px; font-family: 'Arial', 'Helvetica', 'DejaVu Sans', 'Liberation Sans', sans-serif; text-anchor: middle; fill: #272727" x="277.41458" y="142.823113" transform="rotate(-0 277.41458 142.823113)">-0.4</text>
   </g>
   <g id="text_28">
    <text style="font-size: 8.2px; font-family: 'Arial', 'Helvetica', 'DejaVu Sans', 'Liberation Sans', sans-serif; text-anchor: middle; fill: #272727" x="277.41458" y="184.865113" transform="rotate(-0 277.41458 184.865113)">-0.1</text>
   </g>
   <g id="text_29">
    <text style="font-size: 8.2px; font-family: 'Arial', 'Helvetica', 'DejaVu Sans', 'Liberation Sans', sans-serif; text-anchor: middle; fill: #272727" x="277.41458" y="226.907113" transform="rotate(-0 277.41458 226.907113)">-1.3</text>
   </g>
   <g id="text_30">
    <text style="font-size: 8.2px; font-family: 'Arial', 'Helvetica', 'DejaVu Sans', 'Liberation Sans', sans-serif; text-anchor: middle; fill: #272727" x="277.41458" y="268.949113" transform="rotate(-0 277.41458 268.949113)">-0.7</text>
   </g>
   <g id="text_31">
    <text style="font-size: 8.8px; font-family: 'Arial', 'Helvetica', 'DejaVu Sans', 'Liberation Sans', sans-serif; text-anchor: start; fill: #272727" x="233.146361" y="22.39482" transform="rotate(-0 233.146361 22.39482)">accuracy delta (pp)</text>
   </g>
  </g>
  <g id="axes_3">
   <g id="patch_6">
    <path d="M 334.000912 287.850285 
L 453.332634 287.850285 
L 453.332634 35.598285 
L 334.000912 35.598285 
z
" style="fill: #ffffff"/>
   </g>
   <g id="matplotlib.axis_5">
    <g id="xtick_4">
     <g id="text_32">
      <text style="font-size: 8.5px; font-family: 'Arial', 'Helvetica', 'DejaVu Sans', 'Liberation Sans', sans-serif; text-anchor: middle; fill: #262626" x="363.833843" y="303.434426" transform="rotate(-0 363.833843 303.434426)">Paper rank</text>
     </g>
    </g>
    <g id="xtick_5">
     <g id="text_33">
      <text style="font-size: 8.5px; font-family: 'Arial', 'Helvetica', 'DejaVu Sans', 'Liberation Sans', sans-serif; text-anchor: middle; fill: #262626" x="423.499704" y="303.434426" transform="rotate(-0 423.499704 303.434426)">Run rank</text>
     </g>
    </g>
   </g>
   <g id="matplotlib.axis_6">
    <g id="ytick_13"/>
    <g id="ytick_14"/>
    <g id="ytick_15"/>
    <g id="ytick_16"/>
    <g id="ytick_17"/>
    <g id="ytick_18"/>
   </g>
   <g id="QuadMesh_3">
    <path d="M 334.000912 35.598285 
L 393.666773 35.598285 
L 393.666773 77.640285 
L 334.000912 77.640285 
L 334.000912 35.598285 
" clip-path="url(#p8cef8fc59f)" style="fill: #464c55; stroke: #ffffff; stroke-width: 0.7"/>
    <path d="M 393.666773 35.598285 
L 453.332634 35.598285 
L 453.332634 77.640285 
L 393.666773 77.640285 
L 393.666773 35.598285 
" clip-path="url(#p8cef8fc59f)" style="fill: #464c55; stroke: #ffffff; stroke-width: 0.7"/>
    <path d="M 334.000912 77.640285 
L 393.666773 77.640285 
L 393.666773 119.682285 
L 334.000912 119.682285 
L 334.000912 77.640285 
" clip-path="url(#p8cef8fc59f)" style="fill: #ced0d2; stroke: #ffffff; stroke-width: 0.7"/>
    <path d="M 393.666773 77.640285 
L 453.332634 77.640285 
L 453.332634 119.682285 
L 393.666773 119.682285 
L 393.666773 77.640285 
" clip-path="url(#p8cef8fc59f)" style="fill: #686d74; stroke: #ffffff; stroke-width: 0.7"/>
    <path d="M 334.000912 119.682285 
L 393.666773 119.682285 
L 393.666773 161.724285 
L 334.000912 161.724285 
L 334.000912 119.682285 
" clip-path="url(#p8cef8fc59f)" style="fill: #acafb3; stroke: #ffffff; stroke-width: 0.7"/>
    <path d="M 393.666773 119.682285 
L 453.332634 119.682285 
L 453.332634 161.724285 
L 393.666773 161.724285 
L 393.666773 119.682285 
" clip-path="url(#p8cef8fc59f)" style="fill: #ced0d2; stroke: #ffffff; stroke-width: 0.7"/>
    <path d="M 334.000912 161.724285 
L 393.666773 161.724285 
L 393.666773 203.766285 
L 334.000912 203.766285 
L 334.000912 161.724285 
" clip-path="url(#p8cef8fc59f)" style="fill: #f0f1f1; stroke: #ffffff; stroke-width: 0.7"/>
    <path d="M 393.666773 161.724285 
L 453.332634 161.724285 
L 453.332634 203.766285 
L 393.666773 203.766285 
L 393.666773 161.724285 
" clip-path="url(#p8cef8fc59f)" style="fill: #f0f1f1; stroke: #ffffff; stroke-width: 0.7"/>
    <path d="M 334.000912 203.766285 
L 393.666773 203.766285 
L 393.666773 245.808285 
L 334.000912 245.808285 
L 334.000912 203.766285 
" clip-path="url(#p8cef8fc59f)" style="fill: #8a8e93; stroke: #ffffff; stroke-width: 0.7"/>
    <path d="M 393.666773 203.766285 
L 453.332634 203.766285 
L 453.332634 245.808285 
L 393.666773 245.808285 
L 393.666773 203.766285 
" clip-path="url(#p8cef8fc59f)" style="fill: #8a8e93; stroke: #ffffff; stroke-width: 0.7"/>
    <path d="M 334.000912 245.808285 
L 393.666773 245.808285 
L 393.666773 287.850285 
L 334.000912 287.850285 
L 334.000912 245.808285 
" clip-path="url(#p8cef8fc59f)" style="fill: #686d74; stroke: #ffffff; stroke-width: 0.7"/>
    <path d="M 393.666773 245.808285 
L 453.332634 245.808285 
L 453.332634 287.850285 
L 393.666773 287.850285 
L 393.666773 245.808285 
" clip-path="url(#p8cef8fc59f)" style="fill: #acafb3; stroke: #ffffff; stroke-width: 0.7"/>
   </g>
   <g id="patch_7">
    <path d="M 334.000912 161.724285 
L 453.332634 161.724285 
L 453.332634 203.766285 
L 334.000912 203.766285 
L 334.000912 161.724285 
z
" style="fill: none; stroke: #0f4d92; stroke-width: 1.2; stroke-linejoin: miter"/>
   </g>
   <g id="text_34">
    <text style="font-weight: 700; font-size: 9px; font-family: 'Arial', 'Helvetica', 'DejaVu Sans', 'Liberation Sans', sans-serif; text-anchor: start; fill: #272727" x="325.051033" y="13.642031" transform="rotate(-0 325.051033 13.642031)">c</text>
   </g>
   <g id="text_35">
    <text style="font-size: 8.2px; font-family: 'Arial', 'Helvetica', 'DejaVu Sans', 'Liberation Sans', sans-serif; text-anchor: middle; fill: #ffffff" x="363.833843" y="58.739113" transform="rotate(-0 363.833843 58.739113)">6</text>
   </g>
   <g id="text_36">
    <text style="font-size: 8.2px; font-family: 'Arial', 'Helvetica', 'DejaVu Sans', 'Liberation Sans', sans-serif; text-anchor: middle; fill: #ffffff" x="423.499704" y="58.739113" transform="rotate(-0 423.499704 58.739113)">6</text>
   </g>
   <g id="text_37">
    <text style="font-size: 8.2px; font-family: 'Arial', 'Helvetica', 'DejaVu Sans', 'Liberation Sans', sans-serif; text-anchor: middle; fill: #272727" x="363.833843" y="100.781113" transform="rotate(-0 363.833843 100.781113)">2</text>
   </g>
   <g id="text_38">
    <text style="font-size: 8.2px; font-family: 'Arial', 'Helvetica', 'DejaVu Sans', 'Liberation Sans', sans-serif; text-anchor: middle; fill: #272727" x="423.499704" y="100.781113" transform="rotate(-0 423.499704 100.781113)">5</text>
   </g>
   <g id="text_39">
    <text style="font-size: 8.2px; font-family: 'Arial', 'Helvetica', 'DejaVu Sans', 'Liberation Sans', sans-serif; text-anchor: middle; fill: #272727" x="363.833843" y="142.823113" transform="rotate(-0 363.833843 142.823113)">3</text>
   </g>
   <g id="text_40">
    <text style="font-size: 8.2px; font-family: 'Arial', 'Helvetica', 'DejaVu Sans', 'Liberation Sans', sans-serif; text-anchor: middle; fill: #272727" x="423.499704" y="142.823113" transform="rotate(-0 423.499704 142.823113)">2</text>
   </g>
   <g id="text_41">
    <text style="font-size: 8.2px; font-family: 'Arial', 'Helvetica', 'DejaVu Sans', 'Liberation Sans', sans-serif; text-anchor: middle; fill: #272727" x="363.833843" y="184.865113" transform="rotate(-0 363.833843 184.865113)">1</text>
   </g>
   <g id="text_42">
    <text style="font-size: 8.2px; font-family: 'Arial', 'Helvetica', 'DejaVu Sans', 'Liberation Sans', sans-serif; text-anchor: middle; fill: #272727" x="423.499704" y="184.865113" transform="rotate(-0 423.499704 184.865113)">1</text>
   </g>
   <g id="text_43">
    <text style="font-size: 8.2px; font-family: 'Arial', 'Helvetica', 'DejaVu Sans', 'Liberation Sans', sans-serif; text-anchor: middle; fill: #272727" x="363.833843" y="226.907113" transform="rotate(-0 363.833843 226.907113)">4</text>
   </g>
   <g id="text_44">
    <text style="font-size: 8.2px; font-family: 'Arial', 'Helvetica', 'DejaVu Sans', 'Liberation Sans', sans-serif; text-anchor: middle; fill: #272727" x="423.499704" y="226.907113" transform="rotate(-0 423.499704 226.907113)">4</text>
   </g>
   <g id="text_45">
    <text style="font-size: 8.2px; font-family: 'Arial', 'Helvetica', 'DejaVu Sans', 'Liberation Sans', sans-serif; text-anchor: middle; fill: #272727" x="363.833843" y="268.949113" transform="rotate(-0 363.833843 268.949113)">5</text>
   </g>
   <g id="text_46">
    <text style="font-size: 8.2px; font-family: 'Arial', 'Helvetica', 'DejaVu Sans', 'Liberation Sans', sans-serif; text-anchor: middle; fill: #272727" x="423.499704" y="268.949113" transform="rotate(-0 423.499704 268.949113)">3</text>
   </g>
   <g id="text_47">
    <text style="font-size: 8.8px; font-family: 'Arial', 'Helvetica', 'DejaVu Sans', 'Liberation Sans', sans-serif; text-anchor: start; fill: #272727" x="334.000912" y="22.39482" transform="rotate(-0 334.000912 22.39482)">rank (1 = best)</text>
   </g>
  </g>
  <g id="axes_4">
   <g id="text_48">
    <text style="font-weight: 700; font-size: 9px; font-family: 'Arial', 'Helvetica', 'DejaVu Sans', 'Liberation Sans', sans-serif; text-anchor: start; fill: #272727" x="446.884872" y="13.642031" transform="rotate(-0 446.884872 13.642031)">d</text>
   </g>
   <g id="text_49">
    <text style="font-size: 8.8px; font-family: 'Arial', 'Helvetica', 'DejaVu Sans', 'Liberation Sans', sans-serif; text-anchor: start; fill: #272727" x="465.650747" y="22.497945" transform="rotate(-0 465.650747 22.497945)">selected SQIs</text>
   </g>
   <g id="text_50">
    <text style="font-size: 8px; font-family: 'Arial', 'Helvetica', 'DejaVu Sans', 'Liberation Sans', sans-serif; text-anchor: start; fill: #272727" x="465.650747" y="58.68741" transform="rotate(-0 465.650747 58.68741)">iSQI,basSQI</text>
   </g>
   <g id="text_51">
    <text style="font-size: 8px; font-family: 'Arial', 'Helvetica', 'DejaVu Sans', 'Liberation Sans', sans-serif; text-anchor: start; fill: #272727" x="465.650747" y="100.78066" transform="rotate(-0 465.650747 100.78066)">bSQI,basSQI,pSQI</text>
   </g>
   <g id="text_52">
    <text style="font-size: 8px; font-family: 'Arial', 'Helvetica', 'DejaVu Sans', 'Liberation Sans', sans-serif; text-anchor: start; fill: #272727" x="465.650747" y="142.77141" transform="rotate(-0 465.650747 142.77141)">bSQI,basSQI,kSQI,sSQI</text>
   </g>
   <g id="text_53">
    <text style="font-weight: 600; font-size: 8px; font-family: 'Arial', 'Helvetica', 'DejaVu Sans', 'Liberation Sans', sans-serif; text-anchor: start; fill: #0f4d92" x="465.650747" y="184.819035" transform="rotate(-0 465.650747 184.819035)">bSQI,basSQI,kSQI,sSQI,fSQI</text>
   </g>
   <g id="text_54">
    <text style="font-size: 8px; font-family: 'Arial', 'Helvetica', 'DejaVu Sans', 'Liberation Sans', sans-serif; text-anchor: start; fill: #272727" x="465.650747" y="226.85541" transform="rotate(-0 465.650747 226.85541)">bSQI,basSQI,kSQI,sSQI,fSQI,iSQI</text>
   </g>
   <g id="text_55">
    <text style="font-size: 8px; font-family: 'Arial', 'Helvetica', 'DejaVu Sans', 'Liberation Sans', sans-serif; text-anchor: start; fill: #272727" x="465.650747" y="268.94866" transform="rotate(-0 465.650747 268.94866)">bSQI,iSQI,kSQI,sSQI,pSQI,fSQI,basSQI</text>
   </g>
  </g>
 </g>
 <defs>
  <clipPath id="p36802f3a3c">
   <rect x="63.002422" y="35.598285" width="157.825825" height="252.252"/>
  </clipPath>
  <clipPath id="p3f6988f251">
   <rect x="233.146361" y="35.598285" width="88.536439" height="252.252"/>
  </clipPath>
  <clipPath id="p8cef8fc59f">
   <rect x="334.000912" y="35.598285" width="119.331722" height="252.252"/>
  </clipPath>
 </defs>
</svg>
