<?xml version="1.0" encoding="utf-8" standalone="no"?>
<!DOCTYPE svg PUBLIC "-//W3C//DTD SVG 1.1//EN"
  "http://www.w3.org/Graphics/SVG/1.1/DTD/svg11.dtd">
<svg xmlns:xlink="http://www.w3.org/1999/xlink" width="481.280625pt" height="294.335405pt" viewBox="0 0 481.280625 294.335405" xmlns="http://www.w3.org/2000/svg" version="1.1">
 <metadata>
  <rdf:RDF xmlns:dc="http://purl.org/dc/elements/1.1/" xmlns:cc="http://creativecommons.org/ns#" xmlns:rdf="http://www.w3.org/1999/02/22-rdf-syntax-ns#">
   <cc:Work>
    <dc:type rdf:resource="http://purl.org/dc/dcmitype/StillImage"/>
    <dc:date>2026-06-28T12:54:45.417150</dc:date>
    <dc:format>image/svg+xml</dc:format>
    <dc:creator>
     <cc:Agent>
      <dc:title>Matplotlib v3.10.9, https://matplotlib.org/</dc:title>
     </cc:Agent>
    </dc:creator>
   </cc:Work>
  </rdf:RDF>
 </metadata>
 <defs>
  <style type="text/css">*{stroke-linejoin: round; stroke-linecap: butt}</style>
 </defs>
 <g id="figure_1">
  <g id="patch_1">
   <path d="M -0 294.335405 
L 481.280625 294.335405 
L 481.280625 0 
L -0 0 
z
" style="fill: #ffffff"/>
  </g>
  <g id="axes_1">
   <g id="patch_2">
    <path d="M 36.63625 261.405405 
L 233.852774 261.405405 
L 233.852774 20.241405 
L 36.63625 20.241405 
z
" style="fill: #ffffff"/>
   </g>
   <g id="line2d_1">
    <path d="M 36.63625 261.405405 
L 233.852774 24.970111 
" clip-path="url(#p05d49b5a03)" style="fill: none; stroke-dasharray: 0.9,1.485; stroke-dashoffset: 0; stroke: #767676; stroke-width: 0.9"/>
   </g>
   <g id="matplotlib.axis_1">
    <g id="xtick_1">
     <g id="line2d_2">
      <defs>
       <path id="mec5ccc915f" d="M 0 0 
L 0 3.5 
" style="stroke: #272727; stroke-width: 0.8"/>
      </defs>
      <g>
       <use xlink:href="#mec5ccc915f" x="36.63625" y="261.405405" style="fill: #272727; stroke: #272727; stroke-width: 0.8"/>
      </g>
     </g>
     <g id="text_1">
      <text style="font-size: 8px; font-family: 'Arial', 'Helvetica', 'DejaVu Sans', 'Liberation Sans', sans-serif; text-anchor: middle; fill: #272727" x="36.63625" y="274.131655" transform="rotate(-0 36.63625 274.131655)">0.0</text>
     </g>
    </g>
    <g id="xtick_2">
     <g id="line2d_3">
      <g>
       <use xlink:href="#mec5ccc915f" x="76.079555" y="261.405405" style="fill: #272727; stroke: #272727; stroke-width: 0.8"/>
      </g>
     </g>
     <g id="text_2">
      <text style="font-size: 8px; font-family: 'Arial', 'Helvetica', 'DejaVu Sans', 'Liberation Sans', sans-serif; text-anchor: middle; fill: #272727" x="76.079555" y="274.131655" transform="rotate(-0 76.079555 274.131655)">0.2</text>
     </g>
    </g>
    <g id="xtick_3">
     <g id="line2d_4">
      <g>
       <use xlink:href="#mec5ccc915f" x="115.52286" y="261.405405" style="fill: #272727; stroke: #272727; stroke-width: 0.8"/>
      </g>
     </g>
     <g id="text_3">
      <text style="font-size: 8px; font-family: 'Arial', 'Helvetica', 'DejaVu Sans', 'Liberation Sans', sans-serif; text-anchor: middle; fill: #272727" x="115.52286" y="274.131655" transform="rotate(-0 115.52286 274.131655)">0.4</text>
     </g>
    </g>
    <g id="xtick_4">
     <g id="line2d_5">
      <g>
       <use xlink:href="#mec5ccc915f" x="154.966165" y="261.405405" style="fill: #272727; stroke: #272727; stroke-width: 0.8"/>
      </g>
     </g>
     <g id="text_4">
      <text style="font-size: 8px; font-family: 'Arial', 'Helvetica', 'DejaVu Sans', 'Liberation Sans', sans-serif; text-anchor: middle; fill: #272727" x="154.966165" y="274.131655" transform="rotate(-0 154.966165 274.131655)">0.6</text>
     </g>
    </g>
    <g id="xtick_5">
     <g id="line2d_6">
      <g>
       <use xlink:href="#mec5ccc915f" x="194.409469" y="261.405405" style="fill: #272727; stroke: #272727; stroke-width: 0.8"/>
      </g>
     </g>
     <g id="text_5">
      <text style="font-size: 8px; font-family: 'Arial', 'Helvetica', 'DejaVu Sans', 'Liberation Sans', sans-serif; text-anchor: middle; fill: #272727" x="194.409469" y="274.131655" transform="rotate(-0 194.409469 274.131655)">0.8</text>
     </g>
    </g>
    <g id="xtick_6">
     <g id="line2d_7">
      <g>
       <use xlink:href="#mec5ccc915f" x="233.852774" y="261.405405" style="fill: #272727; stroke: #272727; stroke-width: 0.8"/>
      </g>
     </g>
     <g id="text_6">
      <text style="font-size: 8px; font-family: 'Arial', 'Helvetica', 'DejaVu Sans', 'Liberation Sans', sans-serif; text-anchor: middle; fill: #272727" x="233.852774" y="274.131655" transform="rotate(-0 233.852774 274.131655)">1.0</text>
     </g>
    </g>
    <g id="text_7">
     <text style="font-size: 8px; font-family: 'Arial', 'Helvetica', 'DejaVu Sans', 'Liberation Sans', sans-serif; text-anchor: middle; fill: #272727" x="135.244512" y="285.545405" transform="rotate(-0 135.244512 285.545405)">1-Sp</text>
    </g>
   </g>
   <g id="matplotlib.axis_2">
    <g id="ytick_1">
     <g id="line2d_8">
      <defs>
       <path id="ma93cc6a2e1" d="M 0 0 
L -3.5 0 
" style="stroke: #272727; stroke-width: 0.8"/>
      </defs>
      <g>
       <use xlink:href="#ma93cc6a2e1" x="36.63625" y="261.405405" style="fill: #272727; stroke: #272727; stroke-width: 0.8"/>
      </g>
     </g>
     <g id="text_8">
      <text style="font-size: 8px; font-family: 'Arial', 'Helvetica', 'DejaVu Sans', 'Liberation Sans', sans-serif; text-anchor: end; fill: #272727" x="29.63625" y="264.26853" transform="rotate(-0 29.63625 264.26853)">0.0</text>
     </g>
    </g>
    <g id="ytick_2">
     <g id="line2d_9">
      <g>
       <use xlink:href="#ma93cc6a2e1" x="36.63625" y="214.118346" style="fill: #272727; stroke: #272727; stroke-width: 0.8"/>
      </g>
     </g>
     <g id="text_9">
      <text style="font-size: 8px; font-family: 'Arial', 'Helvetica', 'DejaVu Sans', 'Liberation Sans', sans-serif; text-anchor: end; fill: #272727" x="29.63625" y="216.981471" transform="rotate(-0 29.63625 216.981471)">0.2</text>
     </g>
    </g>
    <g id="ytick_3">
     <g id="line2d_10">
      <g>
       <use xlink:href="#ma93cc6a2e1" x="36.63625" y="166.831287" style="fill: #272727; stroke: #272727; stroke-width: 0.8"/>
      </g>
     </g>
     <g id="text_10">
      <text style="font-size: 8px; font-family: 'Arial', 'Helvetica', 'DejaVu Sans', 'Liberation Sans', sans-serif; text-anchor: end; fill: #272727" x="29.63625" y="169.694412" transform="rotate(-0 29.63625 169.694412)">0.4</text>
     </g>
    </g>
    <g id="ytick_4">
     <g id="line2d_11">
      <g>
       <use xlink:href="#ma93cc6a2e1" x="36.63625" y="119.544229" style="fill: #272727; stroke: #272727; stroke-width: 0.8"/>
      </g>
     </g>
     <g id="text_11">
      <text style="font-size: 8px; font-family: 'Arial', 'Helvetica', 'DejaVu Sans', 'Liberation Sans', sans-serif; text-anchor: end; fill: #272727" x="29.63625" y="122.407354" transform="rotate(-0 29.63625 122.407354)">0.6</text>
     </g>
    </g>
    <g id="ytick_5">
     <g id="line2d_12">
      <g>
       <use xlink:href="#ma93cc6a2e1" x="36.63625" y="72.25717" style="fill: #272727; stroke: #272727; stroke-width: 0.8"/>
      </g>
     </g>
     <g id="text_12">
      <text style="font-size: 8px; font-family: 'Arial', 'Helvetica', 'DejaVu Sans', 'Liberation Sans', sans-serif; text-anchor: end; fill: #272727" x="29.63625" y="75.120295" transform="rotate(-0 29.63625 75.120295)">0.8</text>
     </g>
    </g>
    <g id="ytick_6">
     <g id="line2d_13">
      <g>
       <use xlink:href="#ma93cc6a2e1" x="36.63625" y="24.970111" style="fill: #272727; stroke: #272727; stroke-width: 0.8"/>
      </g>
     </g>
     <g id="text_13">
      <text style="font-size: 8px; font-family: 'Arial', 'Helvetica', 'DejaVu Sans', 'Liberation Sans', sans-serif; text-anchor: end; fill: #272727" x="29.63625" y="27.833236" transform="rotate(-0 29.63625 27.833236)">1.0</text>
     </g>
    </g>
    <g id="text_14">
     <text style="font-size: 8px; font-family: 'Arial', 'Helvetica', 'DejaVu Sans', 'Liberation Sans', sans-serif; text-anchor: middle; fill: #272727" x="12.92625" y="140.823405" transform="rotate(-90 12.92625 140.823405)">Se</text>
    </g>
   </g>
   <g id="line2d_14">
    <path d="M 36.63625 261.405405 
L 38.351176 261.405405 
L 38.351176 259.36717 
L 40.066103 259.36717 
L 40.066103 194.14364 
L 41.781029 194.14364 
L 41.781029 179.875993 
L 43.495955 179.875993 
L 43.495955 71.849523 
L 45.210881 71.849523 
L 45.210881 57.581876 
L 48.640734 57.581876 
L 48.640734 53.505405 
L 50.35566 53.505405 
L 50.35566 51.46717 
L 52.070587 51.46717 
L 52.070587 41.275993 
L 55.500439 41.275993 
L 55.500439 39.237758 
L 57.215366 39.237758 
L 57.215366 37.199523 
L 58.930292 37.199523 
L 58.930292 33.123052 
L 62.360144 33.123052 
L 62.360144 31.084817 
L 65.789997 31.084817 
L 65.789997 29.046581 
L 76.079555 29.046581 
L 76.079555 27.008346 
L 117.237786 27.008346 
L 132.672123 27.008346 
L 196.124396 27.008346 
L 196.124396 24.970111 
L 233.852774 24.970111 
" clip-path="url(#p05d49b5a03)" style="fill: none; stroke: #0f4d92; stroke-width: 1.35; stroke-linecap: square"/>
   </g>
   <g id="line2d_15">
    <path d="M 36.63625 261.405405 
L 36.63625 259.36717 
L 36.63625 253.252464 
L 38.351176 253.252464 
L 38.351176 212.487758 
L 40.066103 212.487758 
L 40.066103 157.455405 
L 41.781029 157.455405 
L 41.781029 116.690699 
L 43.495955 116.690699 
L 43.495955 106.499523 
L 45.210881 106.499523 
L 45.210881 80.002464 
L 48.640734 80.002464 
L 48.640734 65.734817 
L 50.35566 65.734817 
L 50.35566 59.620111 
L 52.070587 59.620111 
L 52.070587 49.428934 
L 53.785513 49.428934 
L 53.785513 31.084817 
L 55.500439 31.084817 
L 55.500439 29.046581 
L 64.075071 29.046581 
L 64.075071 27.008346 
L 72.649702 27.008346 
L 88.084039 27.008346 
L 137.816902 27.008346 
L 137.816902 24.970111 
L 233.852774 24.970111 
" clip-path="url(#p05d49b5a03)" style="fill: none; stroke: #b64342; stroke-width: 1.35; stroke-linecap: square"/>
   </g>
   <g id="patch_3">
    <path d="M 36.63625 261.405405 
L 36.63625 20.241405 
" style="fill: none; stroke: #4d4d4d; stroke-width: 0.8; stroke-linejoin: miter; stroke-linecap: square"/>
   </g>
   <g id="patch_4">
    <path d="M 36.63625 261.405405 
L 233.852774 261.405405 
" style="fill: none; stroke: #4d4d4d; stroke-width: 0.8; stroke-linejoin: miter; stroke-linecap: square"/>
   </g>
   <g id="text_15">
    <text style="font-weight: 700; font-size: 9px; font-family: 'Arial', 'Helvetica', 'DejaVu Sans', 'Liberation Sans', sans-serif; text-anchor: start; fill: #272727" x="10.998102" y="13.642031" transform="rotate(-0 10.998102 13.642031)">a</text>
   </g>
   <g id="text_16">
    <text style="font-size: 8.8px; font-family: 'Arial', 'Helvetica', 'DejaVu Sans', 'Liberation Sans', sans-serif; text-anchor: start" x="36.63625" y="14.241405" transform="rotate(-0 36.63625 14.241405)">held-out test ROC</text>
   </g>
   <g id="PathCollection_1">
    <defs>
     <path id="md2bd42046e" d="M 0 3.316625 
C 0.879579 3.316625 1.723251 2.967164 2.345208 2.345208 
C 2.967164 1.723251 3.316625 0.879579 3.316625 0 
C 3.316625 -0.879579 2.967164 -1.723251 2.345208 -2.345208 
C 1.723251 -2.967164 0.879579 -3.316625 0 -3.316625 
C -0.879579 -3.316625 -1.723251 -2.967164 -2.345208 -2.345208 
C -2.967164 -1.723251 -3.316625 -0.879579 -3.316625 0 
C -3.316625 0.879579 -2.967164 1.723251 -2.345208 2.345208 
C -1.723251 2.967164 -0.879579 3.316625 0 3.316625 
z
" style="stroke: #0f4d92; stroke-width: 1.25"/>
    </defs>
    <g clip-path="url(#p05d49b5a03)">
     <use xlink:href="#md2bd42046e" x="55.500439" y="41.275993" style="fill: #ffffff; stroke: #0f4d92; stroke-width: 1.25"/>
    </g>
   </g>
   <g id="PathCollection_2">
    <defs>
     <path id="md5d668f779" d="M -3.316625 3.316625 
L 3.316625 3.316625 
L 3.316625 -3.316625 
L -3.316625 -3.316625 
z
" style="stroke: #b64342; stroke-width: 1.25"/>
    </defs>
    <g clip-path="url(#p05d49b5a03)">
     <use xlink:href="#md5d668f779" x="53.785513" y="33.123052" style="fill: #ffffff; stroke: #b64342; stroke-width: 1.25"/>
    </g>
   </g>
   <g id="legend_1">
    <g id="text_17">
     <text style="font-size: 7.7px; font-family: 'Arial', 'Helvetica', 'DejaVu Sans', 'Liberation Sans', sans-serif; text-anchor: start" x="113.268329" y="232.009358" transform="rotate(-0 113.268329 232.009358)">test AUC, source-group 95% CI</text>
    </g>
    <g id="line2d_16">
     <path d="M 106.760087 240.126936 
L 113.420087 240.126936 
L 120.080087 240.126936 
" style="fill: none; stroke: #0f4d92; stroke-width: 1.35; stroke-linecap: square"/>
    </g>
    <g id="text_18">
     <text style="font-size: 7.4px; font-family: 'Arial', 'Helvetica', 'DejaVu Sans', 'Liberation Sans', sans-serif; text-anchor: start" x="126.000087" y="242.716936" transform="rotate(-0 126.000087 242.716936)">MLP AUC 0.955 [0.919, 0.984]</text>
    </g>
    <g id="line2d_17">
     <path d="M 106.760087 250.684655 
L 113.420087 250.684655 
L 120.080087 250.684655 
" style="fill: none; stroke: #b64342; stroke-width: 1.35; stroke-linecap: square"/>
    </g>
    <g id="text_19">
     <text style="font-size: 7.4px; font-family: 'Arial', 'Helvetica', 'DejaVu Sans', 'Liberation Sans', sans-serif; text-anchor: start" x="126.000087" y="253.274655" transform="rotate(-0 126.000087 253.274655)">SVM AUC 0.962 [0.930, 0.986]</text>
    </g>
   </g>
  </g>
  <g id="axes_2">
   <g id="text_20">
    <text style="font-weight: 700; font-size: 9px; font-family: 'Arial', 'Helvetica', 'DejaVu Sans', 'Liberation Sans', sans-serif; text-anchor: start; fill: #272727" x="272.480011" y="23.748655" transform="rotate(-0 272.480011 23.748655)">b</text>
   </g>
   <g id="legend_2">
    <g id="patch_5">
     <path d="M 298.962005 28.487454 
L 306.667005 28.487454 
L 306.667005 23.797454 
L 298.962005 23.797454 
z
" style="fill: #d9e7f5; stroke: #0f4d92; stroke-width: 0.9; stroke-linejoin: miter"/>
    </g>
    <g id="text_21">
     <text style="font-size: 6.7px; font-family: 'Arial', 'Helvetica', 'DejaVu Sans', 'Liberation Sans', sans-serif; text-anchor: start" x="312.027005" y="28.487454" transform="rotate(-0 312.027005 28.487454)">acceptable (n=116)</text>
    </g>
    <g id="patch_6">
     <path d="M 298.962005 36.650986 
L 306.667005 36.650986 
L 306.667005 31.960986 
L 298.962005 31.960986 
z
" style="fill: #f6cfcb; stroke: #b64342; stroke-width: 0.9; stroke-linejoin: miter"/>
    </g>
    <g id="text_22">
     <text style="font-size: 6.7px; font-family: 'Arial', 'Helvetica', 'DejaVu Sans', 'Liberation Sans', sans-serif; text-anchor: start" x="312.027005" y="36.650986" transform="rotate(-0 312.027005 36.650986)">original unacc. (n=33)</text>
    </g>
    <g id="patch_7">
     <path d="M 298.962005 44.814517 
L 306.667005 44.814517 
L 306.667005 40.124517 
L 298.962005 40.124517 
z
" style="fill: #cfcece; stroke: #4d4d4d; stroke-width: 0.9; stroke-linejoin: miter"/>
    </g>
    <g id="text_23">
     <text style="font-size: 6.7px; font-family: 'Arial', 'Helvetica', 'DejaVu Sans', 'Liberation Sans', sans-serif; text-anchor: start" x="312.027005" y="44.814517" transform="rotate(-0 312.027005 44.814517)">synthetic unacc. (n=82)</text>
    </g>
   </g>
  </g>
  <g id="axes_3">
   <g id="patch_8">
    <path d="M 296.282005 155.499361 
L 466.29625 155.499361 
L 466.29625 73.966274 
L 296.282005 73.966274 
z
" style="fill: #ffffff"/>
   </g>
   <g id="patch_9">
    <path d="M 296.282005 155.499361 
L 296.282005 152.754815 
L 301.433952 152.754815 
L 301.433952 155.499361 
L 306.585899 155.499361 
L 306.585899 155.499361 
L 311.737845 155.499361 
L 311.737845 155.499361 
L 316.889792 155.499361 
L 316.889792 154.813224 
L 322.041739 154.813224 
L 322.041739 154.813224 
L 327.193686 154.813224 
L 327.193686 155.499361 
L 332.345633 155.499361 
L 332.345633 155.499361 
L 337.49758 155.499361 
L 337.49758 155.499361 
L 342.649526 155.499361 
L 342.649526 155.499361 
L 347.801473 155.499361 
L 347.801473 155.499361 
L 352.95342 155.499361 
L 352.95342 154.813224 
L 358.105367 154.813224 
L 358.105367 155.499361 
L 363.257314 155.499361 
L 363.257314 155.499361 
L 368.40926 155.499361 
L 368.40926 155.499361 
L 373.561207 155.499361 
L 373.561207 155.499361 
L 378.713154 155.499361 
L 378.713154 155.499361 
L 383.865101 155.499361 
L 383.865101 155.499361 
L 389.017048 155.499361 
L 389.017048 155.499361 
L 394.168995 155.499361 
L 394.168995 154.813224 
L 399.320941 154.813224 
L 399.320941 155.499361 
L 404.472888 155.499361 
L 404.472888 155.499361 
L 409.624835 155.499361 
L 409.624835 155.499361 
L 414.776782 155.499361 
L 414.776782 155.499361 
L 419.928729 155.499361 
L 419.928729 155.499361 
L 425.080675 155.499361 
L 425.080675 154.813224 
L 430.232622 154.813224 
L 430.232622 155.499361 
L 435.384569 155.499361 
L 435.384569 155.499361 
L 440.536516 155.499361 
L 440.536516 154.127088 
L 445.688463 154.127088 
L 445.688463 154.813224 
L 450.84041 154.813224 
L 450.84041 154.813224 
L 455.992356 154.813224 
L 455.992356 154.813224 
L 461.144303 154.813224 
L 461.144303 85.513447 
L 466.29625 85.513447 
L 466.29625 155.499361 
L 461.144303 155.499361 
L 461.144303 155.499361 
L 455.992356 155.499361 
L 455.992356 155.499361 
L 450.84041 155.499361 
L 450.84041 155.499361 
L 445.688463 155.499361 
L 445.688463 155.499361 
L 440.536516 155.499361 
L 440.536516 155.499361 
L 435.384569 155.499361 
L 435.384569 155.499361 
L 430.232622 155.499361 
L 430.232622 155.499361 
L 425.080675 155.499361 
L 425.080675 155.499361 
L 419.928729 155.499361 
L 419.928729 155.499361 
L 414.776782 155.499361 
L 414.776782 155.499361 
L 409.624835 155.499361 
L 409.624835 155.499361 
L 404.472888 155.499361 
L 404.472888 155.499361 
L 399.320941 155.499361 
L 399.320941 155.499361 
L 394.168995 155.499361 
L 394.168995 155.499361 
L 389.017048 155.499361 
L 389.017048 155.499361 
L 383.865101 155.499361 
L 383.865101 155.499361 
L 378.713154 155.499361 
L 378.713154 155.499361 
L 373.561207 155.499361 
L 373.561207 155.499361 
L 368.40926 155.499361 
L 368.40926 155.499361 
L 363.257314 155.499361 
L 363.257314 155.499361 
L 358.105367 155.499361 
L 358.105367 155.499361 
L 352.95342 155.499361 
L 352.95342 155.499361 
L 347.801473 155.499361 
L 347.801473 155.499361 
L 342.649526 155.499361 
L 342.649526 155.499361 
L 337.49758 155.499361 
L 337.49758 155.499361 
L 332.345633 155.499361 
L 332.345633 155.499361 
L 327.193686 155.499361 
L 327.193686 155.499361 
L 322.041739 155.499361 
L 322.041739 155.499361 
L 316.889792 155.499361 
L 316.889792 155.499361 
L 311.737845 155.499361 
L 311.737845 155.499361 
L 306.585899 155.499361 
L 306.585899 155.499361 
L 301.433952 155.499361 
L 301.433952 155.499361 
z
" clip-path="url(#p6e4e3c50f6)" style="fill: #d9e7f5; opacity: 0.35"/>
   </g>
   <g id="patch_10">
    <path d="M 296.282005 155.499361 
L 296.282005 107.261892 
L 301.433952 107.261892 
L 301.433952 153.087487 
L 306.585899 153.087487 
L 306.585899 155.499361 
L 311.737845 155.499361 
L 311.737845 155.499361 
L 316.889792 155.499361 
L 316.889792 155.499361 
L 322.041739 155.499361 
L 322.041739 155.499361 
L 327.193686 155.499361 
L 327.193686 155.499361 
L 332.345633 155.499361 
L 332.345633 155.499361 
L 337.49758 155.499361 
L 337.49758 155.499361 
L 342.649526 155.499361 
L 342.649526 155.499361 
L 347.801473 155.499361 
L 347.801473 155.499361 
L 352.95342 155.499361 
L 352.95342 155.499361 
L 358.105367 155.499361 
L 358.105367 155.499361 
L 363.257314 155.499361 
L 363.257314 155.499361 
L 368.40926 155.499361 
L 368.40926 155.499361 
L 373.561207 155.499361 
L 373.561207 155.499361 
L 378.713154 155.499361 
L 378.713154 153.087487 
L 383.865101 153.087487 
L 383.865101 155.499361 
L 389.017048 155.499361 
L 389.017048 155.499361 
L 394.168995 155.499361 
L 394.168995 155.499361 
L 399.320941 155.499361 
L 399.320941 155.499361 
L 404.472888 155.499361 
L 404.472888 155.499361 
L 409.624835 155.499361 
L 409.624835 155.499361 
L 414.776782 155.499361 
L 414.776782 153.087487 
L 419.928729 153.087487 
L 419.928729 153.087487 
L 425.080675 153.087487 
L 425.080675 155.499361 
L 430.232622 155.499361 
L 430.232622 155.499361 
L 435.384569 155.499361 
L 435.384569 155.499361 
L 440.536516 155.499361 
L 440.536516 155.499361 
L 445.688463 155.499361 
L 445.688463 155.499361 
L 450.84041 155.499361 
L 450.84041 155.499361 
L 455.992356 155.499361 
L 455.992356 150.675614 
L 461.144303 150.675614 
L 461.144303 138.616247 
L 466.29625 138.616247 
L 466.29625 155.499361 
L 461.144303 155.499361 
L 461.144303 155.499361 
L 455.992356 155.499361 
L 455.992356 155.499361 
L 450.84041 155.499361 
L 450.84041 155.499361 
L 445.688463 155.499361 
L 445.688463 155.499361 
L 440.536516 155.499361 
L 440.536516 155.499361 
L 435.384569 155.499361 
L 435.384569 155.499361 
L 430.232622 155.499361 
L 430.232622 155.499361 
L 425.080675 155.499361 
L 425.080675 155.499361 
L 419.928729 155.499361 
L 419.928729 155.499361 
L 414.776782 155.499361 
L 414.776782 155.499361 
L 409.624835 155.499361 
L 409.624835 155.499361 
L 404.472888 155.499361 
L 404.472888 155.499361 
L 399.320941 155.499361 
L 399.320941 155.499361 
L 394.168995 155.499361 
L 394.168995 155.499361 
L 389.017048 155.499361 
L 389.017048 155.499361 
L 383.865101 155.499361 
L 383.865101 155.499361 
L 378.713154 155.499361 
L 378.713154 155.499361 
L 373.561207 155.499361 
L 373.561207 155.499361 
L 368.40926 155.499361 
L 368.40926 155.499361 
L 363.257314 155.499361 
L 363.257314 155.499361 
L 358.105367 155.499361 
L 358.105367 155.499361 
L 352.95342 155.499361 
L 352.95342 155.499361 
L 347.801473 155.499361 
L 347.801473 155.499361 
L 342.649526 155.499361 
L 342.649526 155.499361 
L 337.49758 155.499361 
L 337.49758 155.499361 
L 332.345633 155.499361 
L 332.345633 155.499361 
L 327.193686 155.499361 
L 327.193686 155.499361 
L 322.041739 155.499361 
L 322.041739 155.499361 
L 316.889792 155.499361 
L 316.889792 155.499361 
L 311.737845 155.499361 
L 311.737845 155.499361 
L 306.585899 155.499361 
L 306.585899 155.499361 
L 301.433952 155.499361 
L 301.433952 155.499361 
z
" clip-path="url(#p6e4e3c50f6)" style="fill: #f6cfcb; opacity: 0.35"/>
   </g>
   <g id="patch_11">
    <path d="M 296.282005 155.499361 
L 296.282005 77.848802 
L 301.433952 77.848802 
L 301.433952 155.499361 
L 306.585899 155.499361 
L 306.585899 154.528729 
L 311.737845 154.528729 
L 311.737845 155.499361 
L 316.889792 155.499361 
L 316.889792 155.499361 
L 322.041739 155.499361 
L 322.041739 155.499361 
L 327.193686 155.499361 
L 327.193686 155.499361 
L 332.345633 155.499361 
L 332.345633 154.528729 
L 337.49758 154.528729 
L 337.49758 155.499361 
L 342.649526 155.499361 
L 342.649526 155.499361 
L 347.801473 155.499361 
L 347.801473 155.499361 
L 352.95342 155.499361 
L 352.95342 155.499361 
L 358.105367 155.499361 
L 358.105367 155.499361 
L 363.257314 155.499361 
L 363.257314 155.499361 
L 368.40926 155.499361 
L 368.40926 155.499361 
L 373.561207 155.499361 
L 373.561207 155.499361 
L 378.713154 155.499361 
L 378.713154 155.499361 
L 383.865101 155.499361 
L 383.865101 155.499361 
L 389.017048 155.499361 
L 389.017048 155.499361 
L 394.168995 155.499361 
L 394.168995 155.499361 
L 399.320941 155.499361 
L 399.320941 155.499361 
L 404.472888 155.499361 
L 404.472888 155.499361 
L 409.624835 155.499361 
L 409.624835 155.499361 
L 414.776782 155.499361 
L 414.776782 155.499361 
L 419.928729 155.499361 
L 419.928729 155.499361 
L 425.080675 155.499361 
L 425.080675 155.499361 
L 430.232622 155.499361 
L 430.232622 155.499361 
L 435.384569 155.499361 
L 435.384569 155.499361 
L 440.536516 155.499361 
L 440.536516 155.499361 
L 445.688463 155.499361 
L 445.688463 155.499361 
L 450.84041 155.499361 
L 450.84041 155.499361 
L 455.992356 155.499361 
L 455.992356 155.499361 
L 461.144303 155.499361 
L 461.144303 155.499361 
L 466.29625 155.499361 
L 466.29625 155.499361 
L 461.144303 155.499361 
L 461.144303 155.499361 
L 455.992356 155.499361 
L 455.992356 155.499361 
L 450.84041 155.499361 
L 450.84041 155.499361 
L 445.688463 155.499361 
L 445.688463 155.499361 
L 440.536516 155.499361 
L 440.536516 155.499361 
L 435.384569 155.499361 
L 435.384569 155.499361 
L 430.232622 155.499361 
L 430.232622 155.499361 
L 425.080675 155.499361 
L 425.080675 155.499361 
L 419.928729 155.499361 
L 419.928729 155.499361 
L 414.776782 155.499361 
L 414.776782 155.499361 
L 409.624835 155.499361 
L 409.624835 155.499361 
L 404.472888 155.499361 
L 404.472888 155.499361 
L 399.320941 155.499361 
L 399.320941 155.499361 
L 394.168995 155.499361 
L 394.168995 155.499361 
L 389.017048 155.499361 
L 389.017048 155.499361 
L 383.865101 155.499361 
L 383.865101 155.499361 
L 378.713154 155.499361 
L 378.713154 155.499361 
L 373.561207 155.499361 
L 373.561207 155.499361 
L 368.40926 155.499361 
L 368.40926 155.499361 
L 363.257314 155.499361 
L 363.257314 155.499361 
L 358.105367 155.499361 
L 358.105367 155.499361 
L 352.95342 155.499361 
L 352.95342 155.499361 
L 347.801473 155.499361 
L 347.801473 155.499361 
L 342.649526 155.499361 
L 342.649526 155.499361 
L 337.49758 155.499361 
L 337.49758 155.499361 
L 332.345633 155.499361 
L 332.345633 155.499361 
L 327.193686 155.499361 
L 327.193686 155.499361 
L 322.041739 155.499361 
L 322.041739 155.499361 
L 316.889792 155.499361 
L 316.889792 155.499361 
L 311.737845 155.499361 
L 311.737845 155.499361 
L 306.585899 155.499361 
L 306.585899 155.499361 
L 301.433952 155.499361 
L 301.433952 155.499361 
z
" clip-path="url(#p6e4e3c50f6)" style="fill: #cfcece; opacity: 0.35"/>
   </g>
   <g id="matplotlib.axis_3">
    <g id="xtick_7">
     <g id="line2d_18">
      <g>
       <use xlink:href="#mec5ccc915f" x="296.282005" y="155.499361" style="fill: #272727; stroke: #272727; stroke-width: 0.8"/>
      </g>
     </g>
    </g>
    <g id="xtick_8">
     <g id="line2d_19">
      <g>
       <use xlink:href="#mec5ccc915f" x="338.785566" y="155.499361" style="fill: #272727; stroke: #272727; stroke-width: 0.8"/>
      </g>
     </g>
    </g>
    <g id="xtick_9">
     <g id="line2d_20">
      <g>
       <use xlink:href="#mec5ccc915f" x="381.289127" y="155.499361" style="fill: #272727; stroke: #272727; stroke-width: 0.8"/>
      </g>
     </g>
    </g>
    <g id="xtick_10">
     <g id="line2d_21">
      <g>
       <use xlink:href="#mec5ccc915f" x="423.792689" y="155.499361" style="fill: #272727; stroke: #272727; stroke-width: 0.8"/>
      </g>
     </g>
    </g>
    <g id="xtick_11">
     <g id="line2d_22">
      <g>
       <use xlink:href="#mec5ccc915f" x="466.29625" y="155.499361" style="fill: #272727; stroke: #272727; stroke-width: 0.8"/>
      </g>
     </g>
    </g>
   </g>
   <g id="matplotlib.axis_4">
    <g id="ytick_7">
     <g id="line2d_23">
      <g>
       <use xlink:href="#ma93cc6a2e1" x="296.282005" y="155.499361" style="fill: #272727; stroke: #272727; stroke-width: 0.8"/>
      </g>
     </g>
     <g id="text_24">
      <text style="font-size: 8px; font-family: 'Arial', 'Helvetica', 'DejaVu Sans', 'Liberation Sans', sans-serif; text-anchor: end; fill: #272727" x="289.282005" y="158.362486" transform="rotate(-0 289.282005 158.362486)">0</text>
     </g>
    </g>
    <g id="ytick_8">
     <g id="line2d_24">
      <g>
       <use xlink:href="#ma93cc6a2e1" x="296.282005" y="131.380626" style="fill: #272727; stroke: #272727; stroke-width: 0.8"/>
      </g>
     </g>
     <g id="text_25">
      <text style="font-size: 8px; font-family: 'Arial', 'Helvetica', 'DejaVu Sans', 'Liberation Sans', sans-serif; text-anchor: end; fill: #272727" x="289.282005" y="134.243751" transform="rotate(-0 289.282005 134.243751)">10</text>
     </g>
    </g>
    <g id="ytick_9">
     <g id="line2d_25">
      <g>
       <use xlink:href="#ma93cc6a2e1" x="296.282005" y="107.261892" style="fill: #272727; stroke: #272727; stroke-width: 0.8"/>
      </g>
     </g>
     <g id="text_26">
      <text style="font-size: 8px; font-family: 'Arial', 'Helvetica', 'DejaVu Sans', 'Liberation Sans', sans-serif; text-anchor: end; fill: #272727" x="289.282005" y="110.125017" transform="rotate(-0 289.282005 110.125017)">20</text>
     </g>
    </g>
    <g id="ytick_10">
     <g id="line2d_26">
      <g>
       <use xlink:href="#ma93cc6a2e1" x="296.282005" y="83.143158" style="fill: #272727; stroke: #272727; stroke-width: 0.8"/>
      </g>
     </g>
     <g id="text_27">
      <text style="font-size: 8px; font-family: 'Arial', 'Helvetica', 'DejaVu Sans', 'Liberation Sans', sans-serif; text-anchor: end; fill: #272727" x="289.282005" y="86.006283" transform="rotate(-0 289.282005 86.006283)">30</text>
     </g>
    </g>
    <g id="text_28">
     <text style="font-size: 8px; font-family: 'Arial', 'Helvetica', 'DejaVu Sans', 'Liberation Sans', sans-serif; text-anchor: middle; fill: #272727" x="274.700755" y="114.732817" transform="rotate(-90 274.700755 114.732817)">Density</text>
    </g>
   </g>
   <g id="patch_12">
    <path d="M 296.282005 155.499361 
L 296.282005 152.754815 
L 301.433952 152.754815 
L 301.433952 155.499361 
L 306.585899 155.499361 
L 306.585899 155.499361 
L 311.737845 155.499361 
L 311.737845 155.499361 
L 316.889792 155.499361 
L 316.889792 154.813224 
L 322.041739 154.813224 
L 322.041739 154.813224 
L 327.193686 154.813224 
L 327.193686 155.499361 
L 332.345633 155.499361 
L 332.345633 155.499361 
L 337.49758 155.499361 
L 337.49758 155.499361 
L 342.649526 155.499361 
L 342.649526 155.499361 
L 347.801473 155.499361 
L 347.801473 155.499361 
L 352.95342 155.499361 
L 352.95342 154.813224 
L 358.105367 154.813224 
L 358.105367 155.499361 
L 363.257314 155.499361 
L 363.257314 155.499361 
L 368.40926 155.499361 
L 368.40926 155.499361 
L 373.561207 155.499361 
L 373.561207 155.499361 
L 378.713154 155.499361 
L 378.713154 155.499361 
L 383.865101 155.499361 
L 383.865101 155.499361 
L 389.017048 155.499361 
L 389.017048 155.499361 
L 394.168995 155.499361 
L 394.168995 154.813224 
L 399.320941 154.813224 
L 399.320941 155.499361 
L 404.472888 155.499361 
L 404.472888 155.499361 
L 409.624835 155.499361 
L 409.624835 155.499361 
L 414.776782 155.499361 
L 414.776782 155.499361 
L 419.928729 155.499361 
L 419.928729 155.499361 
L 425.080675 155.499361 
L 425.080675 154.813224 
L 430.232622 154.813224 
L 430.232622 155.499361 
L 435.384569 155.499361 
L 435.384569 155.499361 
L 440.536516 155.499361 
L 440.536516 154.127088 
L 445.688463 154.127088 
L 445.688463 154.813224 
L 450.84041 154.813224 
L 450.84041 154.813224 
L 455.992356 154.813224 
L 455.992356 154.813224 
L 461.144303 154.813224 
L 461.144303 85.513447 
L 466.29625 85.513447 
L 466.29625 155.499361 
" clip-path="url(#p6e4e3c50f6)" style="fill: none; stroke: #0f4d92; stroke-width: 1.1; stroke-linejoin: miter"/>
   </g>
   <g id="patch_13">
    <path d="M 296.282005 155.499361 
L 296.282005 107.261892 
L 301.433952 107.261892 
L 301.433952 153.087487 
L 306.585899 153.087487 
L 306.585899 155.499361 
L 311.737845 155.499361 
L 311.737845 155.499361 
L 316.889792 155.499361 
L 316.889792 155.499361 
L 322.041739 155.499361 
L 322.041739 155.499361 
L 327.193686 155.499361 
L 327.193686 155.499361 
L 332.345633 155.499361 
L 332.345633 155.499361 
L 337.49758 155.499361 
L 337.49758 155.499361 
L 342.649526 155.499361 
L 342.649526 155.499361 
L 347.801473 155.499361 
L 347.801473 155.499361 
L 352.95342 155.499361 
L 352.95342 155.499361 
L 358.105367 155.499361 
L 358.105367 155.499361 
L 363.257314 155.499361 
L 363.257314 155.499361 
L 368.40926 155.499361 
L 368.40926 155.499361 
L 373.561207 155.499361 
L 373.561207 155.499361 
L 378.713154 155.499361 
L 378.713154 153.087487 
L 383.865101 153.087487 
L 383.865101 155.499361 
L 389.017048 155.499361 
L 389.017048 155.499361 
L 394.168995 155.499361 
L 394.168995 155.499361 
L 399.320941 155.499361 
L 399.320941 155.499361 
L 404.472888 155.499361 
L 404.472888 155.499361 
L 409.624835 155.499361 
L 409.624835 155.499361 
L 414.776782 155.499361 
L 414.776782 153.087487 
L 419.928729 153.087487 
L 419.928729 153.087487 
L 425.080675 153.087487 
L 425.080675 155.499361 
L 430.232622 155.499361 
L 430.232622 155.499361 
L 435.384569 155.499361 
L 435.384569 155.499361 
L 440.536516 155.499361 
L 440.536516 155.499361 
L 445.688463 155.499361 
L 445.688463 155.499361 
L 450.84041 155.499361 
L 450.84041 155.499361 
L 455.992356 155.499361 
L 455.992356 150.675614 
L 461.144303 150.675614 
L 461.144303 138.616247 
L 466.29625 138.616247 
L 466.29625 155.499361 
" clip-path="url(#p6e4e3c50f6)" style="fill: none; stroke: #b64342; stroke-width: 1.1; stroke-linejoin: miter"/>
   </g>
   <g id="patch_14">
    <path d="M 296.282005 155.499361 
L 296.282005 77.848802 
L 301.433952 77.848802 
L 301.433952 155.499361 
L 306.585899 155.499361 
L 306.585899 154.528729 
L 311.737845 154.528729 
L 311.737845 155.499361 
L 316.889792 155.499361 
L 316.889792 155.499361 
L 322.041739 155.499361 
L 322.041739 155.499361 
L 327.193686 155.499361 
L 327.193686 155.499361 
L 332.345633 155.499361 
L 332.345633 154.528729 
L 337.49758 154.528729 
L 337.49758 155.499361 
L 342.649526 155.499361 
L 342.649526 155.499361 
L 347.801473 155.499361 
L 347.801473 155.499361 
L 352.95342 155.499361 
L 352.95342 155.499361 
L 358.105367 155.499361 
L 358.105367 155.499361 
L 363.257314 155.499361 
L 363.257314 155.499361 
L 368.40926 155.499361 
L 368.40926 155.499361 
L 373.561207 155.499361 
L 373.561207 155.499361 
L 378.713154 155.499361 
L 378.713154 155.499361 
L 383.865101 155.499361 
L 383.865101 155.499361 
L 389.017048 155.499361 
L 389.017048 155.499361 
L 394.168995 155.499361 
L 394.168995 155.499361 
L 399.320941 155.499361 
L 399.320941 155.499361 
L 404.472888 155.499361 
L 404.472888 155.499361 
L 409.624835 155.499361 
L 409.624835 155.499361 
L 414.776782 155.499361 
L 414.776782 155.499361 
L 419.928729 155.499361 
L 419.928729 155.499361 
L 425.080675 155.499361 
L 425.080675 155.499361 
L 430.232622 155.499361 
L 430.232622 155.499361 
L 435.384569 155.499361 
L 435.384569 155.499361 
L 440.536516 155.499361 
L 440.536516 155.499361 
L 445.688463 155.499361 
L 445.688463 155.499361 
L 450.84041 155.499361 
L 450.84041 155.499361 
L 455.992356 155.499361 
L 455.992356 155.499361 
L 461.144303 155.499361 
L 461.144303 155.499361 
L 466.29625 155.499361 
L 466.29625 155.499361 
" clip-path="url(#p6e4e3c50f6)" style="fill: none; stroke: #4d4d4d; stroke-width: 1.1; stroke-linejoin: miter"/>
   </g>
   <g id="line2d_27">
    <path d="M 403.305972 155.499361 
L 403.305972 73.966274 
" clip-path="url(#p6e4e3c50f6)" style="fill: none; stroke-dasharray: 4.07,1.76; stroke-dashoffset: 0; stroke: #0f4d92; stroke-width: 1.1"/>
   </g>
   <g id="patch_15">
    <path d="M 296.282005 155.499361 
L 296.282005 73.966274 
" style="fill: none; stroke: #4d4d4d; stroke-width: 0.8; stroke-linejoin: miter; stroke-linecap: square"/>
   </g>
   <g id="patch_16">
    <path d="M 296.282005 155.499361 
L 466.29625 155.499361 
" style="fill: none; stroke: #4d4d4d; stroke-width: 0.8; stroke-linejoin: miter; stroke-linecap: square"/>
   </g>
   <g id="text_29">
    <g id="patch_17">
     <path d="M 414.069503 112.876465 
L 414.069503 75.67759 
L 399.309972 75.67759 
L 399.309972 112.876465 
z
" style="fill: #ffffff; stroke: #ffffff; stroke-linejoin: miter"/>
    </g>
    <text style="font-size: 7.4px; font-family: 'Arial', 'Helvetica', 'DejaVu Sans', 'Liberation Sans', sans-serif; fill: #0f4d92" transform="translate(408.602753 108.880465) rotate(-90)">thr 0.630</text>
   </g>
   <g id="text_30">
    <text style="font-size: 8.8px; font-family: 'Arial', 'Helvetica', 'DejaVu Sans', 'Liberation Sans', sans-serif; text-anchor: start" x="296.282005" y="69.966274" transform="rotate(-0 296.282005 69.966274)">MLP scores</text>
   </g>
  </g>
  <g id="axes_4">
   <g id="patch_18">
    <path d="M 296.282005 261.405405 
L 466.29625 261.405405 
L 466.29625 179.872318 
L 296.282005 179.872318 
z
" style="fill: #ffffff"/>
   </g>
   <g id="patch_19">
    <path d="M 296.282005 261.405405 
L 296.282005 260.285182 
L 301.433952 260.285182 
L 301.433952 261.405405 
L 306.585899 261.405405 
L 306.585899 261.405405 
L 311.737845 261.405405 
L 311.737845 261.405405 
L 316.889792 261.405405 
L 316.889792 260.285182 
L 322.041739 260.285182 
L 322.041739 261.405405 
L 327.193686 261.405405 
L 327.193686 261.405405 
L 332.345633 261.405405 
L 332.345633 261.405405 
L 337.49758 261.405405 
L 337.49758 260.285182 
L 342.649526 260.285182 
L 342.649526 261.405405 
L 347.801473 261.405405 
L 347.801473 261.405405 
L 352.95342 261.405405 
L 352.95342 261.405405 
L 358.105367 261.405405 
L 358.105367 261.405405 
L 363.257314 261.405405 
L 363.257314 261.405405 
L 368.40926 261.405405 
L 368.40926 261.405405 
L 373.561207 261.405405 
L 373.561207 260.285182 
L 378.713154 260.285182 
L 378.713154 261.405405 
L 383.865101 261.405405 
L 383.865101 261.405405 
L 389.017048 261.405405 
L 389.017048 261.405405 
L 394.168995 261.405405 
L 394.168995 261.405405 
L 399.320941 261.405405 
L 399.320941 260.285182 
L 404.472888 260.285182 
L 404.472888 259.16496 
L 409.624835 259.16496 
L 409.624835 258.044737 
L 414.776782 258.044737 
L 414.776782 258.044737 
L 419.928729 258.044737 
L 419.928729 259.16496 
L 425.080675 259.16496 
L 425.080675 259.16496 
L 430.232622 259.16496 
L 430.232622 258.044737 
L 435.384569 258.044737 
L 435.384569 259.16496 
L 440.536516 259.16496 
L 440.536516 261.405405 
L 445.688463 261.405405 
L 445.688463 255.804291 
L 450.84041 255.804291 
L 450.84041 246.84251 
L 455.992356 246.84251 
L 455.992356 237.880728 
L 461.144303 237.880728 
L 461.144303 199.793156 
L 466.29625 199.793156 
L 466.29625 261.405405 
L 461.144303 261.405405 
L 461.144303 261.405405 
L 455.992356 261.405405 
L 455.992356 261.405405 
L 450.84041 261.405405 
L 450.84041 261.405405 
L 445.688463 261.405405 
L 445.688463 261.405405 
L 440.536516 261.405405 
L 440.536516 261.405405 
L 435.384569 261.405405 
L 435.384569 261.405405 
L 430.232622 261.405405 
L 430.232622 261.405405 
L 425.080675 261.405405 
L 425.080675 261.405405 
L 419.928729 261.405405 
L 419.928729 261.405405 
L 414.776782 261.405405 
L 414.776782 261.405405 
L 409.624835 261.405405 
L 409.624835 261.405405 
L 404.472888 261.405405 
L 404.472888 261.405405 
L 399.320941 261.405405 
L 399.320941 261.405405 
L 394.168995 261.405405 
L 394.168995 261.405405 
L 389.017048 261.405405 
L 389.017048 261.405405 
L 383.865101 261.405405 
L 383.865101 261.405405 
L 378.713154 261.405405 
L 378.713154 261.405405 
L 373.561207 261.405405 
L 373.561207 261.405405 
L 368.40926 261.405405 
L 368.40926 261.405405 
L 363.257314 261.405405 
L 363.257314 261.405405 
L 358.105367 261.405405 
L 358.105367 261.405405 
L 352.95342 261.405405 
L 352.95342 261.405405 
L 347.801473 261.405405 
L 347.801473 261.405405 
L 342.649526 261.405405 
L 342.649526 261.405405 
L 337.49758 261.405405 
L 337.49758 261.405405 
L 332.345633 261.405405 
L 332.345633 261.405405 
L 327.193686 261.405405 
L 327.193686 261.405405 
L 322.041739 261.405405 
L 322.041739 261.405405 
L 316.889792 261.405405 
L 316.889792 261.405405 
L 311.737845 261.405405 
L 311.737845 261.405405 
L 306.585899 261.405405 
L 306.585899 261.405405 
L 301.433952 261.405405 
L 301.433952 261.405405 
z
" clip-path="url(#pf6327ebe66)" style="fill: #d9e7f5; opacity: 0.35"/>
   </g>
   <g id="patch_20">
    <path d="M 296.282005 261.405405 
L 296.282005 233.841137 
L 301.433952 233.841137 
L 301.433952 253.5299 
L 306.585899 253.5299 
L 306.585899 257.467652 
L 311.737845 257.467652 
L 311.737845 222.02788 
L 316.889792 222.02788 
L 316.889792 261.405405 
L 322.041739 261.405405 
L 322.041739 253.5299 
L 327.193686 253.5299 
L 327.193686 261.405405 
L 332.345633 261.405405 
L 332.345633 261.405405 
L 337.49758 261.405405 
L 337.49758 261.405405 
L 342.649526 261.405405 
L 342.649526 261.405405 
L 347.801473 261.405405 
L 347.801473 261.405405 
L 352.95342 261.405405 
L 352.95342 261.405405 
L 358.105367 261.405405 
L 358.105367 261.405405 
L 363.257314 261.405405 
L 363.257314 261.405405 
L 368.40926 261.405405 
L 368.40926 257.467652 
L 373.561207 257.467652 
L 373.561207 261.405405 
L 378.713154 261.405405 
L 378.713154 261.405405 
L 383.865101 261.405405 
L 383.865101 261.405405 
L 389.017048 261.405405 
L 389.017048 261.405405 
L 394.168995 261.405405 
L 394.168995 261.405405 
L 399.320941 261.405405 
L 399.320941 261.405405 
L 404.472888 261.405405 
L 404.472888 261.405405 
L 409.624835 261.405405 
L 409.624835 261.405405 
L 414.776782 261.405405 
L 414.776782 257.467652 
L 419.928729 257.467652 
L 419.928729 261.405405 
L 425.080675 261.405405 
L 425.080675 257.467652 
L 430.232622 257.467652 
L 430.232622 261.405405 
L 435.384569 261.405405 
L 435.384569 257.467652 
L 440.536516 257.467652 
L 440.536516 261.405405 
L 445.688463 261.405405 
L 445.688463 261.405405 
L 450.84041 261.405405 
L 450.84041 249.592147 
L 455.992356 249.592147 
L 455.992356 257.467652 
L 461.144303 257.467652 
L 461.144303 249.592147 
L 466.29625 249.592147 
L 466.29625 261.405405 
L 461.144303 261.405405 
L 461.144303 261.405405 
L 455.992356 261.405405 
L 455.992356 261.405405 
L 450.84041 261.405405 
L 450.84041 261.405405 
L 445.688463 261.405405 
L 445.688463 261.405405 
L 440.536516 261.405405 
L 440.536516 261.405405 
L 435.384569 261.405405 
L 435.384569 261.405405 
L 430.232622 261.405405 
L 430.232622 261.405405 
L 425.080675 261.405405 
L 425.080675 261.405405 
L 419.928729 261.405405 
L 419.928729 261.405405 
L 414.776782 261.405405 
L 414.776782 261.405405 
L 409.624835 261.405405 
L 409.624835 261.405405 
L 404.472888 261.405405 
L 404.472888 261.405405 
L 399.320941 261.405405 
L 399.320941 261.405405 
L 394.168995 261.405405 
L 394.168995 261.405405 
L 389.017048 261.405405 
L 389.017048 261.405405 
L 383.865101 261.405405 
L 383.865101 261.405405 
L 378.713154 261.405405 
L 378.713154 261.405405 
L 373.561207 261.405405 
L 373.561207 261.405405 
L 368.40926 261.405405 
L 368.40926 261.405405 
L 363.257314 261.405405 
L 363.257314 261.405405 
L 358.105367 261.405405 
L 358.105367 261.405405 
L 352.95342 261.405405 
L 352.95342 261.405405 
L 347.801473 261.405405 
L 347.801473 261.405405 
L 342.649526 261.405405 
L 342.649526 261.405405 
L 337.49758 261.405405 
L 337.49758 261.405405 
L 332.345633 261.405405 
L 332.345633 261.405405 
L 327.193686 261.405405 
L 327.193686 261.405405 
L 322.041739 261.405405 
L 322.041739 261.405405 
L 316.889792 261.405405 
L 316.889792 261.405405 
L 311.737845 261.405405 
L 311.737845 261.405405 
L 306.585899 261.405405 
L 306.585899 261.405405 
L 301.433952 261.405405 
L 301.433952 261.405405 
z
" clip-path="url(#pf6327ebe66)" style="fill: #f6cfcb; opacity: 0.35"/>
   </g>
   <g id="patch_21">
    <path d="M 296.282005 261.405405 
L 296.282005 183.754846 
L 301.433952 183.754846 
L 301.433952 237.634826 
L 306.585899 237.634826 
L 306.585899 250.312468 
L 311.737845 250.312468 
L 311.737845 248.727763 
L 316.889792 248.727763 
L 316.889792 259.8207 
L 322.041739 259.8207 
L 322.041739 258.235994 
L 327.193686 258.235994 
L 327.193686 261.405405 
L 332.345633 261.405405 
L 332.345633 261.405405 
L 337.49758 261.405405 
L 337.49758 261.405405 
L 342.649526 261.405405 
L 342.649526 261.405405 
L 347.801473 261.405405 
L 347.801473 261.405405 
L 352.95342 261.405405 
L 352.95342 261.405405 
L 358.105367 261.405405 
L 358.105367 261.405405 
L 363.257314 261.405405 
L 363.257314 261.405405 
L 368.40926 261.405405 
L 368.40926 261.405405 
L 373.561207 261.405405 
L 373.561207 261.405405 
L 378.713154 261.405405 
L 378.713154 261.405405 
L 383.865101 261.405405 
L 383.865101 261.405405 
L 389.017048 261.405405 
L 389.017048 261.405405 
L 394.168995 261.405405 
L 394.168995 261.405405 
L 399.320941 261.405405 
L 399.320941 261.405405 
L 404.472888 261.405405 
L 404.472888 261.405405 
L 409.624835 261.405405 
L 409.624835 261.405405 
L 414.776782 261.405405 
L 414.776782 261.405405 
L 419.928729 261.405405 
L 419.928729 261.405405 
L 425.080675 261.405405 
L 425.080675 261.405405 
L 430.232622 261.405405 
L 430.232622 261.405405 
L 435.384569 261.405405 
L 435.384569 261.405405 
L 440.536516 261.405405 
L 440.536516 261.405405 
L 445.688463 261.405405 
L 445.688463 261.405405 
L 450.84041 261.405405 
L 450.84041 261.405405 
L 455.992356 261.405405 
L 455.992356 261.405405 
L 461.144303 261.405405 
L 461.144303 261.405405 
L 466.29625 261.405405 
L 466.29625 261.405405 
L 461.144303 261.405405 
L 461.144303 261.405405 
L 455.992356 261.405405 
L 455.992356 261.405405 
L 450.84041 261.405405 
L 450.84041 261.405405 
L 445.688463 261.405405 
L 445.688463 261.405405 
L 440.536516 261.405405 
L 440.536516 261.405405 
L 435.384569 261.405405 
L 435.384569 261.405405 
L 430.232622 261.405405 
L 430.232622 261.405405 
L 425.080675 261.405405 
L 425.080675 261.405405 
L 419.928729 261.405405 
L 419.928729 261.405405 
L 414.776782 261.405405 
L 414.776782 261.405405 
L 409.624835 261.405405 
L 409.624835 261.405405 
L 404.472888 261.405405 
L 404.472888 261.405405 
L 399.320941 261.405405 
L 399.320941 261.405405 
L 394.168995 261.405405 
L 394.168995 261.405405 
L 389.017048 261.405405 
L 389.017048 261.405405 
L 383.865101 261.405405 
L 383.865101 261.405405 
L 378.713154 261.405405 
L 378.713154 261.405405 
L 373.561207 261.405405 
L 373.561207 261.405405 
L 368.40926 261.405405 
L 368.40926 261.405405 
L 363.257314 261.405405 
L 363.257314 261.405405 
L 358.105367 261.405405 
L 358.105367 261.405405 
L 352.95342 261.405405 
L 352.95342 261.405405 
L 347.801473 261.405405 
L 347.801473 261.405405 
L 342.649526 261.405405 
L 342.649526 261.405405 
L 337.49758 261.405405 
L 337.49758 261.405405 
L 332.345633 261.405405 
L 332.345633 261.405405 
L 327.193686 261.405405 
L 327.193686 261.405405 
L 322.041739 261.405405 
L 322.041739 261.405405 
L 316.889792 261.405405 
L 316.889792 261.405405 
L 311.737845 261.405405 
L 311.737845 261.405405 
L 306.585899 261.405405 
L 306.585899 261.405405 
L 301.433952 261.405405 
L 301.433952 261.405405 
z
" clip-path="url(#pf6327ebe66)" style="fill: #cfcece; opacity: 0.35"/>
   </g>
   <g id="matplotlib.axis_5">
    <g id="xtick_12">
     <g id="line2d_28">
      <g>
       <use xlink:href="#mec5ccc915f" x="296.282005" y="261.405405" style="fill: #272727; stroke: #272727; stroke-width: 0.8"/>
      </g>
     </g>
     <g id="text_31">
      <text style="font-size: 8px; font-family: 'Arial', 'Helvetica', 'DejaVu Sans', 'Liberation Sans', sans-serif; text-anchor: middle; fill: #272727" x="296.282005" y="274.131655" transform="rotate(-0 296.282005 274.131655)">0.00</text>
     </g>
    </g>
    <g id="xtick_13">
     <g id="line2d_29">
      <g>
       <use xlink:href="#mec5ccc915f" x="338.785566" y="261.405405" style="fill: #272727; stroke: #272727; stroke-width: 0.8"/>
      </g>
     </g>
     <g id="text_32">
      <text style="font-size: 8px; font-family: 'Arial', 'Helvetica', 'DejaVu Sans', 'Liberation Sans', sans-serif; text-anchor: middle; fill: #272727" x="338.785566" y="274.131655" transform="rotate(-0 338.785566 274.131655)">0.25</text>
     </g>
    </g>
    <g id="xtick_14">
     <g id="line2d_30">
      <g>
       <use xlink:href="#mec5ccc915f" x="381.289127" y="261.405405" style="fill: #272727; stroke: #272727; stroke-width: 0.8"/>
      </g>
     </g>
     <g id="text_33">
      <text style="font-size: 8px; font-family: 'Arial', 'Helvetica', 'DejaVu Sans', 'Liberation Sans', sans-serif; text-anchor: middle; fill: #272727" x="381.289127" y="274.131655" transform="rotate(-0 381.289127 274.131655)">0.50</text>
     </g>
    </g>
    <g id="xtick_15">
     <g id="line2d_31">
      <g>
       <use xlink:href="#mec5ccc915f" x="423.792689" y="261.405405" style="fill: #272727; stroke: #272727; stroke-width: 0.8"/>
      </g>
     </g>
     <g id="text_34">
      <text style="font-size: 8px; font-family: 'Arial', 'Helvetica', 'DejaVu Sans', 'Liberation Sans', sans-serif; text-anchor: middle; fill: #272727" x="423.792689" y="274.131655" transform="rotate(-0 423.792689 274.131655)">0.75</text>
     </g>
    </g>
    <g id="xtick_16">
     <g id="line2d_32">
      <g>
       <use xlink:href="#mec5ccc915f" x="466.29625" y="261.405405" style="fill: #272727; stroke: #272727; stroke-width: 0.8"/>
      </g>
     </g>
     <g id="text_35">
      <text style="font-size: 8px; font-family: 'Arial', 'Helvetica', 'DejaVu Sans', 'Liberation Sans', sans-serif; text-anchor: middle; fill: #272727" x="466.29625" y="274.131655" transform="rotate(-0 466.29625 274.131655)">1.00</text>
     </g>
    </g>
    <g id="text_36">
     <text style="font-size: 8px; font-family: 'Arial', 'Helvetica', 'DejaVu Sans', 'Liberation Sans', sans-serif; text-anchor: middle; fill: #272727" x="381.289127" y="285.447905" transform="rotate(-0 381.289127 285.447905)">Model score</text>
    </g>
   </g>
   <g id="matplotlib.axis_6">
    <g id="ytick_11">
     <g id="line2d_33">
      <g>
       <use xlink:href="#ma93cc6a2e1" x="296.282005" y="261.405405" style="fill: #272727; stroke: #272727; stroke-width: 0.8"/>
      </g>
     </g>
     <g id="text_37">
      <text style="font-size: 8px; font-family: 'Arial', 'Helvetica', 'DejaVu Sans', 'Liberation Sans', sans-serif; text-anchor: end; fill: #272727" x="289.282005" y="264.26853" transform="rotate(-0 289.282005 264.26853)">0</text>
     </g>
    </g>
    <g id="ytick_12">
     <g id="line2d_34">
      <g>
       <use xlink:href="#ma93cc6a2e1" x="296.282005" y="241.716642" style="fill: #272727; stroke: #272727; stroke-width: 0.8"/>
      </g>
     </g>
     <g id="text_38">
      <text style="font-size: 8px; font-family: 'Arial', 'Helvetica', 'DejaVu Sans', 'Liberation Sans', sans-serif; text-anchor: end; fill: #272727" x="289.282005" y="244.579767" transform="rotate(-0 289.282005 244.579767)">5</text>
     </g>
    </g>
    <g id="ytick_13">
     <g id="line2d_35">
      <g>
       <use xlink:href="#ma93cc6a2e1" x="296.282005" y="222.02788" style="fill: #272727; stroke: #272727; stroke-width: 0.8"/>
      </g>
     </g>
     <g id="text_39">
      <text style="font-size: 8px; font-family: 'Arial', 'Helvetica', 'DejaVu Sans', 'Liberation Sans', sans-serif; text-anchor: end; fill: #272727" x="289.282005" y="224.891005" transform="rotate(-0 289.282005 224.891005)">10</text>
     </g>
    </g>
    <g id="ytick_14">
     <g id="line2d_36">
      <g>
       <use xlink:href="#ma93cc6a2e1" x="296.282005" y="202.339117" style="fill: #272727; stroke: #272727; stroke-width: 0.8"/>
      </g>
     </g>
     <g id="text_40">
      <text style="font-size: 8px; font-family: 'Arial', 'Helvetica', 'DejaVu Sans', 'Liberation Sans', sans-serif; text-anchor: end; fill: #272727" x="289.282005" y="205.202242" transform="rotate(-0 289.282005 205.202242)">15</text>
     </g>
    </g>
    <g id="ytick_15">
     <g id="line2d_37">
      <g>
       <use xlink:href="#ma93cc6a2e1" x="296.282005" y="182.650354" style="fill: #272727; stroke: #272727; stroke-width: 0.8"/>
      </g>
     </g>
     <g id="text_41">
      <text style="font-size: 8px; font-family: 'Arial', 'Helvetica', 'DejaVu Sans', 'Liberation Sans', sans-serif; text-anchor: end; fill: #272727" x="289.282005" y="185.513479" transform="rotate(-0 289.282005 185.513479)">20</text>
     </g>
    </g>
    <g id="text_42">
     <text style="font-size: 8px; font-family: 'Arial', 'Helvetica', 'DejaVu Sans', 'Liberation Sans', sans-serif; text-anchor: middle; fill: #272727" x="274.700755" y="220.638862" transform="rotate(-90 274.700755 220.638862)">Density</text>
    </g>
   </g>
   <g id="patch_22">
    <path d="M 296.282005 261.405405 
L 296.282005 260.285182 
L 301.433952 260.285182 
L 301.433952 261.405405 
L 306.585899 261.405405 
L 306.585899 261.405405 
L 311.737845 261.405405 
L 311.737845 261.405405 
L 316.889792 261.405405 
L 316.889792 260.285182 
L 322.041739 260.285182 
L 322.041739 261.405405 
L 327.193686 261.405405 
L 327.193686 261.405405 
L 332.345633 261.405405 
L 332.345633 261.405405 
L 337.49758 261.405405 
L 337.49758 260.285182 
L 342.649526 260.285182 
L 342.649526 261.405405 
L 347.801473 261.405405 
L 347.801473 261.405405 
L 352.95342 261.405405 
L 352.95342 261.405405 
L 358.105367 261.405405 
L 358.105367 261.405405 
L 363.257314 261.405405 
L 363.257314 261.405405 
L 368.40926 261.405405 
L 368.40926 261.405405 
L 373.561207 261.405405 
L 373.561207 260.285182 
L 378.713154 260.285182 
L 378.713154 261.405405 
L 383.865101 261.405405 
L 383.865101 261.405405 
L 389.017048 261.405405 
L 389.017048 261.405405 
L 394.168995 261.405405 
L 394.168995 261.405405 
L 399.320941 261.405405 
L 399.320941 260.285182 
L 404.472888 260.285182 
L 404.472888 259.16496 
L 409.624835 259.16496 
L 409.624835 258.044737 
L 414.776782 258.044737 
L 414.776782 258.044737 
L 419.928729 258.044737 
L 419.928729 259.16496 
L 425.080675 259.16496 
L 425.080675 259.16496 
L 430.232622 259.16496 
L 430.232622 258.044737 
L 435.384569 258.044737 
L 435.384569 259.16496 
L 440.536516 259.16496 
L 440.536516 261.405405 
L 445.688463 261.405405 
L 445.688463 255.804291 
L 450.84041 255.804291 
L 450.84041 246.84251 
L 455.992356 246.84251 
L 455.992356 237.880728 
L 461.144303 237.880728 
L 461.144303 199.793156 
L 466.29625 199.793156 
L 466.29625 261.405405 
" clip-path="url(#pf6327ebe66)" style="fill: none; stroke: #0f4d92; stroke-width: 1.1; stroke-linejoin: miter"/>
   </g>
   <g id="patch_23">
    <path d="M 296.282005 261.405405 
L 296.282005 233.841137 
L 301.433952 233.841137 
L 301.433952 253.5299 
L 306.585899 253.5299 
L 306.585899 257.467652 
L 311.737845 257.467652 
L 311.737845 222.02788 
L 316.889792 222.02788 
L 316.889792 261.405405 
L 322.041739 261.405405 
L 322.041739 253.5299 
L 327.193686 253.5299 
L 327.193686 261.405405 
L 332.345633 261.405405 
L 332.345633 261.405405 
L 337.49758 261.405405 
L 337.49758 261.405405 
L 342.649526 261.405405 
L 342.649526 261.405405 
L 347.801473 261.405405 
L 347.801473 261.405405 
L 352.95342 261.405405 
L 352.95342 261.405405 
L 358.105367 261.405405 
L 358.105367 261.405405 
L 363.257314 261.405405 
L 363.257314 261.405405 
L 368.40926 261.405405 
L 368.40926 257.467652 
L 373.561207 257.467652 
L 373.561207 261.405405 
L 378.713154 261.405405 
L 378.713154 261.405405 
L 383.865101 261.405405 
L 383.865101 261.405405 
L 389.017048 261.405405 
L 389.017048 261.405405 
L 394.168995 261.405405 
L 394.168995 261.405405 
L 399.320941 261.405405 
L 399.320941 261.405405 
L 404.472888 261.405405 
L 404.472888 261.405405 
L 409.624835 261.405405 
L 409.624835 261.405405 
L 414.776782 261.405405 
L 414.776782 257.467652 
L 419.928729 257.467652 
L 419.928729 261.405405 
L 425.080675 261.405405 
L 425.080675 257.467652 
L 430.232622 257.467652 
L 430.232622 261.405405 
L 435.384569 261.405405 
L 435.384569 257.467652 
L 440.536516 257.467652 
L 440.536516 261.405405 
L 445.688463 261.405405 
L 445.688463 261.405405 
L 450.84041 261.405405 
L 450.84041 249.592147 
L 455.992356 249.592147 
L 455.992356 257.467652 
L 461.144303 257.467652 
L 461.144303 249.592147 
L 466.29625 249.592147 
L 466.29625 261.405405 
" clip-path="url(#pf6327ebe66)" style="fill: none; stroke: #b64342; stroke-width: 1.1; stroke-linejoin: miter"/>
   </g>
   <g id="patch_24">
    <path d="M 296.282005 261.405405 
L 296.282005 183.754846 
L 301.433952 183.754846 
L 301.433952 237.634826 
L 306.585899 237.634826 
L 306.585899 250.312468 
L 311.737845 250.312468 
L 311.737845 248.727763 
L 316.889792 248.727763 
L 316.889792 259.8207 
L 322.041739 259.8207 
L 322.041739 258.235994 
L 327.193686 258.235994 
L 327.193686 261.405405 
L 332.345633 261.405405 
L 332.345633 261.405405 
L 337.49758 261.405405 
L 337.49758 261.405405 
L 342.649526 261.405405 
L 342.649526 261.405405 
L 347.801473 261.405405 
L 347.801473 261.405405 
L 352.95342 261.405405 
L 352.95342 261.405405 
L 358.105367 261.405405 
L 358.105367 261.405405 
L 363.257314 261.405405 
L 363.257314 261.405405 
L 368.40926 261.405405 
L 368.40926 261.405405 
L 373.561207 261.405405 
L 373.561207 261.405405 
L 378.713154 261.405405 
L 378.713154 261.405405 
L 383.865101 261.405405 
L 383.865101 261.405405 
L 389.017048 261.405405 
L 389.017048 261.405405 
L 394.168995 261.405405 
L 394.168995 261.405405 
L 399.320941 261.405405 
L 399.320941 261.405405 
L 404.472888 261.405405 
L 404.472888 261.405405 
L 409.624835 261.405405 
L 409.624835 261.405405 
L 414.776782 261.405405 
L 414.776782 261.405405 
L 419.928729 261.405405 
L 419.928729 261.405405 
L 425.080675 261.405405 
L 425.080675 261.405405 
L 430.232622 261.405405 
L 430.232622 261.405405 
L 435.384569 261.405405 
L 435.384569 261.405405 
L 440.536516 261.405405 
L 440.536516 261.405405 
L 445.688463 261.405405 
L 445.688463 261.405405 
L 450.84041 261.405405 
L 450.84041 261.405405 
L 455.992356 261.405405 
L 455.992356 261.405405 
L 461.144303 261.405405 
L 461.144303 261.405405 
L 466.29625 261.405405 
L 466.29625 261.405405 
" clip-path="url(#pf6327ebe66)" style="fill: none; stroke: #4d4d4d; stroke-width: 1.1; stroke-linejoin: miter"/>
   </g>
   <g id="line2d_38">
    <path d="M 384.944434 261.405405 
L 384.944434 179.872318 
" clip-path="url(#pf6327ebe66)" style="fill: none; stroke-dasharray: 4.07,1.76; stroke-dashoffset: 0; stroke: #b64342; stroke-width: 1.1"/>
   </g>
   <g id="patch_25">
    <path d="M 296.282005 261.405405 
L 296.282005 179.872318 
" style="fill: none; stroke: #4d4d4d; stroke-width: 0.8; stroke-linejoin: miter; stroke-linecap: square"/>
   </g>
   <g id="patch_26">
    <path d="M 296.282005 261.405405 
L 466.29625 261.405405 
" style="fill: none; stroke: #4d4d4d; stroke-width: 0.8; stroke-linejoin: miter; stroke-linecap: square"/>
   </g>
   <g id="text_43">
    <g id="patch_27">
     <path d="M 395.707965 218.782509 
L 395.707965 181.583634 
L 380.948434 181.583634 
L 380.948434 218.782509 
z
" style="fill: #ffffff; stroke: #ffffff; stroke-linejoin: miter"/>
    </g>
    <text style="font-size: 7.4px; font-family: 'Arial', 'Helvetica', 'DejaVu Sans', 'Liberation Sans', sans-serif; fill: #b64342" transform="translate(390.241215 214.786509) rotate(-90)">thr 0.521</text>
   </g>
   <g id="text_44">
    <text style="font-size: 8.8px; font-family: 'Arial', 'Helvetica', 'DejaVu Sans', 'Liberation Sans', sans-serif; text-anchor: start" x="296.282005" y="175.872318" transform="rotate(-0 296.282005 175.872318)">SVM scores</text>
   </g>
  </g>
 </g>
 <defs>
  <clipPath id="p05d49b5a03">
   <rect x="36.63625" y="20.241405" width="197.216524" height="241.164"/>
  </clipPath>
  <clipPath id="p6e4e3c50f6">
   <rect x="296.282005" y="73.966274" width="170.014245" height="81.533087"/>
  </clipPath>
  <clipPath id="pf6327ebe66">
   <rect x="296.282005" y="179.872318" width="170.014245" height="81.533087"/>
  </clipPath>
 </defs>
</svg>
