<?xml version="1.0" encoding="utf-8" standalone="no"?>
<!DOCTYPE svg PUBLIC "-//W3C//DTD SVG 1.1//EN"
  "http://www.w3.org/Graphics/SVG/1.1/DTD/svg11.dtd">
<svg xmlns:xlink="http://www.w3.org/1999/xlink" width="462.412242pt" height="207.622572pt" viewBox="0 0 462.412242 207.622572" xmlns="http://www.w3.org/2000/svg" version="1.1">
 <metadata>
  <rdf:RDF xmlns:dc="http://purl.org/dc/elements/1.1/" xmlns:cc="http://creativecommons.org/ns#" xmlns:rdf="http://www.w3.org/1999/02/22-rdf-syntax-ns#">
   <cc:Work>
    <dc:type rdf:resource="http://purl.org/dc/dcmitype/StillImage"/>
    <dc:date>2026-07-02T09:18:59.479769</dc:date>
    <dc:format>image/svg+xml</dc:format>
    <dc:creator>
     <cc:Agent>
      <dc:title>Matplotlib v3.10.9, https://matplotlib.org/</dc:title>
     </cc:Agent>
    </dc:creator>
   </cc:Work>
  </rdf:RDF>
 </metadata>
 <defs>
  <style type="text/css">*{stroke-linejoin: round; stroke-linecap: butt}</style>
 </defs>
 <g id="figure_1">
  <g id="patch_1">
   <path d="M 0 207.622572 
L 462.412242 207.622572 
L 462.412242 0 
L 0 0 
z
" style="fill: #ffffff"/>
  </g>
  <g id="axes_1">
   <g id="patch_2">
    <path d="M 37.427242 171.74592 
L 190.556142 171.74592 
L 190.556142 16.51392 
L 37.427242 16.51392 
z
" style="fill: #ffffff"/>
   </g>
   <g id="patch_3">
    <path d="M 44.387647 171.74592 
L 52.755346 171.74592 
L 52.755346 23.90592 
L 44.387647 23.90592 
z
" clip-path="url(#pb8a672df9f)" style="fill: #8c8c8c"/>
   </g>
   <g id="patch_4">
    <path d="M 82.422644 171.74592 
L 90.790344 171.74592 
L 90.790344 81.96181 
L 82.422644 81.96181 
z
" clip-path="url(#pb8a672df9f)" style="fill: #8c8c8c"/>
   </g>
   <g id="patch_5">
    <path d="M 120.457642 171.74592 
L 128.825341 171.74592 
L 128.825341 169.720715 
L 120.457642 169.720715 
z
" clip-path="url(#pb8a672df9f)" style="fill: #8c8c8c"/>
   </g>
   <g id="patch_6">
    <path d="M 158.492639 171.74592 
L 166.860339 171.74592 
L 166.860339 171.070852 
L 158.492639 171.070852 
z
" clip-path="url(#pb8a672df9f)" style="fill: #8c8c8c"/>
   </g>
   <g id="patch_7">
    <path d="M 52.755346 171.74592 
L 61.123046 171.74592 
L 61.123046 40.107564 
L 52.755346 40.107564 
z
" clip-path="url(#pb8a672df9f)" style="fill: #66a61e"/>
   </g>
   <g id="patch_8">
    <path d="M 90.790344 171.74592 
L 99.158043 171.74592 
L 99.158043 75.211125 
L 90.790344 75.211125 
z
" clip-path="url(#pb8a672df9f)" style="fill: #66a61e"/>
   </g>
   <g id="patch_9">
    <path d="M 128.825341 171.74592 
L 137.193041 171.74592 
L 137.193041 169.045646 
L 128.825341 169.045646 
z
" clip-path="url(#pb8a672df9f)" style="fill: #66a61e"/>
   </g>
   <g id="patch_10">
    <path d="M 166.860339 171.74592 
L 175.228038 171.74592 
L 175.228038 171.74592 
L 166.860339 171.74592 
z
" clip-path="url(#pb8a672df9f)" style="fill: #66a61e"/>
   </g>
   <g id="patch_11">
    <path d="M 61.123046 171.74592 
L 69.490745 171.74592 
L 69.490745 123.816057 
L 61.123046 123.816057 
z
" clip-path="url(#pb8a672df9f)" style="fill: #4c78a8"/>
   </g>
   <g id="patch_12">
    <path d="M 99.158043 171.74592 
L 107.525743 171.74592 
L 107.525743 152.844002 
L 99.158043 152.844002 
z
" clip-path="url(#pb8a672df9f)" style="fill: #4c78a8"/>
   </g>
   <g id="patch_13">
    <path d="M 137.193041 171.74592 
L 145.56074 171.74592 
L 145.56074 171.74592 
L 137.193041 171.74592 
z
" clip-path="url(#pb8a672df9f)" style="fill: #4c78a8"/>
   </g>
   <g id="patch_14">
    <path d="M 175.228038 171.74592 
L 183.595738 171.74592 
L 183.595738 171.74592 
L 175.228038 171.74592 
z
" clip-path="url(#pb8a672df9f)" style="fill: #4c78a8"/>
   </g>
   <g id="matplotlib.axis_1">
    <g id="xtick_1">
     <g id="line2d_1">
      <defs>
       <path id="m7f404c767f" d="M 0 0 
L 0 3.5 
" style="stroke: #000000; stroke-width: 0.8"/>
      </defs>
      <g>
       <use xlink:href="#m7f404c767f" x="56.939196" y="171.74592" style="stroke: #000000; stroke-width: 0.8"/>
      </g>
     </g>
     <g id="text_1">
      <text style="font-size: 7px; font-family: 'Arial', 'Helvetica', 'DejaVu Sans', sans-serif" transform="translate(8.74832 199.021398) rotate(-18)">good to medium</text>
     </g>
    </g>
    <g id="xtick_2">
     <g id="line2d_2">
      <g>
       <use xlink:href="#m7f404c767f" x="94.974194" y="171.74592" style="stroke: #000000; stroke-width: 0.8"/>
      </g>
     </g>
     <g id="text_2">
      <text style="font-size: 7px; font-family: 'Arial', 'Helvetica', 'DejaVu Sans', sans-serif" transform="translate(46.783318 199.021398) rotate(-18)">medium to good</text>
     </g>
    </g>
    <g id="xtick_3">
     <g id="line2d_3">
      <g>
       <use xlink:href="#m7f404c767f" x="133.009191" y="171.74592" style="stroke: #000000; stroke-width: 0.8"/>
      </g>
     </g>
     <g id="text_3">
      <text style="font-size: 7px; font-family: 'Arial', 'Helvetica', 'DejaVu Sans', sans-serif" transform="translate(97.38831 194.937159) rotate(-18)">good to bad</text>
     </g>
    </g>
    <g id="xtick_4">
     <g id="line2d_4">
      <g>
       <use xlink:href="#m7f404c767f" x="171.044189" y="171.74592" style="stroke: #000000; stroke-width: 0.8"/>
      </g>
     </g>
     <g id="text_4">
      <text style="font-size: 7px; font-family: 'Arial', 'Helvetica', 'DejaVu Sans', sans-serif" transform="translate(135.423308 194.937159) rotate(-18)">bad to good</text>
     </g>
    </g>
   </g>
   <g id="matplotlib.axis_2">
    <g id="ytick_1">
     <g id="line2d_5">
      <defs>
       <path id="ma1095784f1" d="M 0 0 
L -3.5 0 
" style="stroke: #000000; stroke-width: 0.8"/>
      </defs>
      <g>
       <use xlink:href="#ma1095784f1" x="37.427242" y="171.74592" style="stroke: #000000; stroke-width: 0.8"/>
      </g>
     </g>
     <g id="text_5">
      <text style="font-size: 7px; font-family: 'Arial', 'Helvetica', 'DejaVu Sans', sans-serif; text-anchor: end" x="30.427242" y="174.251154" transform="rotate(-0 30.427242 174.251154)">0</text>
     </g>
    </g>
    <g id="ytick_2">
     <g id="line2d_6">
      <g>
       <use xlink:href="#ma1095784f1" x="37.427242" y="137.992495" style="stroke: #000000; stroke-width: 0.8"/>
      </g>
     </g>
     <g id="text_6">
      <text style="font-size: 7px; font-family: 'Arial', 'Helvetica', 'DejaVu Sans', sans-serif; text-anchor: end" x="30.427242" y="140.49773" transform="rotate(-0 30.427242 140.49773)">50</text>
     </g>
    </g>
    <g id="ytick_3">
     <g id="line2d_7">
      <g>
       <use xlink:href="#ma1095784f1" x="37.427242" y="104.239071" style="stroke: #000000; stroke-width: 0.8"/>
      </g>
     </g>
     <g id="text_7">
      <text style="font-size: 7px; font-family: 'Arial', 'Helvetica', 'DejaVu Sans', sans-serif; text-anchor: end" x="30.427242" y="106.744305" transform="rotate(-0 30.427242 106.744305)">100</text>
     </g>
    </g>
    <g id="ytick_4">
     <g id="line2d_8">
      <g>
       <use xlink:href="#ma1095784f1" x="37.427242" y="70.485646" style="stroke: #000000; stroke-width: 0.8"/>
      </g>
     </g>
     <g id="text_8">
      <text style="font-size: 7px; font-family: 'Arial', 'Helvetica', 'DejaVu Sans', sans-serif; text-anchor: end" x="30.427242" y="72.99088" transform="rotate(-0 30.427242 72.99088)">150</text>
     </g>
    </g>
    <g id="ytick_5">
     <g id="line2d_9">
      <g>
       <use xlink:href="#ma1095784f1" x="37.427242" y="36.732221" style="stroke: #000000; stroke-width: 0.8"/>
      </g>
     </g>
     <g id="text_9">
      <text style="font-size: 7px; font-family: 'Arial', 'Helvetica', 'DejaVu Sans', sans-serif; text-anchor: end" x="30.427242" y="39.237456" transform="rotate(-0 30.427242 39.237456)">200</text>
     </g>
    </g>
    <g id="text_10">
     <text style="font-size: 7px; font-family: 'Arial', 'Helvetica', 'DejaVu Sans', sans-serif; text-anchor: middle" x="13.358023" y="94.12992" transform="rotate(-90 13.358023 94.12992)">Count</text>
    </g>
   </g>
   <g id="patch_15">
    <path d="M 37.427242 171.74592 
L 37.427242 16.51392 
" style="fill: none; stroke: #000000; stroke-width: 0.8; stroke-linejoin: miter; stroke-linecap: square"/>
   </g>
   <g id="patch_16">
    <path d="M 37.427242 171.74592 
L 190.556142 171.74592 
" style="fill: none; stroke: #000000; stroke-width: 0.8; stroke-linejoin: miter; stroke-linecap: square"/>
   </g>
   <g id="text_11">
    <text style="font-size: 7px; font-family: 'Arial', 'Helvetica', 'DejaVu Sans', sans-serif; text-anchor: middle" x="48.571496" y="21.51467" transform="rotate(-0 48.571496 21.51467)">219</text>
   </g>
   <g id="text_12">
    <text style="font-size: 7px; font-family: 'Arial', 'Helvetica', 'DejaVu Sans', sans-serif; text-anchor: middle" x="86.606494" y="79.57056" transform="rotate(-0 86.606494 79.57056)">133</text>
   </g>
   <g id="text_13">
    <text style="font-size: 7px; font-family: 'Arial', 'Helvetica', 'DejaVu Sans', sans-serif; text-anchor: middle" x="124.641492" y="167.329465" transform="rotate(-0 124.641492 167.329465)">3</text>
   </g>
   <g id="text_14">
    <text style="font-size: 7px; font-family: 'Arial', 'Helvetica', 'DejaVu Sans', sans-serif; text-anchor: middle" x="162.676489" y="168.679602" transform="rotate(-0 162.676489 168.679602)">1</text>
   </g>
   <g id="text_15">
    <text style="font-size: 7px; font-family: 'Arial', 'Helvetica', 'DejaVu Sans', sans-serif; text-anchor: middle" x="56.939196" y="37.716314" transform="rotate(-0 56.939196 37.716314)">195</text>
   </g>
   <g id="text_16">
    <text style="font-size: 7px; font-family: 'Arial', 'Helvetica', 'DejaVu Sans', sans-serif; text-anchor: middle" x="94.974194" y="72.819875" transform="rotate(-0 94.974194 72.819875)">143</text>
   </g>
   <g id="text_17">
    <text style="font-size: 7px; font-family: 'Arial', 'Helvetica', 'DejaVu Sans', sans-serif; text-anchor: middle" x="133.009191" y="166.654396" transform="rotate(-0 133.009191 166.654396)">4</text>
   </g>
   <g id="text_18">
    <text style="font-size: 7px; font-family: 'Arial', 'Helvetica', 'DejaVu Sans', sans-serif; text-anchor: middle" x="171.044189" y="169.35467" transform="rotate(-0 171.044189 169.35467)">0</text>
   </g>
   <g id="text_19">
    <text style="font-size: 7px; font-family: 'Arial', 'Helvetica', 'DejaVu Sans', sans-serif; text-anchor: middle" x="65.306895" y="121.424807" transform="rotate(-0 65.306895 121.424807)">71</text>
   </g>
   <g id="text_20">
    <text style="font-size: 7px; font-family: 'Arial', 'Helvetica', 'DejaVu Sans', sans-serif; text-anchor: middle" x="103.341893" y="150.452752" transform="rotate(-0 103.341893 150.452752)">28</text>
   </g>
   <g id="text_21">
    <text style="font-size: 7px; font-family: 'Arial', 'Helvetica', 'DejaVu Sans', sans-serif; text-anchor: middle" x="141.376891" y="169.35467" transform="rotate(-0 141.376891 169.35467)">0</text>
   </g>
   <g id="text_22">
    <text style="font-size: 7px; font-family: 'Arial', 'Helvetica', 'DejaVu Sans', sans-serif; text-anchor: middle" x="179.411888" y="169.35467" transform="rotate(-0 179.411888 169.35467)">0</text>
   </g>
   <g id="text_23">
    <text style="font-weight: 700; font-size: 9px; font-family: 'Arial', 'Helvetica', 'DejaVu Sans', sans-serif; text-anchor: start" x="19.051774" y="13.642031" transform="rotate(-0 19.051774 13.642031)">a</text>
   </g>
   <g id="legend_1">
    <g id="patch_17">
     <path d="M 101.113955 26.208607 
L 113.113955 26.208607 
L 113.113955 22.008607 
L 101.113955 22.008607 
z
" style="fill: #8c8c8c"/>
    </g>
    <g id="text_24">
     <text style="font-size: 6px; font-family: 'Arial', 'Helvetica', 'DejaVu Sans', sans-serif; text-anchor: start" x="117.913955" y="26.208607" transform="rotate(-0 117.913955 26.208607)">SQI SVM-RBF all84</text>
    </g>
    <g id="patch_18">
     <path d="M 101.113955 34.695795 
L 113.113955 34.695795 
L 113.113955 30.495795 
L 101.113955 30.495795 
z
" style="fill: #66a61e"/>
    </g>
    <g id="text_25">
     <text style="font-size: 6px; font-family: 'Arial', 'Helvetica', 'DejaVu Sans', sans-serif; text-anchor: start" x="117.913955" y="34.695795" transform="rotate(-0 117.913955 34.695795)">SQI LM-MLP 84-8-1 OvR</text>
    </g>
    <g id="patch_19">
     <path d="M 101.113955 43.182982 
L 113.113955 43.182982 
L 113.113955 38.982982 
L 101.113955 38.982982 
z
" style="fill: #4c78a8"/>
    </g>
    <g id="text_26">
     <text style="font-size: 6px; font-family: 'Arial', 'Helvetica', 'DejaVu Sans', sans-serif; text-anchor: start" x="117.913955" y="43.182982" transform="rotate(-0 117.913955 43.182982)">Conformer</text>
    </g>
   </g>
  </g>
  <g id="axes_2">
   <g id="patch_20">
    <path d="M 214.845554 171.74592 
L 320.451692 171.74592 
L 320.451692 16.51392 
L 214.845554 16.51392 
z
" style="fill: #ffffff"/>
   </g>
   <g id="FillBetweenPolyCollection_1">
    <defs>
     <path id="me48160a1b0" d="M 216.133434 -42.932652 
L 216.133434 -43.461191 
L 218.709193 -43.98973 
L 221.284953 -44.51827 
L 223.860712 -46.103888 
L 226.436472 -50.860741 
L 229.012231 -57.203213 
L 231.587991 -59.317371 
L 234.16375 -58.260292 
L 236.73951 -54.560517 
L 239.315269 -57.731753 
L 241.891029 -55.089056 
L 244.466788 -54.560517 
L 247.042548 -50.860741 
L 249.618307 -55.089056 
L 252.194066 -59.317371 
L 254.769826 -66.716921 
L 257.345585 -69.359618 
L 259.921345 -73.059393 
L 262.497104 -71.473775 
L 265.072864 -75.17355 
L 267.648623 -78.344786 
L 270.224383 -84.158719 
L 272.800142 -83.63018 
L 275.375902 -83.63018 
L 277.951661 -83.10164 
L 280.527421 -84.687258 
L 283.10318 -85.215798 
L 285.67894 -86.272876 
L 288.254699 -94.200966 
L 290.830458 -95.258045 
L 293.406218 -102.129056 
L 295.981977 -99.486359 
L 298.557737 -106.357371 
L 301.133496 -117.985236 
L 303.709256 -138.59827 
L 306.285015 -163.968157 
L 308.860775 -180.881416 
L 311.436534 -184.052652 
L 314.012294 -153.92591 
L 316.588053 -107.414449 
L 319.163813 -65.131303 
L 319.163813 -42.932652 
L 319.163813 -42.932652 
L 316.588053 -42.932652 
L 314.012294 -42.932652 
L 311.436534 -42.932652 
L 308.860775 -42.932652 
L 306.285015 -42.932652 
L 303.709256 -42.932652 
L 301.133496 -42.932652 
L 298.557737 -42.932652 
L 295.981977 -42.932652 
L 293.406218 -42.932652 
L 290.830458 -42.932652 
L 288.254699 -42.932652 
L 285.67894 -42.932652 
L 283.10318 -42.932652 
L 280.527421 -42.932652 
L 277.951661 -42.932652 
L 275.375902 -42.932652 
L 272.800142 -42.932652 
L 270.224383 -42.932652 
L 267.648623 -42.932652 
L 265.072864 -42.932652 
L 262.497104 -42.932652 
L 259.921345 -42.932652 
L 257.345585 -42.932652 
L 254.769826 -42.932652 
L 252.194066 -42.932652 
L 249.618307 -42.932652 
L 247.042548 -42.932652 
L 244.466788 -42.932652 
L 241.891029 -42.932652 
L 239.315269 -42.932652 
L 236.73951 -42.932652 
L 234.16375 -42.932652 
L 231.587991 -42.932652 
L 229.012231 -42.932652 
L 226.436472 -42.932652 
L 223.860712 -42.932652 
L 221.284953 -42.932652 
L 218.709193 -42.932652 
L 216.133434 -42.932652 
z
"/>
    </defs>
    <g clip-path="url(#p6888505fce)">
     <use xlink:href="#me48160a1b0" x="0" y="207.622572" style="fill: #4c78a8; fill-opacity: 0.28"/>
    </g>
   </g>
   <g id="FillBetweenPolyCollection_2">
    <defs>
     <path id="m94cbdc87e4" d="M 216.133434 -42.932652 
L 216.133434 -45.574512 
L 218.709193 -53.500093 
L 221.284953 -71.993115 
L 223.860712 -104.576059 
L 226.436472 -143.323344 
L 229.012231 -166.219467 
L 231.587991 -171.503188 
L 234.16375 -157.413266 
L 236.73951 -143.323344 
L 239.315269 -136.278383 
L 241.891029 -126.591562 
L 244.466788 -123.949702 
L 247.042548 -112.50164 
L 249.618307 -99.292339 
L 252.194066 -85.202417 
L 254.769826 -77.276836 
L 257.345585 -80.799316 
L 259.921345 -77.276836 
L 262.497104 -76.396216 
L 265.072864 -77.276836 
L 267.648623 -78.157456 
L 270.224383 -75.515596 
L 272.800142 -70.231875 
L 275.375902 -72.873735 
L 277.951661 -71.993115 
L 280.527421 -71.112495 
L 283.10318 -69.351255 
L 285.67894 -66.709395 
L 288.254699 -66.709395 
L 290.830458 -63.186914 
L 293.406218 -60.545054 
L 295.981977 -58.783814 
L 298.557737 -61.425674 
L 301.133496 -61.425674 
L 303.709256 -57.903193 
L 306.285015 -50.858233 
L 308.860775 -51.738853 
L 311.436534 -51.738853 
L 314.012294 -50.858233 
L 316.588053 -45.574512 
L 319.163813 -42.932652 
L 319.163813 -42.932652 
L 319.163813 -42.932652 
L 316.588053 -42.932652 
L 314.012294 -42.932652 
L 311.436534 -42.932652 
L 308.860775 -42.932652 
L 306.285015 -42.932652 
L 303.709256 -42.932652 
L 301.133496 -42.932652 
L 298.557737 -42.932652 
L 295.981977 -42.932652 
L 293.406218 -42.932652 
L 290.830458 -42.932652 
L 288.254699 -42.932652 
L 285.67894 -42.932652 
L 283.10318 -42.932652 
L 280.527421 -42.932652 
L 277.951661 -42.932652 
L 275.375902 -42.932652 
L 272.800142 -42.932652 
L 270.224383 -42.932652 
L 267.648623 -42.932652 
L 265.072864 -42.932652 
L 262.497104 -42.932652 
L 259.921345 -42.932652 
L 257.345585 -42.932652 
L 254.769826 -42.932652 
L 252.194066 -42.932652 
L 249.618307 -42.932652 
L 247.042548 -42.932652 
L 244.466788 -42.932652 
L 241.891029 -42.932652 
L 239.315269 -42.932652 
L 236.73951 -42.932652 
L 234.16375 -42.932652 
L 231.587991 -42.932652 
L 229.012231 -42.932652 
L 226.436472 -42.932652 
L 223.860712 -42.932652 
L 221.284953 -42.932652 
L 218.709193 -42.932652 
L 216.133434 -42.932652 
z
"/>
    </defs>
    <g clip-path="url(#p6888505fce)">
     <use xlink:href="#m94cbdc87e4" x="0" y="207.622572" style="fill: #c44e52; fill-opacity: 0.28"/>
    </g>
   </g>
   <g id="matplotlib.axis_3">
    <g id="xtick_5">
     <g id="line2d_10">
      <g>
       <use xlink:href="#m7f404c767f" x="214.845554" y="171.74592" style="stroke: #000000; stroke-width: 0.8"/>
      </g>
     </g>
     <g id="text_27">
      <text style="font-size: 7px; font-family: 'Arial', 'Helvetica', 'DejaVu Sans', sans-serif; text-anchor: middle" x="214.845554" y="183.756389" transform="rotate(-0 214.845554 183.756389)">−1.0</text>
     </g>
    </g>
    <g id="xtick_6">
     <g id="line2d_11">
      <g>
       <use xlink:href="#m7f404c767f" x="241.247089" y="171.74592" style="stroke: #000000; stroke-width: 0.8"/>
      </g>
     </g>
     <g id="text_28">
      <text style="font-size: 7px; font-family: 'Arial', 'Helvetica', 'DejaVu Sans', sans-serif; text-anchor: middle" x="241.247089" y="183.756389" transform="rotate(-0 241.247089 183.756389)">−0.5</text>
     </g>
    </g>
    <g id="xtick_7">
     <g id="line2d_12">
      <g>
       <use xlink:href="#m7f404c767f" x="267.648623" y="171.74592" style="stroke: #000000; stroke-width: 0.8"/>
      </g>
     </g>
     <g id="text_29">
      <text style="font-size: 7px; font-family: 'Arial', 'Helvetica', 'DejaVu Sans', sans-serif; text-anchor: middle" x="267.648623" y="183.756389" transform="rotate(-0 267.648623 183.756389)">0.0</text>
     </g>
    </g>
    <g id="xtick_8">
     <g id="line2d_13">
      <g>
       <use xlink:href="#m7f404c767f" x="294.050158" y="171.74592" style="stroke: #000000; stroke-width: 0.8"/>
      </g>
     </g>
     <g id="text_30">
      <text style="font-size: 7px; font-family: 'Arial', 'Helvetica', 'DejaVu Sans', sans-serif; text-anchor: middle" x="294.050158" y="183.756389" transform="rotate(-0 294.050158 183.756389)">0.5</text>
     </g>
    </g>
    <g id="xtick_9">
     <g id="line2d_14">
      <g>
       <use xlink:href="#m7f404c767f" x="320.451692" y="171.74592" style="stroke: #000000; stroke-width: 0.8"/>
      </g>
     </g>
     <g id="text_31">
      <text style="font-size: 7px; font-family: 'Arial', 'Helvetica', 'DejaVu Sans', sans-serif; text-anchor: middle" x="320.451692" y="183.756389" transform="rotate(-0 320.451692 183.756389)">1.0</text>
     </g>
    </g>
    <g id="text_32">
     <text style="font-size: 7px; font-family: 'Arial', 'Helvetica', 'DejaVu Sans', sans-serif; text-anchor: middle" x="267.648623" y="194.24342" transform="rotate(-0 267.648623 194.24342)">Good-minus-medium margin</text>
    </g>
   </g>
   <g id="matplotlib.axis_4">
    <g id="ytick_6">
     <g id="line2d_15">
      <g>
       <use xlink:href="#ma1095784f1" x="214.845554" y="164.68992" style="stroke: #000000; stroke-width: 0.8"/>
      </g>
     </g>
     <g id="text_33">
      <text style="font-size: 7px; font-family: 'Arial', 'Helvetica', 'DejaVu Sans', sans-serif; text-anchor: end" x="207.845554" y="167.195154" transform="rotate(-0 207.845554 167.195154)">0.00</text>
     </g>
    </g>
    <g id="ytick_7">
     <g id="line2d_16">
      <g>
       <use xlink:href="#ma1095784f1" x="214.845554" y="144.328265" style="stroke: #000000; stroke-width: 0.8"/>
      </g>
     </g>
     <g id="text_34">
      <text style="font-size: 7px; font-family: 'Arial', 'Helvetica', 'DejaVu Sans', sans-serif; text-anchor: end" x="207.845554" y="146.833499" transform="rotate(-0 207.845554 146.833499)">0.25</text>
     </g>
    </g>
    <g id="ytick_8">
     <g id="line2d_17">
      <g>
       <use xlink:href="#ma1095784f1" x="214.845554" y="123.96661" style="stroke: #000000; stroke-width: 0.8"/>
      </g>
     </g>
     <g id="text_35">
      <text style="font-size: 7px; font-family: 'Arial', 'Helvetica', 'DejaVu Sans', sans-serif; text-anchor: end" x="207.845554" y="126.471844" transform="rotate(-0 207.845554 126.471844)">0.50</text>
     </g>
    </g>
    <g id="ytick_9">
     <g id="line2d_18">
      <g>
       <use xlink:href="#ma1095784f1" x="214.845554" y="103.604954" style="stroke: #000000; stroke-width: 0.8"/>
      </g>
     </g>
     <g id="text_36">
      <text style="font-size: 7px; font-family: 'Arial', 'Helvetica', 'DejaVu Sans', sans-serif; text-anchor: end" x="207.845554" y="106.110189" transform="rotate(-0 207.845554 106.110189)">0.75</text>
     </g>
    </g>
    <g id="ytick_10">
     <g id="line2d_19">
      <g>
       <use xlink:href="#ma1095784f1" x="214.845554" y="83.243299" style="stroke: #000000; stroke-width: 0.8"/>
      </g>
     </g>
     <g id="text_37">
      <text style="font-size: 7px; font-family: 'Arial', 'Helvetica', 'DejaVu Sans', sans-serif; text-anchor: end" x="207.845554" y="85.748533" transform="rotate(-0 207.845554 85.748533)">1.00</text>
     </g>
    </g>
    <g id="ytick_11">
     <g id="line2d_20">
      <g>
       <use xlink:href="#ma1095784f1" x="214.845554" y="62.881644" style="stroke: #000000; stroke-width: 0.8"/>
      </g>
     </g>
     <g id="text_38">
      <text style="font-size: 7px; font-family: 'Arial', 'Helvetica', 'DejaVu Sans', sans-serif; text-anchor: end" x="207.845554" y="65.386878" transform="rotate(-0 207.845554 65.386878)">1.25</text>
     </g>
    </g>
    <g id="ytick_12">
     <g id="line2d_21">
      <g>
       <use xlink:href="#ma1095784f1" x="214.845554" y="42.519989" style="stroke: #000000; stroke-width: 0.8"/>
      </g>
     </g>
     <g id="text_39">
      <text style="font-size: 7px; font-family: 'Arial', 'Helvetica', 'DejaVu Sans', sans-serif; text-anchor: end" x="207.845554" y="45.025223" transform="rotate(-0 207.845554 45.025223)">1.50</text>
     </g>
    </g>
    <g id="ytick_13">
     <g id="line2d_22">
      <g>
       <use xlink:href="#ma1095784f1" x="214.845554" y="22.158333" style="stroke: #000000; stroke-width: 0.8"/>
      </g>
     </g>
     <g id="text_40">
      <text style="font-size: 7px; font-family: 'Arial', 'Helvetica', 'DejaVu Sans', sans-serif; text-anchor: end" x="207.845554" y="24.663568" transform="rotate(-0 207.845554 24.663568)">1.75</text>
     </g>
    </g>
    <g id="text_41">
     <text style="font-size: 7px; font-family: 'Arial', 'Helvetica', 'DejaVu Sans', sans-serif; text-anchor: middle" x="188.749617" y="94.12992" transform="rotate(-90 188.749617 94.12992)">Density</text>
    </g>
   </g>
   <g id="line2d_23">
    <path d="M 216.133434 164.161381 
L 218.709193 163.632841 
L 221.284953 163.104302 
L 223.860712 161.518684 
L 226.436472 156.76183 
L 229.012231 150.419358 
L 231.587991 148.305201 
L 234.16375 149.36228 
L 236.73951 153.062055 
L 239.315269 149.890819 
L 241.891029 152.533516 
L 244.466788 153.062055 
L 247.042548 156.76183 
L 249.618307 152.533516 
L 252.194066 148.305201 
L 254.769826 140.90565 
L 257.345585 138.262954 
L 259.921345 134.563178 
L 262.497104 136.148796 
L 265.072864 132.449021 
L 267.648623 129.277785 
L 270.224383 123.463853 
L 272.800142 123.992392 
L 275.375902 123.992392 
L 277.951661 124.520931 
L 280.527421 122.935313 
L 283.10318 122.406774 
L 285.67894 121.349695 
L 288.254699 113.421605 
L 290.830458 112.364527 
L 293.406218 105.493516 
L 295.981977 108.136212 
L 298.557737 101.265201 
L 301.133496 89.637336 
L 303.709256 69.024302 
L 306.285015 43.654414 
L 308.860775 26.741156 
L 311.436534 23.56992 
L 314.012294 53.696662 
L 316.588053 100.208122 
L 319.163813 142.491268 
" clip-path="url(#p6888505fce)" style="fill: none; stroke: #4c78a8; stroke-width: 1.2; stroke-linecap: square"/>
   </g>
   <g id="line2d_24">
    <path d="M 216.133434 162.04806 
L 218.709193 154.122479 
L 221.284953 135.629456 
L 223.860712 103.046512 
L 226.436472 64.299227 
L 229.012231 41.403104 
L 231.587991 36.119384 
L 234.16375 50.209306 
L 236.73951 64.299227 
L 239.315269 71.344188 
L 241.891029 81.031009 
L 244.466788 83.67287 
L 247.042548 95.120931 
L 249.618307 108.330233 
L 252.194066 122.420155 
L 254.769826 130.345736 
L 257.345585 126.823255 
L 259.921345 130.345736 
L 262.497104 131.226356 
L 265.072864 130.345736 
L 267.648623 129.465116 
L 270.224383 132.106976 
L 272.800142 137.390697 
L 275.375902 134.748836 
L 277.951661 135.629456 
L 280.527421 136.510076 
L 283.10318 138.271317 
L 285.67894 140.913177 
L 288.254699 140.913177 
L 290.830458 144.435657 
L 293.406218 147.077518 
L 295.981977 148.838758 
L 298.557737 146.196898 
L 301.133496 146.196898 
L 303.709256 149.719378 
L 306.285015 156.764339 
L 308.860775 155.883719 
L 311.436534 155.883719 
L 314.012294 156.764339 
L 316.588053 162.04806 
L 319.163813 164.68992 
" clip-path="url(#p6888505fce)" style="fill: none; stroke: #c44e52; stroke-width: 1.2; stroke-linecap: square"/>
   </g>
   <g id="line2d_25">
    <path d="M 267.648623 171.74592 
L 267.648623 16.51392 
" clip-path="url(#p6888505fce)" style="fill: none; stroke-dasharray: 0.8,1.32; stroke-dashoffset: 0; stroke: #333333; stroke-width: 0.8"/>
   </g>
   <g id="patch_21">
    <path d="M 214.845554 171.74592 
L 214.845554 16.51392 
" style="fill: none; stroke: #000000; stroke-width: 0.8; stroke-linejoin: miter; stroke-linecap: square"/>
   </g>
   <g id="patch_22">
    <path d="M 214.845554 171.74592 
L 320.451692 171.74592 
" style="fill: none; stroke: #000000; stroke-width: 0.8; stroke-linejoin: miter; stroke-linecap: square"/>
   </g>
   <g id="text_42">
    <text style="font-weight: 700; font-size: 9px; font-family: 'Arial', 'Helvetica', 'DejaVu Sans', sans-serif; text-anchor: start" x="202.172818" y="13.642031" transform="rotate(-0 202.172818 13.642031)">b</text>
   </g>
   <g id="text_43">
    <text style="font-size: 7px; font-family: 'Arial', 'Helvetica', 'DejaVu Sans', sans-serif; text-anchor: middle" x="267.648623" y="13.51392" transform="rotate(-0 267.648623 13.51392)">LM-MLP</text>
   </g>
   <g id="legend_2">
    <g id="line2d_26">
     <path d="M 248.579404 24.108607 
L 254.579404 24.108607 
L 260.579404 24.108607 
" style="fill: none; stroke: #4c78a8; stroke-width: 1.2; stroke-linecap: square"/>
    </g>
    <g id="text_44">
     <text style="font-size: 6px; font-family: 'Arial', 'Helvetica', 'DejaVu Sans', sans-serif; text-anchor: start" x="265.379404" y="26.208607" transform="rotate(-0 265.379404 26.208607)">good</text>
    </g>
    <g id="line2d_27">
     <path d="M 248.579404 32.666107 
L 254.579404 32.666107 
L 260.579404 32.666107 
" style="fill: none; stroke: #c44e52; stroke-width: 1.2; stroke-linecap: square"/>
    </g>
    <g id="text_45">
     <text style="font-size: 6px; font-family: 'Arial', 'Helvetica', 'DejaVu Sans', sans-serif; text-anchor: start" x="265.379404" y="34.766107" transform="rotate(-0 265.379404 34.766107)">medium</text>
    </g>
   </g>
  </g>
  <g id="axes_3">
   <g id="patch_23">
    <path d="M 344.741104 171.74592 
L 450.347242 171.74592 
L 450.347242 16.51392 
L 344.741104 16.51392 
z
" style="fill: #ffffff"/>
   </g>
   <g id="FillBetweenPolyCollection_3">
    <defs>
     <path id="mc08f34ed5a" d="M 346.028984 -42.932652 
L 346.028984 -44.738246 
L 348.604743 -45.558971 
L 351.180503 -44.902391 
L 353.756262 -44.902391 
L 356.332022 -44.738246 
L 358.907781 -44.902391 
L 361.483541 -44.574101 
L 364.0593 -44.409956 
L 366.63506 -44.738246 
L 369.210819 -45.066536 
L 371.786578 -45.066536 
L 374.362338 -44.902391 
L 376.938097 -44.409956 
L 379.513857 -44.245811 
L 382.089616 -43.589231 
L 384.665376 -43.753376 
L 387.241135 -44.081666 
L 389.816895 -44.409956 
L 392.392654 -44.409956 
L 394.968414 -44.738246 
L 397.544173 -45.066536 
L 400.119933 -45.066536 
L 402.695692 -44.738246 
L 405.271452 -45.230681 
L 407.847211 -45.558971 
L 410.42297 -45.558971 
L 412.99873 -45.394826 
L 415.574489 -45.723116 
L 418.150249 -46.872131 
L 420.726008 -47.364566 
L 423.301768 -47.857001 
L 425.877527 -48.021146 
L 428.453287 -48.021146 
L 431.029046 -48.349436 
L 433.604806 -47.857001 
L 436.180565 -49.17016 
L 438.756325 -51.304045 
L 441.332084 -56.064249 
L 443.907844 -66.405382 
L 446.483603 -178.188105 
L 449.059362 -171.950596 
L 449.059362 -42.932652 
L 449.059362 -42.932652 
L 446.483603 -42.932652 
L 443.907844 -42.932652 
L 441.332084 -42.932652 
L 438.756325 -42.932652 
L 436.180565 -42.932652 
L 433.604806 -42.932652 
L 431.029046 -42.932652 
L 428.453287 -42.932652 
L 425.877527 -42.932652 
L 423.301768 -42.932652 
L 420.726008 -42.932652 
L 418.150249 -42.932652 
L 415.574489 -42.932652 
L 412.99873 -42.932652 
L 410.42297 -42.932652 
L 407.847211 -42.932652 
L 405.271452 -42.932652 
L 402.695692 -42.932652 
L 400.119933 -42.932652 
L 397.544173 -42.932652 
L 394.968414 -42.932652 
L 392.392654 -42.932652 
L 389.816895 -42.932652 
L 387.241135 -42.932652 
L 384.665376 -42.932652 
L 382.089616 -42.932652 
L 379.513857 -42.932652 
L 376.938097 -42.932652 
L 374.362338 -42.932652 
L 371.786578 -42.932652 
L 369.210819 -42.932652 
L 366.63506 -42.932652 
L 364.0593 -42.932652 
L 361.483541 -42.932652 
L 358.907781 -42.932652 
L 356.332022 -42.932652 
L 353.756262 -42.932652 
L 351.180503 -42.932652 
L 348.604743 -42.932652 
L 346.028984 -42.932652 
z
"/>
    </defs>
    <g clip-path="url(#pe09bf4f7a0)">
     <use xlink:href="#mc08f34ed5a" x="0" y="207.622572" style="fill: #4c78a8; fill-opacity: 0.28"/>
    </g>
   </g>
   <g id="FillBetweenPolyCollection_4">
    <defs>
     <path id="m8c75af55d8" d="M 346.028984 -42.932652 
L 346.028984 -176.941954 
L 348.604743 -184.052652 
L 351.180503 -66.452652 
L 353.756262 -57.974512 
L 356.332022 -52.504745 
L 358.907781 -52.504745 
L 361.483541 -48.402419 
L 364.0593 -47.581954 
L 366.63506 -45.941024 
L 369.210819 -46.761489 
L 371.786578 -47.308466 
L 374.362338 -46.761489 
L 376.938097 -45.394047 
L 379.513857 -44.84707 
L 382.089616 -44.300093 
L 384.665376 -45.120559 
L 387.241135 -44.573582 
L 389.816895 -45.120559 
L 392.392654 -44.573582 
L 394.968414 -44.84707 
L 397.544173 -44.026605 
L 400.119933 -44.026605 
L 402.695692 -44.300093 
L 405.271452 -44.573582 
L 407.847211 -45.120559 
L 410.42297 -44.84707 
L 412.99873 -44.573582 
L 415.574489 -44.300093 
L 418.150249 -44.026605 
L 420.726008 -43.753117 
L 423.301768 -43.20614 
L 425.877527 -43.479628 
L 428.453287 -43.753117 
L 431.029046 -43.753117 
L 433.604806 -43.20614 
L 436.180565 -43.479628 
L 438.756325 -43.479628 
L 441.332084 -44.026605 
L 443.907844 -44.300093 
L 446.483603 -44.84707 
L 449.059362 -44.300093 
L 449.059362 -42.932652 
L 449.059362 -42.932652 
L 446.483603 -42.932652 
L 443.907844 -42.932652 
L 441.332084 -42.932652 
L 438.756325 -42.932652 
L 436.180565 -42.932652 
L 433.604806 -42.932652 
L 431.029046 -42.932652 
L 428.453287 -42.932652 
L 425.877527 -42.932652 
L 423.301768 -42.932652 
L 420.726008 -42.932652 
L 418.150249 -42.932652 
L 415.574489 -42.932652 
L 412.99873 -42.932652 
L 410.42297 -42.932652 
L 407.847211 -42.932652 
L 405.271452 -42.932652 
L 402.695692 -42.932652 
L 400.119933 -42.932652 
L 397.544173 -42.932652 
L 394.968414 -42.932652 
L 392.392654 -42.932652 
L 389.816895 -42.932652 
L 387.241135 -42.932652 
L 384.665376 -42.932652 
L 382.089616 -42.932652 
L 379.513857 -42.932652 
L 376.938097 -42.932652 
L 374.362338 -42.932652 
L 371.786578 -42.932652 
L 369.210819 -42.932652 
L 366.63506 -42.932652 
L 364.0593 -42.932652 
L 361.483541 -42.932652 
L 358.907781 -42.932652 
L 356.332022 -42.932652 
L 353.756262 -42.932652 
L 351.180503 -42.932652 
L 348.604743 -42.932652 
L 346.028984 -42.932652 
z
"/>
    </defs>
    <g clip-path="url(#pe09bf4f7a0)">
     <use xlink:href="#m8c75af55d8" x="0" y="207.622572" style="fill: #c44e52; fill-opacity: 0.28"/>
    </g>
   </g>
   <g id="matplotlib.axis_5">
    <g id="xtick_10">
     <g id="line2d_28">
      <g>
       <use xlink:href="#m7f404c767f" x="344.741104" y="171.74592" style="stroke: #000000; stroke-width: 0.8"/>
      </g>
     </g>
     <g id="text_46">
      <text style="font-size: 7px; font-family: 'Arial', 'Helvetica', 'DejaVu Sans', sans-serif; text-anchor: middle" x="344.741104" y="183.756389" transform="rotate(-0 344.741104 183.756389)">−1.0</text>
     </g>
    </g>
    <g id="xtick_11">
     <g id="line2d_29">
      <g>
       <use xlink:href="#m7f404c767f" x="371.142639" y="171.74592" style="stroke: #000000; stroke-width: 0.8"/>
      </g>
     </g>
     <g id="text_47">
      <text style="font-size: 7px; font-family: 'Arial', 'Helvetica', 'DejaVu Sans', sans-serif; text-anchor: middle" x="371.142639" y="183.756389" transform="rotate(-0 371.142639 183.756389)">−0.5</text>
     </g>
    </g>
    <g id="xtick_12">
     <g id="line2d_30">
      <g>
       <use xlink:href="#m7f404c767f" x="397.544173" y="171.74592" style="stroke: #000000; stroke-width: 0.8"/>
      </g>
     </g>
     <g id="text_48">
      <text style="font-size: 7px; font-family: 'Arial', 'Helvetica', 'DejaVu Sans', sans-serif; text-anchor: middle" x="397.544173" y="183.756389" transform="rotate(-0 397.544173 183.756389)">0.0</text>
     </g>
    </g>
    <g id="xtick_13">
     <g id="line2d_31">
      <g>
       <use xlink:href="#m7f404c767f" x="423.945708" y="171.74592" style="stroke: #000000; stroke-width: 0.8"/>
      </g>
     </g>
     <g id="text_49">
      <text style="font-size: 7px; font-family: 'Arial', 'Helvetica', 'DejaVu Sans', sans-serif; text-anchor: middle" x="423.945708" y="183.756389" transform="rotate(-0 423.945708 183.756389)">0.5</text>
     </g>
    </g>
    <g id="xtick_14">
     <g id="line2d_32">
      <g>
       <use xlink:href="#m7f404c767f" x="450.347242" y="171.74592" style="stroke: #000000; stroke-width: 0.8"/>
      </g>
     </g>
     <g id="text_50">
      <text style="font-size: 7px; font-family: 'Arial', 'Helvetica', 'DejaVu Sans', sans-serif; text-anchor: middle" x="450.347242" y="183.756389" transform="rotate(-0 450.347242 183.756389)">1.0</text>
     </g>
    </g>
    <g id="text_51">
     <text style="font-size: 7px; font-family: 'Arial', 'Helvetica', 'DejaVu Sans', sans-serif; text-anchor: middle" x="397.544173" y="194.24342" transform="rotate(-0 397.544173 194.24342)">Good-minus-medium margin</text>
    </g>
   </g>
   <g id="matplotlib.axis_6">
    <g id="ytick_14">
     <g id="line2d_33">
      <g>
       <use xlink:href="#ma1095784f1" x="344.741104" y="164.68992" style="stroke: #000000; stroke-width: 0.8"/>
      </g>
     </g>
     <g id="text_52">
      <text style="font-size: 7px; font-family: 'Arial', 'Helvetica', 'DejaVu Sans', sans-serif; text-anchor: end" x="337.741104" y="167.195154" transform="rotate(-0 337.741104 167.195154)">0</text>
     </g>
    </g>
    <g id="ytick_15">
     <g id="line2d_34">
      <g>
       <use xlink:href="#ma1095784f1" x="344.741104" y="139.395581" style="stroke: #000000; stroke-width: 0.8"/>
      </g>
     </g>
     <g id="text_53">
      <text style="font-size: 7px; font-family: 'Arial', 'Helvetica', 'DejaVu Sans', sans-serif; text-anchor: end" x="337.741104" y="141.900815" transform="rotate(-0 337.741104 141.900815)">1</text>
     </g>
    </g>
    <g id="ytick_16">
     <g id="line2d_35">
      <g>
       <use xlink:href="#ma1095784f1" x="344.741104" y="114.101242" style="stroke: #000000; stroke-width: 0.8"/>
      </g>
     </g>
     <g id="text_54">
      <text style="font-size: 7px; font-family: 'Arial', 'Helvetica', 'DejaVu Sans', sans-serif; text-anchor: end" x="337.741104" y="116.606476" transform="rotate(-0 337.741104 116.606476)">2</text>
     </g>
    </g>
    <g id="ytick_17">
     <g id="line2d_36">
      <g>
       <use xlink:href="#ma1095784f1" x="344.741104" y="88.806902" style="stroke: #000000; stroke-width: 0.8"/>
      </g>
     </g>
     <g id="text_55">
      <text style="font-size: 7px; font-family: 'Arial', 'Helvetica', 'DejaVu Sans', sans-serif; text-anchor: end" x="337.741104" y="91.312137" transform="rotate(-0 337.741104 91.312137)">3</text>
     </g>
    </g>
    <g id="ytick_18">
     <g id="line2d_37">
      <g>
       <use xlink:href="#ma1095784f1" x="344.741104" y="63.512563" style="stroke: #000000; stroke-width: 0.8"/>
      </g>
     </g>
     <g id="text_56">
      <text style="font-size: 7px; font-family: 'Arial', 'Helvetica', 'DejaVu Sans', sans-serif; text-anchor: end" x="337.741104" y="66.017798" transform="rotate(-0 337.741104 66.017798)">4</text>
     </g>
    </g>
    <g id="ytick_19">
     <g id="line2d_38">
      <g>
       <use xlink:href="#ma1095784f1" x="344.741104" y="38.218224" style="stroke: #000000; stroke-width: 0.8"/>
      </g>
     </g>
     <g id="text_57">
      <text style="font-size: 7px; font-family: 'Arial', 'Helvetica', 'DejaVu Sans', sans-serif; text-anchor: end" x="337.741104" y="40.723458" transform="rotate(-0 337.741104 40.723458)">5</text>
     </g>
    </g>
    <g id="text_58">
     <text style="font-size: 7px; font-family: 'Arial', 'Helvetica', 'DejaVu Sans', sans-serif; text-anchor: middle" x="328.375167" y="94.12992" transform="rotate(-90 328.375167 94.12992)">Density</text>
    </g>
   </g>
   <g id="line2d_39">
    <path d="M 346.028984 162.884325 
L 348.604743 162.063601 
L 351.180503 162.72018 
L 353.756262 162.72018 
L 356.332022 162.884325 
L 358.907781 162.72018 
L 361.483541 163.04847 
L 364.0593 163.212615 
L 366.63506 162.884325 
L 369.210819 162.556035 
L 371.786578 162.556035 
L 374.362338 162.72018 
L 376.938097 163.212615 
L 379.513857 163.37676 
L 382.089616 164.03334 
L 384.665376 163.869195 
L 387.241135 163.540905 
L 389.816895 163.212615 
L 392.392654 163.212615 
L 394.968414 162.884325 
L 397.544173 162.556035 
L 400.119933 162.556035 
L 402.695692 162.884325 
L 405.271452 162.39189 
L 407.847211 162.063601 
L 410.42297 162.063601 
L 412.99873 162.227745 
L 415.574489 161.899456 
L 418.150249 160.750441 
L 420.726008 160.258006 
L 423.301768 159.765571 
L 425.877527 159.601426 
L 428.453287 159.601426 
L 431.029046 159.273136 
L 433.604806 159.765571 
L 436.180565 158.452411 
L 438.756325 156.318527 
L 441.332084 151.558323 
L 443.907844 141.21719 
L 446.483603 29.434466 
L 449.059362 35.671975 
" clip-path="url(#pe09bf4f7a0)" style="fill: none; stroke: #4c78a8; stroke-width: 1.2; stroke-linecap: square"/>
   </g>
   <g id="line2d_40">
    <path d="M 346.028984 30.680618 
L 348.604743 23.56992 
L 351.180503 141.16992 
L 353.756262 149.64806 
L 356.332022 155.117827 
L 358.907781 155.117827 
L 361.483541 159.220153 
L 364.0593 160.040618 
L 366.63506 161.681548 
L 369.210819 160.861083 
L 371.786578 160.314106 
L 374.362338 160.861083 
L 376.938097 162.228525 
L 379.513857 162.775501 
L 382.089616 163.322478 
L 384.665376 162.502013 
L 387.241135 163.04899 
L 389.816895 162.502013 
L 392.392654 163.04899 
L 394.968414 162.775501 
L 397.544173 163.595967 
L 400.119933 163.595967 
L 402.695692 163.322478 
L 405.271452 163.04899 
L 407.847211 162.502013 
L 410.42297 162.775501 
L 412.99873 163.04899 
L 415.574489 163.322478 
L 418.150249 163.595967 
L 420.726008 163.869455 
L 423.301768 164.416432 
L 425.877527 164.142943 
L 428.453287 163.869455 
L 431.029046 163.869455 
L 433.604806 164.416432 
L 436.180565 164.142943 
L 438.756325 164.142943 
L 441.332084 163.595967 
L 443.907844 163.322478 
L 446.483603 162.775501 
L 449.059362 163.322478 
" clip-path="url(#pe09bf4f7a0)" style="fill: none; stroke: #c44e52; stroke-width: 1.2; stroke-linecap: square"/>
   </g>
   <g id="line2d_41">
    <path d="M 397.544173 171.74592 
L 397.544173 16.51392 
" clip-path="url(#pe09bf4f7a0)" style="fill: none; stroke-dasharray: 0.8,1.32; stroke-dashoffset: 0; stroke: #333333; stroke-width: 0.8"/>
   </g>
   <g id="patch_24">
    <path d="M 344.741104 171.74592 
L 344.741104 16.51392 
" style="fill: none; stroke: #000000; stroke-width: 0.8; stroke-linejoin: miter; stroke-linecap: square"/>
   </g>
   <g id="patch_25">
    <path d="M 344.741104 171.74592 
L 450.347242 171.74592 
" style="fill: none; stroke: #000000; stroke-width: 0.8; stroke-linejoin: miter; stroke-linecap: square"/>
   </g>
   <g id="text_59">
    <text style="font-weight: 700; font-size: 9px; font-family: 'Arial', 'Helvetica', 'DejaVu Sans', sans-serif; text-anchor: start" x="332.068367" y="13.642031" transform="rotate(-0 332.068367 13.642031)">c</text>
   </g>
   <g id="text_60">
    <text style="font-size: 7px; font-family: 'Arial', 'Helvetica', 'DejaVu Sans', sans-serif; text-anchor: middle" x="397.544173" y="13.51392" transform="rotate(-0 397.544173 13.51392)">Conformer</text>
   </g>
   <g id="legend_3">
    <g id="line2d_42">
     <path d="M 378.474954 24.108607 
L 384.474954 24.108607 
L 390.474954 24.108607 
" style="fill: none; stroke: #4c78a8; stroke-width: 1.2; stroke-linecap: square"/>
    </g>
    <g id="text_61">
     <text style="font-size: 6px; font-family: 'Arial', 'Helvetica', 'DejaVu Sans', sans-serif; text-anchor: start" x="395.274954" y="26.208607" transform="rotate(-0 395.274954 26.208607)">good</text>
    </g>
    <g id="line2d_43">
     <path d="M 378.474954 32.666107 
L 384.474954 32.666107 
L 390.474954 32.666107 
" style="fill: none; stroke: #c44e52; stroke-width: 1.2; stroke-linecap: square"/>
    </g>
    <g id="text_62">
     <text style="font-size: 6px; font-family: 'Arial', 'Helvetica', 'DejaVu Sans', sans-serif; text-anchor: start" x="395.274954" y="34.766107" transform="rotate(-0 395.274954 34.766107)">medium</text>
    </g>
   </g>
  </g>
 </g>
 <defs>
  <clipPath id="pb8a672df9f">
   <rect x="37.427242" y="16.51392" width="153.1289" height="155.232"/>
  </clipPath>
  <clipPath id="p6888505fce">
   <rect x="214.845554" y="16.51392" width="105.606138" height="155.232"/>
  </clipPath>
  <clipPath id="pe09bf4f7a0">
   <rect x="344.741104" y="16.51392" width="105.606138" height="155.232"/>
  </clipPath>
 </defs>
</svg>
