<?xml version="1.0" encoding="utf-8" standalone="no"?>
<!DOCTYPE svg PUBLIC "-//W3C//DTD SVG 1.1//EN"
  "http://www.w3.org/Graphics/SVG/1.1/DTD/svg11.dtd">
<svg xmlns:xlink="http://www.w3.org/1999/xlink" width="506.145625pt" height="278.569654pt" viewBox="0 0 506.145625 278.569654" xmlns="http://www.w3.org/2000/svg" version="1.1">
 <metadata>
  <rdf:RDF xmlns:dc="http://purl.org/dc/elements/1.1/" xmlns:cc="http://creativecommons.org/ns#" xmlns:rdf="http://www.w3.org/1999/02/22-rdf-syntax-ns#">
   <cc:Work>
    <dc:type rdf:resource="http://purl.org/dc/dcmitype/StillImage"/>
    <dc:date>2026-06-28T12:30:44.513951</dc:date>
    <dc:format>image/svg+xml</dc:format>
    <dc:creator>
     <cc:Agent>
      <dc:title>Matplotlib v3.10.9, https://matplotlib.org/</dc:title>
     </cc:Agent>
    </dc:creator>
   </cc:Work>
  </rdf:RDF>
 </metadata>
 <defs>
  <style type="text/css">*{stroke-linejoin: round; stroke-linecap: butt}</style>
 </defs>
 <g id="figure_1">
  <g id="patch_1">
   <path d="M 0 278.569654 
L 506.145625 278.569654 
L 506.145625 0 
L 0 0 
z
" style="fill: #ffffff"/>
  </g>
  <g id="axes_1">
   <g id="patch_2">
    <path d="M 88.815625 115.210125 
L 265.595797 115.210125 
L 265.595797 19.256279 
L 88.815625 19.256279 
z
" style="fill: #ffffff"/>
   </g>
   <g id="matplotlib.axis_1">
    <g id="xtick_1">
     <g id="line2d_1">
      <path d="M 96.851087 115.210125 
L 96.851087 19.256279 
" clip-path="url(#p825dd18e80)" style="fill: none; stroke: #d9d9d9; stroke-width: 0.35; stroke-linecap: square"/>
     </g>
     <g id="line2d_2">
      <defs>
       <path id="ma9d13fc764" d="M 0 0 
L 0 3.5 
" style="stroke: #252525; stroke-width: 0.8"/>
      </defs>
      <g>
       <use xlink:href="#ma9d13fc764" x="96.851087" y="115.210125" style="fill: #252525; stroke: #252525; stroke-width: 0.8"/>
      </g>
     </g>
     <g id="text_1">
      <text style="font-size: 7.5px; font-family: 'Arial', 'Helvetica', 'DejaVu Sans', 'Liberation Sans', sans-serif; text-anchor: middle; fill: #252525" x="96.851087" y="127.578484" transform="rotate(-0 96.851087 127.578484)">0.0</text>
     </g>
    </g>
    <g id="xtick_2">
     <g id="line2d_3">
      <path d="M 128.992937 115.210125 
L 128.992937 19.256279 
" clip-path="url(#p825dd18e80)" style="fill: none; stroke: #d9d9d9; stroke-width: 0.35; stroke-linecap: square"/>
     </g>
     <g id="line2d_4">
      <g>
       <use xlink:href="#ma9d13fc764" x="128.992937" y="115.210125" style="fill: #252525; stroke: #252525; stroke-width: 0.8"/>
      </g>
     </g>
     <g id="text_2">
      <text style="font-size: 7.5px; font-family: 'Arial', 'Helvetica', 'DejaVu Sans', 'Liberation Sans', sans-serif; text-anchor: middle; fill: #252525" x="128.992937" y="127.578484" transform="rotate(-0 128.992937 127.578484)">0.2</text>
     </g>
    </g>
    <g id="xtick_3">
     <g id="line2d_5">
      <path d="M 161.134786 115.210125 
L 161.134786 19.256279 
" clip-path="url(#p825dd18e80)" style="fill: none; stroke: #d9d9d9; stroke-width: 0.35; stroke-linecap: square"/>
     </g>
     <g id="line2d_6">
      <g>
       <use xlink:href="#ma9d13fc764" x="161.134786" y="115.210125" style="fill: #252525; stroke: #252525; stroke-width: 0.8"/>
      </g>
     </g>
     <g id="text_3">
      <text style="font-size: 7.5px; font-family: 'Arial', 'Helvetica', 'DejaVu Sans', 'Liberation Sans', sans-serif; text-anchor: middle; fill: #252525" x="161.134786" y="127.578484" transform="rotate(-0 161.134786 127.578484)">0.4</text>
     </g>
    </g>
    <g id="xtick_4">
     <g id="line2d_7">
      <path d="M 193.276636 115.210125 
L 193.276636 19.256279 
" clip-path="url(#p825dd18e80)" style="fill: none; stroke: #d9d9d9; stroke-width: 0.35; stroke-linecap: square"/>
     </g>
     <g id="line2d_8">
      <g>
       <use xlink:href="#ma9d13fc764" x="193.276636" y="115.210125" style="fill: #252525; stroke: #252525; stroke-width: 0.8"/>
      </g>
     </g>
     <g id="text_4">
      <text style="font-size: 7.5px; font-family: 'Arial', 'Helvetica', 'DejaVu Sans', 'Liberation Sans', sans-serif; text-anchor: middle; fill: #252525" x="193.276636" y="127.578484" transform="rotate(-0 193.276636 127.578484)">0.6</text>
     </g>
    </g>
    <g id="xtick_5">
     <g id="line2d_9">
      <path d="M 225.418486 115.210125 
L 225.418486 19.256279 
" clip-path="url(#p825dd18e80)" style="fill: none; stroke: #d9d9d9; stroke-width: 0.35; stroke-linecap: square"/>
     </g>
     <g id="line2d_10">
      <g>
       <use xlink:href="#ma9d13fc764" x="225.418486" y="115.210125" style="fill: #252525; stroke: #252525; stroke-width: 0.8"/>
      </g>
     </g>
     <g id="text_5">
      <text style="font-size: 7.5px; font-family: 'Arial', 'Helvetica', 'DejaVu Sans', 'Liberation Sans', sans-serif; text-anchor: middle; fill: #252525" x="225.418486" y="127.578484" transform="rotate(-0 225.418486 127.578484)">0.8</text>
     </g>
    </g>
    <g id="xtick_6">
     <g id="line2d_11">
      <path d="M 257.560335 115.210125 
L 257.560335 19.256279 
" clip-path="url(#p825dd18e80)" style="fill: none; stroke: #d9d9d9; stroke-width: 0.35; stroke-linecap: square"/>
     </g>
     <g id="line2d_12">
      <g>
       <use xlink:href="#ma9d13fc764" x="257.560335" y="115.210125" style="fill: #252525; stroke: #252525; stroke-width: 0.8"/>
      </g>
     </g>
     <g id="text_6">
      <text style="font-size: 7.5px; font-family: 'Arial', 'Helvetica', 'DejaVu Sans', 'Liberation Sans', sans-serif; text-anchor: middle; fill: #252525" x="257.560335" y="127.578484" transform="rotate(-0 257.560335 127.578484)">1.0</text>
     </g>
    </g>
    <g id="text_7">
     <text style="font-size: 7.5px; font-family: 'Arial', 'Helvetica', 'DejaVu Sans', 'Liberation Sans', sans-serif; text-anchor: middle; fill: #252525" x="177.205711" y="138.528875" transform="rotate(-0 177.205711 138.528875)">1-Sp</text>
    </g>
   </g>
   <g id="matplotlib.axis_2">
    <g id="ytick_1">
     <g id="line2d_13">
      <path d="M 88.815625 110.848587 
L 265.595797 110.848587 
" clip-path="url(#p825dd18e80)" style="fill: none; stroke: #d9d9d9; stroke-width: 0.35; stroke-linecap: square"/>
     </g>
     <g id="line2d_14">
      <defs>
       <path id="m5357596ef1" d="M 0 0 
L -3.5 0 
" style="stroke: #252525; stroke-width: 0.8"/>
      </defs>
      <g>
       <use xlink:href="#m5357596ef1" x="88.815625" y="110.848587" style="fill: #252525; stroke: #252525; stroke-width: 0.8"/>
      </g>
     </g>
     <g id="text_8">
      <text style="font-size: 7.5px; font-family: 'Arial', 'Helvetica', 'DejaVu Sans', 'Liberation Sans', sans-serif; text-anchor: end; fill: #252525" x="81.815625" y="113.532766" transform="rotate(-0 81.815625 113.532766)">0.0</text>
     </g>
    </g>
    <g id="ytick_2">
     <g id="line2d_15">
      <path d="M 88.815625 93.402433 
L 265.595797 93.402433 
" clip-path="url(#p825dd18e80)" style="fill: none; stroke: #d9d9d9; stroke-width: 0.35; stroke-linecap: square"/>
     </g>
     <g id="line2d_16">
      <g>
       <use xlink:href="#m5357596ef1" x="88.815625" y="93.402433" style="fill: #252525; stroke: #252525; stroke-width: 0.8"/>
      </g>
     </g>
     <g id="text_9">
      <text style="font-size: 7.5px; font-family: 'Arial', 'Helvetica', 'DejaVu Sans', 'Liberation Sans', sans-serif; text-anchor: end; fill: #252525" x="81.815625" y="96.086612" transform="rotate(-0 81.815625 96.086612)">0.2</text>
     </g>
    </g>
    <g id="ytick_3">
     <g id="line2d_17">
      <path d="M 88.815625 75.956279 
L 265.595797 75.956279 
" clip-path="url(#p825dd18e80)" style="fill: none; stroke: #d9d9d9; stroke-width: 0.35; stroke-linecap: square"/>
     </g>
     <g id="line2d_18">
      <g>
       <use xlink:href="#m5357596ef1" x="88.815625" y="75.956279" style="fill: #252525; stroke: #252525; stroke-width: 0.8"/>
      </g>
     </g>
     <g id="text_10">
      <text style="font-size: 7.5px; font-family: 'Arial', 'Helvetica', 'DejaVu Sans', 'Liberation Sans', sans-serif; text-anchor: end; fill: #252525" x="81.815625" y="78.640459" transform="rotate(-0 81.815625 78.640459)">0.4</text>
     </g>
    </g>
    <g id="ytick_4">
     <g id="line2d_19">
      <path d="M 88.815625 58.510125 
L 265.595797 58.510125 
" clip-path="url(#p825dd18e80)" style="fill: none; stroke: #d9d9d9; stroke-width: 0.35; stroke-linecap: square"/>
     </g>
     <g id="line2d_20">
      <g>
       <use xlink:href="#m5357596ef1" x="88.815625" y="58.510125" style="fill: #252525; stroke: #252525; stroke-width: 0.8"/>
      </g>
     </g>
     <g id="text_11">
      <text style="font-size: 7.5px; font-family: 'Arial', 'Helvetica', 'DejaVu Sans', 'Liberation Sans', sans-serif; text-anchor: end; fill: #252525" x="81.815625" y="61.194305" transform="rotate(-0 81.815625 61.194305)">0.6</text>
     </g>
    </g>
    <g id="ytick_5">
     <g id="line2d_21">
      <path d="M 88.815625 41.063971 
L 265.595797 41.063971 
" clip-path="url(#p825dd18e80)" style="fill: none; stroke: #d9d9d9; stroke-width: 0.35; stroke-linecap: square"/>
     </g>
     <g id="line2d_22">
      <g>
       <use xlink:href="#m5357596ef1" x="88.815625" y="41.063971" style="fill: #252525; stroke: #252525; stroke-width: 0.8"/>
      </g>
     </g>
     <g id="text_12">
      <text style="font-size: 7.5px; font-family: 'Arial', 'Helvetica', 'DejaVu Sans', 'Liberation Sans', sans-serif; text-anchor: end; fill: #252525" x="81.815625" y="43.748151" transform="rotate(-0 81.815625 43.748151)">0.8</text>
     </g>
    </g>
    <g id="ytick_6">
     <g id="line2d_23">
      <path d="M 88.815625 23.617817 
L 265.595797 23.617817 
" clip-path="url(#p825dd18e80)" style="fill: none; stroke: #d9d9d9; stroke-width: 0.35; stroke-linecap: square"/>
     </g>
     <g id="line2d_24">
      <g>
       <use xlink:href="#m5357596ef1" x="88.815625" y="23.617817" style="fill: #252525; stroke: #252525; stroke-width: 0.8"/>
      </g>
     </g>
     <g id="text_13">
      <text style="font-size: 7.5px; font-family: 'Arial', 'Helvetica', 'DejaVu Sans', 'Liberation Sans', sans-serif; text-anchor: end; fill: #252525" x="81.815625" y="26.301997" transform="rotate(-0 81.815625 26.301997)">1.0</text>
     </g>
    </g>
    <g id="text_14">
     <text style="font-size: 7.5px; font-family: 'Arial', 'Helvetica', 'DejaVu Sans', 'Liberation Sans', sans-serif; text-anchor: middle; fill: #252525" x="65.9" y="67.233202" transform="rotate(-90 65.9 67.233202)">Se</text>
    </g>
   </g>
   <g id="line2d_25">
    <path d="M 96.851087 110.848587 
L 98.248559 110.848587 
L 98.248559 110.096597 
L 99.646031 110.096597 
L 99.646031 86.032937 
L 101.043503 86.032937 
L 101.043503 80.769011 
L 102.440974 80.769011 
L 102.440974 40.913573 
L 103.838446 40.913573 
L 103.838446 35.649648 
L 106.633389 35.649648 
L 106.633389 34.145669 
L 108.030861 34.145669 
L 108.030861 33.393679 
L 109.428333 33.393679 
L 109.428333 29.633732 
L 112.223276 29.633732 
L 112.223276 28.881743 
L 113.620748 28.881743 
L 113.620748 28.129754 
L 115.01822 28.129754 
L 115.01822 26.625775 
L 117.813163 26.625775 
L 117.813163 25.873785 
L 120.608107 25.873785 
L 120.608107 25.121796 
L 128.992937 25.121796 
L 128.992937 24.369807 
L 162.532258 24.369807 
L 175.109504 24.369807 
L 226.815957 24.369807 
L 226.815957 23.617817 
L 257.560335 23.617817 
" clip-path="url(#p825dd18e80)" style="fill: none; stroke: #0f4d92; stroke-width: 1.35; stroke-linecap: square"/>
   </g>
   <g id="line2d_26">
    <path d="M 96.851087 110.848587 
L 96.851087 110.096597 
L 96.851087 107.840629 
L 98.248559 107.840629 
L 98.248559 92.800841 
L 99.646031 92.800841 
L 99.646031 72.497128 
L 101.043503 72.497128 
L 101.043503 57.45734 
L 102.440974 57.45734 
L 102.440974 53.697393 
L 103.838446 53.697393 
L 103.838446 43.921531 
L 106.633389 43.921531 
L 106.633389 38.657605 
L 108.030861 38.657605 
L 108.030861 36.401637 
L 109.428333 36.401637 
L 109.428333 32.64169 
L 110.825805 32.64169 
L 110.825805 25.873785 
L 112.223276 25.873785 
L 112.223276 25.121796 
L 119.210635 25.121796 
L 119.210635 24.369807 
L 126.197993 24.369807 
L 138.775239 24.369807 
L 179.301919 24.369807 
L 179.301919 23.617817 
L 257.560335 23.617817 
" clip-path="url(#p825dd18e80)" style="fill: none; stroke: #b64342; stroke-width: 1.35; stroke-linecap: square"/>
   </g>
   <g id="line2d_27">
    <path d="M 96.851087 110.848587 
L 257.560335 23.617817 
" clip-path="url(#p825dd18e80)" style="fill: none; stroke-dasharray: 0.8,1.32; stroke-dashoffset: 0; stroke: #737373; stroke-width: 0.8"/>
   </g>
   <g id="patch_3">
    <path d="M 88.815625 115.210125 
L 88.815625 19.256279 
" style="fill: none; stroke: #252525; stroke-width: 0.75; stroke-linejoin: miter; stroke-linecap: square"/>
   </g>
   <g id="patch_4">
    <path d="M 88.815625 115.210125 
L 265.595797 115.210125 
" style="fill: none; stroke: #252525; stroke-width: 0.75; stroke-linejoin: miter; stroke-linecap: square"/>
   </g>
   <g id="text_15">
    <text style="font-weight: 700; font-size: 9px; font-family: 'Arial', 'Helvetica', 'DejaVu Sans', 'Liberation Sans', sans-serif; text-anchor: start; fill: #252525" x="65.834203" y="13.642031" transform="rotate(-0 65.834203 13.642031)">a</text>
   </g>
   <g id="legend_1">
    <g id="line2d_28">
     <path d="M 183.236422 93.735516 
L 190.736422 93.735516 
L 198.236422 93.735516 
" style="fill: none; stroke: #0f4d92; stroke-width: 1.35; stroke-linecap: square"/>
    </g>
    <g id="text_16">
     <text style="font-size: 7.5px; font-family: 'Arial', 'Helvetica', 'DejaVu Sans', 'Liberation Sans', sans-serif; text-anchor: start" x="204.236422" y="96.360516" transform="rotate(-0 204.236422 96.360516)">MLP AUC 0.955</text>
    </g>
    <g id="line2d_29">
     <path d="M 183.236422 104.3445 
L 190.736422 104.3445 
L 198.236422 104.3445 
" style="fill: none; stroke: #b64342; stroke-width: 1.35; stroke-linecap: square"/>
    </g>
    <g id="text_17">
     <text style="font-size: 7.5px; font-family: 'Arial', 'Helvetica', 'DejaVu Sans', 'Liberation Sans', sans-serif; text-anchor: start" x="204.236422" y="106.9695" transform="rotate(-0 204.236422 106.9695)">SVM AUC 0.962</text>
    </g>
   </g>
  </g>
  <g id="axes_2">
   <g id="patch_5">
    <path d="M 322.165453 115.210125 
L 498.945625 115.210125 
L 498.945625 19.256279 
L 322.165453 19.256279 
z
" style="fill: #ffffff"/>
   </g>
   <g id="FillBetweenPolyCollection_1">
    <defs>
     <path id="m165da14a1e" d="M 335.491136 -166.075258 
L 335.070474 -166.075258 
L 335.064803 -166.989625 
L 335.061236 -167.903993 
L 335.059743 -168.818361 
L 335.060216 -169.732729 
L 335.062482 -170.647097 
L 335.066319 -171.561465 
L 335.071477 -172.475833 
L 335.077698 -173.390201 
L 335.084732 -174.304569 
L 335.092354 -175.218937 
L 335.100374 -176.133305 
L 335.108637 -177.047673 
L 335.117026 -177.962041 
L 335.125455 -178.876409 
L 335.13386 -179.790777 
L 335.14219 -180.705144 
L 335.150401 -181.619512 
L 335.15844 -182.53388 
L 335.166247 -183.448248 
L 335.173752 -184.362616 
L 335.180874 -185.276984 
L 335.18753 -186.191352 
L 335.193639 -187.10572 
L 335.199131 -188.020088 
L 335.203955 -188.934456 
L 335.208088 -189.848824 
L 335.211536 -190.763192 
L 335.214338 -191.67756 
L 335.216564 -192.591928 
L 335.21831 -193.506296 
L 335.219692 -194.420663 
L 335.220833 -195.335031 
L 335.221857 -196.249399 
L 335.222878 -197.163767 
L 335.223988 -198.078135 
L 335.225253 -198.992503 
L 335.226705 -199.906871 
L 335.228344 -200.821239 
L 335.230136 -201.735607 
L 335.232018 -202.649975 
L 335.233907 -203.564343 
L 335.235704 -204.478711 
L 335.237308 -205.393079 
L 335.238624 -206.307447 
L 335.23957 -207.221815 
L 335.240088 -208.136182 
L 335.240146 -209.05055 
L 335.239746 -209.964918 
L 335.238919 -210.879286 
L 335.237727 -211.793654 
L 335.236256 -212.708022 
L 335.234607 -213.62239 
L 335.232893 -214.536758 
L 335.231222 -215.451126 
L 335.229696 -216.365494 
L 335.228391 -217.279862 
L 335.227358 -218.19423 
L 335.226614 -219.108598 
L 335.226137 -220.022966 
L 335.225863 -220.937334 
L 335.225691 -221.851701 
L 335.225481 -222.766069 
L 335.225058 -223.680437 
L 335.224215 -224.594805 
L 335.222711 -225.509173 
L 335.220272 -226.423541 
L 335.216586 -227.337909 
L 335.211286 -228.252277 
L 335.203937 -229.166645 
L 335.194014 -230.081013 
L 335.180866 -230.995381 
L 335.163683 -231.909749 
L 335.141459 -232.824117 
L 335.112951 -233.738485 
L 335.076646 -234.652853 
L 335.030737 -235.56722 
L 334.973114 -236.481588 
L 334.901384 -237.395956 
L 334.81292 -238.310324 
L 334.704949 -239.224692 
L 334.574686 -240.13906 
L 334.419513 -241.053428 
L 334.2372 -241.967796 
L 334.02616 -242.882164 
L 333.785725 -243.796532 
L 333.51642 -244.7109 
L 333.220206 -245.625268 
L 332.900674 -246.539636 
L 332.563145 -247.454004 
L 332.214659 -248.368372 
L 331.863837 -249.282739 
L 331.520592 -250.197107 
L 331.195717 -251.111475 
L 330.900347 -252.025843 
L 330.64534 -252.940211 
L 330.440629 -253.854579 
L 330.294584 -254.768947 
L 330.213449 -255.683315 
L 330.200915 -256.597683 
L 340.360695 -256.597683 
L 340.360695 -256.597683 
L 340.348161 -255.683315 
L 340.267026 -254.768947 
L 340.120981 -253.854579 
L 339.91627 -252.940211 
L 339.661263 -252.025843 
L 339.365893 -251.111475 
L 339.041018 -250.197107 
L 338.697773 -249.282739 
L 338.346951 -248.368372 
L 337.998465 -247.454004 
L 337.660936 -246.539636 
L 337.341404 -245.625268 
L 337.04519 -244.7109 
L 336.775885 -243.796532 
L 336.53545 -242.882164 
L 336.32441 -241.967796 
L 336.142097 -241.053428 
L 335.986924 -240.13906 
L 335.856661 -239.224692 
L 335.74869 -238.310324 
L 335.660226 -237.395956 
L 335.588496 -236.481588 
L 335.530873 -235.56722 
L 335.484963 -234.652853 
L 335.448659 -233.738485 
L 335.420151 -232.824117 
L 335.397927 -231.909749 
L 335.380744 -230.995381 
L 335.367596 -230.081013 
L 335.357672 -229.166645 
L 335.350324 -228.252277 
L 335.345024 -227.337909 
L 335.341338 -226.423541 
L 335.338899 -225.509173 
L 335.337395 -224.594805 
L 335.336552 -223.680437 
L 335.336129 -222.766069 
L 335.335919 -221.851701 
L 335.335747 -220.937334 
L 335.335473 -220.022966 
L 335.334996 -219.108598 
L 335.334252 -218.19423 
L 335.333219 -217.279862 
L 335.331914 -216.365494 
L 335.330388 -215.451126 
L 335.328717 -214.536758 
L 335.327003 -213.62239 
L 335.325354 -212.708022 
L 335.323883 -211.793654 
L 335.322691 -210.879286 
L 335.321864 -209.964918 
L 335.321464 -209.05055 
L 335.321522 -208.136182 
L 335.32204 -207.221815 
L 335.322986 -206.307447 
L 335.324302 -205.393079 
L 335.325906 -204.478711 
L 335.327703 -203.564343 
L 335.329592 -202.649975 
L 335.331474 -201.735607 
L 335.333266 -200.821239 
L 335.334905 -199.906871 
L 335.336357 -198.992503 
L 335.337621 -198.078135 
L 335.338732 -197.163767 
L 335.339753 -196.249399 
L 335.340777 -195.335031 
L 335.341918 -194.420663 
L 335.3433 -193.506296 
L 335.345046 -192.591928 
L 335.347272 -191.67756 
L 335.350074 -190.763192 
L 335.353522 -189.848824 
L 335.357655 -188.934456 
L 335.362479 -188.020088 
L 335.367971 -187.10572 
L 335.37408 -186.191352 
L 335.380736 -185.276984 
L 335.387858 -184.362616 
L 335.395363 -183.448248 
L 335.40317 -182.53388 
L 335.411209 -181.619512 
L 335.41942 -180.705144 
L 335.42775 -179.790777 
L 335.436155 -178.876409 
L 335.444584 -177.962041 
L 335.452973 -177.047673 
L 335.461236 -176.133305 
L 335.469255 -175.218937 
L 335.476878 -174.304569 
L 335.483912 -173.390201 
L 335.490133 -172.475833 
L 335.495291 -171.561465 
L 335.499128 -170.647097 
L 335.501394 -169.732729 
L 335.501867 -168.818361 
L 335.500374 -167.903993 
L 335.496807 -166.989625 
L 335.491136 -166.075258 
z
" style="stroke: #0f4d92; stroke-opacity: 0.18"/>
    </defs>
    <g clip-path="url(#p220de1acc3)">
     <use xlink:href="#m165da14a1e" x="0" y="278.569654" style="fill: #0f4d92; fill-opacity: 0.18; stroke: #0f4d92; stroke-opacity: 0.18"/>
    </g>
   </g>
   <g id="FillBetweenPolyCollection_2">
    <defs>
     <path id="m4b74b81eff" d="M 386.54093 -166.075204 
L 376.382317 -166.075204 
L 376.381733 -166.989572 
L 376.391184 -167.903941 
L 376.410578 -168.81831 
L 376.439763 -169.732678 
L 376.478523 -170.647047 
L 376.526587 -171.561415 
L 376.583625 -172.475784 
L 376.649256 -173.390153 
L 376.723047 -174.304521 
L 376.804523 -175.21889 
L 376.893167 -176.133258 
L 376.988425 -177.047627 
L 377.089714 -177.961996 
L 377.196426 -178.876364 
L 377.307932 -179.790733 
L 377.423587 -180.705101 
L 377.54274 -181.61947 
L 377.664735 -182.533839 
L 377.788918 -183.448207 
L 377.914642 -184.362576 
L 378.04127 -185.276944 
L 378.168184 -186.191313 
L 378.294784 -187.105682 
L 378.420496 -188.02005 
L 378.544771 -188.934419 
L 378.667094 -189.848787 
L 378.786978 -190.763156 
L 378.903977 -191.677525 
L 379.017676 -192.591893 
L 379.127701 -193.506262 
L 379.233716 -194.42063 
L 379.335423 -195.334999 
L 379.432561 -196.249367 
L 379.52491 -197.163736 
L 379.612285 -198.078105 
L 379.694537 -198.992473 
L 379.771551 -199.906842 
L 379.843246 -200.82121 
L 379.909571 -201.735579 
L 379.970503 -202.649948 
L 380.026046 -203.564316 
L 380.076229 -204.478685 
L 380.121102 -205.393053 
L 380.160735 -206.307422 
L 380.195217 -207.221791 
L 380.22465 -208.136159 
L 380.24915 -209.050528 
L 380.268846 -209.964896 
L 380.283875 -210.879265 
L 380.294381 -211.793634 
L 380.300516 -212.708002 
L 380.302437 -213.622371 
L 380.300304 -214.536739 
L 380.294281 -215.451108 
L 380.284533 -216.365477 
L 380.271229 -217.279845 
L 380.254537 -218.194214 
L 380.234628 -219.108582 
L 380.211672 -220.022951 
L 380.185843 -220.93732 
L 380.157314 -221.851688 
L 380.12626 -222.766057 
L 380.092859 -223.680425 
L 380.057291 -224.594794 
L 380.019739 -225.509163 
L 379.980389 -226.423531 
L 379.93943 -227.3379 
L 379.897056 -228.252268 
L 379.853467 -229.166637 
L 379.808865 -230.081006 
L 379.763459 -230.995374 
L 379.717463 -231.909743 
L 379.671094 -232.824111 
L 379.624576 -233.73848 
L 379.578137 -234.652849 
L 379.53201 -235.567217 
L 379.486428 -236.481586 
L 379.44163 -237.395954 
L 379.397857 -238.310323 
L 379.355347 -239.224692 
L 379.314341 -240.13906 
L 379.275077 -241.053429 
L 379.237789 -241.967797 
L 379.202706 -242.882166 
L 379.170052 -243.796535 
L 379.140041 -244.710903 
L 379.112879 -245.625272 
L 379.088758 -246.53964 
L 379.06786 -247.454009 
L 379.05035 -248.368378 
L 379.036377 -249.282746 
L 379.026072 -250.197115 
L 379.019548 -251.111483 
L 379.016897 -252.025852 
L 379.018189 -252.940221 
L 379.023474 -253.854589 
L 379.032775 -254.768958 
L 379.046097 -255.683326 
L 379.063418 -256.597695 
L 383.859829 -256.597695 
L 383.859829 -256.597695 
L 383.877149 -255.683326 
L 383.890471 -254.768958 
L 383.899773 -253.854589 
L 383.905057 -252.940221 
L 383.906349 -252.025852 
L 383.903698 -251.111483 
L 383.897174 -250.197115 
L 383.88687 -249.282746 
L 383.872897 -248.368378 
L 383.855386 -247.454009 
L 383.834488 -246.53964 
L 383.810368 -245.625272 
L 383.783206 -244.710903 
L 383.753195 -243.796535 
L 383.720541 -242.882166 
L 383.685458 -241.967797 
L 383.648169 -241.053429 
L 383.608905 -240.13906 
L 383.567899 -239.224692 
L 383.52539 -238.310323 
L 383.481616 -237.395954 
L 383.436819 -236.481586 
L 383.391237 -235.567217 
L 383.345109 -234.652849 
L 383.29867 -233.73848 
L 383.252153 -232.824111 
L 383.205784 -231.909743 
L 383.159787 -230.995374 
L 383.114381 -230.081006 
L 383.06978 -229.166637 
L 383.02619 -228.252268 
L 382.983817 -227.3379 
L 382.942858 -226.423531 
L 382.903507 -225.509163 
L 382.865955 -224.594794 
L 382.830387 -223.680425 
L 382.796987 -222.766057 
L 382.765933 -221.851688 
L 382.737404 -220.93732 
L 382.711574 -220.022951 
L 382.688619 -219.108582 
L 382.668709 -218.194214 
L 382.652018 -217.279845 
L 382.638713 -216.365477 
L 382.628966 -215.451108 
L 382.622943 -214.536739 
L 382.62081 -213.622371 
L 382.622731 -212.708002 
L 382.628866 -211.793634 
L 382.639372 -210.879265 
L 382.6544 -209.964896 
L 382.674096 -209.050528 
L 382.698597 -208.136159 
L 382.72803 -207.221791 
L 382.762511 -206.307422 
L 382.802145 -205.393053 
L 382.847018 -204.478685 
L 382.897201 -203.564316 
L 382.952744 -202.649948 
L 383.013676 -201.735579 
L 383.08 -200.82121 
L 383.151695 -199.906842 
L 383.22871 -198.992473 
L 383.310961 -198.078105 
L 383.398336 -197.163736 
L 383.490685 -196.249367 
L 383.587824 -195.334999 
L 383.68953 -194.42063 
L 383.795545 -193.506262 
L 383.905571 -192.591893 
L 384.01927 -191.677525 
L 384.136268 -190.763156 
L 384.256153 -189.848787 
L 384.378475 -188.934419 
L 384.50275 -188.02005 
L 384.628462 -187.105682 
L 384.755062 -186.191313 
L 384.881976 -185.276944 
L 385.008605 -184.362576 
L 385.134328 -183.448207 
L 385.258511 -182.533839 
L 385.380506 -181.61947 
L 385.49966 -180.705101 
L 385.615315 -179.790733 
L 385.72682 -178.876364 
L 385.833532 -177.961996 
L 385.934822 -177.047627 
L 386.03008 -176.133258 
L 386.118724 -175.21889 
L 386.2002 -174.304521 
L 386.273991 -173.390153 
L 386.339621 -172.475784 
L 386.396659 -171.561415 
L 386.444723 -170.647047 
L 386.483484 -169.732678 
L 386.512668 -168.81831 
L 386.532062 -167.903941 
L 386.541513 -166.989572 
L 386.54093 -166.075204 
z
" style="stroke: #0f4d92; stroke-opacity: 0.18"/>
    </defs>
    <g clip-path="url(#p220de1acc3)">
     <use xlink:href="#m4b74b81eff" x="0" y="278.569654" style="fill: #0f4d92; fill-opacity: 0.18; stroke: #0f4d92; stroke-opacity: 0.18"/>
    </g>
   </g>
   <g id="FillBetweenPolyCollection_3">
    <defs>
     <path id="md77de4af24" d="M 432.718496 -166.075205 
L 422.566387 -166.075205 
L 422.562552 -166.291855 
L 422.644386 -166.508506 
L 422.807474 -166.725157 
L 423.043436 -166.941807 
L 423.340634 -167.158458 
L 423.685112 -167.375109 
L 424.061659 -167.591759 
L 424.454902 -167.80841 
L 424.850298 -168.02506 
L 425.234951 -168.241711 
L 425.598207 -168.458362 
L 425.931981 -168.675012 
L 426.230847 -168.891663 
L 426.491908 -169.108314 
L 426.714509 -169.324964 
L 426.899836 -169.541615 
L 427.050473 -169.758266 
L 427.16996 -169.974916 
L 427.262386 -170.191567 
L 427.332045 -170.408218 
L 427.383162 -170.624868 
L 427.419697 -170.841519 
L 427.445216 -171.05817 
L 427.462807 -171.27482 
L 427.475058 -171.491471 
L 427.48405 -171.708122 
L 427.491387 -171.924772 
L 427.498236 -172.141423 
L 427.505373 -172.358074 
L 427.513246 -172.574724 
L 427.522033 -172.791375 
L 427.531704 -173.008026 
L 427.542081 -173.224676 
L 427.552892 -173.441327 
L 427.563823 -173.657977 
L 427.574559 -173.874628 
L 427.584812 -174.091279 
L 427.594346 -174.307929 
L 427.602988 -174.52458 
L 427.610634 -174.741231 
L 427.617239 -174.957881 
L 427.622818 -175.174532 
L 427.627426 -175.391183 
L 427.631151 -175.607833 
L 427.634099 -175.824484 
L 427.636384 -176.041135 
L 427.63812 -176.257785 
L 427.639411 -176.474436 
L 427.640354 -176.691087 
L 427.641028 -176.907737 
L 427.641501 -177.124388 
L 427.641827 -177.341039 
L 427.642047 -177.557689 
L 427.642192 -177.77434 
L 427.642287 -177.990991 
L 427.642347 -178.207641 
L 427.642385 -178.424292 
L 427.642408 -178.640943 
L 427.642422 -178.857593 
L 427.64243 -179.074244 
L 427.642435 -179.290894 
L 427.642437 -179.507545 
L 427.642438 -179.724196 
L 427.642438 -179.940846 
L 427.642436 -180.157497 
L 427.642432 -180.374148 
L 427.642424 -180.590798 
L 427.642412 -180.807449 
L 427.642391 -181.0241 
L 427.642357 -181.24075 
L 427.642303 -181.457401 
L 427.642217 -181.674052 
L 427.642085 -181.890702 
L 427.641884 -182.107353 
L 427.641585 -182.324004 
L 427.641149 -182.540654 
L 427.640525 -182.757305 
L 427.639649 -182.973956 
L 427.638444 -183.190606 
L 427.636817 -183.407257 
L 427.634665 -183.623908 
L 427.631876 -183.840558 
L 427.628337 -184.057209 
L 427.623938 -184.27386 
L 427.61859 -184.49051 
L 427.61223 -184.707161 
L 427.604837 -184.923811 
L 427.596448 -185.140462 
L 427.587165 -185.357113 
L 427.57716 -185.573763 
L 427.566684 -185.790414 
L 427.556052 -186.007065 
L 427.545637 -186.223715 
L 427.535851 -186.440366 
L 427.527112 -186.657017 
L 427.519822 -186.873667 
L 427.514335 -187.090318 
L 427.510926 -187.306969 
L 427.509769 -187.523619 
L 427.775114 -187.523619 
L 427.775114 -187.523619 
L 427.773957 -187.306969 
L 427.770548 -187.090318 
L 427.765061 -186.873667 
L 427.757771 -186.657017 
L 427.749033 -186.440366 
L 427.739246 -186.223715 
L 427.728832 -186.007065 
L 427.7182 -185.790414 
L 427.707723 -185.573763 
L 427.697718 -185.357113 
L 427.688435 -185.140462 
L 427.680046 -184.923811 
L 427.672654 -184.707161 
L 427.666293 -184.49051 
L 427.660945 -184.27386 
L 427.656547 -184.057209 
L 427.653007 -183.840558 
L 427.650219 -183.623908 
L 427.648067 -183.407257 
L 427.646439 -183.190606 
L 427.645234 -182.973956 
L 427.644358 -182.757305 
L 427.643734 -182.540654 
L 427.643298 -182.324004 
L 427.642999 -182.107353 
L 427.642798 -181.890702 
L 427.642666 -181.674052 
L 427.64258 -181.457401 
L 427.642526 -181.24075 
L 427.642492 -181.0241 
L 427.642471 -180.807449 
L 427.642459 -180.590798 
L 427.642451 -180.374148 
L 427.642447 -180.157497 
L 427.642445 -179.940846 
L 427.642445 -179.724196 
L 427.642446 -179.507545 
L 427.642448 -179.290894 
L 427.642453 -179.074244 
L 427.642461 -178.857593 
L 427.642475 -178.640943 
L 427.642498 -178.424292 
L 427.642536 -178.207641 
L 427.642596 -177.990991 
L 427.642691 -177.77434 
L 427.642836 -177.557689 
L 427.643056 -177.341039 
L 427.643382 -177.124388 
L 427.643855 -176.907737 
L 427.644529 -176.691087 
L 427.645472 -176.474436 
L 427.646764 -176.257785 
L 427.648499 -176.041135 
L 427.650784 -175.824484 
L 427.653732 -175.607833 
L 427.657457 -175.391183 
L 427.662065 -175.174532 
L 427.667644 -174.957881 
L 427.674249 -174.741231 
L 427.681895 -174.52458 
L 427.690537 -174.307929 
L 427.700071 -174.091279 
L 427.710324 -173.874628 
L 427.72106 -173.657977 
L 427.731992 -173.441327 
L 427.742803 -173.224676 
L 427.753179 -173.008026 
L 427.76285 -172.791375 
L 427.771637 -172.574724 
L 427.77951 -172.358074 
L 427.786647 -172.141423 
L 427.793496 -171.924772 
L 427.800833 -171.708122 
L 427.809826 -171.491471 
L 427.822076 -171.27482 
L 427.839667 -171.05817 
L 427.865186 -170.841519 
L 427.901722 -170.624868 
L 427.952838 -170.408218 
L 428.022497 -170.191567 
L 428.114923 -169.974916 
L 428.23441 -169.758266 
L 428.385047 -169.541615 
L 428.570374 -169.324964 
L 428.792975 -169.108314 
L 429.054036 -168.891663 
L 429.352902 -168.675012 
L 429.686676 -168.458362 
L 430.049932 -168.241711 
L 430.434585 -168.02506 
L 430.829981 -167.80841 
L 431.223224 -167.591759 
L 431.599772 -167.375109 
L 431.944249 -167.158458 
L 432.241447 -166.941807 
L 432.477409 -166.725157 
L 432.640497 -166.508506 
L 432.722332 -166.291855 
L 432.718496 -166.075205 
z
" style="stroke: #0f4d92; stroke-opacity: 0.18"/>
    </defs>
    <g clip-path="url(#p220de1acc3)">
     <use xlink:href="#md77de4af24" x="0" y="278.569654" style="fill: #0f4d92; fill-opacity: 0.18; stroke: #0f4d92; stroke-opacity: 0.18"/>
    </g>
   </g>
   <g id="FillBetweenPolyCollection_4">
    <defs>
     <path id="meb8c910601" d="M 478.856761 -166.075204 
L 468.789759 -166.075204 
L 468.74337 -166.078154 
L 468.76573 -166.081104 
L 468.855272 -166.084054 
L 469.007723 -166.087004 
L 469.216431 -166.089954 
L 469.472839 -166.092904 
L 469.767051 -166.095854 
L 470.088458 -166.098804 
L 470.426346 -166.101754 
L 470.770455 -166.104704 
L 471.111445 -166.107654 
L 471.441245 -166.110604 
L 471.753272 -166.113554 
L 472.042532 -166.116504 
L 472.305602 -166.119454 
L 472.54053 -166.122404 
L 472.746664 -166.125354 
L 472.924442 -166.128304 
L 473.075164 -166.131254 
L 473.20077 -166.134204 
L 473.30363 -166.137154 
L 473.386356 -166.140104 
L 473.451653 -166.143054 
L 473.502187 -166.146004 
L 473.540494 -166.148954 
L 473.568907 -166.151904 
L 473.58951 -166.154854 
L 473.604111 -166.157804 
L 473.614232 -166.160754 
L 473.621112 -166.163704 
L 473.625727 -166.166654 
L 473.628813 -166.169604 
L 473.630906 -166.172554 
L 473.632376 -166.175504 
L 473.633473 -166.178454 
L 473.634367 -166.181404 
L 473.635181 -166.184354 
L 473.636027 -166.187304 
L 473.637022 -166.190255 
L 473.638303 -166.193205 
L 473.640027 -166.196155 
L 473.642365 -166.199105 
L 473.645493 -166.202055 
L 473.649568 -166.205005 
L 473.654717 -166.207955 
L 473.661017 -166.210905 
L 473.668486 -166.213855 
L 473.677073 -166.216805 
L 473.686664 -166.219755 
L 473.697082 -166.222705 
L 473.708107 -166.225655 
L 473.719484 -166.228605 
L 473.730947 -166.231555 
L 473.742236 -166.234505 
L 473.753109 -166.237455 
L 473.763363 -166.240405 
L 473.772833 -166.243355 
L 473.781407 -166.246305 
L 473.78902 -166.249255 
L 473.795649 -166.252205 
L 473.801317 -166.255155 
L 473.806073 -166.258105 
L 473.809991 -166.261055 
L 473.813162 -166.264005 
L 473.815679 -166.266955 
L 473.81764 -166.269905 
L 473.819134 -166.272855 
L 473.820242 -166.275805 
L 473.821034 -166.278755 
L 473.821563 -166.281705 
L 473.821871 -166.284655 
L 473.821981 -166.287605 
L 473.821903 -166.290555 
L 473.821631 -166.293505 
L 473.821143 -166.296455 
L 473.8204 -166.299405 
L 473.819353 -166.302355 
L 473.817933 -166.305305 
L 473.816064 -166.308255 
L 473.813658 -166.311205 
L 473.810622 -166.314155 
L 473.806863 -166.317105 
L 473.802296 -166.320055 
L 473.79685 -166.323005 
L 473.790481 -166.325955 
L 473.783176 -166.328905 
L 473.774968 -166.331855 
L 473.76594 -166.334806 
L 473.75623 -166.337756 
L 473.746035 -166.340706 
L 473.735605 -166.343656 
L 473.725239 -166.346606 
L 473.715268 -166.349556 
L 473.706043 -166.352506 
L 473.697912 -166.355456 
L 473.6912 -166.358406 
L 473.686186 -166.361356 
L 473.683087 -166.364306 
L 473.682039 -166.367256 
L 473.964481 -166.367256 
L 473.964481 -166.367256 
L 473.963432 -166.364306 
L 473.960333 -166.361356 
L 473.95532 -166.358406 
L 473.948608 -166.355456 
L 473.940477 -166.352506 
L 473.931252 -166.349556 
L 473.921281 -166.346606 
L 473.910915 -166.343656 
L 473.900485 -166.340706 
L 473.89029 -166.337756 
L 473.88058 -166.334806 
L 473.871552 -166.331855 
L 473.863344 -166.328905 
L 473.856039 -166.325955 
L 473.849669 -166.323005 
L 473.844224 -166.320055 
L 473.839657 -166.317105 
L 473.835898 -166.314155 
L 473.832862 -166.311205 
L 473.830455 -166.308255 
L 473.828586 -166.305305 
L 473.827167 -166.302355 
L 473.826119 -166.299405 
L 473.825377 -166.296455 
L 473.824889 -166.293505 
L 473.824616 -166.290555 
L 473.824539 -166.287605 
L 473.824649 -166.284655 
L 473.824957 -166.281705 
L 473.825486 -166.278755 
L 473.826277 -166.275805 
L 473.827386 -166.272855 
L 473.82888 -166.269905 
L 473.83084 -166.266955 
L 473.833358 -166.264005 
L 473.836528 -166.261055 
L 473.840447 -166.258105 
L 473.845203 -166.255155 
L 473.85087 -166.252205 
L 473.8575 -166.249255 
L 473.865112 -166.246305 
L 473.873686 -166.243355 
L 473.883157 -166.240405 
L 473.89341 -166.237455 
L 473.904284 -166.234505 
L 473.915573 -166.231555 
L 473.927036 -166.228605 
L 473.938413 -166.225655 
L 473.949438 -166.222705 
L 473.959856 -166.219755 
L 473.969446 -166.216805 
L 473.978034 -166.213855 
L 473.985502 -166.210905 
L 473.991803 -166.207955 
L 473.996951 -166.205005 
L 474.001027 -166.202055 
L 474.004154 -166.199105 
L 474.006493 -166.196155 
L 474.008217 -166.193205 
L 474.009498 -166.190255 
L 474.010493 -166.187304 
L 474.011339 -166.184354 
L 474.012153 -166.181404 
L 474.013046 -166.178454 
L 474.014144 -166.175504 
L 474.015614 -166.172554 
L 474.017707 -166.169604 
L 474.020793 -166.166654 
L 474.025408 -166.163704 
L 474.032288 -166.160754 
L 474.042409 -166.157804 
L 474.05701 -166.154854 
L 474.077613 -166.151904 
L 474.106026 -166.148954 
L 474.144332 -166.146004 
L 474.194867 -166.143054 
L 474.260163 -166.140104 
L 474.34289 -166.137154 
L 474.445749 -166.134204 
L 474.571356 -166.131254 
L 474.722078 -166.128304 
L 474.899855 -166.125354 
L 475.105989 -166.122404 
L 475.340918 -166.119454 
L 475.603988 -166.116504 
L 475.893248 -166.113554 
L 476.205275 -166.110604 
L 476.535074 -166.107654 
L 476.876065 -166.104704 
L 477.220174 -166.101754 
L 477.558062 -166.098804 
L 477.879469 -166.095854 
L 478.173681 -166.092904 
L 478.430088 -166.089954 
L 478.638797 -166.087004 
L 478.791248 -166.084054 
L 478.880789 -166.081104 
L 478.90315 -166.078154 
L 478.856761 -166.075204 
z
" style="stroke: #0f4d92; stroke-opacity: 0.18"/>
    </defs>
    <g clip-path="url(#p220de1acc3)">
     <use xlink:href="#meb8c910601" x="0" y="278.569654" style="fill: #0f4d92; fill-opacity: 0.18; stroke: #0f4d92; stroke-opacity: 0.18"/>
    </g>
   </g>
   <g id="FillBetweenPolyCollection_5">
    <defs>
     <path id="m62b0fa31aa" d="M 347.35908 -168.730391 
L 347.216556 -168.730391 
L 347.213529 -169.617939 
L 347.211235 -170.505487 
L 347.20956 -171.393035 
L 347.208363 -172.280583 
L 347.207503 -173.168131 
L 347.206867 -174.055679 
L 347.206377 -174.943227 
L 347.206003 -175.830775 
L 347.205748 -176.718322 
L 347.205637 -177.60587 
L 347.205694 -178.493418 
L 347.205925 -179.380966 
L 347.206313 -180.268514 
L 347.206819 -181.156062 
L 347.207392 -182.04361 
L 347.207993 -182.931158 
L 347.20861 -183.818706 
L 347.20928 -184.706254 
L 347.21009 -185.593802 
L 347.211173 -186.48135 
L 347.212689 -187.368898 
L 347.214796 -188.256446 
L 347.21762 -189.143994 
L 347.221227 -190.031542 
L 347.225604 -190.919089 
L 347.230652 -191.806637 
L 347.236191 -192.694185 
L 347.241974 -193.581733 
L 347.247717 -194.469281 
L 347.253118 -195.356829 
L 347.257891 -196.244377 
L 347.261781 -197.131925 
L 347.264585 -198.019473 
L 347.26616 -198.907021 
L 347.266429 -199.794569 
L 347.265386 -200.682117 
L 347.263096 -201.569665 
L 347.259693 -202.457213 
L 347.255374 -203.344761 
L 347.250394 -204.232309 
L 347.245043 -205.119857 
L 347.239628 -206.007404 
L 347.234432 -206.894952 
L 347.229685 -207.7825 
L 347.225515 -208.670048 
L 347.221912 -209.557596 
L 347.218705 -210.445144 
L 347.215538 -211.332692 
L 347.211881 -212.22024 
L 347.207049 -213.107788 
L 347.200246 -213.995336 
L 347.190624 -214.882884 
L 347.177351 -215.770432 
L 347.159689 -216.65798 
L 347.137066 -217.545528 
L 347.109144 -218.433076 
L 347.075867 -219.320624 
L 347.037501 -220.208171 
L 346.99464 -221.095719 
L 346.948196 -221.983267 
L 346.899363 -222.870815 
L 346.849547 -223.758363 
L 346.800286 -224.645911 
L 346.753144 -225.533459 
L 346.709599 -226.421007 
L 346.670922 -227.308555 
L 346.638077 -228.196103 
L 346.611623 -229.083651 
L 346.591653 -229.971199 
L 346.577752 -230.858747 
L 346.568989 -231.746295 
L 346.563922 -232.633843 
L 346.560618 -233.521391 
L 346.556674 -234.408939 
L 346.549221 -235.296486 
L 346.534922 -236.184034 
L 346.509965 -237.071582 
L 346.470068 -237.95913 
L 346.410519 -238.846678 
L 346.326287 -239.734226 
L 346.21224 -240.621774 
L 346.06348 -241.509322 
L 345.875807 -242.39687 
L 345.646311 -243.284418 
L 345.374028 -244.171966 
L 345.060601 -245.059514 
L 344.710865 -245.947062 
L 344.333233 -246.83461 
L 343.939786 -247.722158 
L 343.545986 -248.609706 
L 343.169952 -249.497254 
L 342.831314 -250.384801 
L 342.549714 -251.272349 
L 342.343096 -252.159897 
L 342.225978 -253.047445 
L 342.207928 -253.934993 
L 342.292463 -254.822541 
L 342.476552 -255.710089 
L 342.750797 -256.597637 
L 351.824838 -256.597637 
L 351.824838 -256.597637 
L 352.099083 -255.710089 
L 352.283172 -254.822541 
L 352.367708 -253.934993 
L 352.349657 -253.047445 
L 352.232539 -252.159897 
L 352.025922 -251.272349 
L 351.744321 -250.384801 
L 351.405683 -249.497254 
L 351.029649 -248.609706 
L 350.635849 -247.722158 
L 350.242403 -246.83461 
L 349.864771 -245.947062 
L 349.515035 -245.059514 
L 349.201608 -244.171966 
L 348.929324 -243.284418 
L 348.699829 -242.39687 
L 348.512156 -241.509322 
L 348.363395 -240.621774 
L 348.249349 -239.734226 
L 348.165117 -238.846678 
L 348.105567 -237.95913 
L 348.06567 -237.071582 
L 348.040714 -236.184034 
L 348.026415 -235.296486 
L 348.018961 -234.408939 
L 348.015017 -233.521391 
L 348.011714 -232.633843 
L 348.006646 -231.746295 
L 347.997883 -230.858747 
L 347.983982 -229.971199 
L 347.964012 -229.083651 
L 347.937558 -228.196103 
L 347.904713 -227.308555 
L 347.866037 -226.421007 
L 347.822491 -225.533459 
L 347.775349 -224.645911 
L 347.726088 -223.758363 
L 347.676273 -222.870815 
L 347.627439 -221.983267 
L 347.580996 -221.095719 
L 347.538135 -220.208171 
L 347.499768 -219.320624 
L 347.466492 -218.433076 
L 347.438569 -217.545528 
L 347.415946 -216.65798 
L 347.398285 -215.770432 
L 347.385012 -214.882884 
L 347.375389 -213.995336 
L 347.368586 -213.107788 
L 347.363754 -212.22024 
L 347.360097 -211.332692 
L 347.356931 -210.445144 
L 347.353723 -209.557596 
L 347.350121 -208.670048 
L 347.34595 -207.7825 
L 347.341203 -206.894952 
L 347.336008 -206.007404 
L 347.330592 -205.119857 
L 347.325242 -204.232309 
L 347.320262 -203.344761 
L 347.315943 -202.457213 
L 347.312539 -201.569665 
L 347.310249 -200.682117 
L 347.309207 -199.794569 
L 347.309476 -198.907021 
L 347.311051 -198.019473 
L 347.313855 -197.131925 
L 347.317745 -196.244377 
L 347.322518 -195.356829 
L 347.327919 -194.469281 
L 347.333661 -193.581733 
L 347.339445 -192.694185 
L 347.344983 -191.806637 
L 347.350031 -190.919089 
L 347.354409 -190.031542 
L 347.358016 -189.143994 
L 347.36084 -188.256446 
L 347.362946 -187.368898 
L 347.364462 -186.48135 
L 347.365546 -185.593802 
L 347.366356 -184.706254 
L 347.367026 -183.818706 
L 347.367643 -182.931158 
L 347.368243 -182.04361 
L 347.368817 -181.156062 
L 347.369322 -180.268514 
L 347.369711 -179.380966 
L 347.369942 -178.493418 
L 347.369998 -177.60587 
L 347.369887 -176.718322 
L 347.369633 -175.830775 
L 347.369259 -174.943227 
L 347.368769 -174.055679 
L 347.368132 -173.168131 
L 347.367273 -172.280583 
L 347.366076 -171.393035 
L 347.364401 -170.505487 
L 347.362107 -169.617939 
L 347.35908 -168.730391 
z
" style="stroke: #b64342; stroke-opacity: 0.18"/>
    </defs>
    <g clip-path="url(#p220de1acc3)">
     <use xlink:href="#m62b0fa31aa" x="0" y="278.569654" style="fill: #b64342; fill-opacity: 0.18; stroke: #b64342; stroke-opacity: 0.18"/>
    </g>
   </g>
   <g id="FillBetweenPolyCollection_6">
    <defs>
     <path id="m7d25b738a8" d="M 398.221118 -166.075385 
L 388.716154 -166.075385 
L 388.63488 -166.986473 
L 388.564438 -167.897562 
L 388.505314 -168.80865 
L 388.457911 -169.719739 
L 388.422547 -170.630827 
L 388.399448 -171.541915 
L 388.388746 -172.453004 
L 388.390479 -173.364092 
L 388.404588 -174.275181 
L 388.43092 -175.186269 
L 388.469229 -176.097357 
L 388.519176 -177.008446 
L 388.58034 -177.919534 
L 388.652218 -178.830623 
L 388.734232 -179.741711 
L 388.825735 -180.652799 
L 388.926024 -181.563888 
L 389.03434 -182.474976 
L 389.149884 -183.386065 
L 389.271822 -184.297153 
L 389.399295 -185.208241 
L 389.531429 -186.11933 
L 389.667341 -187.030418 
L 389.806152 -187.941507 
L 389.946991 -188.852595 
L 390.089009 -189.763684 
L 390.231376 -190.674772 
L 390.373299 -191.58586 
L 390.514019 -192.496949 
L 390.652821 -193.408037 
L 390.789035 -194.319126 
L 390.922042 -195.230214 
L 391.051276 -196.141302 
L 391.176222 -197.052391 
L 391.296422 -197.963479 
L 391.411473 -198.874568 
L 391.521025 -199.785656 
L 391.624782 -200.696744 
L 391.7225 -201.607833 
L 391.813985 -202.518921 
L 391.899087 -203.43001 
L 391.977704 -204.341098 
L 392.049772 -205.252186 
L 392.115268 -206.163275 
L 392.174201 -207.074363 
L 392.226614 -207.985452 
L 392.272575 -208.89654 
L 392.312182 -209.807628 
L 392.345553 -210.718717 
L 392.372827 -211.629805 
L 392.394159 -212.540894 
L 392.409723 -213.451982 
L 392.419703 -214.36307 
L 392.424298 -215.274159 
L 392.423718 -216.185247 
L 392.418181 -217.096336 
L 392.407916 -218.007424 
L 392.393161 -218.918512 
L 392.37416 -219.829601 
L 392.351168 -220.740689 
L 392.324445 -221.651778 
L 392.294263 -222.562866 
L 392.260897 -223.473954 
L 392.224634 -224.385043 
L 392.185768 -225.296131 
L 392.1446 -226.20722 
L 392.10144 -227.118308 
L 392.056604 -228.029397 
L 392.010418 -228.940485 
L 391.963211 -229.851573 
L 391.915319 -230.762662 
L 391.867084 -231.67375 
L 391.81885 -232.584839 
L 391.770964 -233.495927 
L 391.723772 -234.407015 
L 391.677621 -235.318104 
L 391.632851 -236.229192 
L 391.589802 -237.140281 
L 391.5488 -238.051369 
L 391.510167 -238.962457 
L 391.474208 -239.873546 
L 391.441216 -240.784634 
L 391.411464 -241.695723 
L 391.385209 -242.606811 
L 391.362682 -243.517899 
L 391.344092 -244.428988 
L 391.329622 -245.340076 
L 391.319426 -246.251165 
L 391.313627 -247.162253 
L 391.31232 -248.073341 
L 391.315567 -248.98443 
L 391.323395 -249.895518 
L 391.335801 -250.806607 
L 391.352747 -251.717695 
L 391.374164 -252.628783 
L 391.399949 -253.539872 
L 391.42997 -254.45096 
L 391.464063 -255.362049 
L 391.502039 -256.273137 
L 395.435233 -256.273137 
L 395.435233 -256.273137 
L 395.473209 -255.362049 
L 395.507303 -254.45096 
L 395.537323 -253.539872 
L 395.563108 -252.628783 
L 395.584525 -251.717695 
L 395.601471 -250.806607 
L 395.613877 -249.895518 
L 395.621706 -248.98443 
L 395.624952 -248.073341 
L 395.623645 -247.162253 
L 395.617846 -246.251165 
L 395.60765 -245.340076 
L 395.59318 -244.428988 
L 395.57459 -243.517899 
L 395.552063 -242.606811 
L 395.525808 -241.695723 
L 395.496056 -240.784634 
L 395.463064 -239.873546 
L 395.427105 -238.962457 
L 395.388472 -238.051369 
L 395.34747 -237.140281 
L 395.304421 -236.229192 
L 395.259651 -235.318104 
L 395.2135 -234.407015 
L 395.166308 -233.495927 
L 395.118422 -232.584839 
L 395.070188 -231.67375 
L 395.021953 -230.762662 
L 394.974061 -229.851573 
L 394.926854 -228.940485 
L 394.880668 -228.029397 
L 394.835832 -227.118308 
L 394.792672 -226.20722 
L 394.751504 -225.296131 
L 394.712638 -224.385043 
L 394.676375 -223.473954 
L 394.64301 -222.562866 
L 394.612827 -221.651778 
L 394.586104 -220.740689 
L 394.563112 -219.829601 
L 394.544111 -218.918512 
L 394.529356 -218.007424 
L 394.519091 -217.096336 
L 394.513554 -216.185247 
L 394.512974 -215.274159 
L 394.517569 -214.36307 
L 394.527549 -213.451982 
L 394.543113 -212.540894 
L 394.564445 -211.629805 
L 394.591719 -210.718717 
L 394.62509 -209.807628 
L 394.664697 -208.89654 
L 394.710659 -207.985452 
L 394.763071 -207.074363 
L 394.822004 -206.163275 
L 394.8875 -205.252186 
L 394.959568 -204.341098 
L 395.038185 -203.43001 
L 395.123287 -202.518921 
L 395.214772 -201.607833 
L 395.31249 -200.696744 
L 395.416247 -199.785656 
L 395.525799 -198.874568 
L 395.64085 -197.963479 
L 395.76105 -197.052391 
L 395.885996 -196.141302 
L 396.01523 -195.230214 
L 396.148237 -194.319126 
L 396.284451 -193.408037 
L 396.423253 -192.496949 
L 396.563973 -191.58586 
L 396.705896 -190.674772 
L 396.848264 -189.763684 
L 396.990281 -188.852595 
L 397.13112 -187.941507 
L 397.269931 -187.030418 
L 397.405843 -186.11933 
L 397.537977 -185.208241 
L 397.66545 -184.297153 
L 397.787388 -183.386065 
L 397.902932 -182.474976 
L 398.011248 -181.563888 
L 398.111537 -180.652799 
L 398.20304 -179.741711 
L 398.285054 -178.830623 
L 398.356932 -177.919534 
L 398.418096 -177.008446 
L 398.468044 -176.097357 
L 398.506352 -175.186269 
L 398.532684 -174.275181 
L 398.546793 -173.364092 
L 398.548526 -172.453004 
L 398.537824 -171.541915 
L 398.514725 -170.630827 
L 398.479361 -169.719739 
L 398.431958 -168.80865 
L 398.372834 -167.897562 
L 398.302392 -166.986473 
L 398.221118 -166.075385 
z
" style="stroke: #b64342; stroke-opacity: 0.18"/>
    </defs>
    <g clip-path="url(#p220de1acc3)">
     <use xlink:href="#m7d25b738a8" x="0" y="278.569654" style="fill: #b64342; fill-opacity: 0.18; stroke: #b64342; stroke-opacity: 0.18"/>
    </g>
   </g>
   <g id="FillBetweenPolyCollection_7">
    <defs>
     <path id="ma1404f9fa4" d="M 443.519169 -166.752938 
L 435.77974 -166.752938 
L 435.600842 -166.903386 
L 435.432293 -167.053835 
L 435.275665 -167.204283 
L 435.132379 -167.354731 
L 435.003675 -167.50518 
L 434.89059 -167.655628 
L 434.793943 -167.806077 
L 434.714321 -167.956525 
L 434.652075 -168.106974 
L 434.607316 -168.257422 
L 434.579926 -168.407871 
L 434.569564 -168.558319 
L 434.575683 -168.708768 
L 434.597548 -168.859216 
L 434.634255 -169.009664 
L 434.684762 -169.160113 
L 434.747911 -169.310561 
L 434.822452 -169.46101 
L 434.907075 -169.611458 
L 435.000432 -169.761907 
L 435.101165 -169.912355 
L 435.207923 -170.062804 
L 435.319386 -170.213252 
L 435.434281 -170.3637 
L 435.551396 -170.514149 
L 435.669595 -170.664597 
L 435.78782 -170.815046 
L 435.905103 -170.965494 
L 436.020568 -171.115943 
L 436.133433 -171.266391 
L 436.24301 -171.41684 
L 436.348706 -171.567288 
L 436.45002 -171.717736 
L 436.54654 -171.868185 
L 436.637944 -172.018633 
L 436.723994 -172.169082 
L 436.804538 -172.31953 
L 436.879506 -172.469979 
L 436.948907 -172.620427 
L 437.01283 -172.770876 
L 437.071441 -172.921324 
L 437.124978 -173.071773 
L 437.173752 -173.222221 
L 437.21814 -173.372669 
L 437.25858 -173.523118 
L 437.295564 -173.673566 
L 437.329631 -173.824015 
L 437.361357 -173.974463 
L 437.39134 -174.124912 
L 437.420193 -174.27536 
L 437.448529 -174.425809 
L 437.476942 -174.576257 
L 437.506001 -174.726705 
L 437.53623 -174.877154 
L 437.568095 -175.027602 
L 437.601996 -175.178051 
L 437.638252 -175.328499 
L 437.677095 -175.478948 
L 437.718663 -175.629396 
L 437.763 -175.779845 
L 437.810053 -175.930293 
L 437.859673 -176.080741 
L 437.911627 -176.23119 
L 437.9656 -176.381638 
L 438.021207 -176.532087 
L 438.078011 -176.682535 
L 438.135529 -176.832984 
L 438.193255 -176.983432 
L 438.250671 -177.133881 
L 438.307264 -177.284329 
L 438.362544 -177.434778 
L 438.416054 -177.585226 
L 438.467386 -177.735674 
L 438.516191 -177.886123 
L 438.562186 -178.036571 
L 438.605161 -178.18702 
L 438.644985 -178.337468 
L 438.681602 -178.487917 
L 438.715035 -178.638365 
L 438.745377 -178.788814 
L 438.772791 -178.939262 
L 438.797497 -179.08971 
L 438.819765 -179.240159 
L 438.839908 -179.390607 
L 438.858264 -179.541056 
L 438.875195 -179.691504 
L 438.891065 -179.841953 
L 438.906239 -179.992401 
L 438.921066 -180.14285 
L 438.935875 -180.293298 
L 438.950965 -180.443746 
L 438.966597 -180.594195 
L 438.982992 -180.744643 
L 439.000327 -180.895092 
L 439.018729 -181.04554 
L 439.038279 -181.195989 
L 439.059011 -181.346437 
L 439.080913 -181.496886 
L 439.103931 -181.647334 
L 440.194978 -181.647334 
L 440.194978 -181.647334 
L 440.217996 -181.496886 
L 440.239898 -181.346437 
L 440.26063 -181.195989 
L 440.28018 -181.04554 
L 440.298582 -180.895092 
L 440.315916 -180.744643 
L 440.332312 -180.594195 
L 440.347944 -180.443746 
L 440.363033 -180.293298 
L 440.377843 -180.14285 
L 440.39267 -179.992401 
L 440.407844 -179.841953 
L 440.423714 -179.691504 
L 440.440644 -179.541056 
L 440.459001 -179.390607 
L 440.479143 -179.240159 
L 440.501412 -179.08971 
L 440.526117 -178.939262 
L 440.553531 -178.788814 
L 440.583874 -178.638365 
L 440.617307 -178.487917 
L 440.653924 -178.337468 
L 440.693747 -178.18702 
L 440.736723 -178.036571 
L 440.782718 -177.886123 
L 440.831522 -177.735674 
L 440.882855 -177.585226 
L 440.936365 -177.434778 
L 440.991645 -177.284329 
L 441.048238 -177.133881 
L 441.105654 -176.983432 
L 441.163379 -176.832984 
L 441.220898 -176.682535 
L 441.277701 -176.532087 
L 441.333309 -176.381638 
L 441.387281 -176.23119 
L 441.439235 -176.080741 
L 441.488856 -175.930293 
L 441.535908 -175.779845 
L 441.580246 -175.629396 
L 441.621814 -175.478948 
L 441.660657 -175.328499 
L 441.696912 -175.178051 
L 441.730813 -175.027602 
L 441.762679 -174.877154 
L 441.792907 -174.726705 
L 441.821966 -174.576257 
L 441.85038 -174.425809 
L 441.878715 -174.27536 
L 441.907569 -174.124912 
L 441.937552 -173.974463 
L 441.969277 -173.824015 
L 442.003345 -173.673566 
L 442.040329 -173.523118 
L 442.080769 -173.372669 
L 442.125157 -173.222221 
L 442.173931 -173.071773 
L 442.227468 -172.921324 
L 442.286079 -172.770876 
L 442.350002 -172.620427 
L 442.419403 -172.469979 
L 442.494371 -172.31953 
L 442.574915 -172.169082 
L 442.660965 -172.018633 
L 442.752369 -171.868185 
L 442.848889 -171.717736 
L 442.950202 -171.567288 
L 443.055898 -171.41684 
L 443.165476 -171.266391 
L 443.278341 -171.115943 
L 443.393806 -170.965494 
L 443.511089 -170.815046 
L 443.629314 -170.664597 
L 443.747512 -170.514149 
L 443.864628 -170.3637 
L 443.979523 -170.213252 
L 444.090986 -170.062804 
L 444.197744 -169.912355 
L 444.298476 -169.761907 
L 444.391834 -169.611458 
L 444.476457 -169.46101 
L 444.550998 -169.310561 
L 444.614146 -169.160113 
L 444.664654 -169.009664 
L 444.701361 -168.859216 
L 444.723225 -168.708768 
L 444.729344 -168.558319 
L 444.718983 -168.407871 
L 444.691593 -168.257422 
L 444.646834 -168.106974 
L 444.584587 -167.956525 
L 444.504965 -167.806077 
L 444.408318 -167.655628 
L 444.295234 -167.50518 
L 444.16653 -167.354731 
L 444.023244 -167.204283 
L 443.866616 -167.053835 
L 443.698066 -166.903386 
L 443.519169 -166.752938 
z
" style="stroke: #b64342; stroke-opacity: 0.18"/>
    </defs>
    <g clip-path="url(#p220de1acc3)">
     <use xlink:href="#ma1404f9fa4" x="0" y="278.569654" style="fill: #b64342; fill-opacity: 0.18; stroke: #b64342; stroke-opacity: 0.18"/>
    </g>
   </g>
   <g id="FillBetweenPolyCollection_8">
    <defs>
     <path id="m4dacc33ae0" d="M 490.203833 -166.133481 
L 481.456712 -166.133481 
L 481.261929 -166.225905 
L 481.094414 -166.318329 
L 480.957349 -166.410754 
L 480.853264 -166.503178 
L 480.783945 -166.595602 
L 480.750383 -166.688026 
L 480.752745 -166.78045 
L 480.790384 -166.872875 
L 480.861873 -166.965299 
L 480.965074 -167.057723 
L 481.097228 -167.150147 
L 481.255067 -167.242572 
L 481.434935 -167.334996 
L 481.632922 -167.42742 
L 481.844996 -167.519844 
L 482.067129 -167.612268 
L 482.295411 -167.704693 
L 482.526158 -167.797117 
L 482.755992 -167.889541 
L 482.981907 -167.981965 
L 483.201312 -168.07439 
L 483.412059 -168.166814 
L 483.612443 -168.259238 
L 483.801197 -168.351662 
L 483.97746 -168.444086 
L 484.140746 -168.536511 
L 484.290898 -168.628935 
L 484.428036 -168.721359 
L 484.552511 -168.813783 
L 484.664848 -168.906208 
L 484.765703 -168.998632 
L 484.855816 -169.091056 
L 484.935971 -169.18348 
L 485.00697 -169.275905 
L 485.069598 -169.368329 
L 485.124611 -169.460753 
L 485.172718 -169.553177 
L 485.214577 -169.645601 
L 485.250788 -169.738026 
L 485.281898 -169.83045 
L 485.308404 -169.922874 
L 485.330761 -170.015298 
L 485.349387 -170.107723 
L 485.364677 -170.200147 
L 485.377006 -170.292571 
L 485.386742 -170.384995 
L 485.394247 -170.477419 
L 485.399886 -170.569844 
L 485.404024 -170.662268 
L 485.40703 -170.754692 
L 485.409267 -170.847116 
L 485.411095 -170.939541 
L 485.412856 -171.031965 
L 485.414869 -171.124389 
L 485.417422 -171.216813 
L 485.420757 -171.309237 
L 485.425067 -171.401662 
L 485.430488 -171.494086 
L 485.437089 -171.58651 
L 485.444878 -171.678934 
L 485.453798 -171.771359 
L 485.46373 -171.863783 
L 485.474505 -171.956207 
L 485.485909 -172.048631 
L 485.497696 -172.141055 
L 485.509603 -172.23348 
L 485.521364 -172.325904 
L 485.532719 -172.418328 
L 485.543432 -172.510752 
L 485.5533 -172.603177 
L 485.562161 -172.695601 
L 485.569897 -172.788025 
L 485.576444 -172.880449 
L 485.581785 -172.972874 
L 485.585947 -173.065298 
L 485.589001 -173.157722 
L 485.591049 -173.250146 
L 485.592219 -173.34257 
L 485.592656 -173.434995 
L 485.59251 -173.527419 
L 485.591933 -173.619843 
L 485.59107 -173.712267 
L 485.590056 -173.804692 
L 485.58901 -173.897116 
L 485.588038 -173.98954 
L 485.587229 -174.081964 
L 485.586661 -174.174388 
L 485.586401 -174.266813 
L 485.586509 -174.359237 
L 485.587041 -174.451661 
L 485.588051 -174.544085 
L 485.589592 -174.63651 
L 485.591719 -174.728934 
L 485.594486 -174.821358 
L 485.597945 -174.913782 
L 485.602141 -175.006206 
L 485.607115 -175.098631 
L 485.612892 -175.191055 
L 485.619485 -175.283479 
L 486.041061 -175.283479 
L 486.041061 -175.283479 
L 486.047653 -175.191055 
L 486.05343 -175.098631 
L 486.058404 -175.006206 
L 486.0626 -174.913782 
L 486.066059 -174.821358 
L 486.068826 -174.728934 
L 486.070953 -174.63651 
L 486.072495 -174.544085 
L 486.073504 -174.451661 
L 486.074036 -174.359237 
L 486.074144 -174.266813 
L 486.073885 -174.174388 
L 486.073316 -174.081964 
L 486.072508 -173.98954 
L 486.071535 -173.897116 
L 486.070489 -173.804692 
L 486.069475 -173.712267 
L 486.068613 -173.619843 
L 486.068036 -173.527419 
L 486.06789 -173.434995 
L 486.068326 -173.34257 
L 486.069496 -173.250146 
L 486.071544 -173.157722 
L 486.074598 -173.065298 
L 486.078761 -172.972874 
L 486.084101 -172.880449 
L 486.090648 -172.788025 
L 486.098385 -172.695601 
L 486.107245 -172.603177 
L 486.117113 -172.510752 
L 486.127826 -172.418328 
L 486.139181 -172.325904 
L 486.150942 -172.23348 
L 486.162849 -172.141055 
L 486.174637 -172.048631 
L 486.18604 -171.956207 
L 486.196815 -171.863783 
L 486.206748 -171.771359 
L 486.215667 -171.678934 
L 486.223456 -171.58651 
L 486.230058 -171.494086 
L 486.235478 -171.401662 
L 486.239788 -171.309237 
L 486.243123 -171.216813 
L 486.245676 -171.124389 
L 486.24769 -171.031965 
L 486.249451 -170.939541 
L 486.251278 -170.847116 
L 486.253516 -170.754692 
L 486.256521 -170.662268 
L 486.260659 -170.569844 
L 486.266298 -170.477419 
L 486.273803 -170.384995 
L 486.283539 -170.292571 
L 486.295868 -170.200147 
L 486.311158 -170.107723 
L 486.329784 -170.015298 
L 486.352141 -169.922874 
L 486.378647 -169.83045 
L 486.409758 -169.738026 
L 486.445969 -169.645601 
L 486.487827 -169.553177 
L 486.535934 -169.460753 
L 486.590947 -169.368329 
L 486.653575 -169.275905 
L 486.724574 -169.18348 
L 486.80473 -169.091056 
L 486.894842 -168.998632 
L 486.995697 -168.906208 
L 487.108034 -168.813783 
L 487.232509 -168.721359 
L 487.369647 -168.628935 
L 487.519799 -168.536511 
L 487.683085 -168.444086 
L 487.859348 -168.351662 
L 488.048102 -168.259238 
L 488.248486 -168.166814 
L 488.459233 -168.07439 
L 488.678639 -167.981965 
L 488.904553 -167.889541 
L 489.134387 -167.797117 
L 489.365134 -167.704693 
L 489.593416 -167.612268 
L 489.815549 -167.519844 
L 490.027623 -167.42742 
L 490.22561 -167.334996 
L 490.405478 -167.242572 
L 490.563317 -167.150147 
L 490.695471 -167.057723 
L 490.798672 -166.965299 
L 490.870161 -166.872875 
L 490.9078 -166.78045 
L 490.910163 -166.688026 
L 490.8766 -166.595602 
L 490.807281 -166.503178 
L 490.703196 -166.410754 
L 490.566131 -166.318329 
L 490.398616 -166.225905 
L 490.203833 -166.133481 
z
" style="stroke: #b64342; stroke-opacity: 0.18"/>
    </defs>
    <g clip-path="url(#p220de1acc3)">
     <use xlink:href="#m4dacc33ae0" x="0" y="278.569654" style="fill: #b64342; fill-opacity: 0.18; stroke: #b64342; stroke-opacity: 0.18"/>
    </g>
   </g>
   <g id="matplotlib.axis_3">
    <g id="xtick_7">
     <g id="line2d_30">
      <g>
       <use xlink:href="#ma9d13fc764" x="341.284311" y="115.210125" style="fill: #252525; stroke: #252525; stroke-width: 0.8"/>
      </g>
     </g>
     <g id="text_18">
      <text style="font-size: 7.5px; font-family: 'Arial', 'Helvetica', 'DejaVu Sans', 'Liberation Sans', sans-serif; text-anchor: middle; fill: #252525" x="341.284311" y="127.578484" transform="rotate(-0 341.284311 127.578484)">acc.</text>
     </g>
    </g>
    <g id="xtick_8">
     <g id="line2d_31">
      <g>
       <use xlink:href="#ma9d13fc764" x="387.46513" y="115.210125" style="fill: #252525; stroke: #252525; stroke-width: 0.8"/>
      </g>
     </g>
     <g id="text_19">
      <text style="font-size: 7.5px; font-family: 'Arial', 'Helvetica', 'DejaVu Sans', 'Liberation Sans', sans-serif; fill: #252525" transform="translate(380.170794 127.578484)">orig.</text>
      <text style="font-size: 7.5px; font-family: 'Arial', 'Helvetica', 'DejaVu Sans', 'Liberation Sans', sans-serif; fill: #252525" transform="translate(376.417278 135.599031)">unacc.</text>
     </g>
    </g>
    <g id="xtick_9">
     <g id="line2d_32">
      <g>
       <use xlink:href="#ma9d13fc764" x="433.645948" y="115.210125" style="fill: #252525; stroke: #252525; stroke-width: 0.8"/>
      </g>
     </g>
     <g id="text_20">
      <text style="font-size: 7.5px; font-family: 'Arial', 'Helvetica', 'DejaVu Sans', 'Liberation Sans', sans-serif; text-anchor: middle; fill: #252525" x="433.645948" y="127.578484" transform="rotate(-0 433.645948 127.578484)">em</text>
     </g>
    </g>
    <g id="xtick_10">
     <g id="line2d_33">
      <g>
       <use xlink:href="#ma9d13fc764" x="479.826766" y="115.210125" style="fill: #252525; stroke: #252525; stroke-width: 0.8"/>
      </g>
     </g>
     <g id="text_21">
      <text style="font-size: 7.5px; font-family: 'Arial', 'Helvetica', 'DejaVu Sans', 'Liberation Sans', sans-serif; text-anchor: middle; fill: #252525" x="479.826766" y="127.578484" transform="rotate(-0 479.826766 127.578484)">ma</text>
     </g>
    </g>
   </g>
   <g id="matplotlib.axis_4">
    <g id="ytick_7">
     <g id="line2d_34">
      <g>
       <use xlink:href="#m5357596ef1" x="322.165453" y="112.49445" style="fill: #252525; stroke: #252525; stroke-width: 0.8"/>
      </g>
     </g>
     <g id="text_22">
      <text style="font-size: 7.5px; font-family: 'Arial', 'Helvetica', 'DejaVu Sans', 'Liberation Sans', sans-serif; text-anchor: end; fill: #252525" x="315.165453" y="115.17863" transform="rotate(-0 315.165453 115.17863)">0.0</text>
     </g>
    </g>
    <g id="ytick_8">
     <g id="line2d_35">
      <g>
       <use xlink:href="#m5357596ef1" x="322.165453" y="94.389951" style="fill: #252525; stroke: #252525; stroke-width: 0.8"/>
      </g>
     </g>
     <g id="text_23">
      <text style="font-size: 7.5px; font-family: 'Arial', 'Helvetica', 'DejaVu Sans', 'Liberation Sans', sans-serif; text-anchor: end; fill: #252525" x="315.165453" y="97.074131" transform="rotate(-0 315.165453 97.074131)">0.2</text>
     </g>
    </g>
    <g id="ytick_9">
     <g id="line2d_36">
      <g>
       <use xlink:href="#m5357596ef1" x="322.165453" y="76.285452" style="fill: #252525; stroke: #252525; stroke-width: 0.8"/>
      </g>
     </g>
     <g id="text_24">
      <text style="font-size: 7.5px; font-family: 'Arial', 'Helvetica', 'DejaVu Sans', 'Liberation Sans', sans-serif; text-anchor: end; fill: #252525" x="315.165453" y="78.969631" transform="rotate(-0 315.165453 78.969631)">0.4</text>
     </g>
    </g>
    <g id="ytick_10">
     <g id="line2d_37">
      <g>
       <use xlink:href="#m5357596ef1" x="322.165453" y="58.180952" style="fill: #252525; stroke: #252525; stroke-width: 0.8"/>
      </g>
     </g>
     <g id="text_25">
      <text style="font-size: 7.5px; font-family: 'Arial', 'Helvetica', 'DejaVu Sans', 'Liberation Sans', sans-serif; text-anchor: end; fill: #252525" x="315.165453" y="60.865132" transform="rotate(-0 315.165453 60.865132)">0.6</text>
     </g>
    </g>
    <g id="ytick_11">
     <g id="line2d_38">
      <g>
       <use xlink:href="#m5357596ef1" x="322.165453" y="40.076453" style="fill: #252525; stroke: #252525; stroke-width: 0.8"/>
      </g>
     </g>
     <g id="text_26">
      <text style="font-size: 7.5px; font-family: 'Arial', 'Helvetica', 'DejaVu Sans', 'Liberation Sans', sans-serif; text-anchor: end; fill: #252525" x="315.165453" y="42.760633" transform="rotate(-0 315.165453 42.760633)">0.8</text>
     </g>
    </g>
    <g id="ytick_12">
     <g id="line2d_39">
      <g>
       <use xlink:href="#m5357596ef1" x="322.165453" y="21.971954" style="fill: #252525; stroke: #252525; stroke-width: 0.8"/>
      </g>
     </g>
     <g id="text_27">
      <text style="font-size: 7.5px; font-family: 'Arial', 'Helvetica', 'DejaVu Sans', 'Liberation Sans', sans-serif; text-anchor: end; fill: #252525" x="315.165453" y="24.656133" transform="rotate(-0 315.165453 24.656133)">1.0</text>
     </g>
    </g>
    <g id="text_28">
     <text style="font-size: 7.5px; font-family: 'Arial', 'Helvetica', 'DejaVu Sans', 'Liberation Sans', sans-serif; text-anchor: middle; fill: #252525" x="299.249828" y="67.233202" transform="rotate(-90 299.249828 67.233202)">Model score</text>
    </g>
   </g>
   <g id="patch_6">
    <path d="M 322.165453 115.210125 
L 322.165453 19.256279 
" style="fill: none; stroke: #252525; stroke-width: 0.75; stroke-linejoin: miter; stroke-linecap: square"/>
   </g>
   <g id="patch_7">
    <path d="M 322.165453 115.210125 
L 498.945625 115.210125 
" style="fill: none; stroke: #252525; stroke-width: 0.75; stroke-linejoin: miter; stroke-linecap: square"/>
   </g>
   <g id="PathCollection_1">
    <defs>
     <path id="mc95ff0ceb4" d="M 0 1.732051 
C 0.459345 1.732051 0.899939 1.549551 1.224745 1.224745 
C 1.549551 0.899939 1.732051 0.459345 1.732051 0 
C 1.732051 -0.459345 1.549551 -0.899939 1.224745 -1.224745 
C 0.899939 -1.549551 0.459345 -1.732051 0 -1.732051 
C -0.459345 -1.732051 -0.899939 -1.549551 -1.224745 -1.224745 
C -1.549551 -0.899939 -1.732051 -0.459345 -1.732051 0 
C -1.732051 0.459345 -1.549551 0.899939 -1.224745 1.224745 
C -0.899939 1.549551 -0.459345 1.732051 0 1.732051 
z
" style="stroke: #0f4d92"/>
    </defs>
    <g clip-path="url(#p220de1acc3)">
     <use xlink:href="#mc95ff0ceb4" x="335.280805" y="21.979116" style="fill: #0f4d92; stroke: #0f4d92"/>
     <use xlink:href="#mc95ff0ceb4" x="381.461623" y="112.48318" style="fill: #0f4d92; stroke: #0f4d92"/>
     <use xlink:href="#mc95ff0ceb4" x="427.642442" y="112.474883" style="fill: #0f4d92; stroke: #0f4d92"/>
     <use xlink:href="#mc95ff0ceb4" x="473.82326" y="112.494057" style="fill: #0f4d92; stroke: #0f4d92"/>
    </g>
   </g>
   <g id="PathCollection_2">
    <defs>
     <path id="m796909ea21" d="M 0 1.732051 
C 0.459345 1.732051 0.899939 1.549551 1.224745 1.224745 
C 1.549551 0.899939 1.732051 0.459345 1.732051 0 
C 1.732051 -0.459345 1.549551 -0.899939 1.224745 -1.224745 
C 0.899939 -1.549551 0.459345 -1.732051 0 -1.732051 
C -0.459345 -1.732051 -0.899939 -1.549551 -1.224745 -1.224745 
C -1.549551 -0.899939 -1.732051 -0.459345 -1.732051 0 
C -1.732051 0.459345 -1.549551 0.899939 -1.224745 1.224745 
C -0.899939 1.549551 -0.459345 1.732051 0 1.732051 
z
" style="stroke: #b64342"/>
    </defs>
    <g clip-path="url(#p220de1acc3)">
     <use xlink:href="#m796909ea21" x="347.287818" y="25.443652" style="fill: #b64342; stroke: #b64342"/>
     <use xlink:href="#m796909ea21" x="393.468636" y="103.481953" style="fill: #b64342; stroke: #b64342"/>
     <use xlink:href="#m796909ea21" x="439.649454" y="108.973439" style="fill: #b64342; stroke: #b64342"/>
     <use xlink:href="#m796909ea21" x="485.830273" y="111.835513" style="fill: #b64342; stroke: #b64342"/>
    </g>
   </g>
   <g id="text_29">
    <text style="font-weight: 700; font-size: 9px; font-family: 'Arial', 'Helvetica', 'DejaVu Sans', 'Liberation Sans', sans-serif; text-anchor: start; fill: #252525" x="299.18403" y="13.642031" transform="rotate(-0 299.18403 13.642031)">b</text>
   </g>
   <g id="legend_2">
    <g id="PathCollection_3">
     <g>
      <use xlink:href="#mc95ff0ceb4" x="466.916188" y="27.095196" style="fill: #0f4d92; stroke: #0f4d92"/>
     </g>
    </g>
    <g id="text_30">
     <text style="font-size: 7.5px; font-family: 'Arial', 'Helvetica', 'DejaVu Sans', 'Liberation Sans', sans-serif; text-anchor: start" x="477.041188" y="29.063946" transform="rotate(-0 477.041188 29.063946)">MLP</text>
    </g>
    <g id="PathCollection_4">
     <g>
      <use xlink:href="#m796909ea21" x="466.916188" y="36.57918" style="fill: #b64342; stroke: #b64342"/>
     </g>
    </g>
    <g id="text_31">
     <text style="font-size: 7.5px; font-family: 'Arial', 'Helvetica', 'DejaVu Sans', 'Liberation Sans', sans-serif; text-anchor: start" x="477.041188" y="38.54793" transform="rotate(-0 477.041188 38.54793)">SVM</text>
    </g>
   </g>
  </g>
  <g id="axes_3">
   <g id="patch_8">
    <path d="M 88.815625 246.560279 
L 498.945625 246.560279 
L 498.945625 157.714125 
L 88.815625 157.714125 
z
" style="fill: #ffffff"/>
   </g>
   <g id="matplotlib.axis_5">
    <g id="xtick_11">
     <g id="line2d_40">
      <path d="M 88.815625 246.560279 
L 88.815625 157.714125 
" clip-path="url(#p6ee26dad06)" style="fill: none; stroke: #d9d9d9; stroke-width: 0.35; stroke-linecap: square"/>
     </g>
     <g id="line2d_41">
      <g>
       <use xlink:href="#ma9d13fc764" x="88.815625" y="246.560279" style="fill: #252525; stroke: #252525; stroke-width: 0.8"/>
      </g>
     </g>
     <g id="text_32">
      <text style="font-size: 7.5px; font-family: 'Arial', 'Helvetica', 'DejaVu Sans', 'Liberation Sans', sans-serif; text-anchor: middle; fill: #252525" x="88.815625" y="258.928638" transform="rotate(-0 88.815625 258.928638)">0.800</text>
     </g>
    </g>
    <g id="xtick_12">
     <g id="line2d_42">
      <path d="M 137.640625 246.560279 
L 137.640625 157.714125 
" clip-path="url(#p6ee26dad06)" style="fill: none; stroke: #d9d9d9; stroke-width: 0.35; stroke-linecap: square"/>
     </g>
     <g id="line2d_43">
      <g>
       <use xlink:href="#ma9d13fc764" x="137.640625" y="246.560279" style="fill: #252525; stroke: #252525; stroke-width: 0.8"/>
      </g>
     </g>
     <g id="text_33">
      <text style="font-size: 7.5px; font-family: 'Arial', 'Helvetica', 'DejaVu Sans', 'Liberation Sans', sans-serif; text-anchor: middle; fill: #252525" x="137.640625" y="258.928638" transform="rotate(-0 137.640625 258.928638)">0.825</text>
     </g>
    </g>
    <g id="xtick_13">
     <g id="line2d_44">
      <path d="M 186.465625 246.560279 
L 186.465625 157.714125 
" clip-path="url(#p6ee26dad06)" style="fill: none; stroke: #d9d9d9; stroke-width: 0.35; stroke-linecap: square"/>
     </g>
     <g id="line2d_45">
      <g>
       <use xlink:href="#ma9d13fc764" x="186.465625" y="246.560279" style="fill: #252525; stroke: #252525; stroke-width: 0.8"/>
      </g>
     </g>
     <g id="text_34">
      <text style="font-size: 7.5px; font-family: 'Arial', 'Helvetica', 'DejaVu Sans', 'Liberation Sans', sans-serif; text-anchor: middle; fill: #252525" x="186.465625" y="258.928638" transform="rotate(-0 186.465625 258.928638)">0.850</text>
     </g>
    </g>
    <g id="xtick_14">
     <g id="line2d_46">
      <path d="M 235.290625 246.560279 
L 235.290625 157.714125 
" clip-path="url(#p6ee26dad06)" style="fill: none; stroke: #d9d9d9; stroke-width: 0.35; stroke-linecap: square"/>
     </g>
     <g id="line2d_47">
      <g>
       <use xlink:href="#ma9d13fc764" x="235.290625" y="246.560279" style="fill: #252525; stroke: #252525; stroke-width: 0.8"/>
      </g>
     </g>
     <g id="text_35">
      <text style="font-size: 7.5px; font-family: 'Arial', 'Helvetica', 'DejaVu Sans', 'Liberation Sans', sans-serif; text-anchor: middle; fill: #252525" x="235.290625" y="258.928638" transform="rotate(-0 235.290625 258.928638)">0.875</text>
     </g>
    </g>
    <g id="xtick_15">
     <g id="line2d_48">
      <path d="M 284.115625 246.560279 
L 284.115625 157.714125 
" clip-path="url(#p6ee26dad06)" style="fill: none; stroke: #d9d9d9; stroke-width: 0.35; stroke-linecap: square"/>
     </g>
     <g id="line2d_49">
      <g>
       <use xlink:href="#ma9d13fc764" x="284.115625" y="246.560279" style="fill: #252525; stroke: #252525; stroke-width: 0.8"/>
      </g>
     </g>
     <g id="text_36">
      <text style="font-size: 7.5px; font-family: 'Arial', 'Helvetica', 'DejaVu Sans', 'Liberation Sans', sans-serif; text-anchor: middle; fill: #252525" x="284.115625" y="258.928638" transform="rotate(-0 284.115625 258.928638)">0.900</text>
     </g>
    </g>
    <g id="xtick_16">
     <g id="line2d_50">
      <path d="M 332.940625 246.560279 
L 332.940625 157.714125 
" clip-path="url(#p6ee26dad06)" style="fill: none; stroke: #d9d9d9; stroke-width: 0.35; stroke-linecap: square"/>
     </g>
     <g id="line2d_51">
      <g>
       <use xlink:href="#ma9d13fc764" x="332.940625" y="246.560279" style="fill: #252525; stroke: #252525; stroke-width: 0.8"/>
      </g>
     </g>
     <g id="text_37">
      <text style="font-size: 7.5px; font-family: 'Arial', 'Helvetica', 'DejaVu Sans', 'Liberation Sans', sans-serif; text-anchor: middle; fill: #252525" x="332.940625" y="258.928638" transform="rotate(-0 332.940625 258.928638)">0.925</text>
     </g>
    </g>
    <g id="xtick_17">
     <g id="line2d_52">
      <path d="M 381.765625 246.560279 
L 381.765625 157.714125 
" clip-path="url(#p6ee26dad06)" style="fill: none; stroke: #d9d9d9; stroke-width: 0.35; stroke-linecap: square"/>
     </g>
     <g id="line2d_53">
      <g>
       <use xlink:href="#ma9d13fc764" x="381.765625" y="246.560279" style="fill: #252525; stroke: #252525; stroke-width: 0.8"/>
      </g>
     </g>
     <g id="text_38">
      <text style="font-size: 7.5px; font-family: 'Arial', 'Helvetica', 'DejaVu Sans', 'Liberation Sans', sans-serif; text-anchor: middle; fill: #252525" x="381.765625" y="258.928638" transform="rotate(-0 381.765625 258.928638)">0.950</text>
     </g>
    </g>
    <g id="xtick_18">
     <g id="line2d_54">
      <path d="M 430.590625 246.560279 
L 430.590625 157.714125 
" clip-path="url(#p6ee26dad06)" style="fill: none; stroke: #d9d9d9; stroke-width: 0.35; stroke-linecap: square"/>
     </g>
     <g id="line2d_55">
      <g>
       <use xlink:href="#ma9d13fc764" x="430.590625" y="246.560279" style="fill: #252525; stroke: #252525; stroke-width: 0.8"/>
      </g>
     </g>
     <g id="text_39">
      <text style="font-size: 7.5px; font-family: 'Arial', 'Helvetica', 'DejaVu Sans', 'Liberation Sans', sans-serif; text-anchor: middle; fill: #252525" x="430.590625" y="258.928638" transform="rotate(-0 430.590625 258.928638)">0.975</text>
     </g>
    </g>
    <g id="xtick_19">
     <g id="line2d_56">
      <path d="M 479.415625 246.560279 
L 479.415625 157.714125 
" clip-path="url(#p6ee26dad06)" style="fill: none; stroke: #d9d9d9; stroke-width: 0.35; stroke-linecap: square"/>
     </g>
     <g id="line2d_57">
      <g>
       <use xlink:href="#ma9d13fc764" x="479.415625" y="246.560279" style="fill: #252525; stroke: #252525; stroke-width: 0.8"/>
      </g>
     </g>
     <g id="text_40">
      <text style="font-size: 7.5px; font-family: 'Arial', 'Helvetica', 'DejaVu Sans', 'Liberation Sans', sans-serif; text-anchor: middle; fill: #252525" x="479.415625" y="258.928638" transform="rotate(-0 479.415625 258.928638)">1.000</text>
     </g>
    </g>
    <g id="text_41">
     <text style="font-size: 7.5px; font-family: 'Arial', 'Helvetica', 'DejaVu Sans', 'Liberation Sans', sans-serif; text-anchor: middle; fill: #252525" x="293.880625" y="269.879029" transform="rotate(-0 293.880625 269.879029)">Source-bootstrap estimate and 95% CI</text>
    </g>
   </g>
   <g id="matplotlib.axis_6">
    <g id="ytick_13">
     <g id="line2d_58">
      <g>
       <use xlink:href="#m5357596ef1" x="88.815625" y="242.521817" style="fill: #252525; stroke: #252525; stroke-width: 0.8"/>
      </g>
     </g>
     <g id="text_42">
      <text style="font-size: 7.5px; font-family: 'Arial', 'Helvetica', 'DejaVu Sans', 'Liberation Sans', sans-serif; text-anchor: end; fill: #252525" x="81.815625" y="245.205997" transform="rotate(-0 81.815625 245.205997)">MLP accuracy</text>
     </g>
    </g>
    <g id="ytick_14">
     <g id="line2d_59">
      <g>
       <use xlink:href="#m5357596ef1" x="88.815625" y="230.983356" style="fill: #252525; stroke: #252525; stroke-width: 0.8"/>
      </g>
     </g>
     <g id="text_43">
      <text style="font-size: 7.5px; font-family: 'Arial', 'Helvetica', 'DejaVu Sans', 'Liberation Sans', sans-serif; text-anchor: end; fill: #252525" x="81.815625" y="233.667535" transform="rotate(-0 81.815625 233.667535)">MLP acceptable recall</text>
     </g>
    </g>
    <g id="ytick_15">
     <g id="line2d_60">
      <g>
       <use xlink:href="#m5357596ef1" x="88.815625" y="219.444894" style="fill: #252525; stroke: #252525; stroke-width: 0.8"/>
      </g>
     </g>
     <g id="text_44">
      <text style="font-size: 7.5px; font-family: 'Arial', 'Helvetica', 'DejaVu Sans', 'Liberation Sans', sans-serif; text-anchor: end; fill: #252525" x="81.815625" y="222.129074" transform="rotate(-0 81.815625 222.129074)">MLP poor recall</text>
     </g>
    </g>
    <g id="ytick_16">
     <g id="line2d_61">
      <g>
       <use xlink:href="#m5357596ef1" x="88.815625" y="207.906433" style="fill: #252525; stroke: #252525; stroke-width: 0.8"/>
      </g>
     </g>
     <g id="text_45">
      <text style="font-size: 7.5px; font-family: 'Arial', 'Helvetica', 'DejaVu Sans', 'Liberation Sans', sans-serif; text-anchor: end; fill: #252525" x="81.815625" y="210.590612" transform="rotate(-0 81.815625 210.590612)">MLP AUC</text>
     </g>
    </g>
    <g id="ytick_17">
     <g id="line2d_62">
      <g>
       <use xlink:href="#m5357596ef1" x="88.815625" y="196.367971" style="fill: #252525; stroke: #252525; stroke-width: 0.8"/>
      </g>
     </g>
     <g id="text_46">
      <text style="font-size: 7.5px; font-family: 'Arial', 'Helvetica', 'DejaVu Sans', 'Liberation Sans', sans-serif; text-anchor: end; fill: #252525" x="81.815625" y="199.097854" transform="rotate(-0 81.815625 199.097854)">SVM accuracy</text>
     </g>
    </g>
    <g id="ytick_18">
     <g id="line2d_63">
      <g>
       <use xlink:href="#m5357596ef1" x="88.815625" y="184.82951" style="fill: #252525; stroke: #252525; stroke-width: 0.8"/>
      </g>
     </g>
     <g id="text_47">
      <text style="font-size: 7.5px; font-family: 'Arial', 'Helvetica', 'DejaVu Sans', 'Liberation Sans', sans-serif; text-anchor: end; fill: #252525" x="81.815625" y="187.559392" transform="rotate(-0 81.815625 187.559392)">SVM acceptable recall</text>
     </g>
    </g>
    <g id="ytick_19">
     <g id="line2d_64">
      <g>
       <use xlink:href="#m5357596ef1" x="88.815625" y="173.291048" style="fill: #252525; stroke: #252525; stroke-width: 0.8"/>
      </g>
     </g>
     <g id="text_48">
      <text style="font-size: 7.5px; font-family: 'Arial', 'Helvetica', 'DejaVu Sans', 'Liberation Sans', sans-serif; text-anchor: end; fill: #252525" x="81.815625" y="176.020931" transform="rotate(-0 81.815625 176.020931)">SVM poor recall</text>
     </g>
    </g>
    <g id="ytick_20">
     <g id="line2d_65">
      <g>
       <use xlink:href="#m5357596ef1" x="88.815625" y="161.752587" style="fill: #252525; stroke: #252525; stroke-width: 0.8"/>
      </g>
     </g>
     <g id="text_49">
      <text style="font-size: 7.5px; font-family: 'Arial', 'Helvetica', 'DejaVu Sans', 'Liberation Sans', sans-serif; text-anchor: end; fill: #252525" x="81.815625" y="164.436766" transform="rotate(-0 81.815625 164.436766)">SVM AUC</text>
     </g>
    </g>
   </g>
   <g id="LineCollection_1">
    <path d="M 243.231752 242.521817 
L 387.213908 242.521817 
" clip-path="url(#p6ee26dad06)" style="fill: none; stroke: #0f4d92; stroke-width: 1.2"/>
    <path d="M 250.685895 230.983356 
L 430.190588 230.983356 
" clip-path="url(#p6ee26dad06)" style="fill: none; stroke: #0f4d92; stroke-width: 1.2"/>
    <path d="M 171.047204 219.444894 
L 388.153943 219.444894 
" clip-path="url(#p6ee26dad06)" style="fill: none; stroke: #0f4d92; stroke-width: 1.2"/>
    <path d="M 320.442488 207.906433 
L 449.376558 207.906433 
" clip-path="url(#p6ee26dad06)" style="fill: none; stroke: #0f4d92; stroke-width: 1.2"/>
    <path d="M 292.13289 196.367971 
L 415.119329 196.367971 
" clip-path="url(#p6ee26dad06)" style="fill: none; stroke: #b64342; stroke-width: 1.2"/>
    <path d="M 337.357609 184.82951 
L 463.143988 184.82951 
" clip-path="url(#p6ee26dad06)" style="fill: none; stroke: #b64342; stroke-width: 1.2"/>
    <path d="M 192.194627 173.291048 
L 403.126562 173.291048 
" clip-path="url(#p6ee26dad06)" style="fill: none; stroke: #b64342; stroke-width: 1.2"/>
    <path d="M 343.800155 161.752587 
L 450.319817 161.752587 
" clip-path="url(#p6ee26dad06)" style="fill: none; stroke: #b64342; stroke-width: 1.2"/>
   </g>
   <g id="patch_9">
    <path d="M 88.815625 246.560279 
L 88.815625 157.714125 
" style="fill: none; stroke: #252525; stroke-width: 0.75; stroke-linejoin: miter; stroke-linecap: square"/>
   </g>
   <g id="patch_10">
    <path d="M 88.815625 246.560279 
L 498.945625 246.560279 
" style="fill: none; stroke: #252525; stroke-width: 0.75; stroke-linejoin: miter; stroke-linecap: square"/>
   </g>
   <g id="PathCollection_5">
    <defs>
     <path id="C0_0_601d472444" d="M 0 2.12132 
C 0.562581 2.12132 1.102195 1.897805 1.5 1.5 
C 1.897805 1.102195 2.12132 0.562581 2.12132 -0 
C 2.12132 -0.562581 1.897805 -1.102195 1.5 -1.5 
C 1.102195 -1.897805 0.562581 -2.12132 0 -2.12132 
C -0.562581 -2.12132 -1.102195 -1.897805 -1.5 -1.5 
C -1.897805 -1.102195 -2.12132 -0.562581 -2.12132 0 
C -2.12132 0.562581 -1.897805 1.102195 -1.5 1.5 
C -1.102195 1.897805 -0.562581 2.12132 0 2.12132 
z
"/>
    </defs>
    <g clip-path="url(#p6ee26dad06)">
     <use xlink:href="#C0_0_601d472444" x="318.779261" y="242.521817" style="fill: #0f4d92; stroke: #0f4d92"/>
    </g>
    <g clip-path="url(#p6ee26dad06)">
     <use xlink:href="#C0_0_601d472444" x="344.72597" y="230.983356" style="fill: #0f4d92; stroke: #0f4d92"/>
    </g>
    <g clip-path="url(#p6ee26dad06)">
     <use xlink:href="#C0_0_601d472444" x="292.606929" y="219.444894" style="fill: #0f4d92; stroke: #0f4d92"/>
    </g>
    <g clip-path="url(#p6ee26dad06)">
     <use xlink:href="#C0_0_601d472444" x="392.013751" y="207.906433" style="fill: #0f4d92; stroke: #0f4d92"/>
    </g>
    <g clip-path="url(#p6ee26dad06)">
     <use xlink:href="#C0_0_601d472444" x="361.051989" y="196.367971" style="fill: #b64342; stroke: #b64342"/>
    </g>
    <g clip-path="url(#p6ee26dad06)">
     <use xlink:href="#C0_0_601d472444" x="412.070797" y="184.82951" style="fill: #b64342; stroke: #b64342"/>
    </g>
    <g clip-path="url(#p6ee26dad06)">
     <use xlink:href="#C0_0_601d472444" x="309.589538" y="173.291048" style="fill: #b64342; stroke: #b64342"/>
    </g>
    <g clip-path="url(#p6ee26dad06)">
     <use xlink:href="#C0_0_601d472444" x="404.311502" y="161.752587" style="fill: #b64342; stroke: #b64342"/>
    </g>
   </g>
   <g id="text_50">
    <text style="font-weight: 700; font-size: 9px; font-family: 'Arial', 'Helvetica', 'DejaVu Sans', 'Liberation Sans', sans-serif; text-anchor: start; fill: #252525" x="64.207825" y="152.384185" transform="rotate(-0 64.207825 152.384185)">c</text>
   </g>
  </g>
 </g>
 <defs>
  <clipPath id="p825dd18e80">
   <rect x="88.815625" y="19.256279" width="176.780172" height="95.953846"/>
  </clipPath>
  <clipPath id="p220de1acc3">
   <rect x="322.165453" y="19.256279" width="176.780172" height="95.953846"/>
  </clipPath>
  <clipPath id="p6ee26dad06">
   <rect x="88.815625" y="157.714125" width="410.13" height="88.846154"/>
  </clipPath>
 </defs>
</svg>
